<svg xmlns="http://www.w3.org/2000/svg" width="167.947" height="91.293" viewBox="0 0 167.947 91.293"><path d="M104.52 20.788c2.878-9.47 5.396-11.747 11.39-11.747h1.197V6.645h-25.17V9.04h3.595c5.395 0 7.912 2.878 5.275 11.508L85.582 71.373h2.398L64.006 5.445H61.01L40.03 71.373h1.798l-18.58-55.5c-1.438-4.434-.6-6.832 3.596-6.832h4.794V6.645H1.075V9.04h1.798c3.596 0 5.514 1.2 7.432 6.594l25.532 71.92h2.997l20.258-63.41h-1.318l23.614 63.41h2.996L104.52 20.79zM114.37 40.723h10.788c1.2-7.792 4.795-10.19 10.19-10.19 5.392 0 8.39 2.998 8.39 11.39V79.08c0 6.594 4.195 10.19 10.188 10.19 5.395 0 10.55-3.236 12.947-5.634l-1.08-1.438c-1.197.96-2.996 1.678-4.674 1.678-3.597 0-5.995-2.397-5.995-7.79V44.318c0-10.19-4.795-16.783-17.38-16.783-10.19 0-22.177 7.792-23.376 13.186zm29.368 15.582l-12.586 2.997c-14.385 3.356-19.18 8.99-19.18 16.183 0 7.79 5.395 13.186 14.385 13.186 7.79 0 13.186-4.194 17.38-9.59v-1.797c-2.397 2.397-6.593 4.195-11.987 4.195-5.393 0-8.988-2.996-8.988-8.99 0-5.394 3.596-8.63 14.982-11.986l5.994-1.8v-2.397z"/></svg>