<svg xmlns="http://www.w3.org/2000/svg" width="144.332" height="91.294" viewBox="0 0 144.332 91.294"><path d="M42.332 76.504c17.34 6.12 32.13 9.282 56.103 9.282 5.61 0 10.507-.102 14.587-.612l.204 1.53c-10.915 3.06-20.91 4.59-33.662 4.59C35.702 91.294 0 68.344 0 39.272 0 15.302 17.34 0 38.252 0c20.91 0 38.252 15.3 38.252 39.272 0 22.95-16.83 38.762-39.272 38.762l5.1-1.53zm-4.08-.51c15.81 0 27.03-14.995 27.03-36.722S54.063 2.55 38.253 2.55s-27.03 14.995-27.03 36.722 11.22 36.722 27.03 36.722z"/><path d="M88.23 33.662h-2.04v-1.53l15.3-5.61h1.53v51.002h-8.67V40.802c0-6.12-1.02-7.14-6.12-7.14zm-2.042 41.822h6.63c1.02 0 1.53-.51 1.53-1.53v3.57h-8.16v-2.04zm49.983 2.04h-8.67V43.862c0-8.16-3.365-11.935-10.71-11.935-5.61 0-10.2 2.754-14.28 8.875v-2.55c4.59-7.344 11.22-12.75 19.38-12.75 8.67 0 14.282 6.12 14.282 17.85v34.172zm-33.15 0v-3.57c0 1.02.51 1.53 1.53 1.53h6.63v2.04h-8.16zm16.32-2.04h6.63c1.02 0 1.53-.51 1.53-1.53v3.57h-8.16v-2.04zm16.83 2.04v-3.57c0 1.02.51 1.53 1.53 1.53h6.63v2.04h-8.16z"/></svg>