<?xml version="1.0" encoding="utf-8"?>
<!-- Generator: Adobe Illustrator 16.0.0, SVG Export Plug-In . SVG Version: 6.00 Build 0)  -->
<!DOCTYPE svg PUBLIC "-//W3C//DTD SVG 1.1//EN" "http://www.w3.org/Graphics/SVG/1.1/DTD/svg11.dtd">
<svg version="1.1"
	 id="Calque_1" xmlns:dc="http://purl.org/dc/elements/1.1/" xmlns:cc="http://creativecommons.org/ns#" xmlns:rdf="http://www.w3.org/1999/02/22-rdf-syntax-ns#" xmlns:svg="http://www.w3.org/2000/svg" xmlns:sodipodi="http://sodipodi.sourceforge.net/DTD/sodipodi-0.dtd" xmlns:inkscape="http://www.inkscape.org/namespaces/inkscape" inkscape:version="0.91 r13725" sodipodi:docname="pictofeaturesexportfonts.svg"
	 xmlns="http://www.w3.org/2000/svg" xmlns:xlink="http://www.w3.org/1999/xlink" x="0px" y="0px" width="239.6px"
	 height="247.421px" viewBox="0 0 239.6 247.421" enable-background="new 0 0 239.6 247.421" xml:space="preserve">
<sodipodi:namedview  inkscape:pageopacity="0" inkscape:pageshadow="2" inkscape:window-width="1478" inkscape:window-height="805" inkscape:window-x="10" inkscape:window-y="34" inkscape:window-maximized="0" inkscape:current-layer="Calque_1" id="namedview82" borderopacity="1" pagecolor="#ffffff" bordercolor="#666666" objecttolerance="10" gridtolerance="10" guidetolerance="10" showgrid="false" inkscape:zoom="2.0013399" inkscape:cx="59.846447" inkscape:cy="164.92152">
	</sodipodi:namedview>
<rect id="rect3" x="-1404.418" y="-242" display="none" fill="#3C3C3B" width="2252" height="1043"/>
<g id="g5" transform="translate(0,12.491631)">
	<path id="path7" inkscape:connector-curvature="0" opacity="0.1" enable-background="new    " d="M136.527,185.154
		c0.216,1.481-0.812,2.858-2.295,3.074L26.866,203.811c-1.482,0.215-2.859-0.812-3.074-2.295L0.028,37.782
		c-0.215-1.482,0.812-2.859,2.295-3.074L109.69,19.126c1.481-0.215,2.858,0.812,3.074,2.295L136.527,185.154L136.527,185.154z"/>
	<path id="path9" inkscape:connector-curvature="0" fill="#999999" d="M139.527,182.154c0.216,1.481-0.812,2.858-2.295,3.074
		L29.866,200.811c-1.482,0.215-2.859-0.812-3.074-2.295L3.028,34.782C2.813,33.3,3.84,31.923,5.323,31.708L112.69,16.126
		c1.481-0.215,2.858,0.812,3.074,2.295L139.527,182.154L139.527,182.154z"/>
	<path id="path11" inkscape:connector-curvature="0" opacity="0.1" enable-background="new    " d="M157.814,198.712
		c0.117,1.679-1.148,3.131-2.826,3.248l-121.504,8.45c-1.678,0.115-3.132-1.15-3.249-2.826L17.351,22.288
		c-0.117-1.678,1.148-3.132,2.826-3.249l121.504-8.448c1.678-0.117,3.132,1.149,3.249,2.826L157.814,198.712z"/>
	<path id="path13" inkscape:connector-curvature="0" fill="#CCCCCC" d="M160.814,195.712c0.117,1.679-1.148,3.131-2.826,3.248
		l-121.504,8.45c-1.678,0.115-3.132-1.15-3.249-2.826L20.351,19.288c-0.117-1.678,1.148-3.132,2.826-3.249l121.504-8.448
		c1.678-0.117,3.132,1.149,3.249,2.826L160.814,195.712z"/>
	<path id="path15" inkscape:connector-curvature="0" opacity="0.1" enable-background="new    " d="M193.582,39v175
		c0,1.656-1.344,3-3,3h-150c-1.657,0-3-1.344-3-3V6c0-1.657,1.343-3,3-3h117"/>
	<path id="path17" inkscape:connector-curvature="0" fill="#FFFFFF" d="M196.582,36v175c0,1.656-1.344,3-3,3h-150
		c-1.657,0-3-1.344-3-3V3c0-1.657,1.343-3,3-3h117"/>
	<rect id="rect19" x="62.407" y="57.103" fill="none" width="112.35" height="158.387"/>
	<g id="g21" enable-background="new    ">
		<path id="path23" inkscape:connector-curvature="0" fill="#FA7063" d="M63.667,76.123c0-0.699,0.221-1.254,0.66-1.664
			s1.021-0.615,1.739-0.615c0.761,0,1.36,0.205,1.801,0.615c0.439,0.41,0.659,0.965,0.659,1.664c0,0.701-0.22,1.261-0.659,1.681
			c-0.439,0.42-1.04,0.63-1.801,0.63c-0.72,0-1.3-0.21-1.739-0.63C63.887,77.384,63.667,76.824,63.667,76.123z"/>
		<path id="path25" inkscape:connector-curvature="0" fill="#FA7063" d="M71.917,67.604c0-3.5,0.771-6.195,2.311-8.085
			s3.738-2.835,6.601-2.835c1.5,0,2.811,0.26,3.93,0.78c1.12,0.52,2.051,1.26,2.79,2.22c0.74,0.96,1.29,2.11,1.649,3.45
			c0.36,1.34,0.54,2.83,0.54,4.47c0,3.5-0.774,6.195-2.324,8.085c-1.551,1.89-3.745,2.835-6.585,2.835
			c-1.521,0-2.841-0.26-3.96-0.78c-1.12-0.52-2.045-1.26-2.775-2.22c-0.729-0.96-1.274-2.109-1.635-3.45
			C72.097,70.733,71.917,69.244,71.917,67.604z M76.237,67.604c0,1.061,0.091,2.035,0.271,2.925
			c0.181,0.891,0.455,1.655,0.825,2.295c0.37,0.641,0.845,1.141,1.425,1.5c0.58,0.36,1.271,0.54,2.07,0.54
			c1.46,0,2.59-0.569,3.39-1.71c0.801-1.14,1.2-2.989,1.2-5.55c0-1.02-0.085-1.97-0.255-2.85s-0.436-1.65-0.795-2.311
			c-0.36-0.66-0.83-1.175-1.41-1.545c-0.581-0.37-1.29-0.555-2.13-0.555c-1.46,0-2.591,0.585-3.391,1.755
			C76.637,63.269,76.237,65.104,76.237,67.604z"/>
		<path id="path27" inkscape:connector-curvature="0" fill="#FA7063" d="M107.407,60.764h-6.12v17.34h-4.108v-17.34h-6.15v-3.66
			h16.381L107.407,60.764L107.407,60.764z"/>
		<path id="path29" inkscape:connector-curvature="0" fill="#FA7063" d="M110.527,57.104h12.45v3.66h-8.339v5.189h7.679v3.66h-7.679
			v8.49h-4.11L110.527,57.104L110.527,57.104z"/>
	</g>
	<g id="g31" enable-background="new    ">
	</g>
	<g id="g41" enable-background="new    ">
	</g>
	<g id="g53" enable-background="new    ">
	</g>
	<line id="line63" fill="none" stroke="#E6E6E6" stroke-miterlimit="10" x1="62.582" y1="85.5" x2="196.582" y2="85.5"/>
	<path id="path69" inkscape:connector-curvature="0" fill="#FFFFFF" d="M170.582,0"/>
	<path id="path71" inkscape:connector-curvature="0" fill="#CCCCCC" d="M160.582,0l36,36c0,0-30.179,0-33,0c-1.901,0-3-1.643-3-3
		C160.582,31.644,160.582,0,160.582,0z"/>
	<g id="g73">
		<circle id="circle75" opacity="0.1" enable-background="new    " cx="193.757" cy="193" r="42.842"/>
		<circle id="circle77" fill="#FA7063" cx="196.757" cy="190" r="42.842"/>
		<g id="Download">
			<path id="path80" inkscape:connector-curvature="0" fill="#FFFFFF" d="M193.31,210.025c0.851,0.852,1.941,1.295,3.054,1.371
				c0.133,0.01,0.26,0.039,0.394,0.039s0.26-0.027,0.39-0.039c1.114-0.074,2.207-0.519,3.059-1.371l14.913-14.957
				c1.866-1.869,1.866-4.902,0-6.773c-1.867-1.871-4.895-1.871-6.763,0l-6.883,6.902v-22.424c0-2.604-2.111-4.715-4.716-4.715
				s-4.715,2.11-4.715,4.715v22.424l-6.883-6.902c-1.867-1.871-4.896-1.871-6.763,0s-1.867,4.902,0,6.773L193.31,210.025
				L193.31,210.025z"/>
		</g>
	</g>
</g>
<rect x="62.825" y="109.57" fill="none" width="103.198" height="90.708"/>
<g enable-background="new    ">
	<path fill="#005A87" d="M76.028,111.233v-1.663h1.65V114h-1.574c-0.99-1.955-2.78-2.945-4.875-2.945
		c-3.377,0-5.294,2.45-5.294,5.802c0,3.339,1.892,5.84,5.484,5.84c3.352,0,4.646-1.409,4.85-4.024h-2.882v-1.612h5.167
		c-0.114,5.332-3.161,7.389-7.147,7.389c-6.335,0-7.731-4.697-7.731-7.604c0-3.364,1.892-7.503,7.439-7.503
		C73.172,109.341,74.911,110.128,76.028,111.233z"/>
	<path fill="#005A87" d="M79.519,122.646h1.93v-5.802v-5.738h-1.892v-1.536h3.783v13.089h1.688v1.549h-5.51V122.646z"/>
	<path fill="#005A87" d="M87.276,128.74l0.051-1.549c0,0,0.711,0.127,1.396,0.127c1.219,0,1.625-0.432,2.615-4.012l-1.206,0.013
		l-3.352-7.808h-1.587v-1.523h5.154v1.562h-1.371l2.564,6.602h0.254l1.092-3.428l0.952-3.187h-1.46v-1.549h5.243v1.562h-1.638
		l-2.742,8.201c-1.143,3.225-1.676,5.154-4.113,5.154C88.177,128.905,87.276,128.74,87.276,128.74z"/>
	<path fill="#005A87" d="M97.839,127.305h1.942v-5.929v-5.865h-1.79v-1.523h3.707c0,0,0.051,1.346,0.063,1.346
		c0.939-1.003,2.184-1.523,3.555-1.523c3.161,0,5.065,2.374,5.065,5.319c0,2.907-2.006,5.319-5.091,5.319
		c-1.371,0-2.679-0.47-3.631-1.346c0,0.292,0.013,4.202,0.013,4.202l2.069,0.013v1.562h-5.903V127.305z M108.414,119.066
		c0-2.069-1.27-3.669-3.377-3.669c-1.904,0-3.364,1.282-3.402,2.983c-0.013,0.025-0.013,1.498-0.013,1.523
		c0.102,1.701,1.447,2.907,3.326,2.907C107.157,122.811,108.414,121.275,108.414,119.066z"/>
	<path fill="#005A87" d="M111.27,122.646h1.93v-5.764v-5.776h-1.904v-1.536h3.809c0,0-0.013,5.04-0.013,5.421
		c1.117-0.8,2.247-1.181,3.479-1.181c2.019,0,3.123,1.155,3.123,3.339c0,0.165-0.012,5.497-0.012,5.497l1.828,0.025v1.536h-5.002
		v-1.536h1.295v-5.167c0-1.168-0.33-2.209-1.65-2.209c-0.914,0-2.057,0.419-3.06,1.155v6.208h1.841v1.549h-5.662V122.646z"/>
	<path fill="#005A87" d="M124.474,122.646h2.043v-7.135h-2.119v-1.523h3.592c0,0,0.064,1.993,0.09,2.222
		c0.686-1.625,1.955-2.399,3.389-2.399c0.191,0,1.512,0.051,1.512,0.051l-0.064,1.777c-0.037-0.025-1.117-0.038-1.244-0.038
		c-2.5,0-3.25,1.473-3.25,3.783v3.275h2.234v1.549h-6.182V122.646z"/>
</g>
<g enable-background="new    ">
	<path fill="#005A87" d="M65.758,145.103c-0.013,0-0.025,1.016-0.038,1.016c-0.051-0.025-1.676-0.038-1.676-0.038v-4.786h1.638
		c0,0,0.025,1.206,0.025,1.346c0.939,1.384,2.107,2.158,3.631,2.158c1.803,0,2.945-1.143,2.945-2.577
		c0-1.803-1.841-2.234-4.101-2.742c-2.311-0.495-4.24-1.435-4.24-4.177c0-2.603,2.031-3.961,4.583-3.961
		c1.231,0,2.387,0.368,3.352,1.041c0.013,0.013,0.038-0.812,0.038-0.812h1.676v4.151h-1.638c0,0-0.025-1.016-0.025-1.168
		c-0.8-1.054-1.841-1.562-3.263-1.562c-1.892,0-2.869,0.876-2.869,2.082c0,2.983,4.964,1.79,7.312,4.037
		c0.812,0.774,1.27,1.917,1.27,3.085c0,2.412-1.968,4.253-4.862,4.253C68.068,146.449,66.799,145.979,65.758,145.103z"/>
	<path fill="#005A87" d="M75.431,135.988h1.612v-2.133l1.879-1.549v3.682h2.069v1.549h-2.069v2.704c0,0.521,0,3.352,0.051,3.529
		c0.038,0.698,0.432,0.939,1.028,0.939c0.292,0,0.635-0.063,0.99-0.178v1.612c-0.444,0.114-0.939,0.203-1.371,0.203
		c-1.46,0-2.488-0.635-2.552-2.438c0,0-0.063-3.072-0.063-3.567v-2.806h-1.574V135.988z"/>
	<path fill="#005A87" d="M90.234,144.938c-1.104,0.99-2.209,1.511-3.453,1.511c-2.234,0-3.148-1.371-3.148-3.555
		c0-0.203,0.025-5.345,0.025-5.345l-1.562-0.038v-1.523h3.453v6.817c0,1.32,0.419,2.057,1.587,2.057
		c1.181,0,2.311-0.762,3.098-1.828v-5.497h-1.841v-1.549h3.758v8.684h1.854v1.536h-3.707
		C90.298,146.208,90.26,145.154,90.234,144.938z"/>
	<path fill="#005A87" d="M105.608,131.57v13.102h1.93v1.536h-3.859l-0.013-1.257c-1.079,1.041-2.222,1.498-3.631,1.498
		c-2.628,0-5.091-1.841-5.091-5.319c0-2.869,2.006-5.319,5.129-5.319c1.447,0,2.653,0.47,3.656,1.346
		c0-0.305-0.025-4.012-0.025-4.012l-2.031-0.038v-1.536H105.608z M103.729,141.726c0-0.063-0.013-1.536-0.013-1.587
		c-0.178-1.663-1.498-2.793-3.377-2.793c-2.069,0-3.377,1.638-3.377,3.745c0,2.209,1.244,3.771,3.402,3.771
		C102.345,144.862,103.729,143.542,103.729,141.726z"/>
	<path fill="#005A87" d="M108.553,144.633h1.714v-7.122h-1.714v-1.523h3.605v8.671h1.727v1.549h-5.332V144.633z M111.194,131.57
		c0.647,0,1.168,0.482,1.168,1.104s-0.521,1.104-1.168,1.104s-1.155-0.482-1.155-1.104S110.547,131.57,111.194,131.57z"/>
	<path fill="#005A87" d="M114.888,141.104c0-2.933,2.095-5.294,5.421-5.294c3.301,0,5.408,2.361,5.408,5.294
		s-2.121,5.345-5.434,5.345C116.983,146.449,114.888,144.037,114.888,141.104z M123.687,141.104c0-2.069-1.309-3.669-3.403-3.669
		c-2.069,0-3.377,1.6-3.377,3.669s1.308,3.605,3.377,3.605C122.378,144.709,123.687,143.173,123.687,141.104z"/>
</g>
</svg>
