<?xml version="1.0" encoding="utf-8"?>
<!-- Generator: Adobe Illustrator 17.0.2, SVG Export Plug-In . SVG Version: 6.00 Build 0)  -->
<!DOCTYPE svg PUBLIC "-//W3C//DTD SVG 1.1//EN" "http://www.w3.org/Graphics/SVG/1.1/DTD/svg11.dtd">
<svg version="1.1" id="Calque_1" xmlns="http://www.w3.org/2000/svg" xmlns:xlink="http://www.w3.org/1999/xlink" x="0px" y="0px"
	 width="266px" height="197px" viewBox="0 0 266 197" enable-background="new 0 0 266 197" xml:space="preserve">
<rect x="-1061" y="-259" display="none" fill="#3C3C3B" width="2252" height="1043"/>
<g>
	<path id="XMLID_9_" opacity="0.1" enable-background="new    " d="M156,194c0,1.657-1.343,3-3,3H6c-1.657,0-3-1.343-3-3V6
		c0-1.657,1.343-3,3-3h147c2.714,0,3,1.247,3,3V194z"/>
	<path id="XMLID_4_" fill="#FFFFFF" d="M153,191c0,1.657-1.343,3-3,3H3c-1.657,0-3-1.343-3-3V3c0-1.657,1.343-3,3-3h147
		c2.714,0,3,1.247,3,3V191z"/>
	<path fill="#E6E6E6" d="M0,17V2.5C0,0.843,1.843,0,3.5,0h147c1.657,0,2.5,0.843,2.5,2.5V17"/>
	<circle fill="#FFFFFF" cx="7.833" cy="8.5" r="2.833"/>
	<circle fill="#FFFFFF" cx="16.833" cy="8.5" r="2.833"/>
	<circle fill="#FFFFFF" cx="25.833" cy="8.5" r="2.833"/>
	<path id="XMLID_8_" opacity="0.1" enable-background="new    " d="M266,124c0,1.657-1.343,3-3,3h-98c-1.657,0-3-1.343-3-3V6
		c0-1.657,1.343-3,3-3h98c2.627,0,3,1.343,3,3V124z"/>
	<path id="XMLID_5_" fill="#FFFFFF" d="M263,121c0,1.657-1.343,3-3,3h-98c-1.657,0-3-1.343-3-3V3c0-1.657,1.343-3,3-3h98
		c2.627,0,3,1.343,3,3V121z"/>
	<path fill="#E6E6E6" d="M159,17V2.5c0-1.657,1.843-2.5,3.5-2.5h98c1.657,0,2.5,0.843,2.5,2.5V17"/>
	<circle fill="#FFFFFF" cx="166.833" cy="8.5" r="2.833"/>
	<circle fill="#FFFFFF" cx="175.833" cy="8.5" r="2.833"/>
	<circle fill="#FFFFFF" cx="184.833" cy="8.5" r="2.833"/>
	<path id="XMLID_7_" opacity="0.1" enable-background="new    " d="M266,194c0,1.657-1.343,3-3,3h-98c-1.657,0-3-1.343-3-3v-58
		c0-1.657,1.343-3,3-3h98c2.656,0,3,1.168,3,3V194z"/>
	<path id="XMLID_6_" fill="#ED544C" d="M263,191c0,1.657-1.343,3-3,3h-98c-1.657,0-3-1.343-3-3v-58c0-1.657,1.343-3,3-3h98
		c2.656,0,3,1.168,3,3V191z"/>
	<path fill="#FA7063" d="M159,147v-14.5c0-1.657,1.843-2.5,3.5-2.5h98c1.657,0,2.5,0.843,2.5,2.5V147"/>
	<circle fill="#FFFFFF" cx="166.833" cy="138.5" r="2.833"/>
	<circle fill="#FFFFFF" cx="175.833" cy="138.5" r="2.833"/>
	<circle fill="#FFFFFF" cx="184.833" cy="138.5" r="2.833"/>
	<rect x="23" y="52" fill="#3C3C3B" width="102" height="6"/>
	<rect x="23" y="64" fill="#3C3C3B" width="108" height="6"/>
	<rect x="23" y="76" fill="#3C3C3B" width="84" height="6"/>
	<rect x="23" y="88" fill="#3C3C3B" width="96" height="6"/>
	<rect x="23" y="100" fill="#3C3C3B" width="78" height="6"/>
	<rect x="23" y="112" fill="#3C3C3B" width="90" height="6"/>
	<rect x="23" y="124" fill="#3C3C3B" width="102" height="6"/>
	<rect x="23" y="136" fill="#3C3C3B" width="84" height="6"/>
	<rect x="23" y="148" fill="#3C3C3B" width="64" height="6"/>
	<rect x="159" y="43.5" fill="none" width="99" height="76.5"/>
	<g enable-background="new    ">
		<path fill="#3C3C3B" d="M216.7,87.1h-17.2l-4.24,12.4h-10.959l20.16-56.4h8.08l20.16,56.4H221.18L216.7,87.1z M202.301,78.3h12
			l-4.16-12.48l-1.68-8.8h-0.4l-1.68,8.88L202.301,78.3z"/>
	</g>
	<g>
		<path fill="#FFFFFF" d="M176.316,171.083l0.169,1.612h0.052l0.182-1.638l1.586-5.057h1.17l1.56,5.083l0.182,1.612h0.052
			l0.199-1.638l1.127-5.057h1.781l-2.509,9.165h-1.196l-1.625-5.057l-0.221-1.391h-0.065l-0.221,1.404l-1.612,5.044h-1.261
			L173.17,166h1.937L176.316,171.083z"/>
		<path fill="#FFFFFF" d="M184.117,171.85c0-1.101,0.269-1.948,0.806-2.542c0.538-0.594,1.292-0.891,2.262-0.891
			c0.52,0,0.971,0.083,1.352,0.247s0.697,0.396,0.949,0.696c0.251,0.299,0.44,0.661,0.565,1.085
			c0.126,0.424,0.188,0.893,0.188,1.404c0,1.101-0.266,1.948-0.799,2.542c-0.533,0.594-1.285,0.891-2.255,0.891
			c-0.52,0-0.971-0.083-1.352-0.247s-0.7-0.396-0.956-0.696c-0.256-0.299-0.446-0.661-0.572-1.085S184.117,172.361,184.117,171.85z
			 M185.858,171.85c0,0.286,0.026,0.55,0.078,0.793s0.13,0.455,0.234,0.637c0.104,0.182,0.241,0.323,0.41,0.422
			s0.371,0.149,0.604,0.149c0.442,0,0.771-0.16,0.988-0.481c0.217-0.32,0.325-0.828,0.325-1.521c0-0.598-0.1-1.081-0.299-1.45
			c-0.2-0.368-0.538-0.552-1.014-0.552c-0.416,0-0.741,0.156-0.975,0.468S185.858,171.14,185.858,171.85z"/>
		<path fill="#FFFFFF" d="M194.998,170.186c-0.269-0.095-0.512-0.143-0.728-0.143c-0.304,0-0.557,0.081-0.761,0.241
			s-0.34,0.366-0.409,0.617v4.199h-1.69v-6.5h1.313l0.195,0.858h0.052c0.147-0.32,0.347-0.567,0.598-0.741s0.546-0.26,0.884-0.26
			c0.225,0,0.481,0.048,0.767,0.143L194.998,170.186z"/>
		<path fill="#FFFFFF" d="M201.498,172.812c0,0.364,0.004,0.728,0.013,1.092s0.048,0.767,0.117,1.209h-1.209l-0.234-0.845h-0.052
			c-0.173,0.304-0.422,0.548-0.748,0.734c-0.325,0.187-0.708,0.28-1.15,0.28c-0.814,0-1.447-0.269-1.898-0.806
			c-0.451-0.537-0.676-1.378-0.676-2.522c0-1.109,0.251-1.972,0.754-2.587c0.502-0.615,1.239-0.923,2.21-0.923
			c0.269,0,0.489,0.015,0.663,0.045c0.173,0.03,0.346,0.08,0.52,0.149V166h1.69L201.498,172.812L201.498,172.812z M198.625,173.852
			c0.329,0,0.589-0.08,0.78-0.24c0.191-0.161,0.325-0.392,0.403-0.696v-2.756c-0.122-0.095-0.256-0.167-0.403-0.214
			c-0.147-0.048-0.338-0.072-0.572-0.072c-0.477,0-0.834,0.161-1.073,0.481c-0.238,0.321-0.357,0.871-0.357,1.651
			c0,0.555,0.098,1.001,0.292,1.339C197.89,173.683,198.2,173.852,198.625,173.852z"/>
		<path fill="#FFFFFF" d="M206.269,168.6h1.235l0.195,0.78h0.052c0.225-0.329,0.492-0.572,0.799-0.728
			c0.308-0.156,0.683-0.234,1.125-0.234c0.814,0,1.426,0.258,1.833,0.773c0.407,0.516,0.611,1.346,0.611,2.49
			c0,0.555-0.065,1.055-0.195,1.501s-0.323,0.826-0.579,1.138s-0.567,0.55-0.936,0.715c-0.368,0.165-0.791,0.247-1.268,0.247
			c-0.269,0-0.49-0.02-0.663-0.059c-0.174-0.039-0.347-0.102-0.52-0.188v2.665h-1.69v-9.1H206.269z M209.167,169.848
			c-0.33,0-0.587,0.083-0.773,0.247c-0.187,0.165-0.332,0.412-0.436,0.741v2.704c0.121,0.096,0.253,0.171,0.396,0.228
			c0.143,0.057,0.332,0.084,0.565,0.084c0.485,0,0.849-0.171,1.092-0.514c0.243-0.342,0.364-0.908,0.364-1.696
			c0-0.572-0.096-1.014-0.286-1.326C209.899,170.004,209.592,169.848,209.167,169.848z"/>
		<path fill="#FFFFFF" d="M216.876,170.186c-0.269-0.095-0.512-0.143-0.728-0.143c-0.304,0-0.557,0.081-0.761,0.241
			s-0.34,0.366-0.409,0.617v4.199h-1.69v-6.5h1.313l0.195,0.858h0.052c0.147-0.32,0.347-0.567,0.598-0.741s0.546-0.26,0.884-0.26
			c0.225,0,0.481,0.048,0.767,0.143L216.876,170.186z"/>
		<path fill="#FFFFFF" d="M223.051,174.541c-0.26,0.208-0.613,0.384-1.06,0.526c-0.446,0.143-0.921,0.215-1.423,0.215
			c-1.049,0-1.816-0.306-2.301-0.917c-0.486-0.611-0.728-1.45-0.728-2.516c0-1.144,0.273-2.002,0.819-2.574s1.313-0.858,2.301-0.858
			c0.33,0,0.65,0.043,0.962,0.13c0.312,0.086,0.589,0.229,0.832,0.429s0.438,0.468,0.585,0.806s0.221,0.758,0.221,1.261
			c0,0.182-0.011,0.377-0.032,0.585c-0.022,0.208-0.054,0.425-0.097,0.65h-3.888c0.026,0.546,0.167,0.958,0.421,1.235
			c0.254,0.277,0.667,0.416,1.237,0.416c0.354,0,0.671-0.054,0.952-0.163s0.494-0.219,0.641-0.332L223.051,174.541z M220.639,169.77
			c-0.44,0-0.765,0.132-0.977,0.396c-0.211,0.265-0.338,0.618-0.381,1.06h2.405c0.034-0.468-0.037-0.828-0.213-1.079
			C221.296,169.896,221.018,169.77,220.639,169.77z"/>
		<path fill="#FFFFFF" d="M226.523,172.006l0.221,1.001h0.065l0.182-1.027l1.105-3.38h1.82l-2.717,6.565h-1.027l-2.821-6.565h1.963
			L226.523,172.006z"/>
		<path fill="#FFFFFF" d="M230.371,166.767c0-0.251,0.093-0.466,0.279-0.644c0.186-0.177,0.444-0.267,0.773-0.267
			s0.596,0.089,0.799,0.267c0.204,0.178,0.306,0.392,0.306,0.644s-0.102,0.461-0.306,0.63s-0.47,0.253-0.799,0.253
			c-0.33,0-0.587-0.084-0.773-0.253C230.463,167.229,230.371,167.019,230.371,166.767z M230.617,168.6h1.69v6.5h-1.69V168.6z"/>
		<path fill="#FFFFFF" d="M239.171,174.541c-0.26,0.208-0.613,0.384-1.06,0.526c-0.446,0.143-0.921,0.215-1.423,0.215
			c-1.049,0-1.816-0.306-2.301-0.917c-0.486-0.611-0.728-1.45-0.728-2.516c0-1.144,0.273-2.002,0.819-2.574s1.313-0.858,2.301-0.858
			c0.33,0,0.65,0.043,0.962,0.13c0.312,0.086,0.589,0.229,0.832,0.429s0.438,0.468,0.585,0.806s0.221,0.758,0.221,1.261
			c0,0.182-0.011,0.377-0.032,0.585c-0.022,0.208-0.054,0.425-0.097,0.65h-3.888c0.026,0.546,0.167,0.958,0.421,1.235
			c0.254,0.277,0.667,0.416,1.237,0.416c0.354,0,0.671-0.054,0.952-0.163s0.494-0.219,0.641-0.332L239.171,174.541z M236.759,169.77
			c-0.44,0-0.765,0.132-0.977,0.396c-0.211,0.265-0.338,0.618-0.381,1.06h2.405c0.034-0.468-0.037-0.828-0.213-1.079
			C237.417,169.896,237.138,169.77,236.759,169.77z"/>
		<path fill="#FFFFFF" d="M245.216,168.6l1.183,3.328l0.234,1.079h0.052l0.182-1.092l0.832-3.315h1.547l-2.002,6.565h-1.248
			l-1.313-3.64l-0.169-0.819h-0.065l-0.156,0.832l-1.248,3.627h-1.287l-2.093-6.565h1.833l0.949,3.263l0.156,1.157h0.065l0.221-1.17
			l1.079-3.25H245.216z"/>
	</g>
</g>
</svg>
