<?xml version="1.0" encoding="utf-8"?>
<!-- Generator: Adobe Illustrator 17.0.2, SVG Export Plug-In . SVG Version: 6.00 Build 0)  -->
<!DOCTYPE svg PUBLIC "-//W3C//DTD SVG 1.1//EN" "http://www.w3.org/Graphics/SVG/1.1/DTD/svg11.dtd">
<svg version="1.1" id="Calque_1" xmlns="http://www.w3.org/2000/svg" xmlns:xlink="http://www.w3.org/1999/xlink" x="0px" y="0px"
	 width="281.053px" height="228.447px" viewBox="0 0 281.053 228.447" enable-background="new 0 0 281.053 228.447"
	 xml:space="preserve">
<rect x="-1052.909" y="-521.599" display="none" fill="#3C3C3B" width="2252" height="1043"/>
<g>
	<g>
		<path opacity="0.1" d="M251.477,225.917c-0.26,1.636-1.798,2.752-3.434,2.491l-128.385-20.425
			c-1.636-0.26-2.752-1.798-2.491-3.434l29.538-185.665c0.26-1.636,1.798-2.752,3.434-2.491l128.385,20.425
			c1.636,0.26,2.752,1.798,2.491,3.434L251.477,225.917z"/>
		<path fill="#FFFFFF" d="M248.477,221.917c-0.26,1.636-1.798,2.752-3.434,2.491l-128.385-20.425
			c-1.636-0.26-2.752-1.798-2.491-3.434l29.538-185.665c0.26-1.636,1.798-2.752,3.434-2.491l128.385,20.425
			c1.636,0.26,2.752,1.798,2.491,3.434L248.477,221.917z"/>
		<g>
			<g>
				<path fill="#3C3C3B" d="M175.978,51.287c-0.11,0.688-0.101,1.203,0.026,1.546c0.127,0.343,0.387,0.545,0.78,0.608
					c0.236,0.037,0.469,0.055,0.702,0.051c0.232-0.003,0.526-0.047,0.882-0.132l-0.066,3.072c-0.34,0.108-0.846,0.188-1.519,0.242
					c-0.673,0.054-1.354,0.026-2.042-0.083c-1.12-0.178-1.934-0.575-2.44-1.189c-0.507-0.614-0.665-1.521-0.474-2.72l2.814-17.687
					l3.832,0.61L175.978,51.287z"/>
				<path fill="#3C3C3B" d="M180.719,42.007l2.034,0.324l0.441-2.771l4.006-0.481l-0.614,3.862l3.596,0.572l-0.516,3.243
					l-3.596-0.572l-0.9,5.66c-0.163,1.022-0.176,1.77-0.04,2.245c0.136,0.475,0.489,0.758,1.059,0.848
					c0.393,0.063,0.738,0.077,1.036,0.044c0.297-0.033,0.635-0.1,1.014-0.201l0.209,3.056c-0.571,0.171-1.224,0.289-1.96,0.353
					c-0.736,0.064-1.468,0.038-2.194-0.077c-1.356-0.216-2.298-0.723-2.826-1.522c-0.528-0.799-0.665-1.995-0.412-3.587l1.182-7.429
					l-2.034-0.324L180.719,42.007z"/>
				<path fill="#3C3C3B" d="M190.062,56.611c0.109-0.688,0.412-1.198,0.909-1.533c0.496-0.334,1.098-0.445,1.806-0.333
					c0.747,0.119,1.304,0.414,1.672,0.886c0.368,0.472,0.498,1.051,0.389,1.739c-0.11,0.688-0.414,1.204-0.911,1.548
					c-0.498,0.344-1.12,0.456-1.867,0.338c-0.707-0.113-1.245-0.409-1.611-0.891C190.081,57.883,189.953,57.299,190.062,56.611z"/>
			</g>
			<path fill="#00C4D6" d="M168.498,52.619c0.112-0.821,0.25-1.737,0.384-2.554l1.43-9.046c-0.257-0.14-0.576-0.323-0.968-0.496
				c-0.393-0.174-0.819-0.356-1.283-0.522c-0.462-0.164-0.954-0.323-1.471-0.454c-0.52-0.137-1.04-0.247-1.57-0.333
				c-2.459-0.401-4.454-0.038-5.991,1.095c-1.535,1.13-2.519,3.004-2.942,5.619c-0.406,2.498-0.226,4.439,0.539,5.824
				c0.767,1.384,1.951,2.21,3.764,2.507c0.06,0.008,0.068,0.007,0.068,0.007c1.552,0.252,2.022-0.091,2.82-0.392
				c0.798-0.299,1.555-0.745,2.093-1.593l0.115,0.022l0.084,2.819l2.716,0.441C168.385,53.991,168.38,53.438,168.498,52.619
				 M160.206,49.782c-0.348-0.818-0.406-1.938-0.175-3.362c0.244-1.502,0.692-2.604,1.335-3.299c0.642-0.695,1.48-0.961,2.516-0.794
				c0.47,0.079,0.659,0.134,1.023,0.241c0.361,0.11,0.747,0.277,0.722,0.435l-1.074,6.586c-0.107,0.663-0.487,1.113-0.938,1.377
				c-0.457,0.27-0.94,0.357-1.682,0.239C161.052,51.061,160.554,50.6,160.206,49.782"/>
		</g>
		<g>
			<g>
				<path fill="#3C3C3B" d="M216.341,185.537c0.11-0.688,0.101-1.203-0.026-1.546c-0.127-0.343-0.387-0.545-0.78-0.608
					c-0.236-0.037-0.469-0.055-0.702-0.051c-0.232,0.003-0.526,0.047-0.882,0.132l0.066-3.072c0.34-0.108,0.846-0.188,1.519-0.242
					c0.673-0.054,1.354-0.026,2.042,0.083c1.12,0.178,1.934,0.575,2.44,1.189c0.507,0.614,0.665,1.521,0.474,2.72l-2.814,17.687
					l-3.832-0.61L216.341,185.537z"/>
				<path fill="#3C3C3B" d="M211.601,194.817l-2.034-0.324l-0.441,2.771l-4.006,0.481l0.614-3.862l-3.596-0.572l0.516-3.243
					l3.596,0.572l0.9-5.66c0.163-1.022,0.176-1.77,0.04-2.245c-0.136-0.475-0.489-0.758-1.059-0.848
					c-0.393-0.063-0.738-0.077-1.036-0.044c-0.297,0.033-0.635,0.1-1.014,0.201l-0.209-3.056c0.571-0.171,1.224-0.289,1.96-0.353
					c0.736-0.064,1.468-0.038,2.194,0.077c1.356,0.216,2.298,0.723,2.826,1.522c0.528,0.799,0.665,1.995,0.412,3.587l-1.182,7.429
					l2.034,0.324L211.601,194.817z"/>
				<path fill="#3C3C3B" d="M202.257,180.213c-0.109,0.688-0.412,1.198-0.909,1.533c-0.496,0.334-1.098,0.445-1.806,0.333
					c-0.747-0.119-1.304-0.415-1.672-0.886c-0.368-0.472-0.498-1.051-0.389-1.739c0.11-0.688,0.414-1.204,0.911-1.548
					c0.498-0.344,1.12-0.456,1.867-0.338c0.707,0.113,1.245,0.409,1.611,0.891C202.238,178.941,202.367,179.525,202.257,180.213z"/>
			</g>
			<path fill="#00C4D6" d="M223.822,184.205c-0.112,0.821-0.25,1.737-0.384,2.554l-1.43,9.046c0.257,0.14,0.576,0.323,0.968,0.496
				c0.393,0.174,0.819,0.356,1.283,0.522c0.462,0.164,0.954,0.323,1.471,0.454c0.52,0.137,1.04,0.247,1.57,0.333
				c2.459,0.401,4.454,0.038,5.991-1.095c1.535-1.13,2.519-3.004,2.942-5.619c0.406-2.498,0.226-4.439-0.539-5.824
				c-0.767-1.384-1.951-2.21-3.764-2.507c-0.06-0.008-0.068-0.007-0.068-0.007c-1.552-0.252-2.022,0.091-2.82,0.392
				c-0.798,0.299-1.555,0.745-2.093,1.593l-0.115-0.022l-0.084-2.819l-2.716-0.441C223.934,182.833,223.94,183.386,223.822,184.205
				 M232.114,187.042c0.348,0.818,0.406,1.938,0.175,3.362c-0.244,1.502-0.692,2.604-1.335,3.299
				c-0.642,0.695-1.48,0.961-2.516,0.794c-0.47-0.079-0.659-0.134-1.023-0.241c-0.361-0.11-0.747-0.277-0.722-0.435l1.074-6.586
				c0.107-0.663,0.487-1.113,0.938-1.378c0.457-0.27,0.94-0.357,1.682-0.239C231.268,185.763,231.765,186.224,232.114,187.042"/>
		</g>
		<path fill="#00C4D6" d="M213.402,138.104c0.374-2.744,0.836-5.806,1.283-8.539l4.781-30.244c-0.86-0.468-1.926-1.078-3.237-1.659
			c-1.314-0.581-2.737-1.189-4.289-1.745c-1.544-0.549-3.188-1.079-4.919-1.517c-1.74-0.458-3.476-0.825-5.249-1.113
			c-8.22-1.339-14.89-0.128-20.031,3.662c-5.134,3.778-8.422,10.044-9.834,18.788c-1.357,8.352-0.754,14.84,1.803,19.473
			c2.564,4.628,6.523,7.389,12.586,8.382c0.199,0.026,0.227,0.024,0.227,0.024c5.189,0.841,6.759-0.303,9.43-1.31
			c2.669-1.001,5.197-2.49,6.999-5.326l0.385,0.074l0.279,9.425l9.08,1.476C213.025,142.692,213.007,140.845,213.402,138.104
			 M185.678,128.62c-1.165-2.736-1.357-6.48-0.584-11.239c0.815-5.022,2.313-8.706,4.465-11.03c2.145-2.325,4.947-3.214,8.412-2.654
			c1.571,0.263,2.204,0.448,3.419,0.807c1.208,0.367,2.497,0.925,2.413,1.453l-3.591,22.019c-0.359,2.215-1.629,3.72-3.136,4.605
			c-1.528,0.901-3.144,1.194-5.622,0.8C188.508,132.896,186.843,131.356,185.678,128.62"/>
	</g>
	<g>
		<path opacity="0.1" d="M156.17,192.991c0.147,1.65-1.071,3.107-2.722,3.255L23.962,207.79c-1.65,0.147-3.107-1.071-3.255-2.722
			L4.012,17.811c-0.147-1.65,1.071-3.107,2.722-3.255L136.22,3.012c1.65-0.147,3.107,1.071,3.255,2.722L156.17,192.991z"/>
		<path fill="#FFFFFF" d="M152.17,189.991c0.147,1.65-1.071,3.107-2.722,3.255L19.962,204.79c-1.65,0.147-3.107-1.071-3.255-2.722
			L0.012,14.811c-0.147-1.65,1.071-3.107,2.722-3.255L132.22,0.012c1.65-0.147,3.107,1.071,3.255,2.722L152.17,189.991z"/>
		
			<rect x="7.954" y="58.07" transform="matrix(0.996 -0.0888 0.0888 0.996 -8.6567 7.1435)" fill="none" width="136" height="85.582"/>
		
			<text transform="matrix(0.996 -0.0888 0.0888 0.996 53.6686 130.1642)" fill="#FA7063" font-family="'PTSans-Bold'" font-size="100">a</text>
		<g>
			<path fill="#FA7063" d="M131.403,170.024c-0.749,0.421-1.652,0.782-2.707,1.083c-1.055,0.301-2.169,0.503-3.34,0.608
				c-1.015,0.09-1.875,0.044-2.58-0.139c-0.705-0.183-1.277-0.481-1.718-0.895c-0.44-0.414-0.771-0.925-0.993-1.535
				s-0.367-1.305-0.437-2.086c-0.077-0.859-0.125-1.725-0.143-2.599c-0.019-0.874-0.061-1.731-0.126-2.571
				c-0.065-0.84-0.162-1.653-0.291-2.438c-0.129-0.785-0.342-1.519-0.639-2.201l3.104-0.277l0.795,1.966l0.147-0.013
				c0.337-0.64,0.832-1.21,1.485-1.711c0.654-0.501,1.528-0.8,2.621-0.898c0.683-0.061,1.308-0.014,1.872,0.143
				c0.565,0.156,1.059,0.407,1.484,0.753c0.425,0.346,0.767,0.768,1.028,1.266c0.261,0.498,0.42,1.069,0.477,1.713
				c0.08,0.898-0.053,1.672-0.398,2.323c-0.345,0.65-0.877,1.2-1.594,1.647c-0.717,0.448-1.592,0.791-2.623,1.031
				c-1.031,0.239-2.194,0.387-3.488,0.444c-0.039,1.105,0.109,1.884,0.444,2.336c0.336,0.452,1.011,0.633,2.026,0.542
				c0.761-0.068,1.56-0.218,2.395-0.45c0.835-0.232,1.515-0.499,2.039-0.801L131.403,170.024z M125.601,159.563
				c-0.761,0.068-1.351,0.293-1.77,0.674c-0.418,0.381-0.717,0.777-0.898,1.187l0.17,1.903c0.611,0.005,1.192-0.037,1.745-0.126
				c0.553-0.089,1.038-0.22,1.455-0.395c0.417-0.175,0.742-0.401,0.973-0.677c0.231-0.277,0.329-0.61,0.294-1
				c-0.049-0.547-0.248-0.957-0.597-1.23C126.625,159.623,126.167,159.512,125.601,159.563z"/>
			<path fill="#3C3C3B" d="M112.078,162.805c-0.061-0.684-0.193-1.174-0.397-1.47c-0.204-0.297-0.5-0.428-0.891-0.393
				c-0.234,0.021-0.462,0.061-0.683,0.12c-0.221,0.059-0.491,0.171-0.811,0.338l-0.676-2.95c0.298-0.184,0.762-0.382,1.393-0.596
				c0.63-0.213,1.287-0.351,1.97-0.412c1.113-0.099,1.985,0.084,2.617,0.549c0.632,0.465,1.001,1.293,1.107,2.484l1.566,17.568
				l-3.807,0.339L112.078,162.805z"/>
			<path fill="#3C3C3B" d="M109.783,172.808l-2.02,0.18l0.245,2.752l-3.71,1.423l-0.342-3.836l-3.572,0.318l-0.287-3.221
				l3.572-0.318l-0.501-5.622c-0.09-1.015-0.258-1.733-0.502-2.154c-0.244-0.421-0.649-0.606-1.215-0.556
				c-0.39,0.035-0.724,0.104-1,0.207c-0.276,0.103-0.583,0.248-0.92,0.436l-0.934-2.868c0.504-0.301,1.1-0.57,1.787-0.809
				c0.687-0.238,1.392-0.39,2.114-0.454c1.347-0.12,2.369,0.138,3.065,0.774c0.696,0.636,1.115,1.745,1.256,3.326l0.658,7.379
				l2.02-0.18L109.783,172.808z"/>
			<path fill="#3C3C3B" d="M97.347,161.108c0.061,0.683-0.105,1.244-0.499,1.682c-0.394,0.438-0.942,0.689-1.645,0.752
				c-0.742,0.066-1.345-0.082-1.81-0.444c-0.465-0.362-0.728-0.884-0.789-1.567c-0.061-0.684,0.106-1.249,0.498-1.697
				c0.393-0.448,0.96-0.705,1.702-0.771c0.703-0.063,1.287,0.092,1.753,0.463C97.023,159.897,97.286,160.424,97.347,161.108z"/>
		</g>
		<g>
			<path fill="#FA7063" d="M20.779,34.778c0.749-0.421,1.652-0.782,2.707-1.083c1.055-0.301,2.169-0.503,3.34-0.608
				c1.015-0.09,1.875-0.044,2.58,0.139c0.705,0.183,1.277,0.481,1.718,0.895c0.44,0.414,0.771,0.925,0.993,1.535
				c0.222,0.61,0.367,1.305,0.437,2.086c0.077,0.859,0.125,1.725,0.143,2.599s0.061,1.731,0.126,2.571
				c0.065,0.84,0.162,1.653,0.291,2.438s0.342,1.519,0.639,2.201l-3.104,0.277l-0.795-1.966l-0.147,0.013
				c-0.337,0.64-0.832,1.21-1.485,1.711c-0.654,0.501-1.528,0.8-2.621,0.898c-0.683,0.061-1.308,0.014-1.872-0.143
				c-0.565-0.156-1.059-0.407-1.484-0.753c-0.425-0.346-0.767-0.768-1.028-1.266c-0.261-0.498-0.42-1.069-0.477-1.713
				c-0.08-0.898,0.053-1.672,0.398-2.323c0.345-0.65,0.877-1.2,1.594-1.647c0.717-0.448,1.592-0.791,2.623-1.031
				c1.031-0.239,2.194-0.387,3.488-0.444c0.039-1.105-0.109-1.884-0.444-2.336c-0.336-0.452-1.011-0.633-2.026-0.542
				c-0.761,0.068-1.56,0.218-2.395,0.45c-0.835,0.232-1.515,0.499-2.039,0.801L20.779,34.778z M26.581,45.239
				c0.761-0.068,1.351-0.293,1.77-0.674c0.418-0.381,0.717-0.777,0.898-1.187l-0.17-1.903c-0.611-0.005-1.192,0.037-1.745,0.126
				c-0.553,0.089-1.038,0.22-1.455,0.395c-0.417,0.175-0.742,0.401-0.973,0.677c-0.231,0.277-0.329,0.61-0.294,1
				c0.049,0.547,0.248,0.957,0.597,1.23C25.557,45.179,26.015,45.29,26.581,45.239z"/>
			<path fill="#3C3C3B" d="M40.104,41.997c0.061,0.684,0.193,1.173,0.397,1.47c0.204,0.297,0.5,0.428,0.891,0.393
				c0.234-0.021,0.462-0.061,0.683-0.12c0.221-0.059,0.491-0.171,0.811-0.338l0.676,2.95c-0.298,0.184-0.762,0.382-1.393,0.597
				c-0.63,0.213-1.287,0.351-1.97,0.412c-1.113,0.099-1.985-0.084-2.617-0.549c-0.632-0.465-1.001-1.293-1.107-2.484l-1.566-17.568
				l3.807-0.339L40.104,41.997z"/>
			<path fill="#3C3C3B" d="M42.399,31.994l2.02-0.18l-0.245-2.752l3.71-1.423l0.342,3.836l3.572-0.318l0.287,3.221l-3.572,0.318
				l0.501,5.622c0.091,1.015,0.258,1.733,0.502,2.154c0.244,0.421,0.649,0.606,1.215,0.556c0.39-0.035,0.724-0.104,1-0.207
				c0.276-0.103,0.583-0.248,0.92-0.436l0.934,2.868c-0.504,0.301-1.1,0.57-1.787,0.809c-0.687,0.238-1.392,0.39-2.114,0.454
				c-1.347,0.12-2.368-0.138-3.065-0.774s-1.115-1.745-1.256-3.326l-0.658-7.379l-2.02,0.18L42.399,31.994z"/>
			<path fill="#3C3C3B" d="M54.835,43.694c-0.061-0.683,0.105-1.244,0.499-1.682c0.394-0.438,0.942-0.689,1.645-0.752
				c0.742-0.066,1.345,0.082,1.81,0.444c0.465,0.362,0.728,0.884,0.789,1.567c0.061,0.684-0.106,1.249-0.498,1.697
				c-0.393,0.448-0.96,0.705-1.702,0.771c-0.703,0.063-1.287-0.092-1.753-0.463C55.159,44.905,54.896,44.378,54.835,43.694z"/>
		</g>
	</g>
</g>
</svg>
