<?xml version="1.0" encoding="utf-8"?>
<!-- Generator: Adobe Illustrator 17.0.2, SVG Export Plug-In . SVG Version: 6.00 Build 0)  -->
<!DOCTYPE svg PUBLIC "-//W3C//DTD SVG 1.1//EN" "http://www.w3.org/Graphics/SVG/1.1/DTD/svg11.dtd">
<svg version="1.1" id="Calque_1" xmlns="http://www.w3.org/2000/svg" xmlns:xlink="http://www.w3.org/1999/xlink" x="0px" y="0px"
	 width="200.319px" height="200.319px" viewBox="0 0 200.319 200.319" enable-background="new 0 0 200.319 200.319"
	 xml:space="preserve">
<g opacity="0.1">
	
		<line fill="none" stroke="#000000" stroke-width="4" stroke-linecap="round" stroke-miterlimit="10" x1="53.7" y1="169.659" x2="53.7" y2="157.659"/>
	
		<line fill="none" stroke="#000000" stroke-width="4" stroke-linecap="round" stroke-miterlimit="10" x1="47.542" y1="163.817" x2="59.542" y2="163.817"/>
</g>
<g opacity="0.1">
	
		<line fill="none" stroke="#000000" stroke-width="4" stroke-linecap="round" stroke-miterlimit="10" x1="133.7" y1="150.817" x2="133.7" y2="138.817"/>
	
		<line fill="none" stroke="#000000" stroke-width="4" stroke-linecap="round" stroke-miterlimit="10" x1="127.542" y1="144.975" x2="139.542" y2="144.975"/>
</g>
<g opacity="0.1">
	
		<line fill="none" stroke="#000000" stroke-width="4" stroke-linecap="round" stroke-miterlimit="10" x1="61.342" y1="197.501" x2="61.342" y2="185.501"/>
	
		<line fill="none" stroke="#000000" stroke-width="4" stroke-linecap="round" stroke-miterlimit="10" x1="55.184" y1="191.659" x2="67.184" y2="191.659"/>
</g>
<g opacity="0.1">
	
		<line fill="none" stroke="#000000" stroke-width="4" stroke-linecap="round" stroke-miterlimit="10" x1="26.7" y1="189.817" x2="26.7" y2="177.817"/>
	
		<line fill="none" stroke="#000000" stroke-width="4" stroke-linecap="round" stroke-miterlimit="10" x1="20.542" y1="183.975" x2="32.542" y2="183.975"/>
</g>
<g opacity="0.1">
	
		<line fill="none" stroke="#000000" stroke-width="4" stroke-linecap="round" stroke-miterlimit="10" x1="16.81" y1="139.463" x2="16.81" y2="127.463"/>
	
		<line fill="none" stroke="#000000" stroke-width="4" stroke-linecap="round" stroke-miterlimit="10" x1="10.652" y1="133.621" x2="22.652" y2="133.621"/>
</g>
<g opacity="0.1">
	
		<line fill="none" stroke="#000000" stroke-width="6.6316" stroke-linecap="round" stroke-miterlimit="10" x1="74.428" y1="153.185" x2="74.428" y2="132.185"/>
	
		<line fill="none" stroke="#000000" stroke-width="6.6316" stroke-linecap="round" stroke-miterlimit="10" x1="63.652" y1="142.961" x2="84.652" y2="142.961"/>
</g>
<g opacity="0.1">
	
		<line fill="none" stroke="#000000" stroke-width="6.6316" stroke-linecap="round" stroke-miterlimit="10" x1="33.704" y1="163.185" x2="33.704" y2="142.185"/>
	
		<line fill="none" stroke="#000000" stroke-width="6.6316" stroke-linecap="round" stroke-miterlimit="10" x1="22.928" y1="152.961" x2="43.928" y2="152.961"/>
</g>
<g opacity="0.1">
	
		<line fill="none" stroke="#000000" stroke-width="10" stroke-linecap="round" stroke-miterlimit="10" x1="109.547" y1="137.685" x2="109.547" y2="107.685"/>
	
		<line fill="none" stroke="#000000" stroke-width="10" stroke-linecap="round" stroke-miterlimit="10" x1="94.152" y1="123.08" x2="124.152" y2="123.08"/>
</g>
<g opacity="0.1">
	
		<line fill="none" stroke="#000000" stroke-width="10" stroke-linecap="round" stroke-miterlimit="10" x1="48.941" y1="129.685" x2="48.941" y2="99.685"/>
	
		<line fill="none" stroke="#000000" stroke-width="10" stroke-linecap="round" stroke-miterlimit="10" x1="33.547" y1="115.08" x2="63.547" y2="115.08"/>
</g>
<g opacity="0.1">
	
		<line fill="none" stroke="#000000" stroke-width="10" stroke-linecap="round" stroke-miterlimit="10" x1="91.941" y1="188.054" x2="91.941" y2="158.054"/>
	
		<line fill="none" stroke="#000000" stroke-width="10" stroke-linecap="round" stroke-miterlimit="10" x1="76.547" y1="173.449" x2="106.547" y2="173.449"/>
</g>
<g opacity="0.1">
	
		<line fill="none" stroke="#000000" stroke-width="12" stroke-linecap="round" stroke-miterlimit="10" x1="76.652" y1="90.783" x2="76.652" y2="52.783"/>
	
		<line fill="none" stroke="#000000" stroke-width="12" stroke-linecap="round" stroke-miterlimit="10" x1="57.152" y1="72.283" x2="95.152" y2="72.283"/>
</g>
<path opacity="0.1" d="M171.278,16.271c5.507,3.734,10.328,9.374,14.472,16.899c3.754,6.81,5.663,12.975,5.723,18.502
	c0.066,5.52-1.164,10.468-3.671,14.824c-2.527,4.366-6.079,8.08-10.664,11.183c-4.579,3.083-9.723,5.563-15.426,7.435
	c-0.552,0.18-1.437,0.469-2.637,0.865c-1.214,0.402-2.487,0.785-3.837,1.164c-1.323,0.386-2.677,0.732-3.987,1.047
	c-1.317,0.303-2.281,0.499-2.876,0.585l20.55,37.286l-22.542,7.402L87.275,26.21c4.15-2.334,8.865-4.639,14.159-6.936
	c5.281-2.278,10.664-4.323,16.147-6.122c5.703-1.872,11.678-3.312,17.92-4.326c6.248-1.014,12.397-0.961,18.459,0.156
	C160.008,10.106,165.788,12.53,171.278,16.271z M165.199,51.067c0.013-2.93-1.097-6.401-3.312-10.425
	c-1.875-3.398-4.09-5.992-6.624-7.794c-2.534-1.782-5.254-2.996-8.124-3.631c-2.883-0.632-5.839-0.761-8.865-0.379
	c-3.019,0.386-5.962,1.051-8.812,1.992c-2.195,0.718-4.23,1.47-6.132,2.274c-1.889,0.801-3.388,1.51-4.472,2.108l19.353,35.128
	c0.505-0.03,1.214-0.15,2.148-0.326c0.941-0.193,1.922-0.416,2.923-0.695c1.021-0.269,1.998-0.559,2.936-0.865
	c0.914-0.303,1.609-0.532,2.052-0.678c2.969-0.971,5.753-2.201,8.373-3.668c2.617-1.466,4.702-3.272,6.248-5.424
	C164.418,56.54,165.186,53.999,165.199,51.067"/>
<rect x="-1973.682" y="-535.841" display="none" fill="#3C3C3B" width="2252" height="1043"/>
<path fill="#FFFFFF" d="M-1253.682-420.841c0,1.657-1.343,3-3,3h-150c-1.657,0-3-1.343-3-3v-208c0-1.657,1.343-3,3-3h150
	c1.657,0,3,1.343,3,3V-420.841z"/>
<g>
	<path id="XMLID_10_" opacity="0.1" d="M-7.681-83.841c0,1.657-1.343,3-3,3h-257c-1.657,0-3-1.343-3-3v-188c0-1.657,1.343-3,3-3h257
		c2.264,0,3,0.801,3,3V-83.841z"/>
	<path id="XMLID_3_" fill="#FA7063" d="M-10.681-86.841c0,1.657-1.343,3-3,3h-257c-1.657,0-3-1.343-3-3v-188c0-1.657,1.343-3,3-3
		h257c2.264,0,3,0.801,3,3V-86.841z"/>
	<rect x="-268.681" y="-255.841" fill="#ED544C" width="80" height="80"/>
	<rect x="-182.681" y="-169.841" fill="#ED544C" width="80" height="80"/>
	<path fill="#E6E6E6" d="M-273.681-260.841v-14.5c0-1.657,1.843-2.5,3.5-2.5h257c1.657,0,2.5,0.843,2.5,2.5v14.5"/>
	<rect x="-182.681" y="-212.841" fill="#ED544C" width="37" height="37"/>
	<rect x="-182.681" y="-255.841" fill="#ED544C" width="37" height="37"/>
	<rect x="-139.681" y="-212.841" fill="#ED544C" width="37" height="37"/>
	<rect x="-96.681" y="-126.841" fill="#ED544C" width="37" height="37"/>
	<rect x="-53.681" y="-126.841" fill="#ED544C" width="37" height="37"/>
	<rect x="-96.681" y="-212.841" fill="#ED544C" width="80" height="37"/>
	<rect x="-96.681" y="-169.841" fill="#ED544C" width="80" height="37"/>
	<rect x="-139.681" y="-255.841" fill="#ED544C" width="37" height="37"/>
	<rect x="-96.681" y="-255.841" fill="#ED544C" width="37" height="37"/>
	<rect x="-53.681" y="-255.841" fill="#ED544C" width="37" height="37"/>
	<rect x="-268.681" y="-126.841" fill="#ED544C" width="37" height="37"/>
	<rect x="-268.681" y="-169.841" fill="#ED544C" width="37" height="37"/>
	<rect x="-225.681" y="-126.841" fill="#ED544C" width="37" height="37"/>
	<rect x="-225.681" y="-169.841" fill="#ED544C" width="37" height="37"/>
	<circle fill="#FFFFFF" cx="-265.848" cy="-269.341" r="2.833"/>
	<circle fill="#FFFFFF" cx="-256.848" cy="-269.341" r="2.833"/>
	<circle fill="#FFFFFF" cx="-247.848" cy="-269.341" r="2.833"/>
</g>
<g>
	<path opacity="0.1" d="M-432.737-108.686c0.215,1.482-0.812,2.859-2.295,3.074l-107.367,15.583
		c-1.482,0.215-2.859-0.812-3.074-2.295l-23.763-163.735c-0.215-1.482,0.812-2.859,2.295-3.074l107.367-15.583
		c1.482-0.215,2.859,0.812,3.074,2.295L-432.737-108.686z"/>
	<path fill="#999999" d="M-429.737-111.686c0.215,1.482-0.812,2.859-2.295,3.074l-107.367,15.583
		c-1.482,0.215-2.859-0.812-3.074-2.295l-23.763-163.735c-0.215-1.482,0.812-2.859,2.295-3.074l107.367-15.583
		c1.482-0.215,2.859,0.812,3.074,2.295L-429.737-111.686z"/>
	<path opacity="0.1" d="M-411.45-95.129c0.117,1.678-1.149,3.132-2.826,3.249l-121.504,8.448c-1.678,0.117-3.132-1.149-3.249-2.826
		l-12.883-185.294c-0.117-1.678,1.149-3.132,2.826-3.249l121.504-8.448c1.678-0.117,3.132,1.149,3.249,2.826L-411.45-95.129z"/>
	<path fill="#CCCCCC" d="M-408.45-98.129c0.117,1.678-1.149,3.132-2.826,3.249l-121.504,8.448c-1.678,0.117-3.132-1.149-3.249-2.826
		l-12.883-185.294c-0.117-1.678,1.149-3.132,2.826-3.249l121.504-8.448c1.678-0.117,3.132,1.149,3.249,2.826L-408.45-98.129z"/>
	<path opacity="0.1" d="M-375.681-254.841v175c0,1.657-1.343,3-3,3h-150c-1.657,0-3-1.343-3-3v-208c0-1.657,1.343-3,3-3h117"/>
	<path fill="#FFFFFF" d="M-372.681-257.841v175c0,1.657-1.343,3-3,3h-150c-1.657,0-3-1.343-3-3v-208c0-1.657,1.343-3,3-3h117"/>
	<rect x="-506.856" y="-236.737" fill="none" width="112.35" height="158.388"/>
	<text transform="matrix(1 0 0 1 -506.8564 -215.7372)"><tspan x="0" y="0" fill="#FA7063" font-family="'PTSans-Bold'" font-size="30" letter-spacing="1">.OTF</tspan><tspan x="0" y="36" fill="#FA7063" font-family="'PTSans-Bold'" font-size="30" letter-spacing="1">.TTF</tspan><tspan x="0" y="72" fill="#FA7063" font-family="'PTSans-Bold'" font-size="30" letter-spacing="1">.WOFF</tspan><tspan x="0" y="108" fill="#FA7063" font-family="'PTSans-Bold'" font-size="30" letter-spacing="1">.SVG</tspan></text>
	<line fill="none" stroke="#E6E6E6" stroke-miterlimit="10" x1="-506.681" y1="-208.341" x2="-372.681" y2="-208.341"/>
	<line fill="none" stroke="#E6E6E6" stroke-miterlimit="10" x1="-506.681" y1="-172.341" x2="-372.681" y2="-172.341"/>
	<line fill="none" stroke="#E6E6E6" stroke-miterlimit="10" x1="-506.681" y1="-136.341" x2="-372.681" y2="-136.341"/>
	<path fill="#FFFFFF" d="M-398.681-293.841"/>
	<path fill="#CCCCCC" d="M-408.681-293.841l36,36c0,0-30.178,0-33,0c-1.902,0-3-1.643-3-3S-408.681-293.841-408.681-293.841z"/>
	<g>
		<circle opacity="0.1" cx="-375.507" cy="-100.841" r="42.842"/>
		<circle fill="#FA7063" cx="-372.507" cy="-103.841" r="42.842"/>
		<g id="Download">
			<path fill="#FFFFFF" d="M-375.954-83.815c0.85,0.852,1.942,1.295,3.054,1.371c0.132,0.011,0.259,0.04,0.393,0.04
				c0.133,0,0.259-0.028,0.389-0.039c1.114-0.075,2.207-0.519,3.058-1.372l14.913-14.956c1.867-1.87,1.867-4.903,0-6.774
				c-1.867-1.871-4.894-1.871-6.762,0l-6.883,6.903v-22.425c0-2.604-2.111-4.715-4.715-4.715c-2.604,0-4.715,2.111-4.715,4.715
				v22.425l-6.883-6.903c-1.867-1.871-4.895-1.871-6.762,0c-1.867,1.87-1.867,4.903,0,6.774L-375.954-83.815z"/>
		</g>
	</g>
</g>
<g>
	<path id="XMLID_9_" opacity="0.1" d="M-756.682-82.841c0,1.657-1.343,3-3,3h-147c-1.657,0-3-1.343-3-3v-188c0-1.657,1.343-3,3-3
		h147c2.714,0,3,1.247,3,3V-82.841z"/>
	<path id="XMLID_4_" fill="#FFFFFF" d="M-759.682-85.841c0,1.657-1.343,3-3,3h-147c-1.657,0-3-1.343-3-3v-188c0-1.657,1.343-3,3-3
		h147c2.714,0,3,1.247,3,3V-85.841z"/>
	<path fill="#E6E6E6" d="M-912.682-259.841v-14.5c0-1.657,1.843-2.5,3.5-2.5h147c1.657,0,2.5,0.843,2.5,2.5v14.5"/>
	<circle fill="#FFFFFF" cx="-904.848" cy="-268.341" r="2.833"/>
	<circle fill="#FFFFFF" cx="-895.848" cy="-268.341" r="2.833"/>
	<circle fill="#FFFFFF" cx="-886.848" cy="-268.341" r="2.833"/>
	<path id="XMLID_8_" opacity="0.1" d="M-646.682-152.841c0,1.657-1.343,3-3,3h-98c-1.657,0-3-1.343-3-3v-118c0-1.657,1.343-3,3-3h98
		c2.627,0,3,1.343,3,3V-152.841z"/>
	<path id="XMLID_5_" fill="#FFFFFF" d="M-649.682-155.841c0,1.657-1.343,3-3,3h-98c-1.657,0-3-1.343-3-3v-118c0-1.657,1.343-3,3-3
		h98c2.627,0,3,1.343,3,3V-155.841z"/>
	<path fill="#E6E6E6" d="M-753.682-259.841v-14.5c0-1.657,1.843-2.5,3.5-2.5h98c1.657,0,2.5,0.843,2.5,2.5v14.5"/>
	<circle fill="#FFFFFF" cx="-745.848" cy="-268.341" r="2.833"/>
	<circle fill="#FFFFFF" cx="-736.848" cy="-268.341" r="2.833"/>
	<circle fill="#FFFFFF" cx="-727.848" cy="-268.341" r="2.833"/>
	<path id="XMLID_7_" opacity="0.1" d="M-646.682-82.841c0,1.657-1.343,3-3,3h-98c-1.657,0-3-1.343-3-3v-58c0-1.657,1.343-3,3-3h98
		c2.656,0,3,1.168,3,3V-82.841z"/>
	<path id="XMLID_6_" fill="#ED544C" d="M-649.682-85.841c0,1.657-1.343,3-3,3h-98c-1.657,0-3-1.343-3-3v-58c0-1.657,1.343-3,3-3h98
		c2.656,0,3,1.168,3,3V-85.841z"/>
	<path fill="#FA7063" d="M-753.682-129.841v-14.5c0-1.657,1.843-2.5,3.5-2.5h98c1.657,0,2.5,0.843,2.5,2.5v14.5"/>
	<circle fill="#FFFFFF" cx="-745.848" cy="-138.341" r="2.833"/>
	<circle fill="#FFFFFF" cx="-736.848" cy="-138.341" r="2.833"/>
	<circle fill="#FFFFFF" cx="-727.848" cy="-138.341" r="2.833"/>
	<rect x="-889.682" y="-224.841" fill="#3C3C3B" width="102" height="6"/>
	<rect x="-889.682" y="-212.841" fill="#3C3C3B" width="108" height="6"/>
	<rect x="-889.682" y="-200.841" fill="#3C3C3B" width="84" height="6"/>
	<rect x="-889.682" y="-188.841" fill="#3C3C3B" width="96" height="6"/>
	<rect x="-889.682" y="-176.841" fill="#3C3C3B" width="78" height="6"/>
	<rect x="-889.682" y="-164.841" fill="#3C3C3B" width="90" height="6"/>
	<rect x="-889.682" y="-152.841" fill="#3C3C3B" width="102" height="6"/>
	<rect x="-889.682" y="-140.841" fill="#3C3C3B" width="84" height="6"/>
	<rect x="-889.682" y="-128.841" fill="#3C3C3B" width="64" height="6"/>
	<rect x="-753.682" y="-233.341" fill="none" width="99" height="76.5"/>
	
		<text transform="matrix(1 0 0 1 -728.3812 -177.3407)" fill="#3C3C3B" font-family="'PTSans-Bold'" font-size="80" letter-spacing="4">A</text>
	<g>
		<path fill="#FFFFFF" d="M-736.365-105.758l0.169,1.612h0.052l0.182-1.638l1.586-5.057h1.17l1.56,5.083l0.182,1.612h0.052
			l0.199-1.638l1.127-5.057h1.781l-2.509,9.165h-1.196l-1.625-5.057l-0.221-1.391h-0.065l-0.221,1.404l-1.612,5.044h-1.261
			l-2.496-9.165h1.937L-736.365-105.758z"/>
		<path fill="#FFFFFF" d="M-728.565-104.991c0-1.101,0.269-1.948,0.806-2.542c0.538-0.594,1.292-0.891,2.262-0.891
			c0.52,0,0.971,0.083,1.352,0.247s0.697,0.396,0.949,0.696c0.251,0.299,0.44,0.661,0.565,1.085
			c0.126,0.424,0.188,0.893,0.188,1.404c0,1.101-0.266,1.948-0.799,2.542c-0.533,0.594-1.285,0.891-2.255,0.891
			c-0.52,0-0.971-0.083-1.352-0.247s-0.7-0.396-0.956-0.696c-0.256-0.299-0.446-0.661-0.572-1.085
			C-728.502-104.011-728.565-104.479-728.565-104.991z M-726.823-104.991c0,0.286,0.026,0.55,0.078,0.793
			c0.052,0.243,0.13,0.455,0.234,0.637c0.104,0.182,0.241,0.323,0.41,0.422s0.371,0.149,0.604,0.149c0.442,0,0.771-0.16,0.988-0.481
			c0.217-0.32,0.325-0.828,0.325-1.521c0-0.598-0.1-1.081-0.299-1.45c-0.2-0.368-0.538-0.552-1.014-0.552
			c-0.416,0-0.741,0.156-0.975,0.468S-726.823-105.701-726.823-104.991z"/>
		<path fill="#FFFFFF" d="M-717.684-106.655c-0.269-0.095-0.512-0.143-0.728-0.143c-0.304,0-0.557,0.081-0.761,0.241
			s-0.34,0.366-0.409,0.617v4.199h-1.69v-6.5h1.313l0.195,0.858h0.052c0.147-0.32,0.347-0.567,0.598-0.741s0.546-0.26,0.884-0.26
			c0.225,0,0.481,0.048,0.767,0.143L-717.684-106.655z"/>
		<path fill="#FFFFFF" d="M-711.184-104.029c0,0.364,0.004,0.728,0.013,1.092c0.009,0.364,0.048,0.767,0.117,1.209h-1.209
			l-0.234-0.845h-0.052c-0.173,0.304-0.422,0.548-0.748,0.734c-0.325,0.187-0.708,0.28-1.15,0.28c-0.814,0-1.447-0.269-1.898-0.806
			c-0.451-0.537-0.676-1.378-0.676-2.522c0-1.109,0.251-1.972,0.754-2.587c0.502-0.615,1.239-0.923,2.21-0.923
			c0.269,0,0.489,0.015,0.663,0.045c0.173,0.03,0.346,0.08,0.52,0.149v-2.639h1.69V-104.029z M-714.057-102.989
			c0.329,0,0.589-0.08,0.78-0.24c0.191-0.161,0.325-0.392,0.403-0.696v-2.756c-0.122-0.095-0.256-0.167-0.403-0.214
			c-0.147-0.048-0.338-0.072-0.572-0.072c-0.477,0-0.834,0.161-1.073,0.481c-0.238,0.321-0.357,0.871-0.357,1.651
			c0,0.555,0.098,1.001,0.292,1.339C-714.791-103.158-714.482-102.989-714.057-102.989z"/>
		<path fill="#FFFFFF" d="M-706.413-108.241h1.235l0.195,0.78h0.052c0.225-0.329,0.492-0.572,0.799-0.728
			c0.308-0.156,0.683-0.234,1.125-0.234c0.814,0,1.426,0.258,1.833,0.773c0.407,0.516,0.611,1.346,0.611,2.49
			c0,0.555-0.065,1.055-0.195,1.501s-0.323,0.826-0.579,1.138s-0.567,0.55-0.936,0.715c-0.368,0.165-0.791,0.247-1.268,0.247
			c-0.269,0-0.49-0.02-0.663-0.059c-0.174-0.039-0.347-0.102-0.52-0.188v2.665h-1.69V-108.241z M-703.514-106.993
			c-0.33,0-0.587,0.083-0.773,0.247c-0.187,0.165-0.332,0.412-0.436,0.741v2.704c0.121,0.096,0.253,0.171,0.396,0.228
			c0.143,0.057,0.332,0.084,0.565,0.084c0.485,0,0.849-0.171,1.092-0.514c0.243-0.342,0.364-0.908,0.364-1.696
			c0-0.572-0.096-1.014-0.286-1.326C-702.782-106.837-703.09-106.993-703.514-106.993z"/>
		<path fill="#FFFFFF" d="M-695.805-106.655c-0.269-0.095-0.512-0.143-0.728-0.143c-0.304,0-0.557,0.081-0.761,0.241
			s-0.34,0.366-0.409,0.617v4.199h-1.69v-6.5h1.313l0.195,0.858h0.052c0.147-0.32,0.347-0.567,0.598-0.741s0.546-0.26,0.884-0.26
			c0.225,0,0.481,0.048,0.767,0.143L-695.805-106.655z"/>
		<path fill="#FFFFFF" d="M-689.63-102.3c-0.26,0.208-0.613,0.384-1.06,0.526c-0.446,0.143-0.921,0.215-1.423,0.215
			c-1.049,0-1.816-0.306-2.301-0.917c-0.486-0.611-0.728-1.45-0.728-2.516c0-1.144,0.273-2.002,0.819-2.574
			c0.546-0.572,1.313-0.858,2.301-0.858c0.33,0,0.65,0.043,0.962,0.13c0.312,0.086,0.589,0.229,0.832,0.429
			c0.243,0.2,0.438,0.468,0.585,0.806c0.147,0.338,0.221,0.758,0.221,1.261c0,0.182-0.011,0.377-0.032,0.585
			c-0.022,0.208-0.054,0.425-0.097,0.65h-3.888c0.026,0.546,0.167,0.958,0.421,1.235c0.254,0.277,0.667,0.416,1.237,0.416
			c0.354,0,0.671-0.054,0.952-0.163s0.494-0.219,0.641-0.332L-689.63-102.3z M-692.042-107.071c-0.44,0-0.765,0.132-0.977,0.396
			c-0.211,0.265-0.338,0.618-0.381,1.06h2.405c0.034-0.468-0.037-0.828-0.213-1.079
			C-691.385-106.945-691.663-107.071-692.042-107.071z"/>
		<path fill="#FFFFFF" d="M-686.159-104.835l0.221,1.001h0.065l0.182-1.027l1.105-3.38h1.82l-2.717,6.565h-1.027l-2.821-6.565h1.963
			L-686.159-104.835z"/>
		<path fill="#FFFFFF" d="M-682.311-110.074c0-0.251,0.093-0.466,0.279-0.644c0.186-0.177,0.444-0.267,0.773-0.267
			c0.329,0,0.596,0.089,0.799,0.267c0.204,0.178,0.306,0.392,0.306,0.644s-0.102,0.461-0.306,0.63s-0.47,0.253-0.799,0.253
			c-0.33,0-0.587-0.084-0.773-0.253C-682.218-109.612-682.311-109.822-682.311-110.074z M-682.064-108.241h1.69v6.5h-1.69V-108.241z
			"/>
		<path fill="#FFFFFF" d="M-673.51-102.3c-0.26,0.208-0.613,0.384-1.06,0.526c-0.446,0.143-0.921,0.215-1.423,0.215
			c-1.049,0-1.816-0.306-2.301-0.917c-0.486-0.611-0.728-1.45-0.728-2.516c0-1.144,0.273-2.002,0.819-2.574
			c0.546-0.572,1.313-0.858,2.301-0.858c0.33,0,0.65,0.043,0.962,0.13c0.312,0.086,0.589,0.229,0.832,0.429
			c0.243,0.2,0.438,0.468,0.585,0.806c0.147,0.338,0.221,0.758,0.221,1.261c0,0.182-0.011,0.377-0.032,0.585
			c-0.022,0.208-0.054,0.425-0.097,0.65h-3.888c0.026,0.546,0.167,0.958,0.421,1.235c0.254,0.277,0.667,0.416,1.237,0.416
			c0.354,0,0.671-0.054,0.952-0.163s0.494-0.219,0.641-0.332L-673.51-102.3z M-675.922-107.071c-0.44,0-0.765,0.132-0.977,0.396
			c-0.211,0.265-0.338,0.618-0.381,1.06h2.405c0.034-0.468-0.037-0.828-0.213-1.079
			C-675.265-106.945-675.543-107.071-675.922-107.071z"/>
		<path fill="#FFFFFF" d="M-667.465-108.241l1.183,3.328l0.234,1.079h0.052l0.182-1.092l0.832-3.315h1.547l-2.002,6.565h-1.248
			l-1.313-3.64l-0.169-0.819h-0.065l-0.156,0.832l-1.248,3.627h-1.287l-2.093-6.565h1.833l0.949,3.263l0.156,1.157h0.065l0.221-1.17
			l1.079-3.25H-667.465z"/>
	</g>
</g>
<rect x="-1146.563" y="-486.647" fill="none" width="60.882" height="38.25"/>
<text transform="matrix(1 0 0 1 -1146.563 -458.6468)"><tspan x="0" y="0" fill="#FA7063" font-family="'PTSans-Bold'" font-size="40">a</tspan><tspan x="19.839" y="0" fill="#3C3C3B" font-family="'PTSans-Bold'" font-size="40">lt.</tspan></text>
<rect x="-1392.563" y="-613.841" fill="none" width="60.882" height="38.25"/>
<text transform="matrix(1 0 0 1 -1392.563 -585.8407)"><tspan x="0" y="0" fill="#FA7063" font-family="'PTSans-Bold'" font-size="40">a</tspan><tspan x="19.839" y="0" fill="#3C3C3B" font-family="'PTSans-Bold'" font-size="40">lt.</tspan></text>
<g>
	<path fill="#FA7063" d="M-1272.922-445.001c-1.066,0.48-2.333,0.86-3.8,1.14c-1.466,0.28-3,0.42-4.6,0.42
		c-1.386,0-2.546-0.167-3.48-0.5c-0.933-0.333-1.673-0.807-2.22-1.42c-0.546-0.614-0.934-1.347-1.16-2.2s-0.34-1.813-0.34-2.88
		c0-1.174,0.04-2.354,0.12-3.54s0.127-2.354,0.14-3.5c0.014-1.147-0.02-2.26-0.1-3.34s-0.28-2.1-0.6-3.06h4.24l0.84,2.76h0.2
		c0.534-0.827,1.273-1.54,2.22-2.14c0.947-0.6,2.167-0.9,3.66-0.9c0.934,0,1.774,0.14,2.52,0.42c0.747,0.28,1.387,0.68,1.92,1.2
		c0.534,0.52,0.947,1.133,1.24,1.84c0.293,0.706,0.44,1.5,0.44,2.38c0,1.226-0.273,2.26-0.82,3.1c-0.546,0.84-1.333,1.52-2.36,2.04
		c-1.026,0.52-2.253,0.88-3.68,1.08c-1.426,0.2-3.02,0.26-4.78,0.18c-0.186,1.493-0.08,2.566,0.32,3.22
		c0.4,0.653,1.294,0.98,2.68,0.98c1.04,0,2.14-0.107,3.3-0.32c1.16-0.213,2.113-0.494,2.86-0.84L-1272.922-445.001z
		 M-1279.521-459.881c-1.04,0-1.867,0.233-2.48,0.7c-0.613,0.466-1.066,0.966-1.36,1.5v2.6c0.827,0.08,1.62,0.093,2.38,0.04
		c0.76-0.054,1.434-0.173,2.02-0.36c0.587-0.187,1.054-0.454,1.4-0.8c0.347-0.347,0.52-0.787,0.52-1.32
		c0-0.747-0.22-1.327-0.66-1.74C-1278.141-459.675-1278.748-459.881-1279.521-459.881z"/>
	<path fill="#3C3C3B" d="M-1298.241-457.121c0-0.934-0.12-1.614-0.36-2.04c-0.24-0.427-0.626-0.64-1.16-0.64
		c-0.32,0-0.633,0.026-0.94,0.08c-0.306,0.053-0.686,0.173-1.14,0.36l-0.56-4.08c0.427-0.214,1.08-0.426,1.96-0.64
		c0.88-0.213,1.787-0.32,2.72-0.32c1.52,0,2.68,0.354,3.48,1.06c0.8,0.706,1.2,1.873,1.2,3.5v24h-5.2V-457.121z"/>
	<path fill="#3C3C3B" d="M-1302.561-443.841h-2.76v3.76l-5.2,1.48v-5.24h-4.88v-4.4h4.88v-7.68c0-1.387-0.14-2.38-0.42-2.98
		c-0.28-0.6-0.806-0.9-1.58-0.9c-0.533,0-0.993,0.053-1.38,0.16c-0.386,0.106-0.82,0.266-1.3,0.48l-0.92-4
		c0.72-0.347,1.56-0.64,2.52-0.88c0.96-0.24,1.934-0.36,2.92-0.36c1.84,0,3.193,0.474,4.06,1.42s1.3,2.5,1.3,4.66v10.08h2.76
		V-443.841z"/>
	<path fill="#3C3C3B" d="M-1318.001-461.201c0,0.933-0.293,1.673-0.88,2.22c-0.586,0.546-1.36,0.82-2.32,0.82
		c-1.013,0-1.813-0.274-2.4-0.82c-0.586-0.547-0.88-1.287-0.88-2.22c0-0.934,0.294-1.68,0.88-2.24s1.387-0.84,2.4-0.84
		c0.96,0,1.733,0.28,2.32,0.84C-1318.294-462.881-1318.001-462.135-1318.001-461.201z"/>
</g>
<g>
	<path fill="#FFFFFF" d="M-1195.682-92.841c0,1.657-1.343,3-3,3h-130c-1.657,0-3-1.343-3-3v-188c0-1.657,1.343-3,3-3h130
		c1.657,0,3,1.343,3,3V-92.841z"/>
	<g>
		<g>
			<path fill="#3C3C3B" d="M-1294.089-249.961c0,0.697,0.089,1.204,0.269,1.522c0.179,0.319,0.468,0.478,0.866,0.478
				c0.239,0,0.472-0.02,0.701-0.06c0.229-0.04,0.512-0.129,0.851-0.269l0.418,3.045c-0.318,0.16-0.806,0.318-1.463,0.478
				c-0.657,0.159-1.333,0.239-2.03,0.239c-1.134,0-2-0.264-2.597-0.791c-0.597-0.527-0.896-1.398-0.896-2.612v-17.91h3.88V-249.961z
				"/>
			<path fill="#3C3C3B" d="M-1290.865-259.871h2.059v-2.806l3.88-1.105v3.91h3.642v3.283h-3.642v5.731
				c0,1.035,0.104,1.776,0.313,2.224c0.209,0.448,0.602,0.672,1.179,0.672c0.398,0,0.741-0.04,1.03-0.12
				c0.288-0.079,0.612-0.199,0.97-0.358l0.687,2.985c-0.537,0.259-1.164,0.478-1.88,0.657c-0.717,0.179-1.443,0.269-2.179,0.269
				c-1.373,0-2.383-0.353-3.03-1.06c-0.647-0.706-0.97-1.866-0.97-3.478v-7.522h-2.059V-259.871z"/>
			<path fill="#3C3C3B" d="M-1279.343-246.916c0-0.696,0.219-1.248,0.657-1.656c0.438-0.408,1.015-0.612,1.731-0.612
				c0.756,0,1.353,0.204,1.791,0.612c0.438,0.408,0.657,0.96,0.657,1.656c0,0.697-0.219,1.254-0.657,1.672
				c-0.438,0.418-1.035,0.627-1.791,0.627c-0.716,0-1.293-0.209-1.731-0.627C-1279.125-245.663-1279.343-246.219-1279.343-246.916z"
				/>
		</g>
		<path fill="#00C4D6" d="M-1301.267-247.471c-0.019-0.828-0.026-1.754-0.022-2.583l-0.009-9.158
			c-0.276-0.098-0.62-0.228-1.034-0.338c-0.416-0.11-0.864-0.222-1.349-0.314c-0.482-0.09-0.993-0.169-1.524-0.217
			c-0.536-0.054-1.066-0.08-1.603-0.082c-2.491-0.009-4.404,0.662-5.745,2.023c-1.339,1.357-2.016,3.363-2.022,6.012
			c-0.008,2.531,0.475,4.419,1.448,5.667c0.975,1.246,2.274,1.876,4.112,1.884c0.06-0.002,0.068-0.004,0.068-0.004
			c1.572,0.005,1.982-0.407,2.724-0.83c0.741-0.421,1.418-0.98,1.817-1.902l0.117,0.004l0.525,2.771l2.751,0.009
			C-1301.163-246.098-1301.255-246.643-1301.267-247.471 M-1309.902-248.969c-0.473-0.753-0.705-1.85-0.701-3.293
			c0.005-1.522,0.274-2.68,0.801-3.468c0.524-0.788,1.31-1.182,2.36-1.179c0.477,0.004,0.672,0.029,1.048,0.078
			c0.374,0.052,0.781,0.156,0.781,0.316l-0.026,6.673c-0.002,0.671-0.307,1.175-0.71,1.508c-0.409,0.338-0.873,0.5-1.623,0.5
			C-1308.865-247.839-1309.429-248.216-1309.902-248.969"/>
	</g>
	<g>
		<g>
			<path fill="#3C3C3B" d="M-1233.135-123.72c0-0.697-0.089-1.204-0.269-1.522c-0.179-0.319-0.467-0.478-0.866-0.478
				c-0.239,0-0.472,0.02-0.701,0.06c-0.229,0.04-0.512,0.129-0.851,0.269l-0.418-3.045c0.318-0.16,0.806-0.318,1.463-0.478
				c0.657-0.159,1.333-0.239,2.03-0.239c1.134,0,2,0.264,2.597,0.791c0.597,0.527,0.896,1.398,0.896,2.612v17.91h-3.881V-123.72z"/>
			<path fill="#3C3C3B" d="M-1236.358-113.811h-2.059v2.806l-3.88,1.105v-3.91h-3.642v-3.283h3.642v-5.731
				c0-1.035-0.104-1.776-0.313-2.224c-0.209-0.448-0.602-0.672-1.179-0.672c-0.398,0-0.741,0.04-1.03,0.12
				c-0.288,0.079-0.612,0.199-0.97,0.358l-0.686-2.985c0.537-0.259,1.164-0.478,1.88-0.657c0.717-0.179,1.443-0.269,2.179-0.269
				c1.373,0,2.383,0.353,3.03,1.06c0.647,0.706,0.97,1.866,0.97,3.478v7.522h2.059V-113.811z"/>
			<path fill="#3C3C3B" d="M-1247.88-126.765c0,0.696-0.219,1.248-0.657,1.656c-0.438,0.408-1.015,0.612-1.731,0.612
				c-0.756,0-1.353-0.204-1.791-0.612c-0.438-0.408-0.657-0.96-0.657-1.656c0-0.697,0.219-1.254,0.657-1.672
				c0.438-0.418,1.035-0.627,1.791-0.627c0.716,0,1.294,0.209,1.731,0.627C-1248.099-128.019-1247.88-127.462-1247.88-126.765z"/>
		</g>
		<path fill="#00C4D6" d="M-1225.956-126.211c0.018,0.828,0.026,1.754,0.022,2.583l0.009,9.158c0.276,0.098,0.62,0.228,1.034,0.338
			c0.416,0.11,0.864,0.222,1.349,0.314c0.482,0.09,0.992,0.169,1.524,0.217c0.536,0.054,1.066,0.08,1.603,0.082
			c2.491,0.009,4.404-0.662,5.745-2.023c1.339-1.357,2.016-3.363,2.022-6.012c0.008-2.531-0.474-4.419-1.448-5.667
			c-0.975-1.246-2.274-1.876-4.112-1.884c-0.06,0.002-0.068,0.004-0.068,0.004c-1.573-0.005-1.982,0.407-2.724,0.83
			c-0.741,0.421-1.418,0.98-1.817,1.902l-0.117-0.004l-0.525-2.771l-2.751-0.009
			C-1226.061-127.584-1225.968-127.039-1225.956-126.211 M-1217.321-124.712c0.473,0.753,0.705,1.85,0.701,3.293
			c-0.005,1.522-0.274,2.68-0.801,3.468c-0.524,0.788-1.31,1.182-2.36,1.179c-0.476-0.004-0.672-0.029-1.048-0.078
			c-0.374-0.052-0.781-0.156-0.781-0.316l0.026-6.673c0.002-0.671,0.307-1.175,0.71-1.508c0.409-0.338,0.873-0.5,1.623-0.5
			C-1218.358-125.842-1217.794-125.466-1217.321-124.712"/>
	</g>
	<path fill="#00C4D6" d="M-1243.49-170.103c-0.062-2.769-0.087-5.865-0.074-8.634l-0.031-30.62c-0.923-0.327-2.071-0.763-3.457-1.13
		c-1.389-0.367-2.89-0.744-4.51-1.049c-1.611-0.3-3.318-0.565-5.096-0.726c-1.79-0.179-3.562-0.268-5.359-0.275
		c-8.329-0.031-14.725,2.213-19.207,6.763c-4.476,4.538-6.739,11.243-6.76,20.099c-0.028,8.461,1.587,14.774,4.84,18.948
		c3.26,4.167,7.603,6.273,13.746,6.3c0.201-0.006,0.228-0.012,0.228-0.012c5.257,0.015,6.628-1.361,9.107-2.775
		c2.479-1.408,4.742-3.275,6.075-6.359l0.392,0.012l1.757,9.264l9.199,0.031C-1243.141-165.512-1243.45-167.334-1243.49-170.103
		 M-1272.359-175.113c-1.58-2.519-2.358-6.186-2.343-11.008c0.015-5.087,0.917-8.962,2.676-11.595
		c1.753-2.633,4.38-3.951,7.89-3.942c1.593,0.012,2.247,0.096,3.504,0.259c1.25,0.173,2.612,0.522,2.612,1.056l-0.086,22.309
		c-0.006,2.244-1.025,3.93-2.374,5.041c-1.367,1.13-2.917,1.673-5.427,1.673C-1268.893-171.334-1270.779-172.594-1272.359-175.113"
		/>
</g>
<g>
	<path fill="#FFFFFF" d="M-1346.682-92.841c0,1.657-1.343,3-3,3h-130c-1.657,0-3-1.343-3-3v-188c0-1.657,1.343-3,3-3h130
		c1.657,0,3,1.343,3,3V-92.841z"/>
	<rect x="-1482.682" y="-231.178" fill="none" width="136" height="85.582"/>
	<text transform="matrix(1 0 0 1 -1439.4807 -161.1785)" fill="#FA7063" font-family="'PTSans-Bold'" font-size="100">a</text>
	<g>
		<path fill="#FA7063" d="M-1365.593-114.573c-0.783,0.353-1.714,0.632-2.792,0.838c-1.078,0.206-2.205,0.309-3.381,0.309
			c-1.019,0-1.871-0.123-2.557-0.367c-0.686-0.245-1.229-0.593-1.631-1.044c-0.401-0.451-0.686-0.99-0.853-1.617
			s-0.25-1.333-0.25-2.116c0-0.863,0.029-1.73,0.088-2.602s0.093-1.73,0.103-2.572c0.01-0.843-0.015-1.661-0.074-2.455
			c-0.059-0.794-0.206-1.543-0.441-2.249h3.116l0.617,2.029h0.147c0.392-0.608,0.936-1.132,1.631-1.573
			c0.696-0.441,1.593-0.661,2.69-0.661c0.686,0,1.304,0.103,1.852,0.309c0.549,0.206,1.019,0.5,1.411,0.882
			c0.392,0.382,0.696,0.833,0.911,1.352c0.216,0.519,0.323,1.102,0.323,1.749c0,0.901-0.201,1.661-0.603,2.278
			c-0.401,0.617-0.98,1.117-1.734,1.499c-0.754,0.382-1.656,0.647-2.704,0.794c-1.048,0.147-2.219,0.191-3.513,0.132
			c-0.137,1.097-0.059,1.886,0.235,2.367c0.294,0.48,0.951,0.72,1.97,0.72c0.764,0,1.573-0.079,2.425-0.235
			c0.852-0.157,1.553-0.363,2.102-0.617L-1365.593-114.573z M-1370.443-125.508c-0.764,0-1.372,0.172-1.823,0.515
			c-0.45,0.343-0.783,0.71-0.999,1.102v1.911c0.608,0.059,1.191,0.069,1.749,0.029c0.559-0.039,1.054-0.127,1.485-0.264
			c0.431-0.137,0.774-0.333,1.029-0.588c0.255-0.255,0.382-0.578,0.382-0.97c0-0.549-0.162-0.975-0.485-1.279
			C-1369.429-125.357-1369.875-125.508-1370.443-125.508z"/>
		<path fill="#3C3C3B" d="M-1384.201-123.48c0-0.686-0.088-1.186-0.264-1.499c-0.177-0.314-0.46-0.47-0.853-0.47
			c-0.235,0-0.465,0.019-0.691,0.059c-0.225,0.039-0.504,0.127-0.838,0.264l-0.411-2.999c0.314-0.157,0.793-0.313,1.44-0.47
			c0.647-0.156,1.313-0.235,1.999-0.235c1.117,0,1.97,0.26,2.557,0.779c0.588,0.519,0.882,1.377,0.882,2.572v17.638h-3.822V-123.48z
			"/>
		<path fill="#3C3C3B" d="M-1387.375-113.72h-2.028v2.763l-3.822,1.088v-3.851h-3.586v-3.234h3.586v-5.644
			c0-1.019-0.103-1.749-0.309-2.19c-0.206-0.441-0.592-0.661-1.161-0.661c-0.392,0-0.73,0.039-1.014,0.118
			c-0.284,0.078-0.603,0.196-0.955,0.353l-0.676-2.94c0.529-0.255,1.146-0.47,1.852-0.647c0.706-0.176,1.421-0.264,2.146-0.264
			c1.352,0,2.347,0.348,2.984,1.044c0.637,0.695,0.955,1.837,0.955,3.425v7.408h2.028V-113.72z"/>
		<path fill="#3C3C3B" d="M-1398.723-126.478c0,0.686-0.215,1.229-0.647,1.631c-0.431,0.402-0.999,0.603-1.705,0.603
			c-0.745,0-1.333-0.201-1.764-0.603c-0.431-0.402-0.647-0.946-0.647-1.631c0-0.686,0.216-1.235,0.647-1.646
			c0.431-0.412,1.019-0.617,1.764-0.617c0.705,0,1.274,0.206,1.705,0.617C-1398.938-127.713-1398.723-127.165-1398.723-126.478z"/>
	</g>
	<g>
		<path fill="#FA7063" d="M-1463.77-259.109c0.783-0.353,1.715-0.632,2.793-0.838c1.078-0.206,2.205-0.309,3.381-0.309
			c1.019,0,1.871,0.123,2.557,0.367c0.686,0.245,1.229,0.593,1.631,1.044c0.402,0.451,0.686,0.99,0.853,1.617
			c0.167,0.627,0.25,1.333,0.25,2.117c0,0.863-0.029,1.73-0.088,2.602c-0.059,0.872-0.093,1.73-0.103,2.572
			c-0.01,0.843,0.015,1.661,0.074,2.455c0.059,0.794,0.206,1.543,0.441,2.249h-3.116l-0.617-2.029h-0.147
			c-0.392,0.608-0.936,1.132-1.631,1.573c-0.696,0.441-1.593,0.661-2.69,0.661c-0.686,0-1.304-0.103-1.852-0.309
			c-0.549-0.206-1.019-0.5-1.411-0.882c-0.392-0.382-0.696-0.833-0.911-1.352c-0.216-0.519-0.323-1.102-0.323-1.749
			c0-0.901,0.201-1.661,0.603-2.278c0.401-0.617,0.98-1.117,1.734-1.499c0.754-0.382,1.656-0.647,2.704-0.794
			c1.048-0.147,2.219-0.191,3.513-0.132c0.137-1.097,0.059-1.886-0.235-2.367c-0.294-0.48-0.951-0.72-1.97-0.72
			c-0.764,0-1.573,0.079-2.425,0.235c-0.852,0.157-1.553,0.363-2.102,0.617L-1463.77-259.109z M-1458.92-248.173
			c0.764,0,1.372-0.172,1.823-0.515c0.45-0.343,0.783-0.71,0.999-1.102v-1.911c-0.608-0.059-1.191-0.069-1.749-0.029
			c-0.559,0.039-1.054,0.127-1.484,0.264c-0.431,0.137-0.774,0.333-1.029,0.588c-0.255,0.255-0.382,0.578-0.382,0.97
			c0,0.549,0.162,0.975,0.485,1.279C-1459.934-248.325-1459.488-248.173-1458.92-248.173z"/>
		<path fill="#3C3C3B" d="M-1445.162-250.202c0,0.686,0.088,1.186,0.265,1.499c0.177,0.314,0.46,0.47,0.853,0.47
			c0.235,0,0.465-0.019,0.691-0.059c0.225-0.039,0.504-0.127,0.838-0.264l0.411,2.999c-0.314,0.157-0.793,0.313-1.44,0.47
			c-0.647,0.156-1.313,0.235-1.999,0.235c-1.117,0-1.97-0.26-2.557-0.779c-0.588-0.519-0.882-1.377-0.882-2.572v-17.638h3.822
			V-250.202z"/>
		<path fill="#3C3C3B" d="M-1441.988-259.961h2.028v-2.763l3.822-1.088v3.851h3.586v3.234h-3.586v5.644
			c0,1.019,0.103,1.749,0.309,2.19c0.206,0.441,0.593,0.661,1.161,0.661c0.392,0,0.73-0.039,1.014-0.118
			c0.284-0.078,0.602-0.196,0.955-0.353l0.676,2.94c-0.529,0.255-1.146,0.47-1.852,0.647c-0.706,0.176-1.421,0.264-2.146,0.264
			c-1.352,0-2.347-0.348-2.984-1.044c-0.637-0.695-0.955-1.837-0.955-3.425v-7.408h-2.028V-259.961z"/>
		<path fill="#3C3C3B" d="M-1430.641-247.203c0-0.686,0.215-1.229,0.647-1.631c0.431-0.402,0.999-0.603,1.705-0.603
			c0.745,0,1.333,0.201,1.764,0.603c0.431,0.402,0.647,0.946,0.647,1.631c0,0.686-0.216,1.235-0.647,1.646
			c-0.431,0.412-1.019,0.617-1.764,0.617c-0.706,0-1.274-0.206-1.705-0.617C-1430.425-245.968-1430.641-246.517-1430.641-247.203z"
			/>
	</g>
</g>
<g>
	<g>
		<path opacity="0.1" d="M-669.295,211.676c-0.26,1.636-1.798,2.752-3.434,2.491l-128.385-20.425
			c-1.636-0.26-2.752-1.798-2.491-3.434l29.538-185.665c0.26-1.636,1.798-2.752,3.434-2.491l128.385,20.425
			c1.636,0.26,2.752,1.798,2.491,3.434L-669.295,211.676z"/>
		<path fill="#FFFFFF" d="M-672.295,207.676c-0.26,1.636-1.798,2.752-3.434,2.491l-128.385-20.425
			c-1.636-0.26-2.752-1.798-2.491-3.434l29.538-185.665c0.26-1.636,1.798-2.752,3.434-2.491l128.385,20.425
			c1.636,0.26,2.752,1.798,2.491,3.434L-672.295,207.676z"/>
		<g>
			<g>
				<path fill="#3C3C3B" d="M-744.794,37.045c-0.11,0.688-0.101,1.203,0.026,1.546c0.127,0.343,0.387,0.545,0.78,0.608
					c0.236,0.037,0.469,0.055,0.702,0.051c0.232-0.003,0.526-0.047,0.882-0.132l-0.066,3.072c-0.34,0.108-0.846,0.188-1.519,0.242
					c-0.673,0.054-1.354,0.026-2.042-0.083c-1.12-0.178-1.934-0.575-2.44-1.189c-0.507-0.614-0.665-1.521-0.474-2.72l2.814-17.687
					l3.832,0.61L-744.794,37.045z"/>
				<path fill="#3C3C3B" d="M-740.053,27.765l2.034,0.324l0.441-2.771l4.006-0.481l-0.614,3.862l3.596,0.572l-0.516,3.243
					l-3.596-0.572l-0.9,5.66c-0.163,1.022-0.176,1.77-0.04,2.245c0.136,0.475,0.489,0.758,1.059,0.848
					c0.393,0.063,0.738,0.077,1.036,0.044c0.297-0.033,0.635-0.1,1.014-0.201l0.209,3.056c-0.571,0.171-1.224,0.289-1.96,0.353
					c-0.736,0.064-1.468,0.038-2.194-0.077c-1.356-0.216-2.298-0.723-2.826-1.522s-0.665-1.995-0.412-3.587l1.182-7.429
					l-2.034-0.324L-740.053,27.765z"/>
				<path fill="#3C3C3B" d="M-730.71,42.369c0.109-0.688,0.412-1.198,0.909-1.533c0.496-0.334,1.098-0.445,1.806-0.333
					c0.747,0.119,1.304,0.414,1.672,0.886c0.368,0.472,0.498,1.051,0.389,1.739c-0.11,0.688-0.414,1.204-0.911,1.548
					c-0.498,0.344-1.12,0.456-1.867,0.338c-0.707-0.113-1.245-0.409-1.611-0.891C-730.691,43.642-730.82,43.057-730.71,42.369z"/>
			</g>
			<path fill="#00C4D6" d="M-752.274,38.377c0.112-0.821,0.25-1.737,0.384-2.554l1.43-9.046c-0.257-0.14-0.576-0.323-0.968-0.496
				c-0.393-0.174-0.819-0.356-1.283-0.522c-0.462-0.164-0.954-0.323-1.471-0.454c-0.521-0.137-1.04-0.247-1.57-0.333
				c-2.459-0.401-4.454-0.038-5.991,1.095c-1.535,1.13-2.519,3.004-2.941,5.619c-0.406,2.498-0.226,4.439,0.539,5.824
				c0.767,1.384,1.951,2.21,3.764,2.507c0.06,0.008,0.068,0.007,0.068,0.007c1.552,0.252,2.022-0.091,2.82-0.392
				c0.798-0.299,1.555-0.745,2.093-1.593l0.115,0.022l0.083,2.819l2.716,0.441C-752.387,39.749-752.393,39.197-752.274,38.377
				 M-760.567,35.54c-0.348-0.818-0.406-1.938-0.175-3.362c0.244-1.502,0.692-2.604,1.335-3.299c0.642-0.695,1.48-0.961,2.516-0.794
				c0.47,0.079,0.659,0.134,1.023,0.241c0.361,0.11,0.747,0.277,0.722,0.435l-1.074,6.586c-0.107,0.663-0.487,1.113-0.938,1.378
				c-0.457,0.269-0.94,0.357-1.682,0.239C-759.72,36.819-760.218,36.359-760.567,35.54"/>
		</g>
		<g>
			<g>
				<path fill="#3C3C3B" d="M-704.431,171.295c0.109-0.688,0.101-1.203-0.026-1.546c-0.127-0.343-0.387-0.545-0.78-0.608
					c-0.236-0.038-0.469-0.055-0.702-0.051c-0.232,0.003-0.526,0.047-0.882,0.132l0.066-3.072c0.34-0.108,0.846-0.188,1.519-0.242
					c0.673-0.054,1.354-0.026,2.042,0.083c1.12,0.178,1.934,0.575,2.44,1.189c0.507,0.614,0.665,1.521,0.474,2.72l-2.814,17.687
					l-3.832-0.61L-704.431,171.295z"/>
				<path fill="#3C3C3B" d="M-709.172,180.575l-2.034-0.324l-0.441,2.771l-4.006,0.481l0.614-3.862l-3.596-0.572l0.516-3.243
					l3.596,0.572l0.9-5.66c0.163-1.022,0.176-1.77,0.04-2.245c-0.136-0.475-0.489-0.758-1.059-0.848
					c-0.393-0.063-0.738-0.077-1.036-0.044c-0.297,0.033-0.635,0.1-1.014,0.201l-0.209-3.056c0.571-0.171,1.224-0.289,1.96-0.353
					c0.736-0.064,1.468-0.038,2.194,0.077c1.356,0.216,2.298,0.723,2.826,1.522c0.528,0.799,0.665,1.995,0.412,3.587l-1.182,7.429
					l2.034,0.324L-709.172,180.575z"/>
				<path fill="#3C3C3B" d="M-718.515,165.971c-0.109,0.688-0.412,1.198-0.909,1.533c-0.496,0.334-1.098,0.445-1.806,0.333
					c-0.747-0.119-1.304-0.414-1.672-0.886c-0.368-0.472-0.498-1.051-0.389-1.739c0.109-0.688,0.414-1.204,0.911-1.548
					s1.12-0.456,1.867-0.338c0.707,0.113,1.245,0.409,1.611,0.891C-718.534,164.699-718.406,165.283-718.515,165.971z"/>
			</g>
			<path fill="#00C4D6" d="M-696.951,169.964c-0.112,0.821-0.25,1.737-0.384,2.554l-1.43,9.046c0.257,0.14,0.576,0.323,0.968,0.496
				c0.393,0.174,0.819,0.356,1.283,0.522c0.462,0.164,0.954,0.323,1.471,0.454c0.521,0.137,1.04,0.247,1.57,0.333
				c2.459,0.401,4.454,0.038,5.991-1.095c1.535-1.13,2.519-3.004,2.942-5.619c0.406-2.498,0.226-4.439-0.539-5.824
				c-0.767-1.384-1.951-2.21-3.764-2.507c-0.06-0.008-0.068-0.007-0.068-0.007c-1.552-0.252-2.022,0.091-2.82,0.392
				c-0.798,0.299-1.555,0.745-2.093,1.593l-0.115-0.022l-0.083-2.819l-2.716-0.441
				C-696.838,168.591-696.832,169.144-696.951,169.964 M-688.658,172.8c0.348,0.818,0.406,1.938,0.175,3.362
				c-0.244,1.502-0.692,2.604-1.335,3.299c-0.642,0.695-1.48,0.961-2.516,0.794c-0.47-0.079-0.659-0.134-1.023-0.241
				c-0.361-0.11-0.747-0.277-0.722-0.435l1.074-6.586c0.107-0.663,0.487-1.113,0.938-1.378c0.457-0.27,0.94-0.357,1.682-0.239
				C-689.505,171.521-689.007,171.982-688.658,172.8"/>
		</g>
		<path fill="#00C4D6" d="M-707.371,123.862c0.374-2.744,0.836-5.806,1.283-8.539l4.781-30.244c-0.86-0.468-1.926-1.078-3.237-1.659
			c-1.314-0.581-2.737-1.189-4.289-1.745c-1.544-0.549-3.188-1.079-4.919-1.517c-1.74-0.458-3.476-0.825-5.249-1.113
			c-8.22-1.339-14.89-0.128-20.031,3.662c-5.134,3.778-8.422,10.044-9.834,18.788c-1.357,8.352-0.754,14.84,1.803,19.473
			c2.565,4.628,6.523,7.389,12.586,8.382c0.199,0.026,0.227,0.024,0.227,0.024c5.189,0.841,6.759-0.303,9.43-1.31
			c2.669-1.001,5.197-2.49,6.999-5.326l0.385,0.074l0.279,9.425l9.08,1.476C-707.747,128.45-707.766,126.603-707.371,123.862
			 M-735.094,114.378c-1.165-2.736-1.357-6.48-0.584-11.239c0.815-5.022,2.313-8.706,4.465-11.03
			c2.145-2.325,4.947-3.214,8.412-2.654c1.571,0.263,2.204,0.448,3.419,0.807c1.208,0.367,2.497,0.925,2.413,1.453l-3.591,22.019
			c-0.359,2.215-1.629,3.72-3.136,4.605c-1.528,0.901-3.144,1.194-5.622,0.8C-732.264,118.654-733.929,117.114-735.094,114.378"/>
	</g>
	<g>
		<path opacity="0.1" d="M-764.603,178.749c0.147,1.65-1.071,3.107-2.722,3.255l-129.486,11.545
			c-1.65,0.147-3.107-1.071-3.255-2.722L-916.76,3.569c-0.147-1.65,1.071-3.107,2.722-3.255l129.486-11.545
			c1.65-0.147,3.107,1.071,3.255,2.722L-764.603,178.749z"/>
		<path fill="#FFFFFF" d="M-768.603,175.749c0.147,1.65-1.071,3.107-2.722,3.255l-129.486,11.545
			c-1.65,0.147-3.107-1.071-3.255-2.722L-920.76,0.569c-0.147-1.65,1.071-3.107,2.722-3.255l129.486-11.545
			c1.65-0.147,3.107,1.071,3.255,2.722L-768.603,175.749z"/>
		
			<rect x="-912.819" y="43.828" transform="matrix(0.996 -0.0888 0.0888 0.996 -11.0299 -74.6811)" fill="none" width="136" height="85.582"/>
		
			<text transform="matrix(0.9961 -0.0888 0.0888 0.9961 -867.13 115.9571)" fill="#FA7063" font-family="'PTSans-Bold'" font-size="100">a</text>
		<g>
			<path fill="#FA7063" d="M-789.369,155.783c-0.749,0.421-1.652,0.782-2.707,1.083c-1.055,0.301-2.169,0.503-3.34,0.608
				c-1.015,0.09-1.875,0.044-2.58-0.139c-0.705-0.183-1.277-0.481-1.718-0.895c-0.44-0.414-0.771-0.925-0.993-1.535
				s-0.367-1.305-0.437-2.086c-0.077-0.859-0.125-1.725-0.143-2.599s-0.061-1.731-0.126-2.571c-0.065-0.84-0.162-1.653-0.291-2.438
				c-0.129-0.785-0.342-1.519-0.639-2.201l3.104-0.277l0.795,1.966l0.147-0.013c0.337-0.64,0.832-1.21,1.485-1.711
				c0.654-0.501,1.528-0.8,2.621-0.898c0.683-0.061,1.308-0.014,1.872,0.143c0.565,0.156,1.059,0.407,1.484,0.753
				c0.425,0.346,0.767,0.768,1.028,1.266c0.261,0.498,0.42,1.069,0.477,1.713c0.08,0.898-0.053,1.672-0.398,2.323
				c-0.345,0.65-0.877,1.2-1.594,1.647c-0.717,0.448-1.592,0.791-2.623,1.031c-1.031,0.239-2.194,0.387-3.487,0.444
				c-0.039,1.105,0.109,1.884,0.444,2.336c0.336,0.452,1.011,0.633,2.026,0.542c0.761-0.068,1.56-0.218,2.395-0.45
				c0.835-0.232,1.515-0.499,2.039-0.801L-789.369,155.783z M-795.171,145.321c-0.761,0.068-1.351,0.293-1.77,0.674
				c-0.418,0.381-0.717,0.777-0.898,1.187l0.17,1.903c0.611,0.005,1.192-0.037,1.745-0.126c0.553-0.089,1.038-0.22,1.455-0.395
				c0.417-0.175,0.742-0.401,0.973-0.677c0.231-0.277,0.329-0.61,0.294-1c-0.049-0.547-0.248-0.957-0.597-1.23
				C-794.148,145.382-794.605,145.27-795.171,145.321z"/>
			<path fill="#3C3C3B" d="M-808.694,148.563c-0.061-0.684-0.193-1.173-0.397-1.47c-0.204-0.297-0.5-0.428-0.891-0.393
				c-0.234,0.021-0.462,0.061-0.683,0.12c-0.221,0.059-0.491,0.171-0.811,0.338l-0.676-2.95c0.298-0.184,0.762-0.382,1.393-0.597
				c0.63-0.213,1.287-0.351,1.97-0.412c1.113-0.099,1.985,0.084,2.617,0.549c0.632,0.465,1.001,1.293,1.107,2.484l1.566,17.568
				l-3.807,0.339L-808.694,148.563z"/>
			<path fill="#3C3C3B" d="M-810.99,158.566l-2.02,0.18l0.245,2.752l-3.71,1.423l-0.342-3.836l-3.572,0.318l-0.287-3.221
				l3.572-0.318l-0.501-5.622c-0.091-1.015-0.258-1.733-0.502-2.154c-0.244-0.421-0.649-0.606-1.215-0.556
				c-0.39,0.035-0.724,0.104-1,0.207c-0.276,0.103-0.583,0.248-0.92,0.436l-0.934-2.868c0.504-0.301,1.1-0.57,1.787-0.809
				c0.687-0.238,1.392-0.39,2.114-0.454c1.347-0.12,2.369,0.138,3.065,0.774c0.696,0.636,1.115,1.745,1.256,3.326l0.658,7.379
				l2.02-0.18L-810.99,158.566z"/>
			<path fill="#3C3C3B" d="M-823.425,146.866c0.061,0.683-0.105,1.244-0.499,1.682c-0.394,0.438-0.942,0.689-1.645,0.752
				c-0.742,0.066-1.345-0.082-1.81-0.444c-0.465-0.362-0.728-0.884-0.789-1.567c-0.061-0.684,0.106-1.249,0.498-1.697
				c0.393-0.448,0.96-0.705,1.702-0.771c0.703-0.063,1.287,0.092,1.753,0.463C-823.749,145.655-823.486,146.182-823.425,146.866z"/>
		</g>
		<g>
			<path fill="#FA7063" d="M-899.994,20.536c0.749-0.421,1.652-0.782,2.707-1.083c1.055-0.301,2.169-0.503,3.34-0.608
				c1.015-0.09,1.875-0.044,2.58,0.139c0.705,0.183,1.277,0.481,1.718,0.895c0.44,0.414,0.771,0.925,0.993,1.535
				s0.367,1.305,0.437,2.086c0.077,0.859,0.125,1.725,0.143,2.599c0.019,0.874,0.061,1.731,0.126,2.571
				c0.065,0.84,0.162,1.653,0.291,2.438c0.129,0.785,0.342,1.519,0.639,2.201l-3.104,0.277l-0.795-1.966l-0.147,0.013
				c-0.337,0.64-0.832,1.21-1.485,1.711c-0.654,0.501-1.528,0.8-2.621,0.898c-0.683,0.061-1.308,0.014-1.872-0.143
				c-0.565-0.156-1.059-0.407-1.484-0.753c-0.425-0.346-0.767-0.768-1.028-1.266c-0.261-0.498-0.42-1.069-0.477-1.713
				c-0.08-0.898,0.053-1.672,0.398-2.323c0.345-0.65,0.877-1.2,1.594-1.647c0.717-0.448,1.592-0.791,2.623-1.031
				c1.031-0.239,2.194-0.387,3.487-0.444c0.039-1.105-0.109-1.884-0.444-2.336c-0.336-0.452-1.011-0.633-2.026-0.542
				c-0.761,0.068-1.56,0.218-2.395,0.45c-0.835,0.232-1.515,0.499-2.039,0.801L-899.994,20.536z M-894.192,30.998
				c0.761-0.068,1.351-0.293,1.77-0.674c0.418-0.381,0.717-0.777,0.898-1.187l-0.17-1.903c-0.611-0.005-1.192,0.037-1.745,0.126
				c-0.553,0.089-1.038,0.22-1.455,0.395c-0.417,0.175-0.742,0.401-0.973,0.677c-0.231,0.277-0.329,0.61-0.294,1
				c0.049,0.547,0.248,0.957,0.597,1.23C-895.215,30.937-894.758,31.048-894.192,30.998z"/>
			<path fill="#3C3C3B" d="M-880.669,27.755c0.061,0.684,0.193,1.173,0.397,1.47c0.204,0.297,0.5,0.428,0.891,0.393
				c0.234-0.021,0.462-0.061,0.683-0.12c0.221-0.059,0.491-0.171,0.811-0.338l0.676,2.95c-0.298,0.184-0.762,0.382-1.393,0.597
				c-0.63,0.213-1.287,0.351-1.97,0.412c-1.113,0.099-1.985-0.084-2.617-0.549c-0.632-0.465-1.001-1.293-1.107-2.484l-1.566-17.568
				l3.807-0.339L-880.669,27.755z"/>
			<path fill="#3C3C3B" d="M-878.373,17.752l2.02-0.18l-0.245-2.752l3.71-1.423l0.342,3.836l3.572-0.318l0.287,3.221l-3.572,0.318
				l0.501,5.622c0.091,1.015,0.258,1.733,0.502,2.154c0.244,0.421,0.649,0.606,1.215,0.556c0.39-0.035,0.724-0.104,1-0.207
				c0.276-0.103,0.583-0.248,0.92-0.436l0.934,2.868c-0.504,0.301-1.1,0.57-1.787,0.809c-0.687,0.238-1.392,0.39-2.114,0.454
				c-1.347,0.12-2.369-0.138-3.065-0.774c-0.696-0.636-1.115-1.745-1.256-3.326l-0.658-7.379l-2.02,0.18L-878.373,17.752z"/>
			<path fill="#3C3C3B" d="M-865.938,29.452c-0.061-0.683,0.105-1.244,0.499-1.682c0.394-0.438,0.942-0.689,1.645-0.752
				c0.742-0.066,1.345,0.082,1.81,0.444c0.465,0.362,0.728,0.884,0.789,1.567c0.061,0.684-0.106,1.249-0.498,1.697
				c-0.393,0.448-0.96,0.705-1.702,0.771c-0.703,0.063-1.287-0.092-1.753-0.463C-865.614,30.663-865.877,30.136-865.938,29.452z"/>
		</g>
	</g>
</g>
<g>
	<g>
		<path opacity="0.1" d="M-435.681,200.808c0,1.301-1.062,2.352-2.363,2.352h-125.642c-1.301,0-1.995-1.05-1.995-2.352V37.473
			c0-1.301,0.694-2.314,1.995-2.314h128.005c0,2,0,1.013,0,2.314V200.808z"/>
		<path fill="#CBB19B" d="M-432.681,197.808c0,1.301-1.062,2.352-2.363,2.352h-125.642c-1.301,0-1.995-1.05-1.995-2.352V34.473
			c0-1.301,0.694-2.314,1.995-2.314h128.005c0,2,0,1.013,0,2.314V197.808z"/>
		<path fill="#917D6E" d="M-549.682,200.159c-2,0-1.851,0-3.152,0h-7.853c-1.301,0-1.995-1.05-1.995-2.352V34.473
			c0-1.301,0.694-2.314,1.995-2.314h11.005c0,2,0,1.013,0,2.314V200.159z"/>
	</g>
	<g>
		<path opacity="0.1" d="M-393.681,200.435c0,1.507-1.199,2.724-2.706,2.724h-145.565c-1.507,0-2.729-1.217-2.729-2.724V11.201
			c0-1.507,1.222-2.042,2.729-2.042h148.271c0,2,0,0.534,0,2.042V200.435z"/>
		<path fill="#CBB19B" d="M-390.681,197.435c0,1.507-1.199,2.724-2.706,2.724h-145.565c-1.507,0-2.729-1.217-2.729-2.724V8.201
			c0-1.507,1.222-2.042,2.729-2.042h148.271c0,2,0,0.534,0,2.042V197.435z"/>
		<path fill="#917D6E" d="M-526.682,200.159c-2,0-1.665,0-3.173,0h-9.098c-1.507,0-2.729-1.217-2.729-2.724V8.201
			c0-1.507,1.222-2.042,2.729-2.042h12.271c0,2,0,0.534,0,2.042V200.159z"/>
	</g>
	<g>
		<g opacity="0.1">
			<path d="M-355.681,149.842c5.235-0.972,9.25-5.392,9.658-10.683l0.041-31c-0.041-5.311-4.201-10.383-9.687-11.48
				c5.229-0.946,9.238-5.233,9.646-10.52l0.041-31c-0.041-6.201-4.207-10.725-9.7-11.679V149.842z"/>
			<path d="M-358.681,203.159h-0.259c0.361,0.033,0.726,0.055,1.096,0.055c6.259,0,11.359-5.055,11.821-11.055l0.041-30
				c-0.041-6.201-4.207-10.854-9.7-11.837v49.837C-355.681,201.816-357.025,203.159-358.681,203.159z"/>
			<path d="M-505.681-10.841h-13c-1.657,0-3,1.343-3,3v208c0,1.657,1.343,3,3,3h10h3v-211
				C-505.681-9.498-505.681-8.424-505.681-10.841z"/>
			<path d="M-343.686,1.159c-0.047-6.594-5.395-11.927-11.996-11.945c0-0.019,0-0.035,0-0.055h-150c0,2.417,0,1.343,0,3v211h146.741
				h0.259c1.657,0,3-1.343,3-3v-49.837v-0.479V43.48v-0.203c6.322-0.017,11.486-4.912,11.954-11.118h0.046v-31H-343.686z"/>
		</g>
		<path fill="#917D6E" d="M-342.982,52.159c-0.046-7-5.346-11.873-11.881-11.873c-6.564,0-11.885,5.285-11.885,11.849
			s5.396,11.867,11.96,11.867c0.011,0,0.107-0.02,0.107-0.02v5.863c0,0-0.096-0.002-0.107-0.002
			c-6.564,0-11.923,5.321-11.923,11.885c0,6.564,5.303,12.149,11.867,12.149c6.26,0,11.359-4.719,11.821-10.719"/>
		<path fill="#917D6E" d="M-342.982,105.159c-0.046-6-5.346-11.706-11.881-11.706c-6.564,0-11.885,5.369-11.885,11.933
			c0,6.564,5.396,11.909,11.96,11.909c0.011,0,0.107,0.022,0.107,0.022v5.863c0,0-0.096-0.002-0.107-0.002
			c-6.564,0-11.923,5.321-11.923,11.885s5.303,11.982,11.867,11.982c6.26,0,11.359-4.887,11.821-10.887"/>
		<path fill="#917D6E" d="M-342.982,159.159c-0.046-7-5.346-12.038-11.881-12.038c-6.564,0-11.885,5.202-11.885,11.767
			s5.396,11.826,11.96,11.826c0.011,0,0.107-0.061,0.107-0.061v5.863c0,0-0.096-0.002-0.107-0.002
			c-6.564,0-11.923,5.321-11.923,11.885c0,6.564,5.303,11.814,11.867,11.814c6.26,0,11.359-5.055,11.821-11.055"/>
		<path fill="#CBB19B" d="M-352.681,197.159c0,1.657-1.343,3-3,3h-160c-1.657,0-3-1.343-3-3v-208c0-1.657,1.343-3,3-3h163
			c0,2.417,0,1.343,0,3V197.159z"/>
		<path fill="#917D6E" d="M-502.681,200.159c-1.784,0-1.343,0-3,0h-10c-1.657,0-3-1.343-3-3v-208c0-1.657,1.343-3,3-3h13
			c0,2.417,0,1.343,0,3V200.159z"/>
		<path fill="#CBB19B" d="M-340.686-1.841c-0.047-6.606-5.412-11.947-12.029-11.947c-6.646,0-12.033,5.388-12.033,12.033
			s5.388,12.033,12.033,12.033c0.011,0,0.022-0.002,0.033-0.002v5.937c-0.011,0-0.022-0.002-0.033-0.002
			c-6.646,0-12.033,5.388-12.033,12.033s5.388,12.033,12.033,12.033c6.337,0,11.519-4.902,11.987-11.12h0.046v-31H-340.686z"/>
	</g>
	<path fill="#FFFFFF" d="M-381.179,65.196c0.082,26.344-21.207,47.767-47.553,47.848c-26.342,0.082-47.765-21.209-47.845-47.553
		c-0.082-26.346,21.209-47.766,47.552-47.848C-402.681,17.561-381.261,38.852-381.179,65.196"/>
	<polygon fill="#6F6F6E" points="-415.877,88.306 -419.839,99.876 -437.556,99.928 -441.59,88.384 -437.495,85.389 -419.987,85.335 
			"/>
	
		<rect x="-437.506" y="76.424" transform="matrix(1 -0.0031 0.0031 1 -0.2922 -1.3136)" fill="#E3C3AA" width="18.266" height="36.329"/>
	<polygon fill="#36E2AE" points="-407.64,105.601 -428.224,111.082 -447.708,106.807 -436.796,91.859 -428.536,93.355 
		-419.97,91.807 	"/>
	<path fill="#FFFFFF" d="M-428.751,70.343l-6.359,0.021c0.009,2.969,2.863,5.367,6.377,5.356c3.514-0.011,6.353-2.426,6.343-5.397
		L-428.751,70.343z"/>
	<polygon fill="#B17F49" points="-437.946,32.821 -419.303,33.712 -409.497,39.174 -407.783,58.952 -411.637,68.204 
		-413.458,49.792 -420.985,53.747 -439.2,54.446 -444.383,55.622 -445.169,68.307 -448.844,58.831 -447.922,44.784 	"/>
	<g opacity="0.1" enable-background="new    ">
		<g>
			<defs>
				<rect id="SVGID_1_" x="-421.3" y="32.964" width="14" height="36"/>
			</defs>
			<clipPath id="SVGID_2_">
				<use xlink:href="#SVGID_1_"  overflow="visible"/>
			</clipPath>
			<g clip-path="url(#SVGID_2_)">
				<defs>
					<rect id="SVGID_3_" x="-420.985" y="33.712" width="13.202" height="34.492"/>
				</defs>
				<clipPath id="SVGID_4_">
					<use xlink:href="#SVGID_3_"  overflow="visible"/>
				</clipPath>
				<polygon clip-path="url(#SVGID_4_)" fill="#FFFFFF" points="-419.304,33.712 -409.497,39.174 -407.783,58.952 -411.638,68.204 
					-413.458,49.792 -420.986,53.747 				"/>
			</g>
		</g>
	</g>
	<polygon fill="#E3C3AA" points="-413.458,49.792 -411.638,68.204 -415.589,75.68 -425.34,81.429 -431.688,81.446 -440.397,76.304 
		-445.169,68.308 -444.384,55.622 -439.2,54.446 -420.985,53.747 	"/>
	<polygon fill="#D0B6A6" points="-428.282,69.594 -430.474,68.474 -426.093,68.46 	"/>
	<polygon fill="#D8BCA7" points="-437.558,77.982 -431.689,81.446 -425.34,81.428 -419.292,77.925 -419.275,83.995 -430.411,88.894 
		-437.537,84.622 	"/>
	<line fill="#56AEAB" x1="-432.337" y1="109.152" x2="-423.737" y2="109.126"/>
	<polygon fill="#B98557" points="-431.689,81.446 -425.151,81.427 -415.589,75.679 -412.396,69.728 -423.664,71.329 
		-428.398,70.164 -433.141,71.317 -444.403,69.827 -440.398,76.303 	"/>
	<path fill="#FFFFFF" d="M-428.335,75.226l-3.385-0.268c0.006,1.393,1.524,3.076,3.393,3.072c1.869-0.007,3.379-1.7,3.374-3.092
		L-428.335,75.226z"/>
	<path fill="#3C3C3B" d="M-428.732,113.044c14.516-0.045,27.486-6.577,36.205-16.833l-3.929-4.921l-19.614-2.425l-3.769,11.011
		l-8.633,7.867l-0.572-0.036l-8.512-7.778l-3.701-10.478l-19.736,2.038l-3.967,5.036
		C-456.181,106.675-443.205,113.088-428.732,113.044"/>
	<g>
		<path fill="#FFFFFF" d="M-462.441,134.94c-4.18,6.177-12.579,7.797-18.756,3.616c-6.178-4.181-7.798-12.579-3.618-18.757
			c4.181-6.179,12.579-7.798,18.758-3.616C-459.879,120.361-458.259,128.76-462.441,134.94"/>
		<path fill="#36E2AE" d="M-480.307,130.227c0.066-0.618,0.259-1.196,0.576-1.732c0.317-0.54,0.706-1.029,1.164-1.472
			c0.459-0.443,0.965-0.831,1.522-1.164c0.552-0.334,1.1-0.602,1.641-0.811c-0.066-0.247-0.122-0.469-0.169-0.667
			c-0.046-0.196-0.081-0.394-0.105-0.591c-0.027-0.195-0.038-0.396-0.035-0.601c0.003-0.206,0.015-0.441,0.044-0.703
			c0.038-0.357,0.142-0.704,0.313-1.044c0.167-0.344,0.407-0.641,0.714-0.892c0.305-0.253,0.676-0.446,1.107-0.58
			c0.434-0.133,0.94-0.17,1.517-0.106c0.46,0.049,0.826,0.149,1.095,0.306c0.27,0.156,0.475,0.334,0.612,0.534
			c0.138,0.201,0.22,0.416,0.249,0.646c0.03,0.23,0.032,0.44,0.011,0.639c-0.08,0.748-0.439,1.412-1.081,1.987
			c-0.638,0.577-1.482,1.082-2.524,1.514c0.09,0.398,0.202,0.805,0.339,1.224c0.133,0.421,0.281,0.839,0.45,1.257
			c0.17,0.418,0.352,0.833,0.545,1.245c0.197,0.413,0.397,0.796,0.599,1.153c0.188-0.142,0.388-0.324,0.607-0.546
			c0.215-0.222,0.429-0.46,0.643-0.71c0.213-0.249,0.421-0.508,0.622-0.78c0.201-0.271,0.388-0.529,0.562-0.777l0.982,0.683
			c-0.143,0.211-0.335,0.459-0.578,0.745c-0.243,0.286-0.499,0.579-0.773,0.875c-0.269,0.298-0.541,0.58-0.807,0.851
			c-0.269,0.27-0.505,0.493-0.711,0.671c0.364,0.573,0.678,1.01,0.947,1.32c0.267,0.307,0.554,0.584,0.858,0.828l-1.262,0.983
			c-0.283-0.204-0.578-0.491-0.883-0.855c-0.309-0.362-0.601-0.78-0.884-1.25c-0.303,0.208-0.622,0.402-0.961,0.585
			c-0.34,0.182-0.703,0.341-1.086,0.473c-0.388,0.13-0.801,0.226-1.239,0.287c-0.44,0.058-0.903,0.061-1.388,0.009
			c-0.553-0.059-1.039-0.189-1.465-0.395c-0.423-0.206-0.774-0.464-1.052-0.778c-0.28-0.318-0.48-0.676-0.603-1.073
			C-480.319,131.118-480.356,130.687-480.307,130.227 M-472.986,131.348c-0.235-0.408-0.458-0.853-0.665-1.325
			c-0.209-0.476-0.402-0.948-0.578-1.421c-0.173-0.469-0.328-0.922-0.463-1.355c-0.132-0.432-0.242-0.814-0.326-1.143
			c-0.503,0.253-0.973,0.528-1.405,0.828c-0.429,0.299-0.807,0.615-1.127,0.945c-0.324,0.333-0.582,0.68-0.78,1.044
			c-0.2,0.365-0.321,0.746-0.363,1.139c-0.076,0.71,0.084,1.264,0.482,1.667c0.394,0.402,0.985,0.644,1.776,0.729
			c0.314,0.034,0.634,0.024,0.96-0.028c0.325-0.051,0.638-0.131,0.941-0.239c0.305-0.105,0.588-0.231,0.849-0.377
			C-473.423,131.669-473.192,131.513-472.986,131.348 M-474.185,122.603c-0.02,0.199-0.035,0.376-0.037,0.535
			c-0.003,0.162,0.004,0.309,0.023,0.452c0.018,0.142,0.042,0.287,0.072,0.435c0.031,0.15,0.077,0.327,0.133,0.533
			c0.798-0.367,1.406-0.734,1.824-1.1c0.419-0.369,0.653-0.801,0.707-1.301c0.027-0.265-0.025-0.494-0.155-0.694
			c-0.133-0.199-0.383-0.321-0.75-0.359c-0.301-0.034-0.562-0.015-0.773,0.055c-0.215,0.071-0.395,0.182-0.544,0.333
			c-0.149,0.148-0.264,0.323-0.344,0.522C-474.111,122.211-474.164,122.407-474.185,122.603"/>
	</g>
	<g>
		<circle fill="#FFFFFF" cx="-410.491" cy="157.571" r="27.07"/>
		<path fill="#FF725E" d="M-393.207,160.648c-0.365,0.378-0.858,0.69-1.483,0.941c-0.625,0.25-1.278,0.439-1.96,0.565
			c-0.826,0.154-1.632,0.171-2.421,0.053c-0.787-0.118-1.517-0.41-2.187-0.876c-0.67-0.465-1.255-1.121-1.759-1.97
			c-0.503-0.849-0.874-1.922-1.116-3.221c-0.25-1.35-0.273-2.516-0.07-3.496c0.204-0.982,0.554-1.804,1.046-2.473
			c0.494-0.668,1.083-1.19,1.773-1.57c0.69-0.378,1.401-0.636,2.136-0.773c0.786-0.145,1.461-0.217,2.025-0.214
			c0.564,0.006,1.036,0.046,1.417,0.123l-0.107,2.38c-0.33-0.088-0.706-0.126-1.132-0.116c-0.424,0.012-0.932,0.072-1.521,0.18
			c-1.089,0.204-1.891,0.753-2.41,1.651c-0.517,0.899-0.626,2.161-0.323,3.79c0.131,0.709,0.331,1.343,0.596,1.898
			s0.598,1.01,0.996,1.363c0.398,0.354,0.858,0.603,1.38,0.744c0.519,0.14,1.095,0.153,1.724,0.035
			c0.591-0.109,1.078-0.26,1.463-0.455c0.383-0.193,0.709-0.408,0.977-0.65L-393.207,160.648z"/>
		<path fill="#FF725E" d="M-406.742,152.82c0.063,0.34,0.083,0.689,0.062,1.047c-0.021,0.357-0.104,0.696-0.249,1.013
			c-0.143,0.318-0.354,0.614-0.628,0.889c-0.274,0.275-0.624,0.508-1.051,0.693l0.022,0.119c0.406-0.007,0.799,0.034,1.184,0.126
			c0.382,0.092,0.731,0.25,1.044,0.478c0.313,0.227,0.582,0.522,0.806,0.887c0.223,0.365,0.386,0.816,0.486,1.354
			c0.131,0.709,0.094,1.35-0.112,1.923c-0.206,0.575-0.53,1.072-0.973,1.493c-0.445,0.422-0.972,0.771-1.585,1.046
			c-0.613,0.277-1.262,0.48-1.943,0.607c-0.222,0.04-0.508,0.093-0.853,0.159c-0.347,0.065-0.724,0.124-1.127,0.179
			c-0.404,0.055-0.817,0.1-1.237,0.139c-0.419,0.037-0.807,0.047-1.162,0.032l-2.52-13.569c0.241-0.086,0.52-0.178,0.834-0.276
			c0.313-0.098,0.651-0.196,1.013-0.291c0.362-0.094,0.736-0.183,1.12-0.268c0.384-0.085,0.766-0.164,1.148-0.234
			c0.64-0.119,1.277-0.187,1.902-0.201c0.628-0.015,1.206,0.058,1.73,0.218c0.524,0.16,0.973,0.436,1.343,0.828
			C-407.119,151.601-406.868,152.139-406.742,152.82 M-412.064,156.473c0.183-0.035,0.395-0.081,0.635-0.138
			c0.241-0.057,0.437-0.115,0.589-0.171c0.468-0.248,0.855-0.56,1.159-0.938c0.301-0.38,0.406-0.821,0.313-1.327
			c-0.063-0.338-0.18-0.604-0.354-0.8c-0.172-0.196-0.376-0.339-0.617-0.428c-0.241-0.089-0.503-0.134-0.787-0.134
			c-0.286-0.001-0.579,0.026-0.881,0.081c-0.341,0.064-0.655,0.128-0.94,0.197c-0.286,0.064-0.506,0.124-0.657,0.181l0.676,3.638
			L-412.064,156.473z M-410.08,162.228c0.326-0.06,0.637-0.16,0.931-0.294c0.294-0.135,0.543-0.306,0.75-0.511
			c0.205-0.207,0.358-0.447,0.456-0.72c0.1-0.273,0.116-0.579,0.053-0.916c-0.079-0.428-0.227-0.75-0.443-0.964
			c-0.216-0.216-0.475-0.366-0.776-0.451c-0.301-0.085-0.626-0.116-0.974-0.091c-0.347,0.024-0.692,0.068-1.033,0.132l-1.437,0.266
			l0.7,3.757c0.069,0.014,0.178,0.013,0.325-0.001c0.146-0.014,0.301-0.032,0.467-0.057c0.166-0.023,0.337-0.048,0.516-0.075
			C-410.367,162.277-410.211,162.253-410.08,162.228"/>
		<path fill="#FF725E" d="M-419.722,163.002l-4.228,0.785l-0.475,3.241l-2.693,0.5l2.381-14.783l1.984-0.369l7.531,12.944
			l-2.833,0.525L-419.722,163.002z M-423.662,161.496l2.95-0.548l-1.592-2.877l-0.815-2.087l-0.099,0.018l-0.008,2.259
			L-423.662,161.496z"/>
	</g>
	<g>
		<circle fill="#00C4D6" cx="-389.497" cy="21.234" r="17.086"/>
		<g>
			<path fill="#FFFFFF" d="M-396.915,20.092l-2.088-3.584l1.368,0.104l1.18,2.027l0.331,0.825l0.464-0.765l1.501-1.824l1.256,0.095
				l-2.613,3.171l2.225,3.819l-1.326-0.101l-1.319-2.234l-0.355-0.869l-0.496,0.805l-1.669,2.008l-1.243-0.094L-396.915,20.092z"/>
			<path fill="#FFFFFF" d="M-388.98,21.816l0.291,1.37l0.069,0.005l0.411-1.331l1.701-4.406l1.117,0.085l-2.541,6.112
				c-0.193,0.444-0.383,0.874-0.568,1.291c-0.186,0.416-0.386,0.785-0.597,1.106c-0.211,0.321-0.441,0.572-0.689,0.755
				s-0.525,0.262-0.832,0.239c-0.335-0.025-0.606-0.093-0.813-0.202l0.269-0.948c0.117,0.055,0.231,0.088,0.343,0.096
				c0.26,0.02,0.522-0.099,0.785-0.355c0.263-0.256,0.499-0.713,0.708-1.371l-2.277-7.193l1.284,0.097L-388.98,21.816z"/>
			<path fill="#FFFFFF" d="M-384.576,23.638l3.562-4.195l0.631-0.542l-3.811-0.289l0.074-0.977l4.97,0.377l-0.074,0.977l-3.58,4.236
				l-0.612,0.501l3.811,0.289l-0.074,0.977l-4.97-0.377L-384.576,23.638z"/>
		</g>
	</g>
</g>
<circle fill="#1C1C1C" cx="-127.507" cy="100.159" r="67.012"/>
<g>
	
		<circle fill="none" stroke="#1C1C1C" stroke-width="10" stroke-linecap="round" stroke-miterlimit="10" stroke-dasharray="19.9309,29.8964" cx="-127.507" cy="100.159" r="95.159"/>
</g>
<line fill="none" stroke="#FFFFFF" stroke-width="9" stroke-linecap="round" stroke-miterlimit="10" x1="-127.007" y1="119.159" x2="-127.007" y2="81.159"/>
<line fill="none" stroke="#FFFFFF" stroke-width="9" stroke-linecap="round" stroke-miterlimit="10" x1="-146.507" y1="100.659" x2="-108.507" y2="100.659"/>
<g>
	
		<line fill="none" stroke="#00C4D6" stroke-width="12" stroke-linecap="round" stroke-miterlimit="10" x1="81.652" y1="85.783" x2="81.652" y2="47.783"/>
	
		<line fill="none" stroke="#00C4D6" stroke-width="12" stroke-linecap="round" stroke-miterlimit="10" x1="62.152" y1="67.283" x2="100.152" y2="67.283"/>
</g>
<g>
	
		<line fill="none" stroke="#ED544C" stroke-width="9.4737" stroke-linecap="round" stroke-miterlimit="10" x1="114.547" y1="132.685" x2="114.547" y2="102.685"/>
	
		<line fill="none" stroke="#ED544C" stroke-width="9.4737" stroke-linecap="round" stroke-miterlimit="10" x1="99.152" y1="118.08" x2="129.152" y2="118.08"/>
</g>
<g>
	
		<line fill="none" stroke="#ED544C" stroke-width="9.4737" stroke-linecap="round" stroke-miterlimit="10" x1="53.547" y1="124.685" x2="53.547" y2="94.685"/>
	
		<line fill="none" stroke="#ED544C" stroke-width="9.4737" stroke-linecap="round" stroke-miterlimit="10" x1="38.152" y1="110.08" x2="68.152" y2="110.08"/>
</g>
<g>
	
		<line fill="none" stroke="#ED544C" stroke-width="9.4737" stroke-linecap="round" stroke-miterlimit="10" x1="96.547" y1="182.659" x2="96.547" y2="152.659"/>
	
		<line fill="none" stroke="#ED544C" stroke-width="9.4737" stroke-linecap="round" stroke-miterlimit="10" x1="81.152" y1="168.054" x2="111.152" y2="168.054"/>
</g>
<g>
	
		<line fill="none" stroke="#00C4D6" stroke-width="6.6316" stroke-linecap="round" stroke-miterlimit="10" x1="79.428" y1="148.185" x2="79.428" y2="127.185"/>
	
		<line fill="none" stroke="#00C4D6" stroke-width="6.6316" stroke-linecap="round" stroke-miterlimit="10" x1="68.652" y1="137.961" x2="89.652" y2="137.961"/>
</g>
<g>
	
		<line fill="none" stroke="#ED544C" stroke-width="6.6316" stroke-linecap="round" stroke-miterlimit="10" x1="38.428" y1="158.185" x2="38.428" y2="137.185"/>
	
		<line fill="none" stroke="#ED544C" stroke-width="6.6316" stroke-linecap="round" stroke-miterlimit="10" x1="27.652" y1="147.961" x2="48.652" y2="147.961"/>
</g>
<g>
	
		<line fill="none" stroke="#ED544C" stroke-width="3.7895" stroke-linecap="round" stroke-miterlimit="10" x1="58.7" y1="164.659" x2="58.7" y2="152.659"/>
	
		<line fill="none" stroke="#ED544C" stroke-width="3.7895" stroke-linecap="round" stroke-miterlimit="10" x1="52.542" y1="158.817" x2="64.542" y2="158.817"/>
</g>
<g>
	
		<line fill="none" stroke="#00C4D6" stroke-width="3.7895" stroke-linecap="round" stroke-miterlimit="10" x1="138.7" y1="145.659" x2="138.7" y2="133.659"/>
	
		<line fill="none" stroke="#00C4D6" stroke-width="3.7895" stroke-linecap="round" stroke-miterlimit="10" x1="132.542" y1="139.817" x2="144.542" y2="139.817"/>
</g>
<g>
	
		<line fill="none" stroke="#00C4D6" stroke-width="3.7895" stroke-linecap="round" stroke-miterlimit="10" x1="66.342" y1="192.501" x2="66.342" y2="180.501"/>
	
		<line fill="none" stroke="#00C4D6" stroke-width="3.7895" stroke-linecap="round" stroke-miterlimit="10" x1="60.184" y1="186.659" x2="72.184" y2="186.659"/>
</g>
<g>
	
		<line fill="none" stroke="#00C4D6" stroke-width="3.7895" stroke-linecap="round" stroke-miterlimit="10" x1="31.7" y1="184.817" x2="31.7" y2="172.817"/>
	
		<line fill="none" stroke="#00C4D6" stroke-width="3.7895" stroke-linecap="round" stroke-miterlimit="10" x1="25.542" y1="178.975" x2="37.542" y2="178.975"/>
</g>
<g>
	
		<line fill="none" stroke="#00C4D6" stroke-width="3.7895" stroke-linecap="round" stroke-miterlimit="10" x1="21.81" y1="134.463" x2="21.81" y2="122.463"/>
	
		<line fill="none" stroke="#00C4D6" stroke-width="3.7895" stroke-linecap="round" stroke-miterlimit="10" x1="15.652" y1="128.621" x2="27.652" y2="128.621"/>
</g>
<path fill="#FFFFFF" d="M176.278,11.271c5.507,3.734,10.328,9.374,14.472,16.899c3.754,6.81,5.663,12.975,5.723,18.502
	c0.066,5.52-1.164,10.468-3.671,14.824c-2.527,4.366-6.079,8.08-10.664,11.183c-4.579,3.083-9.723,5.563-15.426,7.435
	c-0.552,0.18-1.437,0.469-2.637,0.865c-1.214,0.402-2.487,0.785-3.837,1.164c-1.323,0.386-2.677,0.732-3.987,1.047
	c-1.317,0.303-2.281,0.499-2.876,0.585l20.55,37.286l-22.542,7.402L92.275,21.21c4.15-2.334,8.865-4.639,14.159-6.936
	c5.281-2.278,10.664-4.323,16.147-6.122c5.703-1.872,11.678-3.312,17.92-4.326c6.248-1.014,12.397-0.961,18.459,0.156
	C165.008,5.106,170.788,7.53,176.278,11.271z M170.199,46.067c0.013-2.93-1.097-6.401-3.312-10.425
	c-1.875-3.398-4.09-5.992-6.624-7.794c-2.534-1.782-5.254-2.996-8.124-3.631c-2.883-0.632-5.839-0.761-8.865-0.379
	c-3.019,0.386-5.962,1.051-8.812,1.992c-2.195,0.718-4.23,1.47-6.132,2.274c-1.889,0.801-3.388,1.51-4.472,2.108l19.353,35.128
	c0.505-0.03,1.214-0.15,2.148-0.326c0.941-0.193,1.922-0.416,2.923-0.695c1.021-0.269,1.998-0.559,2.936-0.865
	c0.914-0.303,1.609-0.532,2.052-0.678c2.969-0.971,5.753-2.201,8.373-3.668c2.617-1.466,4.702-3.272,6.248-5.424
	C169.418,51.54,170.186,48.999,170.199,46.067"/>
<linearGradient id="SVGID_5_" gradientUnits="userSpaceOnUse" x1="173.9234" y1="121.0612" x2="173.9234" y2="121.0612">
	<stop  offset="0" style="stop-color:#000000;stop-opacity:0"/>
	<stop  offset="1" style="stop-color:#000000;stop-opacity:0.2"/>
</linearGradient>
<path fill="url(#SVGID_5_)" d="M173.923,121.061"/>
</svg>
