<?xml version="1.0" encoding="utf-8"?>
<!-- Generator: Adobe Illustrator 16.0.0, SVG Export Plug-In . SVG Version: 6.00 Build 0)  -->
<!DOCTYPE svg PUBLIC "-//W3C//DTD SVG 1.1//EN" "http://www.w3.org/Graphics/SVG/1.1/DTD/svg11.dtd">
<svg version="1.1" id="Calque_1" xmlns="http://www.w3.org/2000/svg" xmlns:xlink="http://www.w3.org/1999/xlink" x="0px" y="0px"
	 width="266px" height="217.971px" viewBox="0 0 266 217.971" enable-background="new 0 0 266 217.971" xml:space="preserve">
<rect x="-1700" y="-258" display="none" fill="#3C3C3B" width="2252" height="1043"/>
<g>
	<path fill="#FFFFFF" d="M26.817,86.402L10.443,18.174h13.188l10.552,48.125h-1.271l12.552-48.125H57.29l12.556,48.125h-1.274
		l10.552-48.125h13.192L75.941,86.402H64.116L50.649,37.188h1.456L38.643,86.402H26.817z"/>
	<path fill="#FFFFFF" d="M101.004,18.174h12.281v68.228h-12.281V18.174z"/>
	<path fill="#49E4A9" d="M128.762,18.174h12.281v68.228h-12.281V18.174z M141.043,27.726v-9.551h39.097
		c24.562,0,35.477,14.555,35.477,34.114c0,22.288-11.37,34.114-32.747,34.114h-41.826v-9.552h40.915
		c13.192,0,20.47-5.004,20.47-24.562c0-14.555-6.37-24.562-20.926-24.562H141.043z"/>
	<path fill="#FFFFFF" d="M225.209,58.203h24.106v8.64h-24.106V58.203z"/>
	<path fill="#FF725E" d="M128.42,97.833h12.281v68.229H128.42V97.833z M238.722,125.124v10.008H134.786v-10.008H238.722z
		 M235.085,97.833h12.281v68.229h-12.281V97.833z"/>
</g>
<path fill="#FFFFFF" d="M128.42,97.596h12.367V166.3H128.42V97.596z M176.053,125.078v10.077H134.83v-10.077H176.053z
	 M172.391,97.596h12.367V166.3h-12.367V97.596z"/>
<path fill="#FFFFFF" d="M128.762,17.937h12.367v68.704h-12.367V17.937z M141.129,27.555v-9.618h9.16
	c24.734,0,35.725,14.657,35.725,34.352c0,22.444-11.449,34.352-32.977,34.352h-11.908v-9.618h10.991
	c13.284,0,20.612-5.039,20.612-24.734c0-14.656-6.414-24.734-21.071-24.734H141.129z"/>
<path fill="#00C4D6" d="M119.932,97.596v10.078H27.26V97.596H119.932z M67.41,97.596h12.368v68.705H67.41V97.596z"/>
<rect x="47.26" y="97.596" fill="#FFFFFF" width="52.672" height="10.078"/>
<rect x="67.41" y="97.596" fill="#FFFFFF" width="12.368" height="68.705"/>
<g>
	<path fill="#FFFFFF" d="M97.968,204.128c0-6.959,5.639-12.603,12.601-12.603h44.861c6.961,0,12.602,5.644,12.602,12.603l0,0
		c0,6.958-5.642,12.601-12.602,12.601h-44.861C103.606,216.729,97.968,211.086,97.968,204.128L97.968,204.128z"/>
	<path fill="#FBE173" d="M124.528,204.128c0-6.959,5.642-12.603,12.603-12.603h18.239c6.959,0,12.601,5.644,12.601,12.603l0,0
		c0,6.958-5.642,12.601-12.601,12.601h-18.239C130.17,216.729,124.528,211.086,124.528,204.128L124.528,204.128z"/>
	<g>
		<path fill="#3B3B3B" d="M137.479,208.505h6.765c1.098,0,1.99-0.893,1.99-1.991v-0.105h-1.597v0.105
			c0,0.217-0.177,0.393-0.394,0.393h-6.765c-0.215,0-0.393-0.176-0.393-0.393v-4.773c0-0.216,0.178-0.393,0.393-0.393h6.765
			c0.217,0,0.394,0.177,0.394,0.393v0.107h1.597v-0.107c0-1.099-0.893-1.991-1.99-1.991h-6.765c-1.098,0-1.991,0.893-1.991,1.991
			v4.773C135.487,207.612,136.381,208.505,137.479,208.505z"/>
		<path fill="#3B3B3B" d="M149.228,201.74c0-0.216,0.178-0.393,0.392-0.393h6.766c0.22,0,0.396,0.177,0.396,0.393v4.773
			c0,0.217-0.177,0.393-0.396,0.393h-6.766c-0.214,0-0.392-0.176-0.392-0.393v-0.105h-1.597v0.105c0,1.099,0.894,1.991,1.988,1.991
			h6.765c1.097,0,1.993-0.893,1.993-1.991v-4.773c0-1.099-0.896-1.991-1.992-1.991h-6.766c-1.094,0-1.988,0.893-1.988,1.991v0.107
			h1.597V201.74z"/>
		<path fill="#3B3B3B" d="M152.398,204.652v-1.051c0-0.44-0.355-0.796-0.797-0.796h-9.422c-0.439,0-0.795,0.355-0.795,0.796v1.051
			c0,0.441,0.355,0.796,0.795,0.796h9.422C152.043,205.448,152.398,205.094,152.398,204.652z"/>
	</g>
</g>
</svg>
