<?xml version="1.0" encoding="utf-8"?>
<!-- Generator: Adobe Illustrator 17.0.2, SVG Export Plug-In . SVG Version: 6.00 Build 0)  -->
<!DOCTYPE svg PUBLIC "-//W3C//DTD SVG 1.1//EN" "http://www.w3.org/Graphics/SVG/1.1/DTD/svg11.dtd">
<svg version="1.1" id="Calque_1" xmlns="http://www.w3.org/2000/svg" xmlns:xlink="http://www.w3.org/1999/xlink" x="0px" y="0px"
	 width="239.599px" height="235.842px" viewBox="0 0 239.599 235.842" enable-background="new 0 0 239.599 235.842"
	 xml:space="preserve">
<rect x="-1404.418" y="-242" display="none" fill="#3C3C3B" width="2252" height="1043"/>
<g>
	<path opacity="0.1" enable-background="new    " d="M136.527,185.155c0.215,1.482-0.812,2.859-2.295,3.074L26.866,203.811
		c-1.482,0.215-2.859-0.812-3.074-2.295L0.028,37.782c-0.215-1.482,0.812-2.859,2.295-3.074L109.69,19.126
		c1.482-0.215,2.859,0.812,3.074,2.295L136.527,185.155z"/>
	<path fill="#999999" d="M139.527,182.155c0.215,1.482-0.812,2.859-2.295,3.074L29.866,200.811
		c-1.482,0.215-2.859-0.812-3.074-2.295L3.028,34.782C2.813,33.3,3.84,31.923,5.323,31.708L112.69,16.126
		c1.482-0.215,2.859,0.812,3.074,2.295L139.527,182.155z"/>
	<path opacity="0.1" enable-background="new    " d="M157.814,198.712c0.117,1.678-1.149,3.132-2.826,3.249l-121.504,8.448
		c-1.678,0.117-3.132-1.149-3.249-2.826L17.351,22.288c-0.117-1.678,1.149-3.132,2.826-3.249l121.504-8.448
		c1.678-0.117,3.132,1.149,3.249,2.826L157.814,198.712z"/>
	<path fill="#CCCCCC" d="M160.814,195.712c0.117,1.678-1.149,3.132-2.826,3.249l-121.504,8.448
		c-1.678,0.117-3.132-1.149-3.249-2.826L20.351,19.288c-0.117-1.678,1.149-3.132,2.826-3.249l121.504-8.448
		c1.678-0.117,3.132,1.149,3.249,2.826L160.814,195.712z"/>
	<path opacity="0.1" enable-background="new    " d="M193.582,39v175c0,1.657-1.343,3-3,3h-150c-1.657,0-3-1.343-3-3V6
		c0-1.657,1.343-3,3-3h117"/>
	<path fill="#FFFFFF" d="M196.582,36v175c0,1.657-1.343,3-3,3h-150c-1.657,0-3-1.343-3-3V3c0-1.657,1.343-3,3-3h117"/>
	<rect x="62.407" y="57.103" fill="none" width="112.35" height="158.388"/>
	<g enable-background="new    ">
		<path fill="#FA7063" d="M63.667,76.123c0-0.699,0.22-1.254,0.66-1.664s1.02-0.615,1.74-0.615c0.76,0,1.36,0.205,1.8,0.615
			s0.66,0.965,0.66,1.664c0,0.701-0.22,1.261-0.66,1.681s-1.04,0.63-1.8,0.63c-0.72,0-1.3-0.21-1.74-0.63
			S63.667,76.824,63.667,76.123z"/>
		<path fill="#FA7063" d="M71.917,67.604c0-3.5,0.77-6.195,2.31-8.085c1.54-1.89,3.739-2.835,6.6-2.835c1.5,0,2.81,0.26,3.93,0.78
			c1.12,0.52,2.05,1.26,2.79,2.22c0.74,0.96,1.29,2.11,1.65,3.45s0.54,2.83,0.54,4.47c0,3.5-0.775,6.195-2.325,8.085
			s-3.745,2.835-6.585,2.835c-1.52,0-2.84-0.26-3.96-0.78c-1.12-0.52-2.045-1.26-2.775-2.22c-0.73-0.96-1.275-2.109-1.635-3.45
			C72.097,70.733,71.917,69.244,71.917,67.604z M76.237,67.604c0,1.061,0.09,2.035,0.27,2.925c0.18,0.891,0.455,1.655,0.825,2.295
			c0.37,0.641,0.845,1.141,1.425,1.5c0.58,0.36,1.27,0.54,2.07,0.54c1.46,0,2.59-0.569,3.39-1.71c0.8-1.14,1.2-2.989,1.2-5.55
			c0-1.02-0.085-1.97-0.255-2.85s-0.435-1.65-0.795-2.311c-0.36-0.66-0.83-1.175-1.41-1.545c-0.581-0.37-1.29-0.555-2.13-0.555
			c-1.46,0-2.59,0.585-3.39,1.755C76.637,63.269,76.237,65.104,76.237,67.604z"/>
		<path fill="#FA7063" d="M107.407,60.764h-6.12v17.34h-4.109v-17.34h-6.15v-3.66h16.38V60.764z"/>
		<path fill="#FA7063" d="M110.527,57.104h12.45v3.66h-8.339v5.189h7.679v3.66h-7.679v8.49h-4.11V57.104z"/>
	</g>
	<g enable-background="new    ">
		<path fill="#FA7063" d="M63.667,112.123c0-0.699,0.22-1.254,0.66-1.664s1.02-0.615,1.74-0.615c0.76,0,1.36,0.205,1.8,0.615
			s0.66,0.965,0.66,1.664c0,0.701-0.22,1.261-0.66,1.681s-1.04,0.63-1.8,0.63c-0.72,0-1.3-0.21-1.74-0.63
			S63.667,112.824,63.667,112.123z"/>
		<path fill="#FA7063" d="M85.837,96.764h-6.12v17.34h-4.11v-17.34h-6.15v-3.66h16.38V96.764z"/>
		<path fill="#FA7063" d="M104.466,96.764h-6.119v17.34h-4.11v-17.34h-6.15v-3.66h16.379V96.764z"/>
		<path fill="#FA7063" d="M107.586,93.104h12.45v3.66h-8.34v5.189h7.68v3.66h-7.68v8.49h-4.11V93.104z"/>
	</g>
	<g enable-background="new    ">
		<path fill="#FA7063" d="M63.667,148.123c0-0.699,0.22-1.254,0.66-1.664s1.02-0.615,1.74-0.615c0.76,0,1.36,0.205,1.8,0.615
			s0.66,0.965,0.66,1.664c0,0.701-0.22,1.261-0.66,1.681s-1.04,0.63-1.8,0.63c-0.72,0-1.3-0.21-1.74-0.63
			S63.667,148.824,63.667,148.123z"/>
		<path fill="#FA7063" d="M76.837,140.834l0.39,3.72h0.12l0.42-3.78l3.66-11.67h2.7l3.6,11.73l0.42,3.72h0.12l0.459-3.78
			l2.601-11.67h4.109l-5.79,21.15h-2.76l-3.75-11.67l-0.51-3.211h-0.15l-0.51,3.24l-3.72,11.641h-2.91l-5.76-21.15h4.47
			L76.837,140.834z"/>
		<path fill="#FA7063" d="M96.727,139.604c0-3.5,0.771-6.195,2.311-8.085s3.739-2.835,6.6-2.835c1.5,0,2.81,0.26,3.931,0.78
			c1.119,0.52,2.05,1.26,2.789,2.22c0.74,0.96,1.29,2.11,1.65,3.45s0.54,2.83,0.54,4.47c0,3.5-0.775,6.195-2.325,8.085
			s-3.745,2.835-6.585,2.835c-1.52,0-2.84-0.26-3.96-0.78c-1.12-0.52-2.045-1.26-2.774-2.22c-0.73-0.96-1.275-2.109-1.636-3.45
			C96.907,142.733,96.727,141.244,96.727,139.604z M101.047,139.604c0,1.061,0.09,2.035,0.271,2.925
			c0.18,0.891,0.454,1.655,0.824,2.295c0.37,0.641,0.845,1.141,1.426,1.5c0.579,0.36,1.27,0.54,2.069,0.54
			c1.46,0,2.59-0.569,3.391-1.71c0.799-1.14,1.199-2.989,1.199-5.55c0-1.02-0.085-1.97-0.255-2.85s-0.435-1.65-0.795-2.311
			c-0.359-0.66-0.83-1.175-1.41-1.545s-1.29-0.555-2.13-0.555c-1.46,0-2.59,0.585-3.39,1.755
			C101.446,135.269,101.047,137.104,101.047,139.604z"/>
		<path fill="#FA7063" d="M118.477,129.104h12.45v3.66h-8.34v5.189h7.68v3.66h-7.68v8.49h-4.11V129.104z"/>
		<path fill="#FA7063" d="M134.707,129.104h12.45v3.66h-8.34v5.189h7.68v3.66h-7.68v8.49h-4.11V129.104z"/>
	</g>
	<g enable-background="new    ">
		<path fill="#FA7063" d="M63.667,184.123c0-0.699,0.22-1.254,0.66-1.664s1.02-0.615,1.74-0.615c0.76,0,1.36,0.205,1.8,0.615
			s0.66,0.965,0.66,1.664c0,0.701-0.22,1.261-0.66,1.681s-1.04,0.63-1.8,0.63c-0.72,0-1.3-0.21-1.74-0.63
			S63.667,184.824,63.667,184.123z"/>
		<path fill="#FA7063" d="M81.637,180.464c0-0.641-0.235-1.16-0.705-1.561c-0.47-0.399-1.06-0.765-1.77-1.095s-1.48-0.67-2.31-1.021
			c-0.831-0.35-1.601-0.779-2.31-1.29c-0.71-0.51-1.3-1.145-1.77-1.904c-0.47-0.76-0.705-1.729-0.705-2.91
			c0-1.021,0.169-1.905,0.51-2.655c0.34-0.75,0.825-1.375,1.455-1.875c0.63-0.499,1.375-0.87,2.235-1.109
			c0.859-0.24,1.819-0.36,2.88-0.36c1.22,0,2.37,0.104,3.45,0.314c1.08,0.211,1.97,0.516,2.67,0.915l-1.29,3.45
			c-0.44-0.279-1.101-0.534-1.98-0.765c-0.88-0.229-1.83-0.345-2.85-0.345c-0.96,0-1.695,0.189-2.205,0.569
			c-0.51,0.381-0.765,0.891-0.765,1.53c0,0.6,0.235,1.101,0.705,1.5c0.47,0.4,1.06,0.771,1.77,1.11c0.709,0.34,1.48,0.689,2.31,1.05
			c0.83,0.359,1.6,0.795,2.31,1.305c0.709,0.51,1.3,1.141,1.77,1.891c0.47,0.75,0.705,1.685,0.705,2.805s-0.186,2.085-0.555,2.895
			c-0.37,0.811-0.89,1.485-1.56,2.025c-0.67,0.54-1.48,0.94-2.43,1.2c-0.95,0.26-1.995,0.39-3.135,0.39c-1.5,0-2.82-0.14-3.96-0.42
			s-1.98-0.56-2.52-0.84l1.32-3.51c0.22,0.119,0.505,0.25,0.855,0.39c0.35,0.14,0.745,0.27,1.185,0.39s0.905,0.221,1.395,0.301
			c0.49,0.08,0.995,0.119,1.515,0.119c1.22,0,2.155-0.204,2.805-0.614S81.637,181.304,81.637,180.464z"/>
		<path fill="#FA7063" d="M96.367,177.434l0.54,3.57h0.149l0.601-3.601l4.02-12.3h4.32l-7.8,21.15h-2.94l-7.86-21.15h4.77
			L96.367,177.434z"/>
		<path fill="#FA7063" d="M114.817,175.153h7.83v9.36c-0.84,0.7-1.845,1.21-3.014,1.53c-1.17,0.319-2.325,0.479-3.466,0.479
			c-1.34,0-2.585-0.21-3.734-0.63c-1.15-0.42-2.146-1.075-2.985-1.965s-1.5-2.025-1.979-3.405c-0.48-1.38-0.721-3.02-0.721-4.92
			c0-1.98,0.285-3.665,0.855-5.055c0.57-1.391,1.32-2.521,2.25-3.391s1.975-1.5,3.135-1.89s2.34-0.585,3.54-0.585
			s2.255,0.09,3.165,0.27c0.91,0.181,1.634,0.371,2.174,0.57l-0.84,3.45c-0.5-0.2-1.06-0.354-1.679-0.465
			c-0.62-0.11-1.41-0.165-2.37-0.165c-0.86,0-1.65,0.13-2.37,0.39c-0.72,0.261-1.346,0.686-1.875,1.275
			c-0.53,0.59-0.94,1.345-1.23,2.265s-0.435,2.04-0.435,3.36c0,1.26,0.14,2.345,0.42,3.255s0.67,1.66,1.17,2.25
			s1.085,1.025,1.755,1.305c0.67,0.28,1.385,0.42,2.146,0.42c0.52,0,1.029-0.064,1.53-0.194c0.499-0.13,0.919-0.325,1.26-0.585
			v-3.961l-4.53-0.479V175.153z"/>
	</g>
	<line fill="none" stroke="#E6E6E6" stroke-miterlimit="10" x1="62.582" y1="85.5" x2="196.582" y2="85.5"/>
	<line fill="none" stroke="#E6E6E6" stroke-miterlimit="10" x1="62.582" y1="121.5" x2="196.582" y2="121.5"/>
	<line fill="none" stroke="#E6E6E6" stroke-miterlimit="10" x1="62.582" y1="157.5" x2="196.582" y2="157.5"/>
	<path fill="#FFFFFF" d="M170.582,0"/>
	<path fill="#CCCCCC" d="M160.582,0l36,36c0,0-30.178,0-33,0c-1.902,0-3-1.643-3-3C160.582,31.644,160.582,0,160.582,0z"/>
	<g>
		<circle opacity="0.1" enable-background="new    " cx="193.757" cy="193" r="42.842"/>
		<circle fill="#FA7063" cx="196.757" cy="190" r="42.842"/>
		<g id="Download">
			<path fill="#FFFFFF" d="M193.31,210.025c0.85,0.852,1.942,1.295,3.054,1.371c0.132,0.011,0.259,0.04,0.393,0.04
				c0.133,0,0.259-0.028,0.389-0.039c1.114-0.075,2.207-0.519,3.058-1.372l14.913-14.956c1.867-1.87,1.867-4.903,0-6.774
				s-4.894-1.871-6.762,0l-6.883,6.903v-22.425c0-2.604-2.111-4.715-4.715-4.715s-4.715,2.111-4.715,4.715v22.425l-6.883-6.903
				c-1.867-1.871-4.895-1.871-6.762,0c-1.867,1.87-1.867,4.903,0,6.774L193.31,210.025z"/>
		</g>
	</g>
</g>
</svg>
