<?xml version="1.0" encoding="UTF-8" standalone="no"?>
<!-- Generator: Adobe Illustrator 17.0.2, SVG Export Plug-In . SVG Version: 6.00 Build 0)  -->

<svg
   xmlns:dc="http://purl.org/dc/elements/1.1/"
   xmlns:cc="http://creativecommons.org/ns#"
   xmlns:rdf="http://www.w3.org/1999/02/22-rdf-syntax-ns#"
   xmlns:svg="http://www.w3.org/2000/svg"
   xmlns="http://www.w3.org/2000/svg"
   xmlns:sodipodi="http://sodipodi.sourceforge.net/DTD/sodipodi-0.dtd"
   xmlns:inkscape="http://www.inkscape.org/namespaces/inkscape"
   version="1.1"
   id="Calque_1"
   x="0px"
   y="0px"
   width="239.599px"
   height="235.842px"
   viewBox="0 0 239.599 235.842"
   enable-background="new 0 0 239.599 235.842"
   xml:space="preserve"
   inkscape:version="0.91 r13725"
   sodipodi:docname="pictofeaturesexportfonts.svg"><metadata
     id="metadata86"><rdf:RDF><cc:Work
         rdf:about=""><dc:format>image/svg+xml</dc:format><dc:type
           rdf:resource="http://purl.org/dc/dcmitype/StillImage" /></cc:Work></rdf:RDF></metadata><defs
     id="defs84" /><sodipodi:namedview
     pagecolor="#ffffff"
     bordercolor="#666666"
     borderopacity="1"
     objecttolerance="10"
     gridtolerance="10"
     guidetolerance="10"
     inkscape:pageopacity="0"
     inkscape:pageshadow="2"
     inkscape:window-width="1478"
     inkscape:window-height="805"
     id="namedview82"
     showgrid="false"
     inkscape:zoom="2.0013399"
     inkscape:cx="59.846447"
     inkscape:cy="164.92152"
     inkscape:window-x="10"
     inkscape:window-y="34"
     inkscape:window-maximized="0"
     inkscape:current-layer="Calque_1" /><rect
     x="-1404.418"
     y="-242"
     display="none"
     fill="#3C3C3B"
     width="2252"
     height="1043"
     id="rect3" /><g
     id="g5"
     transform="translate(0,12.491631)"><path
       enable-background="new    "
       d="m 136.527,185.155 c 0.215,1.482 -0.812,2.859 -2.295,3.074 L 26.866,203.811 c -1.482,0.215 -2.859,-0.812 -3.074,-2.295 L 0.028,37.782 C -0.187,36.3 0.84,34.923 2.323,34.708 L 109.69,19.126 c 1.482,-0.215 2.859,0.812 3.074,2.295 l 23.763,163.734 z"
       id="path7"
       inkscape:connector-curvature="0"
       style="opacity:0.1" /><path
       d="m 139.527,182.155 c 0.215,1.482 -0.812,2.859 -2.295,3.074 L 29.866,200.811 c -1.482,0.215 -2.859,-0.812 -3.074,-2.295 L 3.028,34.782 C 2.813,33.3 3.84,31.923 5.323,31.708 L 112.69,16.126 c 1.482,-0.215 2.859,0.812 3.074,2.295 l 23.763,163.734 z"
       id="path9"
       inkscape:connector-curvature="0"
       style="fill:#999999" /><path
       enable-background="new    "
       d="m 157.814,198.712 c 0.117,1.678 -1.149,3.132 -2.826,3.249 l -121.504,8.448 c -1.678,0.117 -3.132,-1.149 -3.249,-2.826 L 17.351,22.288 C 17.234,20.61 18.5,19.156 20.177,19.039 l 121.504,-8.448 c 1.678,-0.117 3.132,1.149 3.249,2.826 l 12.884,185.295 z"
       id="path11"
       inkscape:connector-curvature="0"
       style="opacity:0.1" /><path
       d="m 160.814,195.712 c 0.117,1.678 -1.149,3.132 -2.826,3.249 l -121.504,8.448 c -1.678,0.117 -3.132,-1.149 -3.249,-2.826 L 20.351,19.288 C 20.234,17.61 21.5,16.156 23.177,16.039 L 144.681,7.591 c 1.678,-0.117 3.132,1.149 3.249,2.826 l 12.884,185.295 z"
       id="path13"
       inkscape:connector-curvature="0"
       style="fill:#cccccc" /><path
       enable-background="new    "
       d="m 193.582,39 0,175 c 0,1.657 -1.343,3 -3,3 l -150,0 c -1.657,0 -3,-1.343 -3,-3 l 0,-208 c 0,-1.657 1.343,-3 3,-3 l 117,0"
       id="path15"
       inkscape:connector-curvature="0"
       style="opacity:0.1" /><path
       d="m 196.582,36 0,175 c 0,1.657 -1.343,3 -3,3 l -150,0 c -1.657,0 -3,-1.343 -3,-3 l 0,-208 c 0,-1.657 1.343,-3 3,-3 l 117,0"
       id="path17"
       inkscape:connector-curvature="0"
       style="fill:#ffffff" /><rect
       x="62.407001"
       y="57.103001"
       width="112.35"
       height="158.388"
       id="rect19"
       style="fill:none" /><g
       enable-background="new    "
       id="g21"><path
         d="m 63.667,76.123 c 0,-0.699 0.22,-1.254 0.66,-1.664 0.44,-0.41 1.02,-0.615 1.74,-0.615 0.76,0 1.36,0.205 1.8,0.615 0.44,0.41 0.66,0.965 0.66,1.664 0,0.701 -0.22,1.261 -0.66,1.681 -0.44,0.42 -1.04,0.63 -1.8,0.63 -0.72,0 -1.3,-0.21 -1.74,-0.63 -0.44,-0.42 -0.66,-0.98 -0.66,-1.681 z"
         id="path23"
         inkscape:connector-curvature="0"
         style="fill:#fa7063" /><path
         d="m 71.917,67.604 c 0,-3.5 0.77,-6.195 2.31,-8.085 1.54,-1.89 3.739,-2.835 6.6,-2.835 1.5,0 2.81,0.26 3.93,0.78 1.12,0.52 2.05,1.26 2.79,2.22 0.74,0.96 1.29,2.11 1.65,3.45 0.36,1.34 0.54,2.83 0.54,4.47 0,3.5 -0.775,6.195 -2.325,8.085 -1.55,1.89 -3.745,2.835 -6.585,2.835 -1.52,0 -2.84,-0.26 -3.96,-0.78 -1.12,-0.52 -2.045,-1.26 -2.775,-2.22 -0.73,-0.96 -1.275,-2.109 -1.635,-3.45 -0.36,-1.341 -0.54,-2.83 -0.54,-4.47 z m 4.32,0 c 0,1.061 0.09,2.035 0.27,2.925 0.18,0.891 0.455,1.655 0.825,2.295 0.37,0.641 0.845,1.141 1.425,1.5 0.58,0.36 1.27,0.54 2.07,0.54 1.46,0 2.59,-0.569 3.39,-1.71 0.8,-1.14 1.2,-2.989 1.2,-5.55 0,-1.02 -0.085,-1.97 -0.255,-2.85 -0.17,-0.88 -0.435,-1.65 -0.795,-2.311 -0.36,-0.66 -0.83,-1.175 -1.41,-1.545 -0.581,-0.37 -1.29,-0.555 -2.13,-0.555 -1.46,0 -2.59,0.585 -3.39,1.755 -0.8,1.171 -1.2,3.006 -1.2,5.506 z"
         id="path25"
         inkscape:connector-curvature="0"
         style="fill:#fa7063" /><path
         d="m 107.407,60.764 -6.12,0 0,17.34 -4.109,0 0,-17.34 -6.15,0 0,-3.66 16.38,0 0,3.66 z"
         id="path27"
         inkscape:connector-curvature="0"
         style="fill:#fa7063" /><path
         d="m 110.527,57.104 12.45,0 0,3.66 -8.339,0 0,5.189 7.679,0 0,3.66 -7.679,0 0,8.49 -4.11,0 0,-20.999 z"
         id="path29"
         inkscape:connector-curvature="0"
         style="fill:#fa7063" /></g><g
       enable-background="new    "
       id="g31" /><g
       enable-background="new    "
       id="g41" /><g
       enable-background="new    "
       id="g53" /><line
       stroke-miterlimit="10"
       x1="62.582001"
       y1="85.5"
       x2="196.582"
       y2="85.5"
       id="line63"
       style="fill:none;stroke:#e6e6e6;stroke-miterlimit:10" /><path
       d="M 170.582,0"
       id="path69"
       inkscape:connector-curvature="0"
       style="fill:#ffffff" /><path
       d="m 160.582,0 36,36 c 0,0 -30.178,0 -33,0 -1.902,0 -3,-1.643 -3,-3 0,-1.356 0,-33 0,-33 z"
       id="path71"
       inkscape:connector-curvature="0"
       style="fill:#cccccc" /><g
       id="g73"><circle
         enable-background="new    "
         cx="193.757"
         cy="193"
         r="42.841999"
         id="circle75"
         style="opacity:0.1" /><circle
         cx="196.757"
         cy="190"
         r="42.841999"
         id="circle77"
         style="fill:#fa7063" /><g
         id="Download"><path
           d="m 193.31,210.025 c 0.85,0.852 1.942,1.295 3.054,1.371 0.132,0.011 0.259,0.04 0.393,0.04 0.133,0 0.259,-0.028 0.389,-0.039 1.114,-0.075 2.207,-0.519 3.058,-1.372 l 14.913,-14.956 c 1.867,-1.87 1.867,-4.903 0,-6.774 -1.867,-1.871 -4.894,-1.871 -6.762,0 l -6.883,6.903 0,-22.425 c 0,-2.604 -2.111,-4.715 -4.715,-4.715 -2.604,0 -4.715,2.111 -4.715,4.715 l 0,22.425 -6.883,-6.903 c -1.867,-1.871 -4.895,-1.871 -6.762,0 -1.867,1.87 -1.867,4.903 0,6.774 l 14.913,14.956 z"
           id="path80"
           inkscape:connector-curvature="0"
           style="fill:#ffffff" /></g></g></g></svg>