<?xml version="1.0" encoding="utf-8"?>
<!-- Generator: Adobe Illustrator 16.0.0, SVG Export Plug-In . SVG Version: 6.00 Build 0)  -->
<!DOCTYPE svg PUBLIC "-//W3C//DTD SVG 1.1//EN" "http://www.w3.org/Graphics/SVG/1.1/DTD/svg11.dtd">
<svg version="1.1" id="Calque_1" xmlns="http://www.w3.org/2000/svg" xmlns:xlink="http://www.w3.org/1999/xlink" x="0px" y="0px"
	 width="662.408px" height="266.796px" viewBox="0 0 662.408 266.796" enable-background="new 0 0 662.408 266.796"
	 xml:space="preserve">
<g>
	<path fill="#1D1D1B" d="M5.958,0v5.672c0-3.402-0.568-4.254-4.822-4.254H0V0H5.958z M0,41.127h1.136
		c4.254,0,4.822-0.85,4.822-4.254v5.672H0V41.127z M11.63,42.544H5.958V0h11.344c9.076,0,14.466,4.254,14.466,11.347
		c0,7.374-5.39,11.627-14.466,11.627H11.63V42.544z M16.734,21.556c5.958,0,9.076-3.404,9.076-10.209
		c0-6.525-3.118-9.929-9.076-9.929H11.63v20.138H16.734z M11.63,42.544v-5.672c0,3.404,0.565,4.254,4.822,4.254h1.7v1.417
		L11.63,42.544L11.63,42.544z"/>
	<path fill="#1D1D1B" d="M44.549,42.544h-4.822v-20.42c0-3.404-0.565-3.972-3.402-3.972h-1.134v-0.85l8.508-3.12h0.85V42.544z
		 M35.191,41.411h3.686c0.568,0,0.85-0.284,0.85-0.853v1.986h-4.536V41.411z M58.164,17.868c0,1.702-1.134,2.836-2.836,2.836
		c-1.702,0-2.835-1.134-2.835-2.836c0-1.474-0.85-2.042-1.986-2.042c-2.097,0-4.31,2.042-6.238,6.692v-2.21
		c1.928-4.256,4.991-6.695,8.508-6.695C56.179,13.614,58.164,15.6,58.164,17.868z M44.549,42.544v-1.986
		c0,0.569,0.284,0.853,0.852,0.853h4.254v1.134L44.549,42.544L44.549,42.544z"/>
	<path fill="#1D1D1B" d="M75.479,43.112c-8.508,0-14.182-6.808-14.182-14.75c0-7.94,5.674-14.748,14.182-14.748
		s14.183,6.808,14.183,14.748C89.662,36.304,83.987,43.112,75.479,43.112z M75.479,14.748c-5.106,0-8.792,4.822-8.792,13.614
		c0,8.794,3.686,13.614,8.792,13.614s8.792-4.82,8.792-13.614C84.271,19.57,80.586,14.748,75.479,14.748z"/>
	<path fill="#1D1D1B" d="M105.278,43.112c-5.104,0-7.658-2.835-7.658-8.51V16.734h-3.686v-0.85l7.942-8.51h0.565v6.808h9.076v2.552
		h-9.076v17.584c0,4.256,1.703,6.524,4.822,6.524c2.384,0,4.253-1.36,5.391-3.97l0.963,0.397
		C112.313,40.9,109.477,43.112,105.278,43.112z"/>
	<path fill="#1D1D1B" d="M130.932,43.112c-8.508,0-14.182-6.808-14.182-14.75c0-7.94,5.674-14.748,14.182-14.748
		c8.509,0,14.183,6.808,14.183,14.748C145.114,36.304,139.44,43.112,130.932,43.112z M130.932,14.748
		c-5.106,0-8.792,4.822-8.792,13.614c0,8.794,3.686,13.614,8.792,13.614c5.105,0,8.792-4.82,8.792-13.614
		C139.724,19.57,136.037,14.748,130.932,14.748z"/>
	<path fill="#1D1D1B" d="M160.73,43.112c-5.104,0-7.658-2.835-7.658-8.51V16.734h-3.687v-0.85l7.942-8.51h0.566v6.808h9.076v2.552
		h-9.076v17.584c0,4.256,1.702,6.524,4.821,6.524c2.384,0,4.255-1.36,5.389-3.97l0.965,0.397
		C167.766,40.9,164.929,43.112,160.73,43.112z"/>
	<path fill="#1D1D1B" d="M175.153,52.755c0-1.702,1.418-2.552,2.552-2.552c1.702,0,1.815,1.702,2.949,1.702
		c0.455,0,1.021-0.227,1.418-1.418l2.836-7.885l-10.152-24.45c-1.021-2.438-1.932-2.836-3.973-2.836h-0.85v-1.134h13.33v1.134
		h-1.134c-2.1,0-2.836,0.51-2.1,2.383l8.056,20.023h-1.305l6.295-19.173c0.739-2.325,0.511-3.233-3.004-3.233h-1.191v-1.134h12.195
		v1.134h-0.794c-2.555,0-4.254,0.794-5.333,3.801L183.264,51.11c-1.362,3.688-3.46,4.48-5.274,4.48
		C176.571,55.59,175.153,54.741,175.153,52.755z"/>
	<path fill="#1D1D1B" d="M202.795,53.889h4.254c0.568,0,0.852-0.282,0.852-0.85v1.986h-5.105L202.795,53.889L202.795,53.889z
		 M204.496,18.152h-1.133v-0.85l8.507-3.12h0.853v40.843H207.9v-32.9C207.9,18.721,207.333,18.152,204.496,18.152z M212.438,18.152
		c1.984-2.836,5.388-4.538,8.792-4.538c7.204,0,12.48,5.729,12.48,14.125c0,9.644-6.127,15.09-13.898,15.09
		c-3.743,0-7.884-1.76-10.324-4.651l3.234-3.007c1.303,4.312,3.912,6.524,7.375,6.524c5.897,0,8.62-6.185,8.62-12.593
		c0-8-4.312-13.446-9.528-13.446c-3.12,0-5.9,1.929-6.751,5.048V18.152L212.438,18.152z M212.723,55.025v-1.986
		c0,0.568,0.282,0.85,0.851,0.85h4.253v1.136H212.723z"/>
	<path fill="#1D1D1B" d="M253.016,43.112c-8.508,0-14.182-6.808-14.182-14.75c0-7.94,5.674-14.748,14.182-14.748
		c8.509,0,14.183,6.808,14.183,14.748C267.198,36.304,261.524,43.112,253.016,43.112z M253.016,14.748
		c-5.106,0-8.792,4.822-8.792,13.614c0,8.794,3.686,13.614,8.792,13.614s8.792-4.82,8.792-13.614
		C261.808,19.57,258.122,14.748,253.016,14.748z"/>
	<path fill="#1D1D1B" d="M292.184,0v5.672c0-3.402-0.566-4.254-4.82-4.254h-1.135V0H292.184z M286.229,41.127h1.135
		c4.254,0,4.82-0.85,4.82-4.254v5.672h-5.955V41.127L286.229,41.127z M292.184,0h5.674v42.544h-5.674V0z M316.292,9.418
		l-1.137,0.113c-1.248-5.842-3.688-8.113-8.791-8.113h-8.509V0h17.755L316.292,9.418z M302.395,22.125h-4.537v-1.42h4.537
		c5.104,0,6.521-1.7,7.657-7.656h1.246v17.016h-1.246C308.916,24.108,307.498,22.125,302.395,22.125z M297.855,42.544v-5.672
		c0,3.404,0.565,4.254,4.821,4.254h1.701v1.417L297.855,42.544L297.855,42.544z"/>
	<path fill="#1D1D1B" d="M344.957,34.489l0.908,0.455c-1.986,4.936-6.299,8.168-12.254,8.168c-8.226,0-13.613-5.956-13.613-14.182
		c0-9.076,5.955-15.316,14.465-15.316c6.521,0,11.062,3.688,11.912,9.644l-22.406-0.284V21.84l17.301-0.284l-0.282,0.284
		c0-3.688-2.836-7.092-6.808-7.092c-5.389,0-9.076,4.538-9.076,12.196c0,7.489,3.742,12.764,10.438,12.764
		C339.511,39.708,342.97,38.006,344.957,34.489z"/>
	<path fill="#1D1D1B" d="M350.929,3.404h-1.133V2.552L358.871,0h0.852v42.544h-4.819V7.374
		C354.902,4.254,354.048,3.404,350.929,3.404z M350.361,41.411h3.688c0.568,0,0.854-0.284,0.854-0.853v1.986h-4.539v-1.133H350.361z
		 M359.722,42.544v-1.986c0,0.569,0.283,0.853,0.853,0.853h3.688v1.134L359.722,42.544L359.722,42.544z"/>
	<path fill="#1D1D1B" d="M368.806,3.404h-1.133V2.552L376.75,0h0.85v42.544h-4.821V7.374C372.777,4.254,371.927,3.404,368.806,3.404
		z M368.242,41.411h3.686c0.568,0,0.851-0.284,0.851-0.853v1.986h-4.535L368.242,41.411L368.242,41.411z M377.599,42.544v-1.986
		c0,0.569,0.283,0.853,0.854,0.853h3.686v1.134L377.599,42.544L377.599,42.544z"/>
	<path fill="#1D1D1B" d="M2.554,68.108h17.3c11.062,0,15.032,5.39,15.032,12.764s-3.97,12.762-15.032,12.762h-9.642v17.019H2.554
		V68.108z M27.228,80.872c-0.113-3.972-1.983-6.808-7.655-6.808h-9.36v13.614h9.36C25.245,87.678,27.344,84.842,27.228,80.872z"/>
	<path fill="#1D1D1B" d="M55.614,81.154v7.092H54.48c-6.24,0-8.056,1.531-8.227,8.282v14.125h-6.524V81.154h6.524v5.958
		c1.134-4.538,4.822-5.958,8.792-5.958H55.614z"/>
	<path fill="#1D1D1B" d="M73.494,80.588c8.905,0,13.898,5.957,13.898,15.316c0,9.36-4.993,15.316-13.898,15.316
		c-8.906,0-13.898-5.956-13.898-15.316C59.595,86.544,64.588,80.588,73.494,80.588z M73.494,85.41c-3.97,0-6.809,2.836-6.809,10.494
		c0,7.658,2.838,10.494,6.809,10.494c3.97,0,6.806-2.836,6.806-10.494C80.3,88.246,77.463,85.41,73.494,85.41z"/>
	<path fill="#1D1D1B" d="M108.115,110.652h-6.241c-5.104,0-6.522-1.986-6.522-8.226V86.26h-4.538v-5.106h4.538v-7.656l6.522-5.39
		v13.046h6.241v5.106h-6.241v16.167c0,2.27,0.568,2.838,2.836,2.838h3.404v5.387H108.115z"/>
	<path fill="#1D1D1B" d="M126.56,80.588c8.905,0,13.898,5.957,13.898,15.316c0,9.36-4.993,15.316-13.898,15.316
		c-8.904,0-13.897-5.956-13.897-15.316C112.662,86.544,117.655,80.588,126.56,80.588z M126.56,85.41
		c-3.97,0-6.808,2.836-6.808,10.494c0,7.658,2.838,10.494,6.808,10.494c3.971,0,6.807-2.836,6.807-10.494
		C133.367,88.246,130.53,85.41,126.56,85.41z"/>
	<path fill="#1D1D1B" d="M161.181,110.652h-6.24c-5.104,0-6.521-1.986-6.521-8.226V86.26h-4.538v-5.106h4.538v-7.656l6.521-5.39
		v13.046h6.24v5.106h-6.24v16.167c0,2.27,0.568,2.838,2.836,2.838h3.404V110.652z"/>
	<path fill="#1D1D1B" d="M173.726,111.731L163.46,81.154h7.374l5.898,20.422l6.014-20.422h7.374l-11.627,34.321
		c-1.929,5.672-3.973,6.524-9.929,6.524h-3.121v-5.676h2.837c3.404,0,4.312-0.564,5.105-3.402L173.726,111.731z"/>
	<path fill="#1D1D1B" d="M201.196,85.353c1.986-2.949,4.993-4.765,8.963-4.765c7.545,0,11.741,5.957,11.741,15.316
		c0,9.36-4.196,15.316-11.741,15.316c-3.97,0-6.977-1.76-8.963-4.767v12.991h-6.523v-38.29h6.523V85.353z M208.005,85.976
		c-3.914,0-6.695,2.554-6.809,9.418v0.51c0,7.261,2.837,9.926,6.809,9.926c3.97,0,6.806-2.665,6.806-9.926
		C214.811,88.644,211.975,85.976,208.005,85.976z"/>
	<path fill="#1D1D1B" d="M241.489,80.588c8.905,0,13.898,5.957,13.898,15.316c0,9.36-4.993,15.316-13.898,15.316
		c-8.905,0-13.898-5.956-13.898-15.316C227.591,86.544,232.584,80.588,241.489,80.588z M241.489,85.41
		c-3.97,0-6.808,2.836-6.808,10.494c0,7.658,2.838,10.494,6.808,10.494c3.971,0,6.806-2.836,6.806-10.494
		C248.295,88.246,245.46,85.41,241.489,85.41z"/>
	<path fill="#1D1D1B" d="M283.494,89.38c0,10.495,6.807,15.601,13.896,15.601c4.536,0,7.262-1.418,9.645-3.12v-9.644h-13.049v-6.24
		h20.422v19.57c-4.822,3.404-10.211,5.674-17.018,5.674c-13.896,0-22.124-10.212-22.124-21.84s7.941-21.838,20.988-21.838
		c7.94,0,14.012,3.686,17.527,9.189l-5.617,4.707c-3.119-5.388-6.806-7.658-11.91-7.658C290.016,73.78,283.494,78.886,283.494,89.38
		z"/>
	<path fill="#1D1D1B" d="M336.839,81.154v7.092h-1.133c-6.242,0-8.057,1.531-8.229,8.282v14.125h-6.522V81.154h6.522v5.958
		c1.136-4.538,4.822-5.958,8.793-5.958H336.839z"/>
	<path fill="#1D1D1B" d="M354.718,80.588c8.906,0,13.898,5.957,13.898,15.316c0,9.36-4.992,15.316-13.898,15.316
		c-8.901,0-13.896-5.956-13.896-15.316C340.822,86.544,345.814,80.588,354.718,80.588z M354.718,85.41
		c-3.969,0-6.809,2.836-6.809,10.494c0,7.658,2.84,10.494,6.809,10.494c3.972,0,6.81-2.836,6.81-10.494
		C361.527,88.246,358.688,85.41,354.718,85.41z"/>
	<path fill="#1D1D1B" d="M389.339,110.652h-6.24c-5.104,0-6.52-1.986-6.52-8.226V86.26h-4.539v-5.106h4.539v-7.656l6.52-5.39v13.046
		h6.24v5.106h-6.24v16.167c0,2.27,0.568,2.838,2.836,2.838h3.404V110.652z"/>
	<path fill="#1D1D1B" d="M421.4,96.47h-20.425c0.115,6.864,2.951,9.36,6.81,9.36c3.404,0,5.957-1.929,7.262-5.672l6.068,2.325
		c-2.324,5.446-7.088,8.735-13.33,8.735c-8.904,0-13.896-5.955-13.896-15.315c0-9.36,4.992-15.316,13.896-15.316
		C416.863,80.588,421.4,87.112,421.4,96.47z M401.32,91.932h13.157c-0.68-4.423-3.288-6.238-6.692-6.238
		C404.609,85.694,402.169,87.452,401.32,91.932z"/>
	<path fill="#1D1D1B" d="M450.63,102.144c0,5.389-4.822,8.792-11.912,8.792c-5.387,0-11.062-2.271-13.33-7.658l5.957-2.271
		c1.136,2.555,3.404,4.823,7.373,4.823c3.404,0,5.39-0.85,5.39-3.121c0-6.521-17.019-1.418-17.019-13.614
		c0-5.104,3.971-8.224,10.494-8.224s10.551,3.402,12.252,6.522l-5.332,2.383c-1.246-1.986-3.231-4.083-6.92-4.083
		c-3.119,0-4.252,1.134-4.252,2.836C433.332,95.052,450.63,90.514,450.63,102.144z"/>
	<path fill="#1D1D1B" d="M456.32,68.108h6.521v23.598l9.646-10.552h7.938l-8.848,9.305l9.981,20.194h-7.825l-7.148-14.977
		l-3.744,3.915v11.062h-6.521V68.108L456.32,68.108z"/>
	<path fill="#1D1D1B" d="M4.258,141.302v4.539c0-1.285-0.235-2.176-0.709-2.668c-0.473-0.491-1.277-0.738-2.411-0.738H0.002v-1.133
		H4.258z M0.002,177.625h1.137c1.134,0,1.938-0.244,2.411-0.736c0.474-0.491,0.709-1.383,0.709-2.667v4.538H0.002V177.625z
		 M9.935,141.302v37.457H4.258v-37.457H9.935z M24.125,151.8c0-1.778-0.162-3.252-0.483-4.428c-0.321-1.17-0.879-2.102-1.674-2.781
		c-0.794-0.68-1.873-1.162-3.235-1.444c-1.362-0.284-3.064-0.427-5.108-0.427h-3.69v-1.418h4.541c5.411,0,9.365,0.82,11.861,2.468
		c2.499,1.646,3.746,4.323,3.746,8.03c0,3.293-1.39,5.816-4.17,7.576c-2.781,1.76-6.594,2.641-11.437,2.641H9.935v-1.418h3.688
		c3.709,0,6.386-0.719,8.032-2.157C23.3,157.003,24.125,154.791,24.125,151.8z M9.935,178.759v-4.539
		c0,1.285,0.236,2.176,0.709,2.667c0.474,0.493,1.277,0.737,2.414,0.737h1.702v1.135H9.935L9.935,178.759z"/>
	<path fill="#1D1D1B" d="M33.205,177.908h0.853c1.284,0,2.175-0.291,2.667-0.88c0.49-0.585,0.737-1.806,0.737-3.659v5.391h-4.256
		L33.205,177.908L33.205,177.908z M42.57,178.759h-5.108v-23.553c0-0.758-0.379-1.229-1.134-1.418l-2.27-0.568v-0.567l7.944-2.555
		h0.284l0.284,4.541V178.759z M46.771,153.901c-0.833,0-1.619,0.169-2.355,0.511c-0.739,0.34-1.542,0.795-2.413,1.362v-0.681
		c1.967-1.779,3.633-3.057,4.995-3.832c1.363-0.775,2.649-1.164,3.859-1.164c0.984,0,1.824,0.303,2.526,0.908
		c0.7,0.604,1.048,1.399,1.048,2.385c0,0.68-0.245,1.257-0.736,1.729c-0.492,0.475-1.079,0.711-1.76,0.711
		c-0.531,0-0.957-0.104-1.277-0.312c-0.32-0.208-0.645-0.425-0.965-0.649c-0.321-0.229-0.7-0.445-1.134-0.654
		C48.122,154.005,47.526,153.901,46.771,153.901z M42.57,178.759v-5.391c0,1.854,0.245,3.073,0.737,3.658
		c0.492,0.59,1.381,0.881,2.67,0.881h1.418v0.852H42.57z"/>
	<path fill="#1D1D1B" d="M72.027,150.098c1.967,0,3.819,0.333,5.561,0.993c1.741,0.662,3.245,1.609,4.512,2.838
		c1.268,1.23,2.271,2.744,3.01,4.541c0.736,1.797,1.106,3.83,1.106,6.102s-0.37,4.305-1.106,6.102
		c-0.739,1.799-1.742,3.312-3.01,4.541c-1.268,1.229-2.771,2.177-4.512,2.839c-1.742,0.663-3.594,0.993-5.561,0.993
		c-2.007,0-3.871-0.33-5.591-0.993c-1.723-0.662-3.217-1.607-4.483-2.839c-1.271-1.229-2.27-2.742-3.009-4.541
		c-0.737-1.797-1.106-3.83-1.106-6.102s0.369-4.305,1.106-6.102c0.739-1.797,1.739-3.311,3.009-4.541
		c1.266-1.229,2.76-2.176,4.483-2.838C68.156,150.431,70.02,150.098,72.027,150.098z M72.027,177.908
		c1.399,0,2.64-0.349,3.718-1.049c1.076-0.699,1.965-1.654,2.667-2.865c0.7-1.213,1.229-2.621,1.589-4.229
		c0.358-1.607,0.538-3.34,0.538-5.193c0-1.855-0.18-3.585-0.538-5.193c-0.36-1.606-0.889-3.017-1.589-4.229
		c-0.702-1.21-1.591-2.163-2.667-2.865c-1.078-0.699-2.318-1.049-3.718-1.049c-1.439,0-2.688,0.35-3.746,1.049
		c-1.061,0.702-1.94,1.655-2.64,2.865c-0.7,1.213-1.231,2.621-1.589,4.229c-0.36,1.608-0.541,3.338-0.541,5.193
		c0,1.854,0.181,3.586,0.541,5.193c0.358,1.607,0.889,3.018,1.589,4.229c0.7,1.211,1.579,2.166,2.64,2.865
		C69.339,177.56,70.588,177.908,72.027,177.908z"/>
	<path fill="#1D1D1B" d="M99.553,173.083c0,1.289,0.254,2.225,0.765,2.812c0.513,0.587,1.201,0.88,2.072,0.88
		c0.87,0,1.769-0.095,2.697-0.283c0.927-0.188,1.825-0.436,2.695-0.74l0.227,0.515c-1.4,0.758-2.753,1.407-4.058,1.958
		c-1.305,0.548-2.676,0.822-4.115,0.822c-2.118,0-3.548-0.567-4.285-1.703c-0.739-1.137-1.106-2.838-1.106-5.107v-19.865H90.47
		v-0.57c2.007-0.981,3.633-2.186,4.882-3.604c1.25-1.421,2.365-3.34,3.349-5.763h0.853v7.945h7.661v1.986h-7.661L99.553,173.083
		L99.553,173.083z"/>
	<path fill="#1D1D1B" d="M126.172,150.098c1.968,0,3.819,0.333,5.562,0.993c1.741,0.662,3.244,1.609,4.512,2.838
		c1.269,1.23,2.271,2.744,3.01,4.541c0.737,1.797,1.106,3.83,1.106,6.102s-0.369,4.305-1.106,6.102
		c-0.738,1.799-1.741,3.312-3.01,4.541c-1.268,1.229-2.771,2.177-4.512,2.839c-1.742,0.663-3.594,0.993-5.562,0.993
		c-2.007,0-3.87-0.33-5.591-0.993c-1.723-0.662-3.218-1.607-4.482-2.839c-1.271-1.229-2.271-2.742-3.01-4.541
		c-0.737-1.797-1.106-3.83-1.106-6.102s0.37-4.305,1.106-6.102c0.739-1.797,1.739-3.311,3.01-4.541
		c1.265-1.229,2.76-2.176,4.482-2.838C122.302,150.431,124.165,150.098,126.172,150.098z M126.172,177.908
		c1.399,0,2.64-0.349,3.719-1.049c1.075-0.699,1.965-1.654,2.667-2.865c0.699-1.213,1.229-2.621,1.589-4.229
		c0.358-1.607,0.538-3.34,0.538-5.193c0-1.855-0.18-3.585-0.538-5.193c-0.36-1.606-0.89-3.017-1.589-4.229
		c-0.702-1.21-1.592-2.163-2.667-2.865c-1.079-0.699-2.319-1.049-3.719-1.049c-1.438,0-2.688,0.35-3.745,1.049
		c-1.061,0.702-1.94,1.655-2.641,2.865c-0.699,1.213-1.231,2.621-1.589,4.229c-0.359,1.608-0.541,3.338-0.541,5.193
		c0,1.854,0.182,3.586,0.541,5.193c0.357,1.607,0.89,3.018,1.589,4.229c0.7,1.211,1.58,2.166,2.641,2.865
		C123.483,177.56,124.733,177.908,126.172,177.908z"/>
	<path fill="#1D1D1B" d="M153.698,173.083c0,1.289,0.254,2.225,0.765,2.812c0.513,0.587,1.2,0.88,2.071,0.88
		c0.871,0,1.769-0.095,2.697-0.283c0.927-0.188,1.825-0.436,2.695-0.74l0.227,0.515c-1.399,0.758-2.753,1.407-4.059,1.958
		c-1.304,0.548-2.676,0.822-4.114,0.822c-2.118,0-3.548-0.567-4.284-1.703c-0.74-1.137-1.106-2.838-1.106-5.107v-19.865h-3.975
		v-0.57c2.007-0.981,3.632-2.186,4.882-3.604c1.249-1.421,2.365-3.34,3.349-5.763h0.853v7.945h7.66v1.986h-7.66L153.698,173.083
		L153.698,173.083z"/>
	<path fill="#1D1D1B" d="M178.896,179.328l-9.365-22.136c-0.528-1.21-0.983-2.202-1.36-2.979c-0.378-0.773-0.748-1.381-1.107-1.815
		c-0.36-0.435-0.747-0.735-1.165-0.905c-0.415-0.171-0.907-0.256-1.473-0.256h-0.568v-0.854h13.621v0.854h-0.567
		c-0.719,0-1.296,0.085-1.73,0.256c-0.437,0.17-0.729,0.473-0.88,0.905c-0.152,0.438-0.152,1.042,0,1.815
		c0.15,0.777,0.452,1.771,0.907,2.979l6.472,16.517h-0.795l6.526-16.742c0.795-2.045,1.03-3.512,0.709-4.398
		c-0.32-0.891-1.127-1.332-2.41-1.332h-0.853v-0.854h9.933v0.854h-0.852c-0.492,0-0.937,0.076-1.333,0.229
		c-0.399,0.149-0.788,0.445-1.164,0.879c-0.379,0.435-0.776,1.051-1.191,1.846c-0.419,0.794-0.892,1.833-1.421,3.12l-10.499,25.54
		c-1.325,3.18-2.764,5.469-4.313,6.867c-1.552,1.4-3.33,2.101-5.335,2.101c-1.136,0-2.083-0.218-2.838-0.651
		c-0.758-0.437-1.136-1.104-1.136-2.017c0-0.642,0.237-1.162,0.71-1.56c0.472-0.396,1.086-0.596,1.844-0.596
		c0.492,0,0.916,0.073,1.277,0.228c0.36,0.149,0.69,0.312,0.992,0.481c0.303,0.17,0.636,0.33,0.994,0.481
		c0.359,0.149,0.784,0.228,1.276,0.228c0.983,0,1.873-0.427,2.668-1.277c0.796-0.852,1.665-2.432,2.611-4.738l1.815-4.484V179.328z"
		/>
	<path fill="#1D1D1B" d="M207.275,186.423c0,1.853,0.244,3.074,0.736,3.66c0.492,0.588,1.381,0.881,2.67,0.881h1.418v0.85H197.91
		v-0.85h0.852c1.284,0,2.176-0.293,2.669-0.881c0.488-0.586,0.735-1.81,0.735-3.66v-31.217c0-0.758-0.378-1.229-1.133-1.418
		l-2.271-0.568v-0.567l8.229-2.555h0.284l-0.284,5.108h0.284V186.423L207.275,186.423z M207.275,171.098
		c0.076,0.87,0.284,1.694,0.623,2.469c0.342,0.774,0.813,1.466,1.42,2.071c0.605,0.607,1.333,1.088,2.186,1.447
		c0.852,0.359,1.806,0.539,2.865,0.539c2.726,0,4.92-0.879,6.585-2.64c1.665-1.759,2.496-4.284,2.496-7.575
		c0-2.193-0.254-4.175-0.767-5.932c-0.51-1.762-1.2-3.246-2.072-4.458c-0.87-1.211-1.919-2.146-3.149-2.81
		c-1.229-0.662-2.545-0.994-3.945-0.994c-1.133,0-2.239,0.229-3.318,0.684c-1.078,0.452-2.053,1.042-2.923,1.762l-0.568-0.455
		c1.286-1.438,2.856-2.649,4.711-3.633c1.855-0.984,3.783-1.478,5.79-1.478c1.626,0,3.141,0.321,4.54,0.966
		c1.4,0.646,2.619,1.562,3.66,2.753c1.04,1.19,1.855,2.63,2.441,4.312c0.587,1.686,0.88,3.547,0.88,5.59
		c0,2.348-0.359,4.468-1.078,6.357c-0.721,1.891-1.723,3.502-3.01,4.823c-1.286,1.327-2.808,2.349-4.567,3.065
		c-1.761,0.718-3.661,1.078-5.705,1.078c-1.286,0-2.621-0.152-4.002-0.455c-1.381-0.303-2.79-0.812-4.229-1.53L207.275,171.098z"/>
	<path fill="#1D1D1B" d="M248.878,150.098c1.967,0,3.819,0.333,5.561,0.993c1.741,0.662,3.245,1.609,4.513,2.838
		c1.268,1.23,2.27,2.744,3.01,4.541c0.736,1.797,1.105,3.83,1.105,6.102s-0.369,4.305-1.105,6.102
		c-0.74,1.799-1.742,3.312-3.01,4.541c-1.268,1.229-2.771,2.177-4.513,2.839c-1.741,0.663-3.594,0.993-5.561,0.993
		c-2.008,0-3.871-0.33-5.592-0.993c-1.723-0.662-3.217-1.607-4.482-2.839c-1.27-1.229-2.271-2.742-3.009-4.541
		c-0.737-1.797-1.106-3.83-1.106-6.102s0.369-4.305,1.106-6.102c0.738-1.797,1.739-3.311,3.009-4.541
		c1.266-1.229,2.76-2.176,4.482-2.838C245.007,150.431,246.87,150.098,248.878,150.098z M248.878,177.908
		c1.399,0,2.639-0.349,3.718-1.049c1.076-0.699,1.966-1.654,2.668-2.865c0.699-1.213,1.228-2.621,1.589-4.229
		c0.357-1.607,0.537-3.34,0.537-5.193c0-1.855-0.18-3.585-0.537-5.193c-0.361-1.606-0.89-3.017-1.589-4.229
		c-0.702-1.21-1.592-2.163-2.668-2.865c-1.079-0.699-2.318-1.049-3.718-1.049c-1.439,0-2.688,0.35-3.747,1.049
		c-1.06,0.702-1.939,1.655-2.639,2.865c-0.7,1.213-1.231,2.621-1.589,4.229c-0.361,1.608-0.541,3.338-0.541,5.193
		c0,1.854,0.18,3.586,0.541,5.193c0.357,1.607,0.889,3.018,1.589,4.229c0.699,1.211,1.579,2.166,2.639,2.865
		C246.189,177.56,247.438,177.908,248.878,177.908z"/>
	<path fill="#1D1D1B" d="M290.591,141.302v4.539c0-1.285-0.235-2.176-0.709-2.668c-0.475-0.491-1.276-0.738-2.411-0.738h-1.138
		v-1.133H290.591z M286.333,177.625h1.138c1.135,0,1.938-0.244,2.411-0.736c0.474-0.491,0.709-1.383,0.709-2.667v4.538h-4.258
		V177.625z M296.268,141.302v37.457h-5.677v-37.457H296.268z M312.443,150.382h-0.854l-0.34-1.137
		c-0.342-1.211-0.766-2.23-1.277-3.064c-0.51-0.831-1.145-1.503-1.897-2.014c-0.758-0.51-1.668-0.881-2.727-1.106
		c-1.062-0.229-2.289-0.341-3.688-0.341h-5.393v-1.418h16.176V150.382L312.443,150.382z M308.47,164.287
		c-0.342-0.906-0.721-1.675-1.137-2.297c-0.416-0.627-0.906-1.129-1.476-1.505c-0.567-0.379-1.239-0.646-2.016-0.796
		c-0.775-0.15-1.693-0.229-2.752-0.229h-4.824v-1.418h4.824c1.135,0,2.1-0.065,2.895-0.196c0.795-0.132,1.476-0.353,2.044-0.654
		c0.567-0.301,1.039-0.728,1.418-1.276c0.379-0.547,0.719-1.258,1.022-2.127h0.851v10.498H308.47z M296.268,178.759v-3.971
		c0,0.871,0.188,1.512,0.567,1.928c0.377,0.418,1.133,0.625,2.271,0.625h3.858c1.287,0,2.42-0.084,3.404-0.256
		c0.981-0.17,1.863-0.461,2.639-0.879c0.777-0.416,1.479-0.994,2.103-1.729c0.625-0.739,1.221-1.675,1.789-2.812l0.963-1.932
		l0.795,0.283l-1.646,8.74h-16.742V178.759z"/>
	<path fill="#1D1D1B" d="M318.912,177.908h0.852c1.285,0,2.179-0.291,2.668-0.88c0.49-0.585,0.736-1.806,0.736-3.659v5.391h-4.256
		V177.908L318.912,177.908z M323.167,143.003c0-0.756-0.379-1.229-1.135-1.418l-2.271-0.568v-0.566l8.229-2.556h0.285v40.865h-5.109
		V143.003z M328.277,178.759v-5.391c0,1.854,0.241,3.073,0.733,3.658c0.492,0.59,1.383,0.881,2.67,0.881h0.853v0.852H328.277z"/>
	<path fill="#1D1D1B" d="M359.718,150.382l-15.664,27.525l-0.282-0.283h4.368c5.031,0,8.4-1.703,10.104-5.105l0.854-1.705h0.851
		l-1.701,7.945h-20.604l15.664-27.524l0.795,0.284h-3.973c-2.688,0-4.854,0.501-6.498,1.503c-1.646,1.002-3.076,2.545-4.287,4.626
		l-0.565,0.967h-0.853l2.556-8.232H359.718L359.718,150.382z"/>
	<path fill="#1D1D1B" d="M382.082,175.921c1.059,0,2.051-0.104,2.979-0.312c0.927-0.208,1.921-0.576,2.979-1.105l0.396,0.625
		c-1.553,1.324-3.254,2.31-5.106,2.951c-1.854,0.645-3.689,0.965-5.504,0.965c-1.854,0-3.547-0.32-5.08-0.965
		c-1.533-0.644-2.851-1.572-3.945-2.781c-1.096-1.211-1.949-2.676-2.555-4.399c-0.604-1.72-0.906-3.64-0.906-5.76
		c0-1.968,0.312-3.858,0.937-5.677c0.627-1.814,1.514-3.422,2.668-4.823c1.153-1.399,2.555-2.507,4.198-3.319
		c1.646-0.814,3.49-1.222,5.535-1.222c1.361,0,2.64,0.226,3.83,0.683c1.191,0.454,2.242,1.135,3.15,2.043
		c0.906,0.907,1.625,2.034,2.156,3.377c0.528,1.344,0.795,2.904,0.795,4.684h-18.162v-0.967l11.065-0.736
		c1.06-0.074,1.701-0.305,1.933-0.682c0.227-0.377,0.34-1.004,0.34-1.875c0-1.701-0.502-2.979-1.504-3.83
		c-1.004-0.851-2.301-1.273-3.892-1.273c-2.569,0-4.489,1.048-5.76,3.146c-1.268,2.102-1.899,4.932-1.899,8.485
		c0,4.011,1,7.142,3.008,9.394C375.742,174.796,378.523,175.921,382.082,175.921z"/>
	<path fill="#1D1D1B" d="M420.591,151.488c-0.436,0.17-0.86,0.482-1.274,0.938c-0.418,0.453-0.834,1.07-1.25,1.845
		s-0.871,1.79-1.363,3.037l-9.08,22.021h-0.854l-9.362-22.136c-0.529-1.21-0.984-2.202-1.361-2.979
		c-0.379-0.773-0.748-1.381-1.106-1.815c-0.359-0.435-0.746-0.735-1.164-0.905c-0.414-0.171-0.906-0.256-1.474-0.256h-0.567v-0.854
		h13.621v0.854h-0.566c-0.719,0-1.297,0.085-1.73,0.256c-0.438,0.17-0.729,0.473-0.881,0.905c-0.149,0.438-0.149,1.042,0,1.815
		c0.15,0.777,0.453,1.771,0.908,2.979l6.471,16.517h-0.795l6.527-16.742c0.795-2.045,1.029-3.512,0.709-4.398
		c-0.32-0.891-1.127-1.332-2.41-1.332h-0.854v-0.854h9.934v0.854h-0.568C421.527,151.234,421.025,151.319,420.591,151.488z"/>
	<path fill="#1D1D1B" d="M425.783,177.908h0.852c1.285,0,2.176-0.291,2.668-0.88c0.49-0.585,0.736-1.806,0.736-3.659v5.391h-4.256
		V177.908L425.783,177.908z M430.039,155.207c0-0.758-0.379-1.229-1.133-1.418l-2.271-0.567v-0.567l8.229-2.555h0.283v28.66h-5.107
		L430.039,155.207L430.039,155.207z M428.906,143.003c0-0.984,0.319-1.797,0.963-2.441c0.645-0.643,1.457-0.963,2.438-0.963
		c0.984,0,1.8,0.32,2.441,0.963c0.643,0.645,0.965,1.457,0.965,2.441c0,0.982-0.322,1.797-0.965,2.439
		c-0.645,0.646-1.457,0.967-2.441,0.967c-0.981,0-1.797-0.32-2.438-0.967C429.226,144.8,428.906,143.987,428.906,143.003z
		 M435.148,178.759v-5.391c0,1.854,0.243,3.073,0.735,3.658c0.492,0.59,1.381,0.881,2.67,0.881h0.851v0.852H435.148z"/>
	<path fill="#1D1D1B" d="M444.513,177.908h0.854c1.283,0,2.174-0.291,2.666-0.88c0.49-0.585,0.735-1.806,0.735-3.659v5.391h-4.256
		V177.908L444.513,177.908z M453.878,178.759h-5.109v-23.553c0-0.758-0.379-1.229-1.133-1.418l-2.271-0.568v-0.567l7.942-2.555
		h0.283l0.285,4.541v24.12H453.878L453.878,178.759z M458.078,153.901c-0.834,0-1.619,0.169-2.355,0.511
		c-0.735,0.34-1.543,0.795-2.412,1.362v-0.681c1.97-1.779,3.634-3.057,4.994-3.832c1.363-0.775,2.65-1.164,3.859-1.164
		c0.984,0,1.824,0.303,2.527,0.908c0.696,0.604,1.047,1.399,1.047,2.385c0,0.68-0.244,1.257-0.734,1.729
		c-0.494,0.475-1.08,0.711-1.762,0.711c-0.529,0-0.955-0.104-1.277-0.312c-0.32-0.208-0.645-0.425-0.965-0.649
		c-0.32-0.229-0.699-0.445-1.133-0.654C459.429,154.005,458.833,153.901,458.078,153.901z M453.878,178.759v-5.391
		c0,1.854,0.244,3.073,0.736,3.658c0.492,0.59,1.381,0.881,2.668,0.881h1.42v0.852H453.878z"/>
</g>
<g>
	<path fill="#1D1D1B" d="M25.871,250.1c-12.957,0-22.474-9.182-22.474-21.737c0-13.83,10.797-24.155,24.026-24.155
		c7.086,0,10.525,1.352,14.372,3.242l0.338,11.132h-1.08l-4.385-7.561c-3.781-2.561-5.94-3.44-9.383-3.44
		c-10.391,0-17.883,7.424-17.883,17.408c0,13.43,8.168,21.193,18.424,21.193c2.901,0,5.668-0.269,8.569-1.417v-11.139l-6.006-2.692
		v-1.082h16.737v1.082l-4.657,2.901v10.595C38.355,247.869,31.674,250.1,25.871,250.1z"/>
	<path fill="#1D1D1B" d="M83.597,234.237c0,9.044-6.006,15.863-14.847,15.863c-8.841,0-14.847-6.819-14.847-15.863
		c0-9.039,6.006-15.858,14.847-15.858C77.591,218.378,83.597,225.198,83.597,234.237z M59.978,232.825
		c0,7.148,2.901,14.368,9.717,14.368c5.465,0,7.828-5.802,7.828-11.604c0-7.154-2.767-14.375-9.583-14.375
		C62.406,221.213,59.978,226.951,59.978,232.825z"/>
	<path fill="#1D1D1B" d="M120.058,234.237c0,9.044-6.006,15.863-14.847,15.863c-8.841,0-14.847-6.819-14.847-15.863
		c0-9.039,6.006-15.858,14.847-15.858C114.052,218.378,120.058,225.198,120.058,234.237z M96.438,232.825
		c0,7.148,2.901,14.368,9.718,14.368c5.464,0,7.827-5.802,7.827-11.604c0-7.154-2.766-14.375-9.583-14.375
		C98.867,221.213,96.438,226.951,96.438,232.825z"/>
	<path fill="#1D1D1B" d="M139.579,265.618c-8.569,0-12.012-3.506-12.012-8.034c0-1.681,0.407-3.099,1.214-4.317l4.656-3.166v-0.209
		c-3.374-0.67-5.264-2.698-5.264-5.527c0-1.759,0.542-3.109,1.756-4.318l3.643-1.891v-0.406c-2.901-1.891-4.723-4.995-4.723-8.639
		c0-6.077,5.13-10.731,12.012-10.731c1.89,0,4.319,0.544,5.94,1.214l10.122-0.537v3.643l-6.275-0.401l-0.271,0.264
		c1.486,1.626,2.497,4.121,2.497,6.55c0,6.144-5.129,10.727-12.012,10.727c-2.025,0-3.846-0.401-5.465-1.077
		c-1.824,0.676-2.497,1.956-2.497,3.307c0,2.364,1.484,3.375,4.792,3.375h8.097c6.547,0,9.583,2.901,9.583,8.571
		C155.371,259.815,149.296,265.618,139.579,265.618z M140.389,263.728c6.006,0,10.056-4.045,10.056-8.363
		c0-3.99-1.821-5.265-7.289-5.265h-7.22c-0.135,0-0.203,0-0.338,0c-2.428,1.483-3.239,3.638-3.239,6.748
		C132.358,260.827,135.869,263.728,140.389,263.728z M134.383,228.907c0,4.72,2.97,8.165,7.154,8.165
		c3.578,0,5.803-3.577,5.803-7.764c0-4.924-3.036-8.232-6.951-8.232C136.542,221.076,134.383,224.66,134.383,228.907z"/>
	<path fill="#1D1D1B" d="M177.188,248.342v1.076h-13.901v-1.076l4.25-2.16v-39.678l-4.05-3.512v-0.473l8.369-3.709h1.08v47.371
		L177.188,248.342z"/>
	<path fill="#1D1D1B" d="M197.645,250.1c-8.706,0-14.105-5.736-14.105-14.512c0-10.056,6.748-17.21,14.375-17.21
		c7.085,0,11.473,5.127,11.473,14.375l-0.338,0.335h-20.177c0.201,6.275,3.102,11.945,11.674,11.945c2.497,0,5.33-0.879,8.704-2.697
		h0.203v0.676C207.363,246.924,203.11,250.1,197.645,250.1z M189.007,229.989h15.25c-1.014-6.077-3.508-8.637-7.423-8.637
		C192.516,221.352,189.681,224.516,189.007,229.989z"/>
	<path fill="#1D1D1B" d="M234.114,204.883h32.324v11.61h-1.08l-4.184-7.901h-15.589v15.995h10.797l3.374-5.6h1.08v14.781h-1.08
		l-3.374-5.473h-10.797v17.342l6.074,2.704v1.076h-17.545v-1.076l5.399-2.704v-36.979l-5.399-2.693V204.883z"/>
	<path fill="#1D1D1B" d="M304.254,234.237c0,9.044-6.006,15.863-14.848,15.863c-8.841,0-14.847-6.819-14.847-15.863
		c0-9.039,6.006-15.858,14.847-15.858C298.248,218.378,304.254,225.198,304.254,234.237z M280.634,232.825
		c0,7.148,2.901,14.368,9.718,14.368c5.465,0,7.826-5.802,7.826-11.604c0-7.154-2.766-14.375-9.582-14.375
		C283.062,221.213,280.634,226.951,280.634,232.825z"/>
	<path fill="#1D1D1B" d="M325.326,249.418h-14.44v-1.076l4.25-2.16v-20.111l-4.047-3.511v-0.473l8.366-3.709h0.406l0.607,4.994
		h0.338c3.439-3.438,6.41-4.994,10.256-4.994c5.265,0,9.044,2.697,9.044,7.896v19.908l4.252,2.16v1.076h-14.441v-1.076l4.791-2.16
		v-16.731c0-3.989-2.766-6.078-6.681-6.078c-2.43,0-5.737,0.813-7.493,2.363v20.446l4.792,2.16V249.418z"/>
	<path fill="#1D1D1B" d="M364.286,245.638c1.688,0,3.24-0.197,4.319-0.467h0.201v0.676c-0.945,2.021-3.577,4.253-7.827,4.253
		c-3.981,0-7.289-2.435-7.289-6.682v-21.193h-5.533v-0.401l5.736-2.769l4.791-7.424h0.404v7.424h8.909v3.17h-8.909v20.04
		C359.089,244.562,361.452,245.638,364.286,245.638z"/>
	<path fill="#1D1D1B" d="M385.22,250.1c-4.252,0-6.95-0.682-10.125-2.297v-7.561h0.946l2.158,3.715
		c1.418,2.494,3.579,3.708,6.816,3.708c3.645,0,5.737-1.818,5.737-4.791c0-3.847-3.035-4.72-7.692-6.886
		c-4.588-2.088-7.155-4.109-7.155-8.637c0-4.989,4.861-8.974,9.584-8.974c3.308,0,6.006,0.88,8.841,2.291v7.363h-0.945l-2.228-3.582
		c-1.483-2.429-3.306-3.44-5.398-3.44c-3.037,0-5.062,1.621-5.062,4.319c0,3.033,2.229,4.187,6.479,6.143
		c3.846,1.824,8.233,3.1,8.233,9.446C395.41,246.924,389.674,250.1,385.22,250.1z"/>
	<path fill="#1D1D1B" d="M434.712,250.1c-5.535,0-8.91-1.017-13.095-3.11l-0.673-11.066h1.079l3.306,7.154
		c3.308,2.703,6.278,3.847,9.383,3.847c5.33,0,8.501-2.967,8.501-7.759c0-5.869-4.182-7.286-10.932-10.66
		c-6.345-3.176-9.919-5.737-9.919-11.945c0-6.078,6.613-12.353,13.427-12.353c4.185,0,7.492,1.011,11.136,2.835l0.675,10.798h-1.079
		l-3.104-7.083c-3.104-2.363-5.129-3.308-8.166-3.308c-3.98,0-6.816,3.032-6.816,7.016c0,4.59,2.701,6.545,8.639,9.446
		c8.165,3.983,11.945,6.479,11.945,13.363C449.018,245.709,440.918,250.1,434.712,250.1z"/>
	<path fill="#1D1D1B" d="M470.428,264.942h-14.439v-1.082l4.25-2.154v-35.635l-4.047-3.511v-0.473l8.366-3.709h0.406l0.538,4.115
		h0.474c3.441-2.901,6.412-4.115,10.055-4.115c6.816,0,11.742,5.468,11.742,14.375c0,11.066-6.882,17.347-15.319,17.347
		c-2.562,0-4.857-0.274-6.816-0.682v12.287l4.791,2.154V264.942z M465.637,225.061v18.962c2.633,2.159,5.333,2.836,8.775,2.836
		c4.319,0,7.962-3.309,7.962-11.881c0-8.297-4.522-11.945-10.056-11.945C470.093,223.033,467.796,223.714,465.637,225.061z"/>
	<path fill="#1D1D1B" d="M508.511,250.1c-8.708,0-14.106-5.736-14.106-14.512c0-10.056,6.749-17.21,14.376-17.21
		c7.085,0,11.472,5.127,11.472,14.375l-0.337,0.335h-20.178c0.201,6.275,3.103,11.945,11.675,11.945
		c2.497,0,5.329-0.879,8.702-2.697h0.205v0.676C518.229,246.924,513.976,250.1,508.511,250.1z M499.873,229.989h15.25
		c-1.014-6.077-3.508-8.637-7.423-8.637C503.382,221.352,500.546,224.516,499.873,229.989z"/>
	<path fill="#1D1D1B" d="M527.086,235.588c0-10.056,6.748-17.138,15.521-17.138c3.645,0,7.422,1.274,9.179,3.235
		c0.74,0.874,1.079,1.483,1.079,2.028c0,0.67-0.203,1.076-0.876,1.615l-2.567,2.159h-0.472l-2.294-3.104
		c-1.351-1.824-3.306-3.032-6.276-3.032c-4.925,0-7.962,4.109-7.962,11.132c0,6.479,2.834,12.55,11.674,12.55
		c2.499,0,5.33-0.879,8.704-2.697h0.202v0.676c-2.091,3.912-6.342,7.088-11.808,7.088
		C532.484,250.1,527.086,244.364,527.086,235.588z"/>
	<path fill="#1D1D1B" d="M573.398,245.638c1.688,0,3.24-0.197,4.319-0.467h0.201v0.676c-0.945,2.021-3.578,4.253-7.827,4.253
		c-3.981,0-7.291-2.435-7.291-6.682v-21.193h-5.531v-0.401l5.736-2.769l4.792-7.424h0.403v7.424h8.909v3.17h-8.909v20.04
		C568.201,244.562,570.563,245.638,573.398,245.638z"/>
	<path fill="#1D1D1B" d="M597.909,249.418h-14.444v-1.076l4.253-2.16v-20.111l-4.048-3.511v-0.473l8.367-3.709h0.404l0.607,5.736
		h0.269c3.104-5.06,5.333-5.736,7.627-5.736c0.743,0,1.822,0.335,2.43,0.609c1.418,0.539,2.025,1.077,2.025,1.891
		c0,0.335-0.066,0.736-0.271,1.209l-1.348,3.308h-0.473l-2.566-1.011c-1.012-0.407-1.955-0.473-2.832-0.473
		c-1.892,0-3.442,0.945-4.793,2.901v19.369l4.793,2.16V249.418z"/>
	<path fill="#1D1D1B" d="M631.396,250.1c-2.771,0-4.522-1.627-5.266-4.055h-0.406c-2.359,2.297-6.006,4.055-9.783,4.055
		c-4.253,0-7.357-2.637-7.357-7.022c0-4.385,2.969-7.692,10.73-9.517l6.41-1.484v-4.923c0-3.109-2.967-5.604-6.071-5.604
		c-3.443,0-4.592,1.956-4.592,5.066v1.89l-0.335,0.33h-3.511c-1.35,0-1.754-0.265-1.754-1.885c0-1.962,1.146-4.183,3.578-5.737
		c2.495-1.621,5.262-2.835,8.365-2.835c4.792,0,9.718,1.687,9.718,7.357v19.166c0.607,0.67,1.757,1.144,3.78,1.144h2.564
		l0.203,0.137v0.203C636.591,248.342,634.43,250.1,631.396,250.1z M618.909,245.914c2.161,0,4.116-0.407,6.814-1.55v-9.99
		c-10.729,2.022-11.878,4.319-11.878,7.353C613.846,244.496,615.668,245.914,618.909,245.914z"/>
	<path fill="#1D1D1B" d="M655.303,248.342v1.076h-13.901v-1.076l4.249-2.16v-39.678l-4.05-3.512v-0.473l8.369-3.709h1.079v47.371
		L655.303,248.342z"/>
</g>
</svg>
