<?xml version="1.0" encoding="utf-8"?>
<!-- Generator: Adobe Illustrator 16.0.0, SVG Export Plug-In . SVG Version: 6.00 Build 0)  -->
<!DOCTYPE svg PUBLIC "-//W3C//DTD SVG 1.1//EN" "http://www.w3.org/Graphics/SVG/1.1/DTD/svg11.dtd">
<svg version="1.1" id="Calque_1" xmlns="http://www.w3.org/2000/svg" xmlns:xlink="http://www.w3.org/1999/xlink" x="0px" y="0px"
	 width="553.815px" height="220.593px" viewBox="0 0 553.815 220.593" enable-background="new 0 0 553.815 220.593"
	 xml:space="preserve">
<g>
	<path fill="#1D1D1B" d="M5.958,0v5.672c0-3.402-0.568-4.254-4.822-4.254H0V0H5.958z M0,41.127h1.136
		c4.254,0,4.822-0.85,4.822-4.254v5.672H0V41.127z M11.63,42.544H5.958V0h11.344c9.076,0,14.466,4.254,14.466,11.347
		c0,7.374-5.39,11.627-14.466,11.627H11.63V42.544z M16.734,21.556c5.958,0,9.076-3.404,9.076-10.209
		c0-6.525-3.118-9.929-9.076-9.929H11.63v20.138H16.734z M11.63,42.544v-5.672c0,3.404,0.565,4.254,4.822,4.254h1.7v1.417H11.63z"/>
	<path fill="#1D1D1B" d="M44.549,42.544h-4.822v-20.42c0-3.404-0.565-3.972-3.402-3.972h-1.134v-0.85l8.508-3.12h0.85V42.544z
		 M35.191,41.411h3.686c0.568,0,0.85-0.284,0.85-0.853v1.986h-4.536V41.411z M58.164,17.868c0,1.702-1.134,2.836-2.836,2.836
		s-2.835-1.134-2.835-2.836c0-1.474-0.85-2.042-1.986-2.042c-2.097,0-4.31,2.042-6.238,6.692v-2.21
		c1.928-4.256,4.991-6.695,8.508-6.695C56.179,13.614,58.164,15.6,58.164,17.868z M44.549,42.544v-1.986
		c0,0.569,0.284,0.853,0.852,0.853h4.254v1.134H44.549z"/>
	<path fill="#1D1D1B" d="M75.479,43.112c-8.508,0-14.182-6.808-14.182-14.75c0-7.94,5.674-14.748,14.182-14.748
		s14.183,6.808,14.183,14.748C89.662,36.304,83.987,43.112,75.479,43.112z M75.479,14.748c-5.106,0-8.792,4.822-8.792,13.614
		c0,8.794,3.686,13.614,8.792,13.614c5.106,0,8.792-4.82,8.792-13.614C84.271,19.57,80.586,14.748,75.479,14.748z"/>
	<path fill="#1D1D1B" d="M105.278,43.112c-5.104,0-7.658-2.835-7.658-8.51V16.734h-3.686v-0.85l7.942-8.51h0.565v6.808h9.076v2.552
		h-9.076v17.584c0,4.256,1.703,6.524,4.822,6.524c2.384,0,4.253-1.36,5.391-3.97l0.963,0.397
		C112.313,40.9,109.477,43.112,105.278,43.112z"/>
	<path fill="#1D1D1B" d="M130.932,43.112c-8.508,0-14.182-6.808-14.182-14.75c0-7.94,5.674-14.748,14.182-14.748
		c8.509,0,14.183,6.808,14.183,14.748C145.114,36.304,139.44,43.112,130.932,43.112z M130.932,14.748
		c-5.106,0-8.792,4.822-8.792,13.614c0,8.794,3.686,13.614,8.792,13.614c5.105,0,8.792-4.82,8.792-13.614
		C139.724,19.57,136.037,14.748,130.932,14.748z"/>
	<path fill="#1D1D1B" d="M160.73,43.112c-5.104,0-7.658-2.835-7.658-8.51V16.734h-3.687v-0.85l7.942-8.51h0.566v6.808h9.076v2.552
		h-9.076v17.584c0,4.256,1.702,6.524,4.821,6.524c2.384,0,4.255-1.36,5.389-3.97l0.965,0.397
		C167.766,40.9,164.929,43.112,160.73,43.112z"/>
	<path fill="#1D1D1B" d="M175.153,52.755c0-1.702,1.418-2.552,2.552-2.552c1.702,0,1.815,1.702,2.949,1.702
		c0.455,0,1.021-0.227,1.418-1.418l2.836-7.885l-10.152-24.45c-1.021-2.438-1.932-2.836-3.973-2.836h-0.85v-1.134h13.33v1.134
		h-1.134c-2.1,0-2.836,0.51-2.1,2.383l8.056,20.023h-1.305l6.295-19.173c0.739-2.325,0.511-3.233-3.004-3.233h-1.191v-1.134h12.195
		v1.134h-0.794c-2.555,0-4.254,0.794-5.333,3.801L183.264,51.11c-1.362,3.688-3.46,4.48-5.274,4.48
		C176.571,55.59,175.153,54.741,175.153,52.755z"/>
	<path fill="#1D1D1B" d="M202.795,53.889h4.254c0.568,0,0.852-0.282,0.852-0.85v1.986h-5.105V53.889z M204.496,18.152h-1.133v-0.85
		l8.507-3.12h0.853v40.843H207.9v-32.9C207.9,18.721,207.333,18.152,204.496,18.152z M212.438,18.152
		c1.984-2.836,5.388-4.538,8.792-4.538c7.204,0,12.48,5.729,12.48,14.125c0,9.644-6.127,15.09-13.898,15.09
		c-3.743,0-7.884-1.76-10.324-4.651l3.234-3.007c1.303,4.312,3.912,6.524,7.375,6.524c5.897,0,8.62-6.185,8.62-12.593
		c0-8-4.312-13.446-9.528-13.446c-3.12,0-5.9,1.929-6.751,5.048V18.152z M212.723,55.025v-1.986c0,0.568,0.282,0.85,0.851,0.85
		h4.253v1.136H212.723z"/>
	<path fill="#1D1D1B" d="M253.016,43.112c-8.508,0-14.182-6.808-14.182-14.75c0-7.94,5.674-14.748,14.182-14.748
		c8.509,0,14.183,6.808,14.183,14.748C267.198,36.304,261.524,43.112,253.016,43.112z M253.016,14.748
		c-5.106,0-8.792,4.822-8.792,13.614c0,8.794,3.686,13.614,8.792,13.614s8.792-4.82,8.792-13.614
		C261.808,19.57,258.122,14.748,253.016,14.748z"/>
	<path fill="#1D1D1B" d="M292.184,0v5.672c0-3.402-0.567-4.254-4.821-4.254h-1.135V0H292.184z M286.228,41.127h1.135
		c4.254,0,4.821-0.85,4.821-4.254v5.672h-5.956V41.127z M292.184,0h5.673v42.544h-5.673V0z M316.292,9.418l-1.136,0.113
		c-1.248-5.842-3.687-8.113-8.792-8.113h-8.508V0h17.755L316.292,9.418z M302.395,22.125h-4.538v-1.42h4.538
		c5.104,0,6.521-1.7,7.658-7.656h1.246v17.016h-1.246C308.916,24.108,307.498,22.125,302.395,22.125z M297.856,42.544v-5.672
		c0,3.404,0.565,4.254,4.822,4.254h1.701v1.417H297.856z"/>
	<path fill="#1D1D1B" d="M344.957,34.489l0.908,0.455c-1.986,4.936-6.299,8.168-12.255,8.168c-8.224,0-13.613-5.956-13.613-14.182
		c0-9.076,5.956-15.316,14.466-15.316c6.521,0,11.06,3.688,11.912,9.644l-22.406-0.284V21.84l17.301-0.284l-0.285,0.284
		c0-3.688-2.836-7.092-6.806-7.092c-5.388,0-9.075,4.538-9.075,12.196c0,7.489,3.742,12.764,10.436,12.764
		C339.512,39.708,342.971,38.006,344.957,34.489z"/>
	<path fill="#1D1D1B" d="M350.93,3.404h-1.134V2.552L358.871,0h0.851v42.544h-4.82V7.374C354.901,4.254,354.049,3.404,350.93,3.404z
		 M350.361,41.411h3.688c0.568,0,0.853-0.284,0.853-0.853v1.986h-4.54V41.411z M359.722,42.544v-1.986
		c0,0.569,0.284,0.853,0.852,0.853h3.687v1.134H359.722z"/>
	<path fill="#1D1D1B" d="M368.807,3.404h-1.134V2.552L376.749,0h0.85v42.544h-4.822V7.374
		C372.776,4.254,371.927,3.404,368.807,3.404z M368.241,41.411h3.686c0.568,0,0.85-0.284,0.85-0.853v1.986h-4.535V41.411z
		 M377.599,42.544v-1.986c0,0.569,0.284,0.853,0.853,0.853h3.686v1.134H377.599z"/>
	<path fill="#1D1D1B" d="M2.554,68.108h17.3c11.062,0,15.032,5.39,15.032,12.764s-3.97,12.762-15.032,12.762h-9.642v17.019H2.554
		V68.108z M27.228,80.872c-0.113-3.972-1.983-6.808-7.655-6.808h-9.36v13.614h9.36C25.245,87.678,27.344,84.842,27.228,80.872z"/>
	<path fill="#1D1D1B" d="M55.614,81.154v7.092H54.48c-6.24,0-8.056,1.531-8.227,8.282v14.125h-6.524V81.154h6.524v5.958
		c1.134-4.538,4.822-5.958,8.792-5.958H55.614z"/>
	<path fill="#1D1D1B" d="M73.494,80.588c8.905,0,13.898,5.957,13.898,15.316c0,9.36-4.993,15.316-13.898,15.316
		c-8.906,0-13.898-5.956-13.898-15.316C59.595,86.544,64.588,80.588,73.494,80.588z M73.494,85.41c-3.97,0-6.809,2.836-6.809,10.494
		s2.838,10.494,6.809,10.494c3.97,0,6.806-2.836,6.806-10.494S77.463,85.41,73.494,85.41z"/>
	<path fill="#1D1D1B" d="M108.115,110.652h-6.241c-5.104,0-6.522-1.986-6.522-8.226V86.26h-4.538v-5.106h4.538v-7.656l6.522-5.39
		v13.046h6.241v5.106h-6.241v16.167c0,2.27,0.568,2.838,2.836,2.838h3.404V110.652z"/>
	<path fill="#1D1D1B" d="M126.56,80.588c8.905,0,13.898,5.957,13.898,15.316c0,9.36-4.993,15.316-13.898,15.316
		c-8.904,0-13.897-5.956-13.897-15.316C112.662,86.544,117.655,80.588,126.56,80.588z M126.56,85.41
		c-3.97,0-6.808,2.836-6.808,10.494s2.838,10.494,6.808,10.494c3.971,0,6.807-2.836,6.807-10.494S130.53,85.41,126.56,85.41z"/>
	<path fill="#1D1D1B" d="M161.181,110.652h-6.24c-5.104,0-6.521-1.986-6.521-8.226V86.26h-4.538v-5.106h4.538v-7.656l6.521-5.39
		v13.046h6.24v5.106h-6.24v16.167c0,2.27,0.568,2.838,2.836,2.838h3.404V110.652z"/>
	<path fill="#1D1D1B" d="M173.726,111.731L163.46,81.154h7.374l5.898,20.422l6.014-20.422h7.374l-11.627,34.321
		c-1.929,5.672-3.973,6.524-9.929,6.524h-3.121v-5.675h2.837c3.404,0,4.312-0.565,5.105-3.402L173.726,111.731z"/>
	<path fill="#1D1D1B" d="M201.196,85.353c1.986-2.949,4.993-4.765,8.963-4.765c7.545,0,11.741,5.957,11.741,15.316
		c0,9.36-4.196,15.316-11.741,15.316c-3.97,0-6.977-1.76-8.963-4.767v12.991h-6.523V81.154h6.523V85.353z M208.005,85.976
		c-3.914,0-6.695,2.554-6.809,9.418v0.51c0,7.261,2.837,9.926,6.809,9.926c3.97,0,6.806-2.665,6.806-9.926
		C214.811,88.644,211.975,85.976,208.005,85.976z"/>
	<path fill="#1D1D1B" d="M241.489,80.588c8.905,0,13.898,5.957,13.898,15.316c0,9.36-4.993,15.316-13.898,15.316
		s-13.898-5.956-13.898-15.316C227.591,86.544,232.584,80.588,241.489,80.588z M241.489,85.41c-3.97,0-6.808,2.836-6.808,10.494
		s2.838,10.494,6.808,10.494c3.971,0,6.806-2.836,6.806-10.494S245.46,85.41,241.489,85.41z"/>
	<path fill="#1D1D1B" d="M283.493,89.38c0,10.495,6.807,15.601,13.898,15.601c4.536,0,7.261-1.418,9.643-3.12v-9.644h-13.047v-6.24
		h20.421v19.57c-4.822,3.404-10.211,5.674-17.017,5.674c-13.898,0-22.124-10.212-22.124-21.84s7.942-21.838,20.988-21.838
		c7.941,0,14.012,3.686,17.528,9.189l-5.617,4.707c-3.119-5.388-6.806-7.658-11.911-7.658
		C290.015,73.78,283.493,78.886,283.493,89.38z"/>
	<path fill="#1D1D1B" d="M336.839,81.154v7.092h-1.133c-6.241,0-8.056,1.531-8.227,8.282v14.125h-6.524V81.154h6.524v5.958
		c1.134-4.538,4.822-5.958,8.792-5.958H336.839z"/>
	<path fill="#1D1D1B" d="M354.719,80.588c8.905,0,13.898,5.957,13.898,15.316c0,9.36-4.993,15.316-13.898,15.316
		c-8.904,0-13.897-5.956-13.897-15.316C340.821,86.544,345.814,80.588,354.719,80.588z M354.719,85.41
		c-3.97,0-6.809,2.836-6.809,10.494s2.839,10.494,6.809,10.494s6.807-2.836,6.807-10.494S358.688,85.41,354.719,85.41z"/>
	<path fill="#1D1D1B" d="M389.34,110.652h-6.24c-5.104,0-6.521-1.986-6.521-8.226V86.26h-4.538v-5.106h4.538v-7.656l6.521-5.39
		v13.046h6.24v5.106h-6.24v16.167c0,2.27,0.568,2.838,2.836,2.838h3.404V110.652z"/>
	<path fill="#1D1D1B" d="M421.4,96.47h-20.423c0.115,6.864,2.951,9.36,6.808,9.36c3.404,0,5.956-1.929,7.262-5.672l6.068,2.325
		c-2.325,5.446-7.089,8.736-13.33,8.736c-8.905,0-13.897-5.956-13.897-15.316c0-9.36,4.992-15.316,13.897-15.316
		C416.862,80.588,421.4,87.112,421.4,96.47z M401.319,91.932h13.159c-0.68-4.423-3.289-6.238-6.693-6.238
		C404.608,85.694,402.169,87.452,401.319,91.932z"/>
	<path fill="#1D1D1B" d="M450.631,102.144c0,5.389-4.822,8.792-11.912,8.792c-5.388,0-11.063-2.271-13.33-7.658l5.956-2.271
		c1.134,2.555,3.404,4.823,7.374,4.823c3.404,0,5.388-0.85,5.388-3.121c0-6.521-17.017-1.418-17.017-13.614
		c0-5.104,3.97-8.224,10.494-8.224c6.522,0,10.55,3.402,12.252,6.522l-5.332,2.383c-1.247-1.986-3.233-4.083-6.92-4.083
		c-3.12,0-4.253,1.134-4.253,2.836C433.331,95.052,450.631,90.514,450.631,102.144z"/>
	<path fill="#1D1D1B" d="M456.319,68.108h6.523v23.598l9.645-10.552h7.939l-8.848,9.305l9.983,20.194h-7.828l-7.148-14.977
		l-3.743,3.915v11.062h-6.523V68.108z"/>
	<path fill="#1D1D1B" d="M4.258,141.302v4.54c0-1.286-0.235-2.176-0.709-2.668c-0.473-0.492-1.277-0.739-2.411-0.739H0.002v-1.133
		H4.258z M0.002,177.624h1.137c1.134,0,1.938-0.244,2.411-0.737c0.474-0.491,0.709-1.381,0.709-2.667v4.54H0.002V177.624z
		 M9.935,141.302v37.458H4.258v-37.458H9.935z M24.125,151.8c0-1.778-0.162-3.252-0.483-4.427c-0.321-1.171-0.879-2.101-1.674-2.781
		c-0.794-0.681-1.873-1.163-3.235-1.445c-1.362-0.284-3.064-0.427-5.108-0.427H9.935v-1.418h4.541c5.411,0,9.365,0.821,11.861,2.468
		c2.499,1.646,3.746,4.323,3.746,8.03c0,3.294-1.39,5.817-4.17,7.577c-2.781,1.76-6.594,2.64-11.437,2.64H9.935v-1.418h3.688
		c3.709,0,6.386-0.718,8.032-2.157C23.3,157.003,24.125,154.79,24.125,151.8z M9.935,178.76v-4.54c0,1.286,0.236,2.176,0.709,2.667
		c0.474,0.493,1.277,0.737,2.414,0.737h1.702v1.136H9.935z"/>
	<path fill="#1D1D1B" d="M33.205,177.907h0.853c1.284,0,2.175-0.29,2.667-0.879c0.49-0.585,0.737-1.806,0.737-3.66v5.392h-4.256
		V177.907z M42.57,178.76h-5.108v-23.554c0-0.757-0.379-1.229-1.134-1.418l-2.27-0.568v-0.567l7.944-2.555h0.284l0.284,4.541V178.76
		z M46.771,153.901c-0.833,0-1.619,0.169-2.355,0.51c-0.739,0.34-1.542,0.795-2.413,1.363v-0.681
		c1.967-1.779,3.633-3.057,4.995-3.832c1.363-0.775,2.649-1.164,3.859-1.164c0.984,0,1.824,0.303,2.526,0.908
		c0.7,0.606,1.048,1.401,1.048,2.385c0,0.68-0.245,1.257-0.736,1.729c-0.492,0.475-1.079,0.71-1.76,0.71
		c-0.531,0-0.957-0.104-1.277-0.312s-0.645-0.424-0.965-0.651c-0.321-0.228-0.7-0.445-1.134-0.653
		C48.122,154.006,47.526,153.901,46.771,153.901z M42.57,178.76v-5.392c0,1.854,0.245,3.075,0.737,3.66
		c0.492,0.589,1.381,0.879,2.67,0.879h1.418v0.853H42.57z"/>
	<path fill="#1D1D1B" d="M72.027,150.098c1.967,0,3.819,0.333,5.561,0.993c1.741,0.663,3.245,1.609,4.512,2.838
		c1.268,1.231,2.271,2.744,3.01,4.541c0.736,1.797,1.106,3.831,1.106,6.102s-0.37,4.305-1.106,6.102
		c-0.739,1.797-1.742,3.312-3.01,4.54c-1.268,1.23-2.771,2.176-4.512,2.838c-1.742,0.664-3.594,0.994-5.561,0.994
		c-2.007,0-3.871-0.33-5.591-0.994c-1.723-0.662-3.217-1.607-4.483-2.838c-1.271-1.229-2.27-2.743-3.009-4.54
		c-0.737-1.797-1.106-3.831-1.106-6.102s0.369-4.305,1.106-6.102c0.739-1.797,1.739-3.31,3.009-4.541
		c1.266-1.229,2.76-2.175,4.483-2.838C68.156,150.431,70.02,150.098,72.027,150.098z M72.027,177.907
		c1.399,0,2.64-0.348,3.718-1.048c1.076-0.699,1.965-1.655,2.667-2.865c0.7-1.213,1.229-2.621,1.589-4.229
		c0.358-1.607,0.538-3.339,0.538-5.193c0-1.855-0.18-3.585-0.538-5.194c-0.36-1.607-0.889-3.016-1.589-4.229
		c-0.702-1.21-1.591-2.163-2.667-2.866c-1.078-0.699-2.318-1.048-3.718-1.048c-1.439,0-2.688,0.349-3.746,1.048
		c-1.061,0.703-1.94,1.656-2.64,2.866c-0.7,1.213-1.231,2.621-1.589,4.229c-0.36,1.609-0.541,3.339-0.541,5.194
		c0,1.854,0.181,3.586,0.541,5.193c0.358,1.608,0.889,3.017,1.589,4.229c0.7,1.21,1.579,2.166,2.64,2.865
		C69.339,177.56,70.588,177.907,72.027,177.907z"/>
	<path fill="#1D1D1B" d="M99.553,173.084c0,1.289,0.254,2.224,0.765,2.811c0.513,0.587,1.201,0.88,2.072,0.88
		c0.87,0,1.769-0.095,2.697-0.284c0.927-0.189,1.825-0.435,2.695-0.739l0.227,0.513c-1.4,0.758-2.753,1.409-4.058,1.958
		c-1.305,0.548-2.676,0.823-4.115,0.823c-2.118,0-3.548-0.568-4.285-1.703c-0.739-1.136-1.106-2.838-1.106-5.108v-19.866H90.47
		V151.8c2.007-0.981,3.633-2.185,4.882-3.603c1.25-1.421,2.365-3.34,3.349-5.763h0.853v7.947h7.661v1.985h-7.661V173.084z"/>
	<path fill="#1D1D1B" d="M126.172,150.098c1.968,0,3.819,0.333,5.562,0.993c1.741,0.663,3.244,1.609,4.512,2.838
		c1.269,1.231,2.271,2.744,3.01,4.541c0.737,1.797,1.106,3.831,1.106,6.102s-0.369,4.305-1.106,6.102
		c-0.738,1.797-1.741,3.312-3.01,4.54c-1.268,1.23-2.771,2.176-4.512,2.838c-1.742,0.664-3.594,0.994-5.562,0.994
		c-2.007,0-3.87-0.33-5.591-0.994c-1.723-0.662-3.218-1.607-4.482-2.838c-1.271-1.229-2.271-2.743-3.01-4.54
		c-0.737-1.797-1.106-3.831-1.106-6.102s0.37-4.305,1.106-6.102c0.739-1.797,1.739-3.31,3.01-4.541
		c1.265-1.229,2.76-2.175,4.482-2.838C122.302,150.431,124.165,150.098,126.172,150.098z M126.172,177.907
		c1.399,0,2.64-0.348,3.719-1.048c1.075-0.699,1.965-1.655,2.667-2.865c0.699-1.213,1.229-2.621,1.589-4.229
		c0.358-1.607,0.538-3.339,0.538-5.193c0-1.855-0.18-3.585-0.538-5.194c-0.36-1.607-0.89-3.016-1.589-4.229
		c-0.702-1.21-1.592-2.163-2.667-2.866c-1.079-0.699-2.319-1.048-3.719-1.048c-1.438,0-2.688,0.349-3.745,1.048
		c-1.061,0.703-1.94,1.656-2.641,2.866c-0.699,1.213-1.231,2.621-1.589,4.229c-0.359,1.609-0.541,3.339-0.541,5.194
		c0,1.854,0.182,3.586,0.541,5.193c0.357,1.608,0.89,3.017,1.589,4.229c0.7,1.21,1.58,2.166,2.641,2.865
		C123.483,177.56,124.733,177.907,126.172,177.907z"/>
	<path fill="#1D1D1B" d="M153.698,173.084c0,1.289,0.254,2.224,0.765,2.811c0.513,0.587,1.2,0.88,2.071,0.88
		s1.769-0.095,2.697-0.284c0.927-0.189,1.825-0.435,2.695-0.739l0.227,0.513c-1.399,0.758-2.753,1.409-4.059,1.958
		c-1.304,0.548-2.676,0.823-4.114,0.823c-2.118,0-3.548-0.568-4.284-1.703c-0.74-1.136-1.106-2.838-1.106-5.108v-19.866h-3.975
		V151.8c2.007-0.981,3.632-2.185,4.882-3.603c1.249-1.421,2.365-3.34,3.349-5.763h0.853v7.947h7.66v1.985h-7.66V173.084z"/>
	<path fill="#1D1D1B" d="M178.896,179.328l-9.365-22.136c-0.528-1.21-0.983-2.203-1.36-2.979c-0.378-0.775-0.748-1.381-1.107-1.817
		c-0.36-0.434-0.747-0.737-1.165-0.907c-0.415-0.169-0.907-0.254-1.473-0.254h-0.568v-0.853h13.621v0.853h-0.567
		c-0.719,0-1.296,0.085-1.73,0.254c-0.437,0.17-0.729,0.474-0.88,0.907c-0.152,0.437-0.152,1.042,0,1.817
		c0.15,0.776,0.452,1.77,0.907,2.979l6.472,16.517h-0.795l6.526-16.743c0.795-2.044,1.03-3.511,0.709-4.399
		c-0.32-0.89-1.127-1.332-2.41-1.332h-0.853v-0.853h9.933v0.853h-0.852c-0.492,0-0.937,0.076-1.333,0.227
		c-0.399,0.151-0.788,0.445-1.164,0.88c-0.379,0.434-0.776,1.05-1.191,1.845c-0.419,0.794-0.892,1.833-1.421,3.12l-10.499,25.54
		c-1.325,3.18-2.764,5.469-4.313,6.868c-1.552,1.4-3.33,2.1-5.335,2.1c-1.136,0-2.083-0.218-2.838-0.651
		c-0.758-0.437-1.136-1.106-1.136-2.017c0-0.642,0.237-1.162,0.71-1.559c0.472-0.397,1.086-0.596,1.844-0.596
		c0.492,0,0.916,0.074,1.277,0.227c0.36,0.149,0.69,0.312,0.992,0.482c0.303,0.169,0.636,0.33,0.994,0.482
		c0.359,0.15,0.784,0.227,1.276,0.227c0.983,0,1.873-0.426,2.668-1.277c0.796-0.853,1.665-2.432,2.611-4.739l1.815-4.485V179.328z"
		/>
	<path fill="#1D1D1B" d="M207.275,186.423c0,1.853,0.244,3.074,0.736,3.661s1.381,0.88,2.67,0.88h1.418v0.85H197.91v-0.85h0.852
		c1.284,0,2.176-0.293,2.669-0.88c0.488-0.587,0.735-1.809,0.735-3.661v-31.217c0-0.757-0.378-1.229-1.133-1.418l-2.271-0.568
		v-0.567l8.229-2.555h0.284l-0.284,5.108h0.284V186.423z M207.275,171.098c0.076,0.87,0.284,1.694,0.623,2.469
		c0.342,0.775,0.813,1.466,1.42,2.071c0.605,0.607,1.333,1.088,2.186,1.448c0.852,0.36,1.806,0.538,2.865,0.538
		c2.726,0,4.92-0.878,6.585-2.638c1.665-1.759,2.496-4.286,2.496-7.577c0-2.193-0.254-4.173-0.767-5.93
		c-0.51-1.761-1.2-3.246-2.072-4.458c-0.87-1.211-1.919-2.146-3.149-2.809c-1.229-0.662-2.545-0.993-3.945-0.993
		c-1.133,0-2.239,0.228-3.318,0.682c-1.078,0.452-2.053,1.042-2.923,1.76l-0.568-0.455c1.286-1.438,2.856-2.649,4.711-3.633
		s3.783-1.476,5.79-1.476c1.626,0,3.141,0.323,4.54,0.966c1.4,0.645,2.619,1.561,3.66,2.753c1.04,1.191,1.855,2.63,2.441,4.313
		c0.587,1.684,0.88,3.547,0.88,5.589c0,2.347-0.359,4.467-1.078,6.358c-0.721,1.891-1.723,3.501-3.01,4.823
		c-1.286,1.327-2.808,2.348-4.567,3.065c-1.761,0.718-3.661,1.079-5.705,1.079c-1.286,0-2.621-0.153-4.002-0.455
		c-1.381-0.304-2.79-0.812-4.229-1.531L207.275,171.098z"/>
	<path fill="#1D1D1B" d="M248.878,150.098c1.967,0,3.819,0.333,5.561,0.993c1.741,0.663,3.245,1.609,4.513,2.838
		c1.268,1.231,2.27,2.744,3.01,4.541c0.736,1.797,1.105,3.831,1.105,6.102s-0.369,4.305-1.105,6.102
		c-0.74,1.797-1.742,3.312-3.01,4.54c-1.268,1.23-2.771,2.176-4.513,2.838c-1.741,0.664-3.594,0.994-5.561,0.994
		c-2.008,0-3.871-0.33-5.592-0.994c-1.723-0.662-3.217-1.607-4.482-2.838c-1.27-1.229-2.271-2.743-3.009-4.54
		c-0.737-1.797-1.106-3.831-1.106-6.102s0.369-4.305,1.106-6.102c0.738-1.797,1.739-3.31,3.009-4.541
		c1.266-1.229,2.76-2.175,4.482-2.838C245.007,150.431,246.87,150.098,248.878,150.098z M248.878,177.907
		c1.399,0,2.639-0.348,3.718-1.048c1.076-0.699,1.966-1.655,2.668-2.865c0.699-1.213,1.228-2.621,1.589-4.229
		c0.357-1.607,0.537-3.339,0.537-5.193c0-1.855-0.18-3.585-0.537-5.194c-0.361-1.607-0.89-3.016-1.589-4.229
		c-0.702-1.21-1.592-2.163-2.668-2.866c-1.079-0.699-2.318-1.048-3.718-1.048c-1.439,0-2.688,0.349-3.747,1.048
		c-1.06,0.703-1.939,1.656-2.639,2.866c-0.7,1.213-1.231,2.621-1.589,4.229c-0.361,1.609-0.541,3.339-0.541,5.194
		c0,1.854,0.18,3.586,0.541,5.193c0.357,1.608,0.889,3.017,1.589,4.229c0.699,1.21,1.579,2.166,2.639,2.865
		C246.189,177.56,247.438,177.907,248.878,177.907z"/>
	<path fill="#1D1D1B" d="M290.591,141.302v4.54c0-1.286-0.236-2.176-0.709-2.668c-0.474-0.492-1.277-0.739-2.412-0.739h-1.136
		v-1.133H290.591z M286.334,177.624h1.136c1.135,0,1.938-0.244,2.412-0.737c0.473-0.491,0.709-1.381,0.709-2.667v4.54h-4.257
		V177.624z M296.268,141.302v37.458h-5.677v-37.458H296.268z M312.442,150.382h-0.852l-0.34-1.137
		c-0.342-1.21-0.767-2.23-1.277-3.064c-0.511-0.831-1.146-1.503-1.9-2.014c-0.758-0.51-1.668-0.88-2.725-1.106
		c-1.061-0.229-2.29-0.341-3.689-0.341h-5.392v-1.418h16.175V150.382z M308.471,164.287c-0.343-0.907-0.721-1.675-1.137-2.298
		c-0.416-0.626-0.907-1.128-1.476-1.504c-0.568-0.379-1.24-0.645-2.014-0.796c-0.776-0.15-1.695-0.228-2.753-0.228h-4.824v-1.418
		h4.824c1.134,0,2.099-0.066,2.894-0.197c0.795-0.132,1.476-0.352,2.044-0.654c0.568-0.302,1.039-0.728,1.418-1.277
		c0.379-0.548,0.719-1.257,1.023-2.127h0.849v10.499H308.471z M296.268,178.76v-3.972c0,0.871,0.189,1.513,0.568,1.928
		c0.376,0.418,1.133,0.626,2.27,0.626h3.859c1.286,0,2.42-0.085,3.404-0.256c0.983-0.171,1.863-0.462,2.639-0.88
		c0.776-0.415,1.477-0.993,2.1-1.729c0.626-0.739,1.222-1.675,1.79-2.812l0.963-1.93l0.795,0.283l-1.646,8.741H296.268z"/>
	<path fill="#1D1D1B" d="M318.911,177.907h0.853c1.284,0,2.176-0.29,2.667-0.879c0.49-0.585,0.737-1.806,0.737-3.66v5.392h-4.257
		V177.907z M323.168,143.003c0-0.755-0.379-1.229-1.135-1.418l-2.27-0.568v-0.567l8.229-2.555h0.284v40.865h-5.108V143.003z
		 M328.276,178.76v-5.392c0,1.854,0.244,3.075,0.736,3.66c0.491,0.589,1.382,0.879,2.67,0.879h0.85v0.853H328.276z"/>
	<path fill="#1D1D1B" d="M359.719,150.382l-15.664,27.525l-0.284-0.283h4.369c5.032,0,8.401-1.702,10.104-5.105l0.853-1.705h0.85
		l-1.702,7.946h-20.603l15.665-27.525l0.794,0.284h-3.972c-2.688,0-4.854,0.501-6.499,1.503c-1.646,1.002-3.075,2.545-4.286,4.626
		l-0.568,0.966h-0.85l2.554-8.231H359.719z"/>
	<path fill="#1D1D1B" d="M382.081,175.922c1.059,0,2.051-0.104,2.979-0.312c0.926-0.208,1.92-0.578,2.979-1.106l0.397,0.624
		c-1.553,1.325-3.254,2.31-5.108,2.951c-1.854,0.645-3.689,0.966-5.504,0.966c-1.854,0-3.548-0.321-5.081-0.966
		c-1.533-0.642-2.848-1.571-3.944-2.781s-1.949-2.676-2.555-4.399c-0.604-1.72-0.907-3.64-0.907-5.76
		c0-1.967,0.312-3.858,0.936-5.677c0.626-1.814,1.513-3.422,2.667-4.823c1.155-1.399,2.555-2.506,4.201-3.319
		c1.646-0.814,3.49-1.222,5.534-1.222c1.361,0,2.639,0.226,3.83,0.682c1.192,0.455,2.243,1.136,3.15,2.043
		c0.908,0.908,1.626,2.035,2.157,3.377c0.529,1.344,0.795,2.905,0.795,4.684h-18.162v-0.966l11.067-0.738
		c1.058-0.074,1.701-0.303,1.931-0.681c0.226-0.377,0.339-1.003,0.339-1.874c0-1.702-0.501-2.979-1.503-3.831
		c-1.005-0.85-2.301-1.274-3.89-1.274c-2.572,0-4.491,1.048-5.76,3.147c-1.268,2.101-1.9,4.931-1.9,8.486
		c0,4.01,1,7.142,3.007,9.393C375.741,174.797,378.522,175.922,382.081,175.922z"/>
	<path fill="#1D1D1B" d="M420.592,151.488c-0.437,0.17-0.862,0.482-1.277,0.938c-0.418,0.452-0.834,1.069-1.249,1.843
		c-0.416,0.776-0.871,1.79-1.363,3.037l-9.081,22.022h-0.852l-9.365-22.136c-0.528-1.21-0.983-2.203-1.36-2.979
		c-0.379-0.775-0.748-1.381-1.108-1.817c-0.359-0.434-0.746-0.737-1.164-0.907c-0.415-0.169-0.907-0.254-1.473-0.254h-0.568v-0.853
		h13.621v0.853h-0.567c-0.719,0-1.296,0.085-1.73,0.254c-0.438,0.17-0.73,0.474-0.88,0.907c-0.152,0.437-0.152,1.042,0,1.817
		c0.149,0.776,0.452,1.77,0.907,2.979l6.472,16.517h-0.795l6.526-16.743c0.795-2.044,1.03-3.511,0.709-4.399
		c-0.32-0.89-1.127-1.332-2.41-1.332h-0.853v-0.853h9.933v0.853h-0.568C421.526,151.234,421.025,151.319,420.592,151.488z"/>
	<path fill="#1D1D1B" d="M425.783,177.907h0.852c1.285,0,2.176-0.29,2.668-0.879c0.489-0.585,0.736-1.806,0.736-3.66v5.392h-4.256
		V177.907z M430.039,155.206c0-0.757-0.379-1.229-1.134-1.418l-2.271-0.568v-0.567l8.229-2.555h0.283v28.662h-5.108V155.206z
		 M428.905,143.003c0-0.984,0.321-1.797,0.963-2.441c0.645-0.642,1.458-0.963,2.441-0.963s1.797,0.321,2.44,0.963
		c0.643,0.645,0.966,1.457,0.966,2.441s-0.323,1.797-0.966,2.441c-0.644,0.645-1.457,0.966-2.44,0.966s-1.797-0.321-2.441-0.966
		C429.227,144.8,428.905,143.987,428.905,143.003z M435.147,178.76v-5.392c0,1.854,0.245,3.075,0.737,3.66
		c0.492,0.589,1.381,0.879,2.67,0.879h0.849v0.853H435.147z"/>
	<path fill="#1D1D1B" d="M444.513,177.907h0.853c1.283,0,2.175-0.29,2.667-0.879c0.49-0.585,0.737-1.806,0.737-3.66v5.392h-4.257
		V177.907z M453.878,178.76h-5.108v-23.554c0-0.757-0.379-1.229-1.134-1.418l-2.271-0.568v-0.567l7.944-2.555h0.283l0.285,4.541
		V178.76z M458.078,153.901c-0.834,0-1.619,0.169-2.355,0.51c-0.738,0.34-1.543,0.795-2.413,1.363v-0.681
		c1.968-1.779,3.633-3.057,4.995-3.832s2.649-1.164,3.859-1.164c0.983,0,1.824,0.303,2.526,0.908
		c0.699,0.606,1.048,1.401,1.048,2.385c0,0.68-0.244,1.257-0.735,1.729c-0.493,0.475-1.079,0.71-1.761,0.71
		c-0.53,0-0.956-0.104-1.277-0.312c-0.32-0.208-0.645-0.424-0.965-0.651c-0.321-0.228-0.7-0.445-1.134-0.653
		C459.43,154.006,458.833,153.901,458.078,153.901z M453.878,178.76v-5.392c0,1.854,0.244,3.075,0.736,3.66
		c0.492,0.589,1.381,0.879,2.669,0.879h1.419v0.853H453.878z"/>
</g>
</svg>
