<svg xmlns="http://www.w3.org/2000/svg" width="132.602" height="89.772" viewBox="0 0 132.602 89.772"><path d="M21.05 39.272c0 16.578 10.753 24.643 21.955 24.643 7.168 0 11.47-2.24 15.234-4.928V43.75H37.63v-9.855h32.26V64.81c-7.617 5.377-16.13 8.962-26.884 8.962-21.955 0-34.948-16.13-34.948-34.5s12.546-34.5 33.156-34.5c12.545 0 22.133 5.824 27.69 14.517l-8.872 7.437c-4.93-8.513-10.754-12.098-18.818-12.098-9.86 0-20.164 8.064-20.164 24.642zM77.5 72.875c0-10.753 2.867-17.832 17.474-27.78 12.546-8.512 16.13-12.544 16.13-19.713 0-6.72-4.93-10.754-10.754-10.754S89.597 18.66 89.597 24.933c0 3.136.896 5.376 3.137 8.065L81.98 38.374c-2.687-4.032-4.03-8.065-4.03-13.44-.002-10.754 8.96-20.163 22.4-20.163 15.234 0 22.85 9.41 22.85 21.507 0 9.857-5.823 15.324-13.89 21.058-7.167 5.108-16.128 10.306-16.128 13.89h31.363v11.65H77.5z"/></svg>