<?xml version="1.0" encoding="utf-8"?>
<!-- Generator: Adobe Illustrator 16.0.0, SVG Export Plug-In . SVG Version: 6.00 Build 0)  -->
<!DOCTYPE svg PUBLIC "-//W3C//DTD SVG 1.1//EN" "http://www.w3.org/Graphics/SVG/1.1/DTD/svg11.dtd">
<svg version="1.1" id="Calque_1" xmlns="http://www.w3.org/2000/svg" xmlns:xlink="http://www.w3.org/1999/xlink" x="0px" y="0px"
	 width="266px" height="197px" viewBox="0 0 266 197" enable-background="new 0 0 266 197" xml:space="preserve">
<rect x="-1700" y="-258" display="none" fill="#3C3C3B" width="2252" height="1043"/>
<g>
	<g>
		<path id="XMLID_3_" fill="#00E28B" d="M212.454,160.98c0,1.021-0.829,1.853-1.854,1.853H1.853c-1.023,0-1.853-0.83-1.853-1.853
			V4.853C0,3.83,0.83,3,1.853,3h208.749c1.397,0,1.854,0.495,1.854,1.853L212.454,160.98L212.454,160.98z"/>
		<path fill="#E6E6E6" d="M0,13.501V4.544C0,3.521,1.138,3,2.162,3H210.91c1.023,0,1.544,0.521,1.544,1.544v8.957"/>
		<circle fill="#FFFFFF" cx="4.838" cy="8.25" r="1.75"/>
		<circle fill="#FFFFFF" cx="10.397" cy="8.25" r="1.75"/>
		<circle fill="#FFFFFF" cx="15.957" cy="8.25" r="1.75"/>
	</g>
	<g>
		<path fill="#FEFEFE" d="M61.16,53.73c0.006-1.11-0.431-2.425-1.309-3.955c-0.75-1.293-1.622-2.282-2.625-2.965
			c-1.009-0.678-2.084-1.14-3.219-1.378c-1.148-0.236-2.312-0.294-3.513-0.146c-1.207,0.151-2.364,0.401-3.498,0.762
			c-0.875,0.268-1.678,0.553-2.431,0.867c-0.747,0.303-1.34,0.57-1.768,0.803l7.673,13.346c0.198-0.018,0.48-0.064,0.852-0.123
			c0.37-0.075,0.756-0.162,1.16-0.264c0.401-0.102,0.786-0.218,1.157-0.334c0.364-0.111,0.634-0.204,0.817-0.253
			c1.172-0.366,2.279-0.832,3.314-1.396c1.038-0.555,1.867-1.244,2.475-2.061C60.849,55.812,61.154,54.85,61.16,53.73
			 M63.573,40.518c2.181,1.416,4.1,3.559,5.743,6.415c1.483,2.588,2.239,4.934,2.266,7.034c0.031,2.099-0.463,3.975-1.46,5.635
			c-1,1.661-2.408,3.071-4.225,4.249c-1.814,1.169-3.85,2.117-6.109,2.826c-0.224,0.067-0.573,0.177-1.052,0.326
			c-0.48,0.157-0.986,0.297-1.515,0.442c-0.526,0.157-1.061,0.282-1.579,0.395c-0.529,0.123-0.902,0.201-1.149,0.23l8.148,14.167
			L53.7,85.049L30.274,44.292c1.646-0.887,3.51-1.765,5.609-2.643c2.096-0.864,4.23-1.643,6.4-2.329
			c2.259-0.712,4.631-1.253,7.106-1.64c2.478-0.384,4.915-0.363,7.319,0.064C59.101,38.177,61.401,39.09,63.573,40.518"/>
	</g>
</g>
<g>
	<g>
		<path id="XMLID_1_" fill="#F6F6F6" d="M263.939,193.012c0,1.021-0.83,1.852-1.854,1.852H103.338c-1.023,0-1.854-0.828-1.854-1.852
			V76.883c0-1.023,0.83-1.853,1.854-1.853h158.748c1.398,0,1.854,0.495,1.854,1.853V193.012L263.939,193.012z"/>
		<path fill="#E6E6E6" d="M101.485,85.531v-8.957c0-1.021,1.139-1.544,2.162-1.544h158.748c1.023,0,1.545,0.521,1.545,1.544v8.957"
			/>
		<circle fill="#FFFFFF" cx="106.323" cy="80.281" r="1.75"/>
		<circle fill="#FFFFFF" cx="111.882" cy="80.281" r="1.75"/>
		<circle fill="#FFFFFF" cx="117.442" cy="80.281" r="1.75"/>
	</g>
</g>
<g>
	<rect x="138.305" y="105.753" fill="#00E28B" width="48.325" height="5.476"/>
	<rect x="138.305" y="116.663" fill="#7E7E7E" width="48.325" height="2.729"/>
	<rect x="138.305" y="122.118" fill="#7E7E7E" width="48.325" height="2.729"/>
	<rect x="138.305" y="127.572" fill="#7E7E7E" width="48.325" height="2.73"/>
	<rect x="138.305" y="133.141" fill="#7E7E7E" width="48.325" height="2.729"/>
	<rect x="138.305" y="138.706" fill="#7E7E7E" width="48.325" height="2.729"/>
	<rect x="138.305" y="144.271" fill="#7E7E7E" width="48.325" height="2.729"/>
</g>
<g>
	
		<rect x="192.086" y="106.753" fill="none" stroke="#DDDDDD" stroke-width="3" stroke-miterlimit="10" width="40.92" height="68.369"/>
	
		<line fill="none" stroke="#DDDDDD" stroke-width="3" stroke-miterlimit="10" x1="192.086" y1="175.122" x2="233.006" y2="106.753"/>
	
		<line fill="none" stroke="#DDDDDD" stroke-width="3" stroke-miterlimit="10" x1="192.086" y1="106.753" x2="233.006" y2="175.122"/>
</g>
<linearGradient id="SVGID_1_" gradientUnits="userSpaceOnUse" x1="379.0107" y1="670.7393" x2="515.1699" y2="670.7393" gradientTransform="matrix(1 0 0 1 -328.5391 -595.1992)">
	<stop  offset="0" style="stop-color:#FFFFFF;stop-opacity:0.1"/>
	<stop  offset="1" style="stop-color:#00E28B;stop-opacity:0.6"/>
</linearGradient>
<polygon fill="url(#SVGID_1_)" points="138.305,111.229 53.699,85.047 62.64,82.235 50.471,61.064 65.854,61.278 62.159,39.851 
	186.63,105.753 138.305,105.753 "/>
</svg>
