<?xml version="1.0" encoding="utf-8"?>
<!-- Generator: Adobe Illustrator 16.0.0, SVG Export Plug-In . SVG Version: 6.00 Build 0)  -->
<!DOCTYPE svg PUBLIC "-//W3C//DTD SVG 1.1//EN" "http://www.w3.org/Graphics/SVG/1.1/DTD/svg11.dtd">
<svg version="1.1" id="Layer_1" xmlns="http://www.w3.org/2000/svg" xmlns:xlink="http://www.w3.org/1999/xlink" x="0px" y="0px"
	 width="30px" height="30px" viewBox="2099.808 1235 30 30" enable-background="new 2099.808 1235 30 30" xml:space="preserve">
<g>
	<path id="SVGID_1_" fill="#FFFFFF" d="M2114.808,1264.517c-7.972,0-14.517-6.505-14.517-14.517s6.545-14.516,14.517-14.516
		s14.517,6.544,14.517,14.516C2129.324,1257.972,2122.819,1264.517,2114.808,1264.517z M2127.063,1251.982
		c-0.437-0.119-3.888-1.149-7.734-0.515c1.587,4.481,2.261,8.051,2.379,8.844
		C2124.524,1258.368,2126.468,1255.435,2127.063,1251.982z M2119.646,1261.422c-0.198-1.11-0.912-4.917-2.657-9.439h-0.08
		c-6.94,2.459-9.479,7.298-9.717,7.734c2.143,1.627,4.759,2.658,7.615,2.658C2116.553,1262.375,2118.179,1262.057,2119.646,1261.422
		L2119.646,1261.422z M2105.605,1258.329c0.238-0.437,3.689-6.108,10.074-8.17c0.198-0.079,0.317-0.119,0.517-0.119
		c-0.318-0.714-0.636-1.428-1.031-2.142c-6.188,1.864-12.177,1.785-12.771,1.745v0.397
		C2102.433,1253.212,2103.583,1256.108,2105.605,1258.329L2105.605,1258.329z M2102.671,1247.501c0.595,0,5.672,0,11.463-1.468
		c-2.063-3.688-4.244-6.703-4.562-7.139C2106.042,1240.481,2103.464,1243.614,2102.671,1247.501z M2111.912,1238.022
		c0.317,0.436,2.578,3.53,4.641,7.218c4.363-1.666,6.267-4.125,6.504-4.442c-2.181-1.943-5.076-3.094-8.17-3.094
		C2113.776,1237.625,2112.824,1237.745,2111.912,1238.022L2111.912,1238.022z M2124.405,1242.187c-0.277,0.317-2.3,3.015-6.9,4.918
		c0.276,0.595,0.595,1.15,0.833,1.785c0.079,0.198,0.198,0.436,0.277,0.634c4.124-0.515,8.249,0.317,8.646,0.396
		C2127.183,1246.986,2126.151,1244.328,2124.405,1242.187z"/>
	<path fill="#FFFFFF" d="M2114.808,1265c-8.271,0-15-6.729-15-15c0-8.271,6.729-15,15-15s15,6.729,15,15
		C2129.808,1258.271,2123.079,1265,2114.808,1265z M2114.808,1235.968c-7.737,0-14.032,6.295-14.032,14.032
		s6.295,14.032,14.032,14.032s14.032-6.295,14.032-14.032S2122.545,1235.968,2114.808,1235.968z M2114.808,1262.858
		c-2.798,0-5.533-0.952-7.908-2.756l-0.331-0.251l0.199-0.366c0.705-1.301,3.476-5.654,9.98-7.959l0.241-0.027h0.331l0.12,0.31
		c1.176,3.047,2.128,6.432,2.683,9.528l0.066,0.377l-0.352,0.152C2118.316,1262.524,2116.624,1262.858,2114.808,1262.858z
		 M2107.825,1259.582c2.124,1.512,4.529,2.309,6.982,2.309c1.542,0,2.984-0.258,4.292-0.768c-0.525-2.789-1.369-5.794-2.402-8.548
		C2111.27,1254.613,2108.703,1258.111,2107.825,1259.582z M2121.346,1261.149l-0.115-0.766c-0.152-1.014-0.872-4.561-2.358-8.755
		l-0.192-0.545l0.57-0.094c0.851-0.141,1.747-0.212,2.663-0.212c1.201,0,3.082,0.125,5.216,0.721l0.422,0.117l-0.011,0.449
		c-0.607,3.521-2.581,6.592-5.557,8.644L2121.346,1261.149z M2119.979,1251.862c1.207,3.513,1.82,6.308,2.069,7.6
		c2.301-1.798,3.862-4.292,4.456-7.128c-1.908-0.484-3.528-0.588-4.591-0.588
		C2121.253,1251.746,2120.604,1251.785,2119.979,1251.862z M2105.705,1259.156l-0.458-0.501c-2.112-2.32-3.297-5.378-3.338-8.609
		v-0.92l0.517,0.034c0.092,0.006,0.321,0.013,0.665,0.013c1.446,0,6.58-0.125,11.935-1.738l0.374-0.113l0.188,0.341
		c0.406,0.733,0.733,1.468,1.051,2.18l0.302,0.68h-0.744c-0.107,0-0.157,0.013-0.337,0.084c-6.486,2.097-9.797,7.896-9.829,7.953
		L2105.705,1259.156z M2102.879,1250.14c0.055,2.772,0.974,5.31,2.665,7.378c1.058-1.588,4.411-6.012,9.972-7.814
		c-0.185-0.409-0.378-0.822-0.591-1.23c-5.342,1.545-10.388,1.667-11.834,1.667
		C2103.016,1250.141,2102.944,1250.14,2102.879,1250.14z M2127.762,1250.514l-0.595-0.119c-0.655-0.131-2.982-0.554-5.706-0.554
		c-0.98,0-1.917,0.055-2.785,0.164l-0.371,0.046l-0.139-0.347c-0.037-0.092-0.084-0.194-0.13-0.296
		c-0.053-0.116-0.106-0.232-0.147-0.338c-0.153-0.407-0.335-0.771-0.527-1.156c-0.101-0.2-0.199-0.399-0.295-0.604l-0.214-0.458
		l0.467-0.193c1.91-0.791,4.612-2.245,6.636-4.687l0.464-0.533l0.362,0.443c1.858,2.281,2.884,5.057,2.964,8.026L2127.762,1250.514z
		 M2121.461,1248.873c2.248,0,4.236,0.28,5.286,0.46c-0.173-2.333-0.979-4.518-2.359-6.381c-1.94,2.187-4.359,3.573-6.226,4.398
		c0.021,0.043,0.043,0.087,0.064,0.131c0.195,0.39,0.397,0.794,0.563,1.238c0.033,0.083,0.079,0.183,0.125,0.283
		C2119.72,1248.917,2120.574,1248.873,2121.461,1248.873z M2102.671,1247.985h-0.593l0.118-0.581
		c0.818-4.005,3.434-7.269,7.177-8.951l0.358-0.161l0.231,0.318c0.582,0.8,2.633,3.682,4.594,7.187l0.308,0.55l-0.611,0.155
		C2108.824,1247.878,2104.016,1247.985,2102.671,1247.985z M2109.414,1239.503c-3.085,1.508-5.285,4.205-6.134,7.508
		c1.756-0.035,5.682-0.24,10.118-1.295C2111.772,1242.875,2110.142,1240.521,2109.414,1239.503z M2116.335,1245.842l-0.204-0.365
		c-1.827-3.267-3.824-6.09-4.598-7.153l-0.401-0.549l0.64-0.215c1.013-0.308,2.013-0.417,3.15-0.337c0.001,0,0.003,0,0.005,0
		c3.112,0,6.126,1.142,8.452,3.215l0.332,0.296l-0.268,0.355c-0.358,0.478-2.366,2.942-6.717,4.604L2116.335,1245.842z
		 M2112.719,1238.315c0.918,1.29,2.522,3.637,4.049,6.32c3.188-1.295,4.935-2.996,5.615-3.777c-2.098-1.725-4.741-2.67-7.496-2.67
		c-0.249-0.017-0.458-0.024-0.661-0.024C2113.708,1238.165,2113.21,1238.214,2112.719,1238.315z"/>
</g>
</svg>
