<?xml version="1.0" encoding="utf-8"?>
<!-- Generator: Adobe Illustrator 17.0.2, SVG Export Plug-In . SVG Version: 6.00 Build 0)  -->
<!DOCTYPE svg PUBLIC "-//W3C//DTD SVG 1.1//EN" "http://www.w3.org/Graphics/SVG/1.1/DTD/svg11.dtd">
<svg version="1.1" id="Capa_1" xmlns="http://www.w3.org/2000/svg" xmlns:xlink="http://www.w3.org/1999/xlink" x="0px" y="0px"
	 width="260px" height="260px" viewBox="0 0 260 260" enable-background="new 0 0 260 260" xml:space="preserve">
<path fill="#232323" d="M229.141,31.262H30.86C13.844,31.262,0,44.557,0,60.898v138.205c0,16.341,13.844,29.636,30.86,29.636
	h198.281c17.016,0,30.859-13.295,30.859-29.636V60.898C260,44.557,246.157,31.262,229.141,31.262z M229.141,202.575H30.86
	c-2.501,0-4.695-1.622-4.695-3.472V79.173l89.677,75.71c1.838,1.553,4.176,2.407,6.584,2.407l15.145,0.001
	c2.406,0,4.745-0.855,6.584-2.408l89.681-75.713v119.934C233.836,200.952,231.641,202.575,229.141,202.575z M130,131.312
	L42.778,57.425h174.445L130,131.312z"/>
</svg>
