<?xml version="1.0" encoding="utf-8"?>
<!-- Generator: Adobe Illustrator 16.0.0, SVG Export Plug-In . SVG Version: 6.00 Build 0)  -->
<!DOCTYPE svg PUBLIC "-//W3C//DTD SVG 1.1//EN" "http://www.w3.org/Graphics/SVG/1.1/DTD/svg11.dtd">
<svg version="1.1" id="Capa_1" xmlns="http://www.w3.org/2000/svg" xmlns:xlink="http://www.w3.org/1999/xlink" x="0px" y="0px"
	 width="29.991px" height="29.991px" viewBox="0.004 0.005 29.991 29.991" enable-background="new 0.004 0.005 29.991 29.991"
	 xml:space="preserve">
<g>
	<g>
		<path fill="#FFFFFF" d="M30,5.699c-1.104,0.489-2.289,0.821-3.534,0.969c1.271-0.761,2.244-1.968,2.705-3.403
			c-1.192,0.705-2.508,1.217-3.911,1.494c-1.123-1.198-2.72-1.944-4.492-1.944c-3.398,0-6.154,2.756-6.154,6.153
			c0,0.482,0.054,0.952,0.159,1.402C9.66,10.114,5.125,7.664,2.09,3.94C1.56,4.848,1.258,5.905,1.258,7.034
			c0,2.135,1.087,4.019,2.737,5.122c-1.009-0.034-1.957-0.311-2.788-0.772v0.077c0,2.981,2.122,5.468,4.936,6.035
			c-0.516,0.14-1.059,0.216-1.622,0.216c-0.397,0-0.782-0.039-1.159-0.113c0.784,2.445,3.056,4.225,5.748,4.273
			c-2.105,1.65-4.76,2.63-7.643,2.63c-0.497,0-0.986-0.03-1.468-0.084c2.724,1.749,5.958,2.769,9.433,2.769
			c11.321,0,17.509-9.377,17.509-17.508L26.92,8.881C28.131,8.016,29.178,6.932,30,5.699z"/>
	</g>
</g>
</svg>
