<?xml version="1.0" encoding="utf-8"?>
<!-- Generator: Adobe Illustrator 17.0.2, SVG Export Plug-In . SVG Version: 6.00 Build 0)  -->
<!DOCTYPE svg PUBLIC "-//W3C//DTD SVG 1.1//EN" "http://www.w3.org/Graphics/SVG/1.1/DTD/svg11.dtd">
<svg version="1.1" id="Capa_1" xmlns="http://www.w3.org/2000/svg" xmlns:xlink="http://www.w3.org/1999/xlink" x="0px" y="0px"
	 width="260px" height="260px" viewBox="0 0 260 260" enable-background="new 0 0 260 260" xml:space="preserve">
<g>
	<path fill="#232323" d="M5.977,80.674l10.075,13.213c0,0,20.776-16.377,27.702-8.188c6.925,8.188,33.364,107.056,42.189,125.294
		c7.703,15.996,28.951,37.139,52.253,22.039c23.287-15.101,100.73-81.218,114.592-159.296c13.851-78.054-93.192-61.703-104.53,6.3
		c28.338-17.014,43.465,6.913,28.963,34.002c-14.475,27.063-27.701,44.715-34.628,44.715c-6.913,0-12.23-18.112-20.151-49.767
		c-8.187-32.726-8.137-91.675-42.176-84.992C48.166,30.296,5.977,80.674,5.977,80.674z"/>
</g>
</svg>
