<?xml version="1.0" encoding="utf-8"?>
<!-- Generator: Adobe Illustrator 17.0.2, SVG Export Plug-In . SVG Version: 6.00 Build 0)  -->
<!DOCTYPE svg PUBLIC "-//W3C//DTD SVG 1.1//EN" "http://www.w3.org/Graphics/SVG/1.1/DTD/svg11.dtd">
<svg version="1.1" id="Calque_1" xmlns="http://www.w3.org/2000/svg" xmlns:xlink="http://www.w3.org/1999/xlink" x="0px" y="0px"
	 width="109.201px" height="130.36px" viewBox="0 0 109.201 130.36" enable-background="new 0 0 109.201 130.36"
	 xml:space="preserve">
<path opacity="0.1" enable-background="new    " d="M76.025,27.281c4.013,2.721,7.526,6.83,10.545,12.314
	c2.735,4.962,4.126,9.454,4.17,13.482c0.048,4.022-0.848,7.628-2.675,10.802c-1.841,3.181-4.43,5.888-7.77,8.149
	c-3.337,2.246-7.085,4.054-11.24,5.418c-0.402,0.131-1.047,0.342-1.921,0.63c-0.885,0.293-1.812,0.572-2.796,0.848
	c-0.964,0.281-1.951,0.533-2.905,0.763c-0.96,0.221-1.662,0.364-2.096,0.426L74.31,107.28l-16.425,5.394L14.815,34.523
	c3.024-1.701,6.46-3.38,10.317-5.054c3.848-1.66,7.77-3.15,11.766-4.461c4.156-1.364,8.509-2.413,13.058-3.152
	c4.553-0.739,9.033-0.7,13.45,0.114C67.813,22.789,72.024,24.555,76.025,27.281z M71.595,52.635
	c0.009-2.135-0.799-4.664-2.413-7.596c-1.366-2.476-2.98-4.366-4.827-5.679c-1.846-1.298-3.828-2.183-5.92-2.646
	c-2.101-0.461-4.255-0.555-6.46-0.276c-2.2,0.281-4.344,0.766-6.421,1.451c-1.599,0.523-3.082,1.071-4.468,1.657
	c-1.376,0.584-2.469,1.1-3.259,1.536L51.93,66.679c0.368-0.022,0.885-0.109,1.565-0.238c0.686-0.141,1.4-0.303,2.13-0.506
	c0.744-0.196,1.456-0.407,2.139-0.63c0.666-0.221,1.172-0.388,1.495-0.494c2.163-0.708,4.192-1.604,6.101-2.673
	c1.907-1.068,3.426-2.384,4.553-3.952C71.026,56.623,71.586,54.772,71.595,52.635"/>
<path fill="#FFFFFF" d="M79.668,23.638c4.013,2.721,7.526,6.83,10.545,12.314c2.735,4.962,4.126,9.454,4.17,13.482
	c0.048,4.022-0.848,7.628-2.675,10.802c-1.841,3.181-4.429,5.888-7.77,8.149c-3.337,2.246-7.085,4.054-11.24,5.418
	c-0.402,0.131-1.047,0.342-1.921,0.63c-0.885,0.293-1.812,0.572-2.796,0.848c-0.964,0.281-1.951,0.533-2.905,0.763
	c-0.96,0.221-1.662,0.364-2.096,0.426l14.974,27.169l-16.425,5.394L18.459,30.88c3.024-1.701,6.46-3.38,10.317-5.054
	c3.848-1.66,7.77-3.15,11.766-4.461c4.156-1.364,8.509-2.413,13.058-3.152c4.553-0.739,9.033-0.7,13.45,0.114
	C71.456,19.146,75.668,20.912,79.668,23.638z M75.239,48.992c0.009-2.135-0.799-4.664-2.413-7.596
	c-1.366-2.476-2.98-4.366-4.827-5.679c-1.846-1.298-3.828-2.183-5.92-2.646c-2.101-0.461-4.255-0.555-6.46-0.276
	c-2.2,0.281-4.344,0.766-6.421,1.451c-1.599,0.523-3.082,1.071-4.468,1.657c-1.376,0.584-2.469,1.1-3.259,1.536l14.102,25.596
	c0.368-0.022,0.885-0.109,1.565-0.238c0.686-0.141,1.4-0.303,2.13-0.506c0.744-0.196,1.456-0.407,2.139-0.63
	c0.666-0.221,1.172-0.388,1.495-0.494c2.163-0.708,4.192-1.604,6.101-2.673c1.907-1.068,3.426-2.384,4.553-3.952
	C74.669,52.98,75.229,51.129,75.239,48.992"/>
</svg>
