<?xml version="1.0" encoding="utf-8"?>
<!-- Generator: Adobe Illustrator 17.0.2, SVG Export Plug-In . SVG Version: 6.00 Build 0)  -->
<!DOCTYPE svg PUBLIC "-//W3C//DTD SVG 1.1//EN" "http://www.w3.org/Graphics/SVG/1.1/DTD/svg11.dtd">
<svg version="1.1" id="Calque_1" xmlns="http://www.w3.org/2000/svg" xmlns:xlink="http://www.w3.org/1999/xlink" x="0px" y="0px"
	 width="19.669px" height="23.664px" viewBox="66.596 -99.402 19.669 23.664" enable-background="new 66.596 -99.402 19.669 23.664"
	 xml:space="preserve">
<path fill="#333333" d="M82.453-97.86c1.039,0.705,1.95,1.769,2.732,3.19c0.709,1.286,1.069,2.449,1.08,3.493
	c0.013,1.042-0.22,1.976-0.693,2.798c-0.477,0.824-1.147,1.525-2.013,2.111c-0.864,0.582-1.835,1.05-2.912,1.404
	c-0.104,0.034-0.271,0.089-0.498,0.163c-0.229,0.076-0.47,0.148-0.724,0.22c-0.25,0.073-0.505,0.138-0.753,0.198
	c-0.249,0.057-0.431,0.094-0.543,0.11l3.879,7.038l-4.255,1.397L66.596-95.984c0.783-0.441,1.673-0.876,2.673-1.309
	c0.997-0.43,2.013-0.816,3.048-1.156c1.077-0.353,2.204-0.625,3.383-0.817c1.179-0.191,2.34-0.181,3.484,0.03
	C80.326-99.024,81.417-98.567,82.453-97.86z M81.306-91.292c0.003-0.553-0.207-1.208-0.625-1.968
	c-0.354-0.642-0.772-1.131-1.25-1.471c-0.478-0.336-0.992-0.566-1.533-0.685c-0.544-0.119-1.102-0.144-1.673-0.072
	c-0.57,0.073-1.125,0.198-1.663,0.376c-0.414,0.136-0.798,0.277-1.157,0.429c-0.357,0.151-0.64,0.285-0.844,0.398l3.653,6.631
	c0.095-0.006,0.229-0.028,0.405-0.062c0.178-0.036,0.363-0.078,0.552-0.131c0.193-0.051,0.377-0.105,0.554-0.163
	c0.173-0.057,0.304-0.1,0.387-0.128c0.561-0.183,1.086-0.416,1.581-0.692c0.494-0.277,0.888-0.618,1.179-1.024
	C81.158-90.259,81.303-90.738,81.306-91.292"/>
</svg>
