<?xml version="1.0" encoding="utf-8"?>
<!-- Generator: Adobe Illustrator 17.0.2, SVG Export Plug-In . SVG Version: 6.00 Build 0)  -->
<!DOCTYPE svg PUBLIC "-//W3C//DTD SVG 1.1//EN" "http://www.w3.org/Graphics/SVG/1.1/DTD/svg11.dtd">
<svg version="1.1" id="Capa_1" xmlns="http://www.w3.org/2000/svg" xmlns:xlink="http://www.w3.org/1999/xlink" x="0px" y="0px"
	 width="60.734px" height="60.733px" viewBox="0 0 60.734 60.733" enable-background="new 0 0 60.734 60.733" xml:space="preserve">
<g>
	<path fill="#232323" d="M30.367,0.663C14.164,0.663,1.03,13.797,1.03,30s13.135,29.337,29.337,29.337S59.704,46.203,59.704,30
		S46.57,0.663,30.367,0.663z M47.789,47.422c-2.264,2.264-4.9,4.042-7.833,5.282c-0.745,0.315-1.502,0.592-2.269,0.83v-4.397
		c0-2.311-0.793-4.011-2.378-5.1c0.993-0.095,1.905-0.229,2.736-0.401c0.831-0.172,1.71-0.42,2.636-0.745
		c0.926-0.325,1.757-0.711,2.493-1.16c0.735-0.449,1.442-1.031,2.12-1.748c0.678-0.716,1.246-1.528,1.705-2.435
		c0.458-0.907,0.821-1.996,1.089-3.266c0.267-1.27,0.401-2.669,0.401-4.197c0-2.96-0.964-5.482-2.894-7.564
		c0.879-2.292,0.783-4.785-0.286-7.478l-0.716-0.086c-0.496-0.057-1.39,0.153-2.679,0.63c-1.289,0.478-2.736,1.261-4.34,2.349
		c-2.273-0.63-4.632-0.945-7.076-0.945c-2.464,0-4.813,0.315-7.048,0.945c-1.012-0.688-1.972-1.256-2.879-1.705
		c-0.907-0.449-1.633-0.754-2.177-0.917c-0.544-0.162-1.051-0.263-1.518-0.301c-0.468-0.038-0.769-0.048-0.902-0.029
		c-0.134,0.019-0.229,0.038-0.286,0.057c-1.07,2.712-1.165,5.205-0.286,7.478c-1.929,2.082-2.894,4.603-2.894,7.564
		c0,1.528,0.134,2.927,0.401,4.197s0.63,2.359,1.089,3.266c0.458,0.907,1.027,1.719,1.705,2.435c0.678,0.716,1.385,1.299,2.12,1.748
		s1.566,0.836,2.493,1.16c0.926,0.325,1.805,0.573,2.636,0.745c0.831,0.172,1.743,0.306,2.736,0.401
		c-1.566,1.07-2.349,2.77-2.349,5.1v4.483c-0.865-0.258-1.718-0.562-2.556-0.916c-2.933-1.241-5.569-3.018-7.833-5.282
		c-2.264-2.264-4.042-4.9-5.282-7.833C6.379,36.555,5.728,33.328,5.728,30s0.651-6.555,1.934-9.589
		c1.241-2.933,3.018-5.569,5.282-7.833s4.9-4.042,7.833-5.282c3.035-1.284,6.261-1.934,9.589-1.934s6.555,0.651,9.589,1.934
		c2.934,1.241,5.569,3.018,7.833,5.282c2.264,2.264,4.041,4.9,5.282,7.833c1.283,3.035,1.934,6.261,1.934,9.589
		s-0.651,6.555-1.934,9.589C51.831,42.522,50.053,45.158,47.789,47.422z"/>
</g>
</svg>
