<?xml version="1.0" encoding="utf-8"?>
<!-- Generator: Adobe Illustrator 17.0.2, SVG Export Plug-In . SVG Version: 6.00 Build 0)  -->
<!DOCTYPE svg PUBLIC "-//W3C//DTD SVG 1.1//EN" "http://www.w3.org/Graphics/SVG/1.1/DTD/svg11.dtd">
<svg version="1.1" id="Capa_1" xmlns="http://www.w3.org/2000/svg" xmlns:xlink="http://www.w3.org/1999/xlink" x="0px" y="0px"
	 width="480.955px" height="493.578px" viewBox="6.312 0 480.955 493.578" enable-background="new 6.312 0 480.955 493.578"
	 xml:space="preserve">
<g>
	<path fill="#FFFFFF" d="M6.312,267.597c0,17.365,13.999,31.518,31.518,31.518h261.248L188.229,409.963
		c-12.24,12.24-12.24,32.207,0,44.676l29.758,29.759c12.24,12.24,32.207,12.24,44.676,0l215.348-215.347
		c6.12-6.12,9.256-14.153,9.256-22.262c0-8.032-3.136-16.142-9.256-22.262L262.663,9.179c-12.24-12.239-32.207-12.239-44.676,0
		l-29.758,29.759c-12.24,12.24-12.24,32.207,0,44.676L299.078,194.08H37.984c-17.366,0-31.519,14.153-31.519,31.519L6.312,267.597z"
		/>
</g>
</svg>
