<?xml version="1.0" encoding="utf-8"?>
<!-- Generator: Adobe Illustrator 17.0.2, SVG Export Plug-In . SVG Version: 6.00 Build 0)  -->
<!DOCTYPE svg PUBLIC "-//W3C//DTD SVG 1.1//EN" "http://www.w3.org/Graphics/SVG/1.1/DTD/svg11.dtd">
<svg version="1.1" id="Calque_1" xmlns="http://www.w3.org/2000/svg" xmlns:xlink="http://www.w3.org/1999/xlink" x="0px" y="0px"
	 width="334px" height="357.874px" viewBox="0 0 334 357.874" enable-background="new 0 0 334 357.874" xml:space="preserve">
<linearGradient id="SVGID_1_" gradientUnits="userSpaceOnUse" x1="-7" y1="190.7759" x2="279.2306" y2="190.7759">
	<stop  offset="0.5721" style="stop-color:#000000;stop-opacity:0"/>
	<stop  offset="1" style="stop-color:#000000"/>
</linearGradient>
<polygon opacity="0.05" fill="url(#SVGID_1_)" points="228.912,55.014 -7,291.094 -7,328 55,328 273.482,109.518 264.556,98.603 
	261.692,95.1 279.231,81.137 271.206,53.552 "/>
<path fill="#FFFFFF" d="M274.032,49.596c2.97,2.014,5.569,5.055,7.804,9.113c2.024,3.672,3.054,6.997,3.086,9.977
	c0.036,2.977-0.628,5.645-1.98,7.994c-1.363,2.354-3.278,4.357-5.75,6.03c-2.469,1.662-5.243,3-8.318,4.009
	c-0.298,0.097-0.775,0.253-1.422,0.466c-0.655,0.217-1.341,0.423-2.069,0.628c-0.713,0.208-1.444,0.395-2.15,0.565
	c-0.71,0.163-1.23,0.269-1.551,0.315l11.081,20.106l-12.156,3.991l-31.874-57.835c2.238-1.259,4.78-2.502,7.635-3.74
	c2.848-1.228,5.75-2.331,8.707-3.301c3.075-1.009,6.297-1.786,9.663-2.333c3.369-0.547,6.685-0.518,9.954,0.084
	C267.954,46.271,271.071,47.578,274.032,49.596z M270.754,68.359c0.007-1.58-0.592-3.452-1.786-5.622
	c-1.011-1.832-2.206-3.231-3.572-4.203c-1.366-0.961-2.833-1.616-4.381-1.958c-1.555-0.341-3.149-0.41-4.78-0.204
	c-1.628,0.208-3.215,0.567-4.752,1.074c-1.184,0.387-2.281,0.793-3.307,1.226c-1.019,0.432-1.827,0.814-2.411,1.137l10.436,18.943
	c0.272-0.016,0.655-0.081,1.158-0.176c0.507-0.104,1.036-0.224,1.576-0.375c0.551-0.145,1.077-0.301,1.583-0.466
	c0.493-0.163,0.868-0.287,1.107-0.366c1.601-0.524,3.102-1.187,4.515-1.978c1.411-0.791,2.536-1.764,3.369-2.925
	C270.332,71.31,270.747,69.94,270.754,68.359"/>
</svg>
