<?xml version="1.0" encoding="utf-8"?>
<!-- Generator: Adobe Illustrator 17.0.2, SVG Export Plug-In . SVG Version: 6.00 Build 0)  -->
<!DOCTYPE svg PUBLIC "-//W3C//DTD SVG 1.1//EN" "http://www.w3.org/Graphics/SVG/1.1/DTD/svg11.dtd">
<svg version="1.1" id="Calque_1" xmlns="http://www.w3.org/2000/svg" xmlns:xlink="http://www.w3.org/1999/xlink" x="0px" y="0px"
	 width="225px" height="217.055px" viewBox="0 0 225 217.055" enable-background="new 0 0 225 217.055" xml:space="preserve">
<rect x="-1408" y="-522" display="none" fill="#3C3C3B" width="2252" height="1043"/>
<g>
	<g>
		<path opacity="0.1" d="M130,214.648c0,1.301-1.062,2.352-2.363,2.352H1.995C0.694,217,0,215.95,0,214.648V51.314
			C0,50.013,0.694,49,1.995,49H130c0,2,0,1.013,0,2.314V214.648z"/>
		<path fill="#CBB19B" d="M133,211.648c0,1.301-1.062,2.352-2.363,2.352H4.995C3.694,214,3,212.95,3,211.648V48.314
			C3,47.013,3.694,46,4.995,46H133c0,2,0,1.013,0,2.314V211.648z"/>
		<path fill="#917D6E" d="M16,214c-2,0-1.851,0-3.152,0H4.995C3.694,214,3,212.95,3,211.648V48.314C3,47.013,3.694,46,4.995,46H16
			c0,2,0,1.013,0,2.314V214z"/>
	</g>
	<g>
		<path opacity="0.1" d="M172,214.276c0,1.507-1.199,2.724-2.706,2.724H23.729c-1.507,0-2.729-1.217-2.729-2.724V25.042
			C21,23.534,22.222,23,23.729,23H172c0,2,0,0.534,0,2.042V214.276z"/>
		<path fill="#CBB19B" d="M175,211.276c0,1.507-1.199,2.724-2.706,2.724H26.729c-1.507,0-2.729-1.217-2.729-2.724V22.042
			C24,20.534,25.222,20,26.729,20H175c0,2,0,0.534,0,2.042V211.276z"/>
		<path fill="#917D6E" d="M39,214c-2,0-1.666,0-3.173,0h-9.098c-1.507,0-2.729-1.217-2.729-2.724V22.042
			C24,20.534,25.222,20,26.729,20H39c0,2,0,0.534,0,2.042V214z"/>
	</g>
	<g>
		<g opacity="0.1">
			<path d="M210,163.683c5.235-0.972,9.25-5.392,9.658-10.683l0.041-31c-0.041-5.311-4.201-10.383-9.687-11.48
				c5.229-0.946,9.238-5.233,9.646-10.52l0.041-31c-0.041-6.201-4.207-10.725-9.7-11.679V163.683z"/>
			<path d="M207,217h-0.259c0.361,0.033,0.726,0.055,1.096,0.055c6.259,0,11.359-5.055,11.821-11.055l0.041-30
				c-0.041-6.201-4.207-10.854-9.7-11.837V214C210,215.657,208.657,217,207,217z"/>
			<path d="M60,3H47c-1.657,0-3,1.343-3,3v208c0,1.657,1.343,3,3,3h10h3V6C60,4.343,60,5.417,60,3z"/>
			<path d="M221.996,15C221.949,8.406,216.601,3.073,210,3.055c0-0.019,0-0.035,0-0.055H60c0,2.417,0,1.343,0,3v211h146.741H207
				c1.657,0,3-1.343,3-3v-49.837v-0.479V57.321v-0.203c6.322-0.017,11.486-4.912,11.954-11.118H222V15H221.996z"/>
		</g>
		<path fill="#917D6E" d="M222.7,66c-0.046-7-5.346-11.873-11.881-11.873c-6.564,0-11.885,5.285-11.885,11.849
			s5.396,11.867,11.96,11.867c0.011,0,0.107-0.02,0.107-0.02v5.864c0,0-0.096-0.002-0.107-0.002
			c-6.564,0-11.923,5.321-11.923,11.885c0,6.564,5.303,12.149,11.867,12.149c6.26,0,11.359-4.719,11.821-10.719"/>
		<path fill="#917D6E" d="M222.7,119c-0.046-6-5.346-11.706-11.881-11.706c-6.564,0-11.885,5.369-11.885,11.933
			c0,6.564,5.396,11.909,11.96,11.909c0.011,0,0.107,0.022,0.107,0.022v5.864c0,0-0.096-0.002-0.107-0.002
			c-6.564,0-11.923,5.321-11.923,11.885s5.303,11.982,11.867,11.982c6.26,0,11.359-4.887,11.821-10.887"/>
		<path fill="#917D6E" d="M222.7,173c-0.046-7-5.346-12.038-11.881-12.038c-6.564,0-11.885,5.202-11.885,11.767
			s5.396,11.826,11.96,11.826c0.011,0,0.107-0.061,0.107-0.061v5.864c0,0-0.096-0.002-0.107-0.002
			c-6.564,0-11.923,5.321-11.923,11.885c0,6.564,5.303,11.814,11.867,11.814c6.26,0,11.359-5.055,11.821-11.055"/>
		<path fill="#CBB19B" d="M213,211c0,1.657-1.343,3-3,3H50c-1.657,0-3-1.343-3-3V3c0-1.657,1.343-3,3-3h163c0,2.417,0,1.343,0,3V211
			z"/>
		<path fill="#917D6E" d="M63,214c-1.784,0-1.343,0-3,0H50c-1.657,0-3-1.343-3-3V3c0-1.657,1.343-3,3-3h13c0,2.417,0,1.343,0,3V214z
			"/>
		<path fill="#CBB19B" d="M224.996,12c-0.047-6.606-5.412-11.947-12.029-11.947c-6.646,0-12.033,5.388-12.033,12.033
			s5.388,12.033,12.033,12.033c0.011,0,0.022-0.002,0.033-0.002v5.937c-0.011,0-0.022-0.002-0.033-0.002
			c-6.646,0-12.033,5.388-12.033,12.033s5.388,12.033,12.033,12.033c6.337,0,11.519-4.902,11.987-11.12H225V12H224.996z"/>
	</g>
	<path fill="#FFFFFF" d="M184.503,79.037c0.082,26.344-21.207,47.767-47.553,47.848c-26.342,0.082-47.765-21.209-47.845-47.553
		c-0.082-26.346,21.209-47.766,47.552-47.848C163.001,31.402,184.421,52.693,184.503,79.037"/>
	<polygon fill="#6F6F6E" points="149.804,102.146 145.842,113.716 128.125,113.769 124.091,102.224 128.186,99.23 145.694,99.175 	
		"/>
	
		<rect x="128.175" y="90.265" transform="matrix(1 -0.0031 0.0031 1 -0.332 0.4217)" fill="#E3C3AA" width="18.266" height="36.329"/>
	<polygon fill="#36E2AE" points="158.042,119.442 137.458,124.923 117.974,120.648 128.886,105.7 137.146,107.196 145.712,105.648 	
		"/>
	<path fill="#FFFFFF" d="M136.93,84.183l-6.359,0.021c0.009,2.969,2.863,5.367,6.377,5.356c3.514-0.011,6.353-2.426,6.343-5.397
		L136.93,84.183z"/>
	<polygon fill="#B17F49" points="127.735,46.662 146.378,47.553 156.184,53.015 157.898,72.793 154.044,82.045 152.223,63.633 
		144.696,67.588 126.481,68.287 121.298,69.463 120.512,82.148 116.837,72.672 117.759,58.625 	"/>
	<g opacity="0.1" enable-background="new    ">
		<g>
			<defs>
				<rect id="SVGID_1_" x="144.382" y="46.804" width="14" height="36"/>
			</defs>
			<clipPath id="SVGID_2_">
				<use xlink:href="#SVGID_1_"  overflow="visible"/>
			</clipPath>
			<g clip-path="url(#SVGID_2_)">
				<defs>
					<rect id="SVGID_3_" x="144.697" y="47.552" width="13.202" height="34.492"/>
				</defs>
				<clipPath id="SVGID_4_">
					<use xlink:href="#SVGID_3_"  overflow="visible"/>
				</clipPath>
				<polygon clip-path="url(#SVGID_4_)" fill="#FFFFFF" points="146.378,47.553 156.185,53.015 157.899,72.793 154.044,82.045 
					152.224,63.633 144.696,67.588 				"/>
			</g>
		</g>
	</g>
	<polygon fill="#E3C3AA" points="152.223,63.633 154.043,82.045 150.092,89.521 140.341,95.27 133.993,95.287 125.284,90.145 
		120.512,82.149 121.297,69.463 126.481,68.287 144.696,67.588 	"/>
	<polygon fill="#D0B6A6" points="137.399,83.434 135.207,82.314 139.588,82.3 	"/>
	<polygon fill="#D8BCA7" points="128.124,91.823 133.993,95.287 140.342,95.269 146.39,91.766 146.407,97.836 135.271,102.735 
		128.145,98.463 	"/>
	<line fill="#56AEAB" x1="133.344" y1="122.993" x2="141.944" y2="122.967"/>
	<polygon fill="#B98557" points="133.993,95.287 140.531,95.268 150.093,89.52 153.286,83.569 142.018,85.17 137.284,84.005 
		132.541,85.158 121.279,83.668 125.284,90.144 	"/>
	<path fill="#FFFFFF" d="M137.346,89.067l-3.385-0.268c0.006,1.393,1.524,3.076,3.393,3.072c1.869-0.007,3.379-1.7,3.374-3.092
		L137.346,89.067z"/>
	<path fill="#3C3C3B" d="M136.95,126.885c14.516-0.045,27.486-6.577,36.205-16.833l-3.929-4.921l-19.614-2.425l-3.769,11.011
		l-8.633,7.867l-0.572-0.036l-8.512-7.778l-3.701-10.478l-19.736,2.038l-3.967,5.036
		C109.501,120.516,122.477,126.929,136.95,126.885"/>
	<g>
		<path fill="#FFFFFF" d="M103.24,148.781c-4.18,6.177-12.579,7.797-18.756,3.616c-6.178-4.181-7.798-12.579-3.618-18.757
			c4.181-6.179,12.579-7.798,18.757-3.616C105.803,134.201,107.422,142.601,103.24,148.781"/>
		<path fill="#36E2AE" d="M85.375,144.068c0.066-0.618,0.259-1.196,0.576-1.732c0.317-0.54,0.706-1.029,1.164-1.472
			c0.459-0.443,0.965-0.831,1.522-1.164c0.552-0.334,1.1-0.602,1.641-0.811c-0.066-0.247-0.122-0.469-0.169-0.667
			c-0.046-0.196-0.081-0.394-0.105-0.591c-0.027-0.195-0.038-0.396-0.035-0.601c0.003-0.206,0.015-0.441,0.044-0.703
			c0.038-0.357,0.142-0.704,0.313-1.044c0.167-0.344,0.407-0.641,0.714-0.892c0.305-0.253,0.676-0.446,1.107-0.58
			c0.434-0.133,0.94-0.17,1.517-0.106c0.46,0.049,0.826,0.149,1.095,0.306c0.27,0.156,0.475,0.334,0.612,0.534
			c0.138,0.201,0.22,0.416,0.249,0.646c0.03,0.23,0.032,0.44,0.011,0.639c-0.08,0.748-0.439,1.412-1.081,1.987
			c-0.638,0.577-1.482,1.081-2.524,1.514c0.09,0.398,0.202,0.805,0.339,1.224c0.133,0.421,0.281,0.839,0.45,1.257
			c0.17,0.418,0.352,0.833,0.545,1.245c0.197,0.413,0.397,0.796,0.599,1.153c0.188-0.142,0.387-0.324,0.607-0.546
			c0.215-0.222,0.429-0.46,0.643-0.71c0.213-0.249,0.421-0.508,0.622-0.78c0.201-0.271,0.388-0.529,0.562-0.777l0.982,0.683
			c-0.143,0.211-0.335,0.459-0.578,0.745c-0.243,0.286-0.499,0.579-0.773,0.875c-0.269,0.298-0.541,0.58-0.807,0.851
			c-0.269,0.27-0.505,0.493-0.711,0.671c0.364,0.573,0.678,1.01,0.947,1.32c0.267,0.307,0.554,0.584,0.858,0.828l-1.262,0.983
			c-0.283-0.204-0.578-0.491-0.883-0.855c-0.309-0.362-0.601-0.78-0.884-1.25c-0.303,0.208-0.622,0.402-0.961,0.585
			c-0.34,0.182-0.703,0.341-1.086,0.473c-0.388,0.13-0.801,0.226-1.239,0.287c-0.44,0.058-0.903,0.061-1.388,0.009
			c-0.553-0.059-1.039-0.189-1.465-0.395c-0.423-0.206-0.774-0.464-1.052-0.778c-0.28-0.318-0.48-0.676-0.603-1.073
			C85.362,144.959,85.326,144.528,85.375,144.068 M92.695,145.189c-0.235-0.408-0.458-0.853-0.665-1.325
			c-0.209-0.476-0.402-0.948-0.578-1.421c-0.173-0.469-0.328-0.922-0.463-1.355c-0.132-0.432-0.242-0.814-0.326-1.143
			c-0.503,0.253-0.973,0.528-1.405,0.828c-0.429,0.299-0.807,0.615-1.127,0.945c-0.324,0.333-0.582,0.68-0.78,1.044
			c-0.2,0.365-0.321,0.746-0.363,1.139c-0.076,0.71,0.084,1.264,0.482,1.667c0.394,0.402,0.985,0.644,1.776,0.729
			c0.314,0.034,0.635,0.024,0.96-0.028c0.325-0.051,0.638-0.131,0.941-0.239c0.305-0.105,0.588-0.231,0.849-0.377
			C92.258,145.509,92.489,145.354,92.695,145.189 M91.497,136.444c-0.02,0.199-0.035,0.376-0.037,0.535
			c-0.003,0.162,0.004,0.309,0.023,0.452c0.018,0.142,0.042,0.287,0.072,0.435c0.031,0.15,0.076,0.327,0.133,0.533
			c0.798-0.367,1.406-0.734,1.824-1.1c0.419-0.369,0.653-0.801,0.707-1.301c0.027-0.265-0.025-0.494-0.155-0.694
			c-0.133-0.199-0.383-0.321-0.75-0.359c-0.301-0.034-0.562-0.015-0.773,0.055c-0.215,0.071-0.395,0.182-0.544,0.333
			c-0.149,0.148-0.264,0.323-0.344,0.522C91.57,136.052,91.518,136.247,91.497,136.444"/>
	</g>
	<g>
		<circle fill="#FFFFFF" cx="155.19" cy="171.412" r="27.07"/>
		<path fill="#fc5454" d="M172.475,174.488c-0.365,0.378-0.858,0.69-1.483,0.941c-0.625,0.25-1.278,0.439-1.96,0.565
			c-0.826,0.154-1.632,0.171-2.421,0.053c-0.787-0.118-1.517-0.41-2.187-0.876c-0.67-0.465-1.255-1.121-1.759-1.97
			c-0.503-0.849-0.874-1.922-1.116-3.221c-0.25-1.35-0.273-2.516-0.07-3.496c0.204-0.982,0.554-1.804,1.046-2.473
			c0.494-0.668,1.083-1.19,1.773-1.57c0.69-0.378,1.401-0.636,2.136-0.773c0.786-0.145,1.461-0.217,2.025-0.214
			c0.564,0.006,1.036,0.046,1.417,0.123l-0.107,2.38c-0.33-0.088-0.706-0.126-1.132-0.116c-0.424,0.012-0.932,0.072-1.521,0.18
			c-1.089,0.204-1.891,0.753-2.41,1.651c-0.517,0.899-0.626,2.161-0.323,3.79c0.131,0.709,0.331,1.343,0.596,1.898
			s0.598,1.01,0.996,1.363c0.398,0.354,0.858,0.603,1.38,0.744c0.519,0.14,1.095,0.153,1.724,0.035
			c0.591-0.109,1.078-0.26,1.463-0.455c0.383-0.193,0.709-0.408,0.977-0.65L172.475,174.488z"/>
		<path fill="#fc5454" d="M158.939,166.661c0.063,0.34,0.083,0.689,0.062,1.047c-0.021,0.357-0.104,0.696-0.249,1.013
			c-0.143,0.318-0.354,0.614-0.628,0.889c-0.274,0.275-0.624,0.508-1.051,0.693l0.022,0.119c0.406-0.007,0.799,0.034,1.184,0.126
			c0.382,0.092,0.731,0.25,1.044,0.478c0.313,0.227,0.582,0.522,0.806,0.887c0.223,0.365,0.386,0.816,0.486,1.354
			c0.131,0.709,0.094,1.35-0.112,1.923c-0.206,0.575-0.53,1.072-0.973,1.493c-0.445,0.422-0.972,0.771-1.585,1.046
			c-0.613,0.277-1.262,0.48-1.943,0.607c-0.222,0.04-0.508,0.093-0.853,0.159c-0.347,0.065-0.724,0.124-1.127,0.179
			c-0.404,0.055-0.817,0.1-1.237,0.139c-0.419,0.037-0.807,0.047-1.162,0.032l-2.52-13.569c0.241-0.086,0.52-0.178,0.834-0.276
			c0.313-0.098,0.651-0.196,1.013-0.291c0.362-0.094,0.736-0.183,1.12-0.268c0.383-0.085,0.766-0.164,1.148-0.234
			c0.64-0.119,1.277-0.187,1.902-0.201c0.628-0.015,1.206,0.058,1.73,0.218c0.524,0.16,0.973,0.436,1.343,0.828
			C158.562,165.442,158.813,165.98,158.939,166.661 M153.617,170.314c0.183-0.035,0.395-0.081,0.635-0.138
			c0.241-0.057,0.437-0.115,0.589-0.171c0.468-0.248,0.855-0.56,1.159-0.938c0.301-0.38,0.406-0.821,0.312-1.327
			c-0.063-0.338-0.18-0.604-0.354-0.8c-0.172-0.196-0.376-0.339-0.617-0.428c-0.241-0.089-0.503-0.134-0.787-0.134
			c-0.286-0.001-0.579,0.026-0.881,0.081c-0.341,0.064-0.655,0.128-0.94,0.197c-0.286,0.064-0.506,0.124-0.657,0.181l0.676,3.638
			L153.617,170.314z M155.601,176.069c0.326-0.06,0.637-0.16,0.931-0.294c0.294-0.135,0.543-0.306,0.75-0.511
			c0.205-0.207,0.358-0.447,0.456-0.72c0.1-0.273,0.116-0.579,0.053-0.916c-0.079-0.428-0.227-0.75-0.443-0.964
			c-0.216-0.216-0.475-0.366-0.776-0.451c-0.301-0.085-0.626-0.116-0.974-0.091c-0.347,0.024-0.692,0.068-1.033,0.132l-1.437,0.266
			l0.7,3.757c0.069,0.014,0.178,0.013,0.325-0.001c0.146-0.014,0.301-0.032,0.467-0.057c0.166-0.023,0.337-0.048,0.516-0.075
			C155.315,176.118,155.47,176.093,155.601,176.069"/>
		<path fill="#fc5454" d="M145.96,176.843l-4.228,0.785l-0.475,3.241l-2.693,0.5l2.381-14.783l1.984-0.369l7.531,12.944
			l-2.833,0.525L145.96,176.843z M142.019,175.337l2.95-0.548l-1.592-2.877l-0.815-2.087l-0.099,0.018l-0.008,2.259L142.019,175.337
			z"/>
	</g>
	<g>
		<circle fill="#00C4D6" cx="176.185" cy="35.075" r="17.086"/>
		<g>
			<path fill="#FFFFFF" d="M168.766,33.932l-2.088-3.584l1.368,0.104l1.18,2.027l0.331,0.825l0.464-0.765l1.501-1.824l1.256,0.095
				l-2.613,3.171l2.225,3.819l-1.326-0.101l-1.319-2.234l-0.355-0.869l-0.496,0.805l-1.669,2.008l-1.243-0.094L168.766,33.932z"/>
			<path fill="#FFFFFF" d="M176.701,35.657l0.291,1.37l0.069,0.005l0.411-1.331l1.701-4.406l1.117,0.085l-2.541,6.112
				c-0.193,0.444-0.383,0.874-0.568,1.291c-0.186,0.416-0.386,0.785-0.597,1.106c-0.211,0.321-0.441,0.572-0.689,0.755
				s-0.525,0.262-0.832,0.239c-0.335-0.025-0.606-0.093-0.813-0.202l0.269-0.948c0.117,0.055,0.231,0.088,0.343,0.096
				c0.26,0.02,0.522-0.099,0.785-0.355c0.263-0.256,0.499-0.713,0.708-1.371l-2.277-7.193l1.284,0.097L176.701,35.657z"/>
			<path fill="#FFFFFF" d="M181.106,37.479l3.562-4.195l0.631-0.542l-3.811-0.289l0.074-0.977l4.97,0.377l-0.074,0.977l-3.58,4.236
				l-0.612,0.501l3.811,0.289l-0.074,0.977l-4.97-0.377L181.106,37.479z"/>
		</g>
	</g>
</g>
</svg>
