<?xml version="1.0" encoding="utf-8"?>
<!-- Generator: Adobe Illustrator 16.0.0, SVG Export Plug-In . SVG Version: 6.00 Build 0)  -->
<!DOCTYPE svg PUBLIC "-//W3C//DTD SVG 1.1//EN" "http://www.w3.org/Graphics/SVG/1.1/DTD/svg11.dtd">
<svg version="1.1" id="Capa_1" xmlns="http://www.w3.org/2000/svg" xmlns:xlink="http://www.w3.org/1999/xlink" x="0px" y="0px"
	 width="30px" height="30px" viewBox="0 0 30 30" enable-background="new 0 0 30 30" xml:space="preserve">
<g>
	<path fill="#232323" d="M3.851,0h22.3C28.267,0,30,1.567,30,3.85v22.3C30,28.432,28.268,30,26.15,30h-22.3
		C1.732,30,0,28.433,0,26.149V3.85C0,1.567,1.732,0,3.851,0L3.851,0z M21.854,3.333c-0.742,0-1.351,0.607-1.351,1.351v3.232
		c0,0.743,0.606,1.351,1.351,1.351h3.391c0.744,0,1.352-0.607,1.352-1.351V4.684c0-0.743-0.607-1.351-1.352-1.351H21.854
		L21.854,3.333z M26.609,12.687h-2.641c0.25,0.815,0.385,1.68,0.385,2.574c0,4.99-4.176,9.035-9.324,9.035
		c-5.15,0-9.326-4.045-9.326-9.035c0-0.895,0.136-1.758,0.386-2.574H3.334v12.672c0,0.656,0.535,1.192,1.191,1.192h20.891
		c0.656,0,1.193-0.536,1.193-1.192V12.687L26.609,12.687z M15.027,9.097c-3.328,0-6.024,2.613-6.024,5.837
		c0,3.226,2.696,5.839,6.024,5.839s6.026-2.613,6.026-5.839C21.054,11.71,18.355,9.097,15.027,9.097z"/>
</g>
</svg>
