<?xml version="1.0" encoding="utf-8"?>
<!-- Generator: Adobe Illustrator 17.0.2, SVG Export Plug-In . SVG Version: 6.00 Build 0)  -->
<!DOCTYPE svg PUBLIC "-//W3C//DTD SVG 1.1//EN" "http://www.w3.org/Graphics/SVG/1.1/DTD/svg11.dtd">
<svg version="1.1" id="Calque_1" xmlns="http://www.w3.org/2000/svg" xmlns:xlink="http://www.w3.org/1999/xlink" x="0px" y="0px"
	 width="266px" height="197px" viewBox="0 0 266 197" enable-background="new 0 0 266 197" xml:space="preserve">
<rect x="-1061" y="-259" display="none" fill="#3C3C3B" width="2252" height="1043"/>
<g>
	<path id="XMLID_9_" opacity="0.1" d="M156,194c0,1.657-1.343,3-3,3H6c-1.657,0-3-1.343-3-3V6c0-1.657,1.343-3,3-3h147
		c2.714,0,3,1.247,3,3V194z"/>
	<path id="XMLID_4_" fill="#FFFFFF" d="M153,191c0,1.657-1.343,3-3,3H3c-1.657,0-3-1.343-3-3V3c0-1.657,1.343-3,3-3h147
		c2.714,0,3,1.247,3,3V191z"/>
	<path fill="#E6E6E6" d="M0,17V2.5C0,0.843,1.843,0,3.5,0h147c1.657,0,2.5,0.843,2.5,2.5V17"/>
	<circle fill="#FFFFFF" cx="7.833" cy="8.5" r="2.833"/>
	<circle fill="#FFFFFF" cx="16.833" cy="8.5" r="2.833"/>
	<circle fill="#FFFFFF" cx="25.833" cy="8.5" r="2.833"/>
	<path id="XMLID_8_" opacity="0.1" d="M266,124c0,1.657-1.343,3-3,3h-98c-1.657,0-3-1.343-3-3V6c0-1.657,1.343-3,3-3h98
		c2.627,0,3,1.343,3,3V124z"/>
	<path id="XMLID_5_" fill="#FFFFFF" d="M263,121c0,1.657-1.343,3-3,3h-98c-1.657,0-3-1.343-3-3V3c0-1.657,1.343-3,3-3h98
		c2.627,0,3,1.343,3,3V121z"/>
	<path fill="#E6E6E6" d="M159,17V2.5c0-1.657,1.843-2.5,3.5-2.5h98c1.657,0,2.5,0.843,2.5,2.5V17"/>
	<circle fill="#FFFFFF" cx="166.833" cy="8.5" r="2.833"/>
	<circle fill="#FFFFFF" cx="175.833" cy="8.5" r="2.833"/>
	<circle fill="#FFFFFF" cx="184.833" cy="8.5" r="2.833"/>
	<path id="XMLID_7_" opacity="0.1" d="M266,194c0,1.657-1.343,3-3,3h-98c-1.657,0-3-1.343-3-3v-58c0-1.657,1.343-3,3-3h98
		c2.656,0,3,1.168,3,3V194z"/>
	<path id="XMLID_6_" fill="#ED544C" d="M263,191c0,1.657-1.343,3-3,3h-98c-1.657,0-3-1.343-3-3v-58c0-1.657,1.343-3,3-3h98
		c2.656,0,3,1.168,3,3V191z"/>
	<path fill="#FA7063" d="M159,147v-14.5c0-1.657,1.843-2.5,3.5-2.5h98c1.657,0,2.5,0.843,2.5,2.5V147"/>
	<circle fill="#FFFFFF" cx="166.833" cy="138.5" r="2.833"/>
	<circle fill="#FFFFFF" cx="175.833" cy="138.5" r="2.833"/>
	<circle fill="#FFFFFF" cx="184.833" cy="138.5" r="2.833"/>
	<rect x="23" y="52" fill="#3C3C3B" width="102" height="6"/>
	<rect x="23" y="64" fill="#3C3C3B" width="108" height="6"/>
	<rect x="23" y="76" fill="#3C3C3B" width="84" height="6"/>
	<rect x="23" y="88" fill="#3C3C3B" width="96" height="6"/>
	<rect x="23" y="100" fill="#3C3C3B" width="78" height="6"/>
	<rect x="23" y="112" fill="#3C3C3B" width="90" height="6"/>
	<rect x="23" y="124" fill="#3C3C3B" width="102" height="6"/>
	<rect x="23" y="136" fill="#3C3C3B" width="84" height="6"/>
	<rect x="23" y="148" fill="#3C3C3B" width="64" height="6"/>
	<rect x="159" y="43.5" fill="none" width="99" height="76.5"/>
	<text transform="matrix(1 0 0 1 184.3003 99.5)" fill="#3C3C3B" font-family="'PTSans-Bold'" font-size="80" letter-spacing="4">A</text>
	<rect x="159" y="166" fill="none" width="104" height="22.5"/>
	<text transform="matrix(1 0 0 1 172.5464 175.1001)" fill="#FFFFFF" font-family="'PTSans-Bold'" font-size="13">Word preview</text>
</g>
</svg>
