<?xml version="1.0" encoding="utf-8"?>
<!-- Generator: Adobe Illustrator 17.0.2, SVG Export Plug-In . SVG Version: 6.00 Build 0)  -->
<!DOCTYPE svg PUBLIC "-//W3C//DTD SVG 1.1//EN" "http://www.w3.org/Graphics/SVG/1.1/DTD/svg11.dtd">
<svg version="1.1" id="Calque_1" xmlns="http://www.w3.org/2000/svg" xmlns:xlink="http://www.w3.org/1999/xlink" x="0px" y="0px"
	 width="80px" height="80px" viewBox="0 0 80 80" enable-background="new 0 0 80 80" xml:space="preserve">
<rect fill="#232323" width="80" height="80"/>
<path opacity="0.1" fill="#DDDDDD" d="M49.302,22.653c1.606,1.089,3.012,2.733,4.22,4.927c1.095,1.986,1.651,3.783,1.669,5.395
	c0.019,1.61-0.339,3.052-1.07,4.322c-0.737,1.273-1.772,2.356-3.109,3.261c-1.335,0.899-2.835,1.622-4.498,2.168
	c-0.161,0.052-0.419,0.137-0.769,0.252c-0.354,0.117-0.725,0.229-1.119,0.339c-0.386,0.112-0.781,0.213-1.163,0.305
	c-0.384,0.088-0.665,0.145-0.839,0.171l5.992,10.872l-6.573,2.158L24.809,25.551c1.21-0.681,2.585-1.353,4.129-2.023
	c1.54-0.664,3.109-1.26,4.708-1.785c1.663-0.546,3.405-0.966,5.225-1.261c1.822-0.296,3.615-0.28,5.382,0.046
	C46.016,20.856,47.702,21.562,49.302,22.653z M47.53,32.799c0.004-0.854-0.32-1.866-0.966-3.04
	c-0.547-0.991-1.193-1.747-1.931-2.273c-0.739-0.52-1.532-0.874-2.369-1.059c-0.841-0.184-1.703-0.222-2.585-0.111
	c-0.88,0.112-1.738,0.306-2.569,0.581c-0.64,0.209-1.233,0.429-1.788,0.663c-0.551,0.234-0.988,0.44-1.304,0.615l5.643,10.243
	c0.147-0.009,0.354-0.044,0.626-0.095c0.274-0.056,0.56-0.121,0.852-0.203c0.298-0.079,0.583-0.163,0.856-0.252
	c0.267-0.088,0.469-0.155,0.598-0.198c0.866-0.283,1.677-0.642,2.441-1.069c0.763-0.428,1.371-0.954,1.822-1.581
	C47.302,34.395,47.526,33.654,47.53,32.799"/>
</svg>
