<?xml version="1.0" encoding="utf-8"?>
<!-- Generator: Adobe Illustrator 17.0.2, SVG Export Plug-In . SVG Version: 6.00 Build 0)  -->
<!DOCTYPE svg PUBLIC "-//W3C//DTD SVG 1.1//EN" "http://www.w3.org/Graphics/SVG/1.1/DTD/svg11.dtd">
<svg version="1.1" id="Capa_1" xmlns="http://www.w3.org/2000/svg" xmlns:xlink="http://www.w3.org/1999/xlink" x="0px" y="0px"
	 width="60.734px" height="60.733px" viewBox="0 0 60.734 60.733" enable-background="new 0 0 60.734 60.733" xml:space="preserve">
<g>
	<circle fill="#232323" cx="30.367" cy="30" r="29.337"/>
</g>
<g>
	<g>
		<path fill="#FFFFFF" d="M32.954,42.879c0-0.448-0.083-0.873-0.248-1.274c-0.165-0.401-0.401-0.749-0.708-1.044
			c-0.307-0.295-0.66-0.531-1.061-0.707c-0.401-0.177-0.825-0.266-1.274-0.266s-0.873,0.088-1.274,0.266
			c-0.401,0.177-0.749,0.413-1.044,0.707c-0.295,0.295-0.525,0.643-0.69,1.044c-0.165,0.401-0.248,0.825-0.248,1.274
			c0,0.448,0.083,0.873,0.248,1.274c0.165,0.401,0.395,0.749,0.69,1.044c0.295,0.295,0.643,0.531,1.044,0.708
			c0.401,0.177,0.826,0.265,1.274,0.265s0.873-0.088,1.274-0.265c0.401-0.177,0.755-0.413,1.061-0.708
			c0.307-0.295,0.543-0.643,0.708-1.044C32.872,43.752,32.954,43.327,32.954,42.879z M29.912,38.138h-0.283
			c-0.755-0.094-1.374-0.436-1.857-1.026c-0.484-0.59-0.69-1.262-0.619-2.017c0.142-1.297,0.466-2.553,0.973-3.768
			c0.507-1.215,1.162-2.294,1.964-3.237c0.259-0.33,0.542-0.631,0.849-0.902c0.307-0.271,0.613-0.537,0.92-0.796
			c0.778-0.66,1.374-1.25,1.787-1.769c0.413-0.519,0.619-1.156,0.619-1.911c0-0.66-0.136-1.203-0.407-1.628
			c-0.271-0.425-0.601-0.761-0.991-1.008s-0.796-0.425-1.221-0.531c-0.425-0.106-0.802-0.159-1.132-0.159h-0.071
			c-0.66,0-1.203,0.088-1.628,0.265c-0.425,0.177-0.784,0.425-1.079,0.743c-0.295,0.318-0.543,0.702-0.743,1.15
			c-0.2,0.448-0.407,0.932-0.619,1.451c-0.283,0.731-0.625,1.244-1.026,1.539c-0.401,0.295-0.802,0.466-1.203,0.513
			c-0.448,0.094-0.908,0.059-1.38-0.106c-0.472-0.189-0.849-0.46-1.132-0.814c-0.259-0.307-0.46-0.702-0.601-1.185
			c-0.142-0.484-0.094-1.079,0.142-1.787c0.142-0.448,0.389-1.091,0.743-1.928c0.354-0.837,0.89-1.657,1.61-2.459
			c0.719-0.802,1.645-1.498,2.777-2.087c1.132-0.59,2.547-0.873,4.246-0.849c1.132,0.024,2.247,0.23,3.343,0.619
			c1.097,0.389,2.082,0.961,2.954,1.716c0.873,0.755,1.58,1.681,2.123,2.777c0.543,1.097,0.814,2.353,0.814,3.768
			c0,1.038-0.141,1.958-0.425,2.76c-0.283,0.802-0.643,1.521-1.079,2.158c-0.436,0.637-0.908,1.191-1.415,1.663
			c-0.507,0.472-0.973,0.896-1.398,1.274c-0.236,0.212-0.46,0.407-0.672,0.584c-0.212,0.177-0.377,0.348-0.495,0.513
			c-0.425,0.519-0.784,1.126-1.079,1.822c-0.295,0.696-0.478,1.421-0.548,2.176c-0.071,0.731-0.371,1.327-0.902,1.787
			C31.238,37.908,30.619,38.138,29.912,38.138z"/>
	</g>
</g>
</svg>
