<?xml version="1.0" encoding="utf-8"?>
<!-- Generator: Adobe Illustrator 17.0.2, SVG Export Plug-In . SVG Version: 6.00 Build 0)  -->
<!DOCTYPE svg PUBLIC "-//W3C//DTD SVG 1.1//EN" "http://www.w3.org/Graphics/SVG/1.1/DTD/svg11.dtd">
<svg version="1.1" id="Calque_1" xmlns="http://www.w3.org/2000/svg" xmlns:xlink="http://www.w3.org/1999/xlink" x="0px" y="0px"
	 width="266px" height="197px" viewBox="0 0 266 197" enable-background="new 0 0 266 197" xml:space="preserve">
<rect x="-1700" y="-258" display="none" fill="#3C3C3B" width="2252" height="1043"/>
<g>
	<path id="XMLID_10_" opacity="0.1" d="M266,194c0,1.657-1.343,3-3,3H6c-1.657,0-3-1.343-3-3V6c0-1.657,1.343-3,3-3h257
		c2.264,0,3,0.801,3,3V194z"/>
	<path id="XMLID_3_" fill="#FA7063" d="M263,191c0,1.657-1.343,3-3,3H3c-1.657,0-3-1.343-3-3V3c0-1.657,1.343-3,3-3h257
		c2.264,0,3,0.801,3,3V191z"/>
	<rect x="5" y="22" fill="#ED544C" width="80" height="80"/>
	<rect x="91" y="108" fill="#ED544C" width="80" height="80"/>
	<path fill="#E6E6E6" d="M0,17V2.5C0,0.843,1.843,0,3.5,0h257c1.657,0,2.5,0.843,2.5,2.5V17"/>
	<rect x="91" y="65" fill="#ED544C" width="37" height="37"/>
	<rect x="91" y="22" fill="#ED544C" width="37" height="37"/>
	<rect x="134" y="65" fill="#ED544C" width="37" height="37"/>
	<rect x="177" y="151" fill="#ED544C" width="37" height="37"/>
	<rect x="220" y="151" fill="#ED544C" width="37" height="37"/>
	<rect x="177" y="65" fill="#ED544C" width="80" height="37"/>
	<rect x="177" y="108" fill="#ED544C" width="80" height="37"/>
	<rect x="134" y="22" fill="#ED544C" width="37" height="37"/>
	<rect x="177" y="22" fill="#ED544C" width="37" height="37"/>
	<rect x="220" y="22" fill="#ED544C" width="37" height="37"/>
	<rect x="5" y="151" fill="#ED544C" width="37" height="37"/>
	<rect x="5" y="108" fill="#ED544C" width="37" height="37"/>
	<rect x="48" y="151" fill="#ED544C" width="37" height="37"/>
	<rect x="48" y="108" fill="#ED544C" width="37" height="37"/>
	<circle fill="#FFFFFF" cx="7.833" cy="8.5" r="2.833"/>
	<circle fill="#FFFFFF" cx="16.833" cy="8.5" r="2.833"/>
	<circle fill="#FFFFFF" cx="25.833" cy="8.5" r="2.833"/>
</g>
</svg>
