<?xml version="1.0" encoding="utf-8"?>
<!-- Generator: Adobe Illustrator 17.0.2, SVG Export Plug-In . SVG Version: 6.00 Build 0)  -->
<!DOCTYPE svg PUBLIC "-//W3C//DTD SVG 1.1//EN" "http://www.w3.org/Graphics/SVG/1.1/DTD/svg11.dtd">
<svg version="1.1" id="Capa_1" xmlns="http://www.w3.org/2000/svg" xmlns:xlink="http://www.w3.org/1999/xlink" x="0px" y="0px"
	 width="60.734px" height="60.733px" viewBox="0 0 60.734 60.733" enable-background="new 0 0 60.734 60.733" xml:space="preserve">
<g>
	<g>
		<path fill="#232323" d="M23.102,46.299l-2.748,2.729c-2.382,2.361-6.256,2.363-8.636,0c-1.144-1.136-1.773-2.644-1.773-4.247
			c0-1.603,0.629-3.112,1.772-4.248l10.114-10.035c2.096-2.079,6.039-5.139,8.913-2.289c1.319,1.31,3.449,1.301,4.758-0.017
			c1.31-1.318,1.302-3.449-0.017-4.758c-4.885-4.848-12.106-3.952-18.394,2.288L6.977,35.757c-2.427,2.409-3.763,5.613-3.763,9.023
			s1.336,6.614,3.763,9.023c2.497,2.478,5.777,3.716,9.057,3.716c3.281,0,6.562-1.238,9.061-3.717l2.75-2.729
			c1.318-1.309,1.326-3.439,0.016-4.758C26.553,44.997,24.421,44.989,23.102,46.299z M53.755,7.317
			C48.507,2.11,41.171,1.828,36.313,6.648l-3.425,3.4c-1.319,1.309-1.327,3.439-0.017,4.758c1.31,1.319,3.44,1.326,4.759,0.017
			l3.424-3.398c2.516-2.499,5.811-1.463,7.96,0.669c1.146,1.136,1.775,2.645,1.775,4.248c0,1.604-0.63,3.113-1.774,4.249
			L38.225,31.295c-4.934,4.896-7.249,2.598-8.237,1.618c-1.319-1.309-3.448-1.301-4.758,0.017c-1.31,1.318-1.302,3.449,0.017,4.758
			c2.265,2.248,4.851,3.363,7.561,3.363c3.319,0,6.824-1.671,10.157-4.98l10.791-10.705c2.426-2.409,3.763-5.614,3.763-9.024
			C57.519,12.932,56.182,9.727,53.755,7.317z"/>
	</g>
</g>
</svg>
