<?xml version="1.0" encoding="utf-8"?>
<!-- Generator: Adobe Illustrator 16.0.0, SVG Export Plug-In . SVG Version: 6.00 Build 0)  -->
<!DOCTYPE svg PUBLIC "-//W3C//DTD SVG 1.1//EN" "http://www.w3.org/Graphics/SVG/1.1/DTD/svg11.dtd">
<svg version="1.1" id="Calque_1" xmlns="http://www.w3.org/2000/svg" xmlns:xlink="http://www.w3.org/1999/xlink" x="0px" y="0px"
	 width="354.826px" height="372.697px" viewBox="0 0 354.826 372.697" enable-background="new 0 0 354.826 372.697"
	 xml:space="preserve">
<g>
	<g>
		<path d="M297.388,233.682v-47.141c0.094-2.727,0.103-5.441,0-8.158v-46.29c2.029-0.46,3.553-2.275,3.553-4.442
			c0-2.519-2.052-4.563-4.569-4.563c-2.522,0-4.574,2.045-4.574,4.563c0,2.167,1.523,3.981,3.556,4.452v28.97
			c-2.115-10.769-5.821-21.257-11.079-31.181h0.339v-6.59h-4.091c-16.744-27.135-44.192-45.806-75.051-51.826h29.259
			c0.46,2.026,2.274,3.549,4.444,3.549c2.516,0,4.566-2.045,4.566-4.567c0-2.521-2.051-4.566-4.566-4.566
			c-2.166,0-3.984,1.517-4.444,3.542h-47.094c-0.156,0-0.316,0-0.471-0.003v-2.33h-6.599v2.32c-0.168,0.013-0.341,0.01-0.514,0.013
			h-46.914c-0.467-2.026-2.277-3.542-4.443-3.542c-2.521,0-4.572,2.045-4.572,4.566c0,2.522,2.051,4.567,4.572,4.567
			c2.167,0,3.976-1.523,4.443-3.549h29.097c-12.283,2.4-24.169,6.83-35.109,13.157c-16.875,9.751-30.296,23.215-39.833,38.771
			h-4.116v6.59h0.396c-5.23,9.972-8.95,20.648-11.057,31.661v-29.562c2.03-0.46,3.551-2.275,3.551-4.442
			c0-2.519-2.05-4.563-4.565-4.563c-2.524,0-4.573,2.045-4.573,4.563c0,2.167,1.52,3.981,3.551,4.452v48.424v0.493v52.662
			c-2.031,0.467-3.551,2.275-3.551,4.442c0,2.524,2.049,4.573,4.573,4.573c2.515,0,4.565-2.049,4.565-4.573
			c0-2.167-1.521-3.976-3.551-4.442v-29.238c2.066,10.743,5.73,21.33,11.078,31.449h-0.341v6.591h4.088
			c16.74,27.122,44.181,45.796,75.024,51.822h-29.229c-0.467-2.029-2.277-3.553-4.443-3.553c-2.521,0-4.572,2.051-4.572,4.566
			c0,2.525,2.051,4.574,4.572,4.574c2.167,0,3.976-1.521,4.443-3.556h46.99c0.189,0.013,0.38,0.013,0.571,0.016v2.323h6.593v-2.323
			c0.205-0.003,0.413-0.003,0.618-0.016h46.818c0.46,2.035,2.274,3.556,4.444,3.556c2.516,0,4.566-2.049,4.566-4.574
			c0-2.516-2.051-4.566-4.566-4.566c-2.166,0-3.984,1.523-4.444,3.553h-29.072c12.272-2.404,24.152-6.833,35.082-13.154
			c16.581-9.581,30.166-22.891,39.908-38.771h4.039v-6.596h-0.321c3.89-7.412,7.006-15.288,9.221-23.576
			c0.691-2.593,1.254-5.194,1.767-7.8v29.273c-2.032,0.467-3.556,2.275-3.556,4.442c0,2.524,2.052,4.573,4.574,4.573
			c2.518,0,4.569-2.049,4.569-4.573C300.94,235.957,299.417,234.148,297.388,233.682z M293.836,127.651
			c0-1.396,1.133-2.531,2.535-2.531c1.391,0,2.531,1.136,2.531,2.531c0,1.398-1.141,2.528-2.531,2.528
			C294.969,130.18,293.836,129.05,293.836,127.651z M239.174,67.927c1.393,0,2.528,1.133,2.528,2.531
			c0,1.396-1.136,2.535-2.528,2.535c-1.396,0-2.531-1.14-2.531-2.535C236.643,69.06,237.778,67.927,239.174,67.927z M128.696,72.993
			c-1.397,0-2.537-1.14-2.537-2.535c0-1.398,1.14-2.531,2.537-2.531c1.392,0,2.529,1.133,2.529,2.531
			C131.225,71.854,130.087,72.993,128.696,72.993z M68.965,127.651c0-1.396,1.139-2.531,2.539-2.531
			c1.392,0,2.527,1.136,2.527,2.531c0,1.398-1.135,2.528-2.527,2.528C70.104,130.18,68.965,129.05,68.965,127.651z M74.031,238.124
			c0,1.395-1.135,2.537-2.527,2.537c-1.4,0-2.539-1.143-2.539-2.537c0-1.396,1.139-2.529,2.539-2.529
			C72.896,235.595,74.031,236.729,74.031,238.124z M128.696,297.854c-1.397,0-2.537-1.14-2.537-2.535
			c0-1.395,1.14-2.528,2.537-2.528c1.392,0,2.529,1.134,2.529,2.528C131.225,296.715,130.087,297.854,128.696,297.854z
			 M239.174,292.791c1.393,0,2.528,1.134,2.528,2.528c0,1.396-1.136,2.535-2.528,2.535c-1.396,0-2.531-1.14-2.531-2.535
			C236.643,293.925,237.778,292.791,239.174,292.791z M187.293,292.299v-0.208H180.7v0.221l-90.335-52.085h187.011L187.293,292.299z
			 M89.775,125.968l90.792-52.492v0.217h0.195L87.555,235.352l-0.061-105.357h2.281V125.968z M280.312,129.892l0.054,105.569
			L186.906,73.694h0.259v-0.221l90.852,52.386v4.032H280.312z M158.71,178.104l24.689-54.002l23.557,54.002H158.71z
			 M216.728,200.629l16.229,37.555H131.508l17.228-37.555H216.728z M178.777,81.214l-73.081,156.969H89.85v-2.291h-0.256
			L178.777,81.214z M278.09,235.784v2.399h-18.923l-71.33-158.809l90.368,156.41H278.09z M282.573,125.337v1.437v1.079h-0.229
			h-1.504h-0.539h-0.246v-0.819v-0.56v-1.137h1.14h0.554H282.573z M278.119,123.302h-0.103v0.205l-90.225-52.018
			C224.52,72.801,258.488,92.297,278.119,123.302z M182.604,69.14h0.784h0.887h0.854v0.252v0.042v0.512v0.669v0.816
			c-0.288-0.003-0.583-0.016-0.867-0.016c-0.145,0-0.291-0.006-0.433-0.006c-0.165,0-0.326,0.006-0.492,0.006
			c-0.243,0.007-0.486,0.013-0.733,0.016v-0.938v-0.547v-0.512v-0.042V69.14z M128.143,86.393
			c15.834-9.153,33.668-14.267,51.81-14.913l-90.178,52.136v-0.211h-0.061C99.039,108.587,111.966,95.744,128.143,86.393z
			 M85.217,125.446h0.887h0.509h1.128v1.245v0.455v0.816h-0.247h-0.493h-1.544h-0.24v-0.983V125.446z M72.519,181.404v-0.845
			c0.394-17.356,4.85-34.423,12.938-49.769l0.062,104.372C76.438,218.087,72.25,199.617,72.519,181.404z M85.292,240.443v-0.217
			v-0.951v-0.266v-1.078h0.227h0.547h0.958h0.534h0.251v0.819v0.56v0.916v0.217h-1.143h-0.553H85.292z M89.746,242.483h0.104v-0.205
			l90.216,52.018C143.343,292.979,109.376,273.481,89.746,242.483z M185.261,296.645h-2.524v-0.259v-0.048v-0.5v-1.484v-0.048
			v-0.176h1.119h0.282h1.123v0.176v0.048v1.479v0.506v0.054V296.645z M239.725,279.393c-15.835,9.152-33.674,14.267-51.819,14.913
			l90.185-52.141v0.215h0.153C268.732,257.502,255.627,270.197,239.725,279.393z M282.65,239.407v0.819v0.111h-0.813h-0.591h-1.118
			v-0.111v-0.995v-0.603v-0.807h0.244h0.586h0.776h0.67h0.246v1.14V239.407z M291.614,211.676
			c-2.204,8.254-5.319,16.095-9.21,23.462l-0.061-104.536c7.978,14.984,12.369,31.277,13.009,47.854v8.023
			C295.068,194.896,293.849,203.343,291.614,211.676z M296.371,240.661c-1.402,0-2.535-1.143-2.535-2.537
			c0-1.396,1.133-2.529,2.535-2.529c1.391,0,2.531,1.134,2.531,2.529C298.902,239.519,297.762,240.661,296.371,240.661z"/>
	</g>
	<g>
		<path d="M216.323,11.665l2.237,0.486l0.041,1.492l0.097,0.022c0.541-0.509,1.117-0.841,1.734-1.001
			c0.625-0.163,1.335-0.157,2.132,0.026c1.478,0.313,2.483,1.024,3.018,2.128c0.535,1.094,0.573,2.675,0.122,4.756
			c-0.221,1.002-0.537,1.881-0.951,2.64c-0.409,0.759-0.915,1.367-1.501,1.828c-0.585,0.467-1.244,0.777-1.98,0.928
			c-0.733,0.15-1.529,0.131-2.394-0.051c-0.49-0.109-0.877-0.231-1.179-0.375c-0.3-0.141-0.589-0.32-0.867-0.551l-1.059,4.836
			l-3.063-0.669L216.323,11.665z M221.079,15.073c-0.595-0.131-1.094-0.083-1.497,0.141c-0.404,0.23-0.765,0.615-1.085,1.171
			l-1.072,4.9c0.183,0.224,0.394,0.416,0.627,0.573c0.237,0.157,0.569,0.281,0.992,0.375c0.88,0.195,1.606,0.028,2.183-0.493
			c0.576-0.525,1.021-1.501,1.335-2.935c0.223-1.034,0.227-1.875,0.003-2.516C222.347,15.649,221.851,15.243,221.079,15.073z"/>
		<path d="M237.189,20.079c-0.425-0.313-0.832-0.531-1.216-0.646c-0.538-0.16-1.03-0.157-1.481,0.019
			c-0.448,0.172-0.798,0.47-1.06,0.88l-2.254,7.453l-2.998-0.905l3.488-11.543l2.33,0.701l-0.112,1.632l0.093,0.025
			c0.432-0.49,0.919-0.819,1.46-0.995c0.537-0.173,1.106-0.169,1.708,0.013c0.4,0.119,0.832,0.346,1.284,0.669L237.189,20.079z"/>
		<path d="M239.692,24.127c0.743-1.905,1.78-3.181,3.104-3.844c1.331-0.672,2.839-0.675,4.516-0.022
			c0.896,0.35,1.619,0.804,2.17,1.345c0.544,0.544,0.938,1.155,1.172,1.843c0.233,0.686,0.312,1.434,0.242,2.253
			c-0.066,0.819-0.275,1.671-0.618,2.554c-0.745,1.901-1.775,3.188-3.098,3.86c-1.318,0.666-2.819,0.672-4.496,0.016
			c-0.899-0.349-1.622-0.8-2.17-1.341c-0.55-0.541-0.943-1.155-1.184-1.843c-0.241-0.692-0.327-1.444-0.259-2.263
			C239.142,25.868,239.351,25.014,239.692,24.127z M242.703,25.302c-0.191,0.496-0.322,0.976-0.399,1.424
			c-0.069,0.458-0.08,0.874-0.022,1.261c0.058,0.384,0.199,0.72,0.42,1.002c0.227,0.288,0.541,0.515,0.947,0.668
			c0.762,0.301,1.439,0.243,2.035-0.167c0.589-0.406,1.116-1.213,1.584-2.407c0.4-1.037,0.557-1.939,0.461-2.71
			c-0.099-0.768-0.557-1.319-1.383-1.635c-0.72-0.285-1.386-0.23-2,0.147C243.731,23.273,243.185,24.073,242.703,25.302z"/>
		<path d="M255.822,24.169l1.498,0.723l0.988-2.045l3.21,0.557l-1.373,2.848l2.653,1.277l-1.155,2.394l-2.65-1.283l-2.01,4.173
			c-0.368,0.749-0.55,1.328-0.553,1.725c-0.007,0.403,0.201,0.704,0.62,0.902c0.291,0.144,0.554,0.237,0.79,0.275
			c0.237,0.044,0.516,0.073,0.832,0.08l-0.547,2.413c-0.482,0-1.015-0.061-1.6-0.179c-0.586-0.122-1.144-0.313-1.681-0.573
			c-0.999-0.48-1.609-1.091-1.834-1.827c-0.22-0.746-0.047-1.706,0.519-2.877l2.64-5.472l-1.5-0.724L255.822,24.169z"/>
		<path d="M263.343,34.557c1.031-1.77,2.246-2.877,3.667-3.332c1.412-0.448,2.9-0.228,4.456,0.685
			c0.838,0.48,1.478,1.034,1.938,1.651c0.458,0.621,0.753,1.29,0.877,1.997c0.122,0.72,0.087,1.479-0.105,2.272
			c-0.194,0.8-0.531,1.606-1.008,2.432c-1.027,1.76-2.241,2.877-3.651,3.325c-1.409,0.458-2.89,0.237-4.445-0.666
			c-0.839-0.489-1.479-1.043-1.939-1.661c-0.458-0.621-0.756-1.287-0.887-2.006c-0.132-0.714-0.096-1.473,0.097-2.276
			C262.532,36.183,262.869,35.376,263.343,34.557z M266.14,36.173c-0.266,0.467-0.47,0.912-0.614,1.351
			c-0.142,0.438-0.212,0.848-0.217,1.238c-0.004,0.394,0.086,0.743,0.262,1.059c0.18,0.32,0.457,0.586,0.829,0.8
			c0.71,0.416,1.389,0.464,2.035,0.15s1.296-1.024,1.937-2.135c0.563-0.963,0.851-1.83,0.877-2.608
			c0.021-0.774-0.35-1.383-1.117-1.828c-0.666-0.391-1.331-0.438-1.998-0.157C267.468,34.33,266.803,35.04,266.14,36.173z"/>
		<path d="M279.304,37.085l1.369,0.944l1.286-1.869l3.089,1.05l-1.793,2.599l2.423,1.671l-1.504,2.183l-2.426-1.667l-2.631,3.818
			c-0.471,0.685-0.746,1.226-0.81,1.616c-0.067,0.397,0.093,0.72,0.477,0.986c0.266,0.188,0.512,0.313,0.74,0.397
			c0.229,0.08,0.499,0.144,0.809,0.205l-0.915,2.301c-0.471-0.073-0.989-0.217-1.545-0.422c-0.561-0.208-1.089-0.487-1.575-0.823
			c-0.915-0.627-1.424-1.324-1.533-2.096c-0.103-0.765,0.214-1.684,0.95-2.755l3.45-5.006l-1.369-0.947L279.304,37.085z"/>
		<path d="M288.161,51.913l-0.835,1.747l0.118,0.086l1.431-1.29l5.642-4.141l2.528,2.01l-9.646,6.221
			c-0.803,0.519-1.545,0.979-2.228,1.389c-0.685,0.41-1.334,0.723-1.939,0.938c-0.604,0.218-1.161,0.314-1.667,0.292
			c-0.505-0.026-0.979-0.211-1.421-0.56c-0.652-0.525-1.085-1.043-1.307-1.572l2.015-1.6c0.131,0.227,0.287,0.416,0.476,0.563
			c0.289,0.23,0.667,0.333,1.134,0.301c0.464-0.025,1.026-0.304,1.677-0.842l3.568-12.567l2.941,2.346L288.161,51.913z"/>
		<path d="M300.086,53.02l1.661,1.578l-0.736,1.299l0.073,0.064c0.724-0.157,1.389-0.144,2.007,0.045
			c0.608,0.179,1.217,0.553,1.808,1.12c1.098,1.037,1.592,2.166,1.482,3.382c-0.111,1.213-0.899,2.586-2.359,4.128
			c-0.71,0.746-1.434,1.335-2.179,1.773c-0.746,0.432-1.492,0.698-2.234,0.791c-0.738,0.096-1.466,0.016-2.169-0.237
			c-0.708-0.246-1.383-0.675-2.022-1.28c-0.362-0.345-0.634-0.659-0.819-0.928c-0.18-0.275-0.336-0.586-0.458-0.922l-3.405,3.588
			l-2.274-2.157L300.086,53.02z M302.394,58.399c-0.442-0.419-0.896-0.637-1.356-0.656c-0.462-0.016-0.978,0.131-1.534,0.442
			l-3.452,3.639c0.038,0.285,0.124,0.554,0.243,0.813c0.121,0.259,0.339,0.535,0.649,0.835c0.656,0.621,1.359,0.854,2.125,0.707
			c0.765-0.153,1.65-0.758,2.659-1.817c0.729-0.771,1.165-1.489,1.306-2.151C303.178,59.545,302.963,58.943,302.394,58.399z"/>
		<path d="M306.524,67.69c1.533-1.344,3.044-2.007,4.529-1.984c1.488,0.016,2.822,0.71,4.013,2.055
			c0.638,0.73,1.076,1.456,1.312,2.192c0.236,0.733,0.301,1.456,0.191,2.173c-0.108,0.714-0.383,1.421-0.822,2.119
			c-0.438,0.691-1.011,1.35-1.725,1.978c-1.533,1.347-3.041,2.02-4.521,1.997c-1.479-0.01-2.814-0.698-4.001-2.048
			c-0.637-0.723-1.075-1.453-1.312-2.189c-0.24-0.733-0.307-1.459-0.205-2.183c0.109-0.72,0.375-1.43,0.816-2.125
			C305.234,68.977,305.814,68.314,306.524,67.69z M308.659,70.119c-0.399,0.349-0.739,0.71-1.011,1.078
			c-0.275,0.375-0.474,0.74-0.602,1.108c-0.125,0.368-0.157,0.726-0.09,1.088c0.07,0.358,0.25,0.698,0.534,1.024
			c0.541,0.615,1.168,0.877,1.882,0.791c0.714-0.092,1.552-0.563,2.519-1.408c0.832-0.736,1.383-1.465,1.654-2.192
			c0.27-0.733,0.112-1.427-0.474-2.093c-0.509-0.576-1.123-0.838-1.846-0.781C310.506,68.784,309.651,69.249,308.659,70.119z"/>
		<path d="M312.842,81.976c0.449-0.342,0.909-0.47,1.387-0.39c0.477,0.077,0.89,0.349,1.244,0.81
			c0.368,0.483,0.528,0.973,0.483,1.453c-0.045,0.483-0.294,0.893-0.742,1.232c-0.444,0.345-0.909,0.476-1.396,0.396
			c-0.48-0.07-0.906-0.352-1.28-0.841c-0.352-0.458-0.503-0.931-0.447-1.421C312.145,82.734,312.395,82.322,312.842,81.976z"/>
		<path d="M326.6,82.962l1.773,2.586l-9.934,6.836l-1.775-2.586L326.6,82.962z M329.139,80.658c0.384-0.263,0.812-0.345,1.277-0.25
			c0.467,0.096,0.877,0.396,1.226,0.902c0.345,0.506,0.489,1.002,0.432,1.504c-0.058,0.493-0.282,0.877-0.663,1.143
			c-0.383,0.266-0.812,0.327-1.283,0.192c-0.473-0.131-0.883-0.451-1.232-0.957c-0.345-0.499-0.489-0.979-0.425-1.446
			C328.531,81.285,328.754,80.923,329.139,80.658z"/>
		<path d="M326.107,92.928c1.761-1.034,3.367-1.398,4.823-1.098s2.637,1.226,3.552,2.781c0.486,0.832,0.781,1.626,0.875,2.394
			c0.095,0.762,0.021,1.491-0.218,2.169c-0.247,0.685-0.644,1.325-1.207,1.927c-0.561,0.602-1.249,1.142-2.067,1.625
			c-1.76,1.034-3.366,1.402-4.82,1.107c-1.446-0.294-2.63-1.216-3.543-2.771c-0.488-0.832-0.777-1.625-0.873-2.394
			c-0.096-0.762-0.021-1.491,0.214-2.182c0.234-0.694,0.638-1.335,1.194-1.937C324.601,93.952,325.288,93.411,326.107,92.928z
			 M327.743,95.719c-0.455,0.265-0.854,0.557-1.193,0.871c-0.336,0.307-0.605,0.633-0.8,0.969c-0.192,0.336-0.289,0.688-0.289,1.05
			c0,0.372,0.109,0.736,0.33,1.107c0.413,0.71,0.979,1.085,1.699,1.133c0.717,0.045,1.625-0.256,2.736-0.916
			c0.957-0.557,1.636-1.171,2.038-1.833c0.397-0.668,0.378-1.383-0.069-2.141c-0.391-0.672-0.947-1.043-1.668-1.12
			C329.811,94.755,328.886,95.046,327.743,95.719z"/>
		<path d="M341.515,259.905c0.528,0.278,0.963,0.617,1.302,1.027c0.343,0.409,0.586,0.854,0.732,1.344
			c0.147,0.479,0.203,0.979,0.154,1.491c-0.048,0.506-0.195,1.005-0.445,1.495c-0.252,0.483-0.569,0.902-0.95,1.254
			c-0.384,0.359-0.812,0.621-1.293,0.791c-0.477,0.169-0.982,0.23-1.523,0.186c-0.537-0.042-1.085-0.205-1.642-0.493
			c-0.557-0.291-1.005-0.64-1.344-1.049c-0.34-0.414-0.576-0.858-0.704-1.339c-0.134-0.489-0.163-0.988-0.093-1.504
			c0.063-0.518,0.224-1.021,0.477-1.508c0.25-0.479,0.562-0.896,0.938-1.234c0.378-0.34,0.797-0.593,1.262-0.762
			c0.467-0.163,0.966-0.228,1.5-0.188C340.413,259.454,340.958,259.617,341.515,259.905z M340.406,262.05
			c-0.457-0.237-0.886-0.285-1.289-0.154c-0.407,0.131-0.707,0.397-0.906,0.781c-0.201,0.387-0.243,0.791-0.128,1.213
			c0.118,0.423,0.407,0.748,0.864,0.985c0.454,0.243,0.896,0.281,1.325,0.147c0.423-0.147,0.735-0.406,0.938-0.793
			c0.198-0.388,0.23-0.785,0.09-1.204C341.162,262.612,340.864,262.289,340.406,262.05z"/>
		<path d="M204.668,360.757l-3.12,0.275l-0.506-5.773l-0.096,0.013c-0.302,0.41-0.708,0.755-1.217,1.024
			c-0.505,0.271-1.081,0.432-1.721,0.489c-1.444,0.125-2.593-0.275-3.438-1.193c-0.845-0.915-1.354-2.381-1.53-4.404
			c-0.186-2.163,0.202-3.853,1.171-5.062c0.967-1.216,2.379-1.901,4.24-2.063c1.021-0.094,1.966-0.094,2.827,0.006
			c0.87,0.096,1.523,0.228,1.978,0.396L204.668,360.757z M198.689,354.064c0.579-0.047,1.031-0.242,1.367-0.565
			c0.336-0.333,0.575-0.784,0.717-1.36l-0.454-5.236c-0.267-0.108-0.552-0.176-0.852-0.192c-0.302-0.025-0.618-0.021-0.954,0.004
			c-0.852,0.08-1.466,0.441-1.856,1.095c-0.387,0.659-0.524,1.657-0.406,3.005C196.453,353.102,197.259,354.184,198.689,354.064z"/>
		<path d="M184.478,350.273l-0.464-1.876h-0.145l-0.281,1.914l-1.726,6.784l-3.23,0.048l3.489-10.935
			c0.288-0.903,0.57-1.735,0.839-2.483c0.269-0.756,0.563-1.409,0.896-1.96c0.331-0.554,0.699-0.979,1.105-1.286
			c0.399-0.301,0.886-0.457,1.449-0.47c0.838-0.014,1.508,0.118,2.01,0.381l-0.538,2.515c-0.246-0.089-0.486-0.131-0.729-0.131
			c-0.364,0.003-0.724,0.17-1.062,0.486c-0.347,0.32-0.593,0.89-0.757,1.716l5.236,11.976l-3.763,0.061L184.478,350.273z"/>
		<path d="M96.284,339.06l-2.689-1.613l2.979-4.965l-0.083-0.047c-0.485,0.156-1.014,0.191-1.589,0.111
			c-0.57-0.073-1.131-0.278-1.68-0.61c-1.245-0.749-1.935-1.738-2.083-2.98c-0.144-1.244,0.306-2.729,1.349-4.471
			c1.115-1.859,2.422-2.999,3.917-3.412c1.5-0.415,3.045-0.141,4.647,0.819c0.88,0.528,1.642,1.089,2.287,1.671
			c0.644,0.582,1.096,1.072,1.362,1.476L96.284,339.06z M95.369,330.13c0.496,0.295,0.978,0.416,1.443,0.343
			c0.461-0.068,0.922-0.298,1.376-0.672l2.706-4.517c-0.155-0.239-0.347-0.457-0.576-0.656c-0.231-0.194-0.49-0.374-0.778-0.547
			c-0.731-0.441-1.45-0.506-2.143-0.204c-0.699,0.3-1.397,1.036-2.092,2.192C94.124,328.043,94.143,329.394,95.369,330.13z"/>
		<path d="M86.037,318.679l0.754-1.782l-0.122-0.083l-1.371,1.36l-5.437,4.403l-2.62-1.898l9.34-6.672
			c0.774-0.548,1.497-1.047,2.159-1.488c0.666-0.436,1.299-0.781,1.89-1.027c0.593-0.246,1.147-0.368,1.653-0.371
			c0.506,0,0.987,0.167,1.445,0.492c0.676,0.493,1.136,0.992,1.379,1.504l-1.938,1.697c-0.136-0.225-0.301-0.403-0.5-0.541
			c-0.299-0.218-0.679-0.301-1.145-0.249c-0.461,0.047-1.006,0.357-1.629,0.924l-2.973,12.725l-3.053-2.201L86.037,318.679z"/>
		<path d="M75.504,319.249l-1.277-1.066l-1.452,1.738l-2.981-1.325l2.026-2.423l-2.259-1.885l1.701-2.038l2.259,1.891l2.965-3.559
			c0.539-0.643,0.858-1.155,0.963-1.543c0.1-0.383-0.029-0.723-0.386-1.023c-0.25-0.205-0.481-0.358-0.702-0.461
			c-0.221-0.103-0.482-0.191-0.786-0.281l1.118-2.205c0.471,0.118,0.972,0.301,1.509,0.566c0.533,0.262,1.031,0.576,1.488,0.96
			c0.851,0.714,1.294,1.456,1.333,2.224c0.035,0.774-0.367,1.661-1.2,2.663l-3.896,4.669l1.277,1.062L75.504,319.249z"/>
		<path d="M66.894,296.638c0.614,0.062,1.312,0.282,2.09,0.67c0.779,0.384,1.504,0.902,2.171,1.552
			c1.4,1.354,2.026,2.752,1.885,4.196c-0.141,1.437-0.902,2.866-2.278,4.287c-1.477,1.524-2.95,2.312-4.418,2.372
			c-1.464,0.054-2.856-0.554-4.171-1.831c-0.437-0.426-0.812-0.893-1.116-1.41c-0.301-0.52-0.486-1.066-0.553-1.648
			c-0.064-0.58,0.024-1.188,0.264-1.828c0.242-0.64,0.683-1.299,1.333-1.965c0.232-0.24,0.501-0.489,0.798-0.742
			c0.296-0.243,0.621-0.493,0.968-0.736l5.197,5.034c0.67-0.758,1.016-1.494,1.031-2.191c0.018-0.698-0.353-1.418-1.119-2.154
			c-0.469-0.461-0.961-0.798-1.48-1.015c-0.517-0.224-0.942-0.349-1.288-0.394L66.894,296.638z M63.951,306.114
			c0.592,0.576,1.198,0.819,1.823,0.743c0.627-0.08,1.253-0.381,1.879-0.912l-3.223-3.127c-0.65,0.575-1.018,1.152-1.107,1.715
			C63.234,305.101,63.444,305.631,63.951,306.114z"/>
		<path d="M58.397,298.185l-4.021-4.529l2.075-1.844l4.015,4.532L58.397,298.185z"/>
		<path d="M48.863,292.9l-1.022-1.312l-0.533,0.419c-1.205,0.938-2.272,1.369-3.21,1.277c-0.935-0.084-1.777-0.605-2.528-1.568
			c-0.793-1.012-1.331-1.949-1.616-2.813l2.349-1.069c0.126,0.371,0.257,0.683,0.398,0.925c0.145,0.25,0.309,0.496,0.498,0.729
			c0.2,0.26,0.394,0.426,0.583,0.513c0.187,0.093,0.389,0.103,0.604,0.048c0.209-0.054,0.442-0.16,0.69-0.326
			c0.25-0.166,0.526-0.365,0.83-0.603l-1.632-2.092l2.09-1.629l1.634,2.086l7.413-5.795l1.927,2.473l-7.411,5.796l1.027,1.307
			L48.863,292.9z"/>
		<path d="M47.202,280.912c-1.696,1.133-3.285,1.597-4.754,1.379c-1.467-0.214-2.704-1.078-3.703-2.573
			c-0.538-0.803-0.875-1.587-1.014-2.342c-0.14-0.762-0.109-1.481,0.096-2.18c0.2-0.698,0.565-1.359,1.092-1.99
			c0.524-0.634,1.182-1.213,1.969-1.741c1.701-1.133,3.282-1.594,4.746-1.386c1.464,0.215,2.7,1.068,3.7,2.56
			c0.533,0.807,0.874,1.581,1.011,2.34c0.139,0.759,0.112,1.491-0.086,2.192c-0.201,0.704-0.561,1.37-1.087,2.004
			C48.647,279.805,47.989,280.384,47.202,280.912z M45.405,278.224c0.441-0.297,0.822-0.608,1.144-0.938
			c0.32-0.326,0.569-0.672,0.738-1.019c0.176-0.342,0.253-0.704,0.232-1.065c-0.02-0.361-0.147-0.729-0.392-1.091
			c-0.455-0.679-1.043-1.021-1.762-1.021c-0.713-0.007-1.611,0.349-2.68,1.065c-0.923,0.614-1.565,1.268-1.93,1.952
			c-0.362,0.688-0.296,1.398,0.197,2.131c0.425,0.646,1.003,0.989,1.725,1.024C43.398,279.309,44.311,278.96,45.405,278.224z"/>
		<path d="M31.833,267.812l6.019-3.271c0.862-0.467,1.43-0.905,1.696-1.322c0.272-0.409,0.244-0.914-0.076-1.506
			c-0.285-0.52-0.678-0.871-1.176-1.051c-0.498-0.176-1.022-0.227-1.565-0.153l-6.844,3.72l-1.496-2.747l7.374-4.016
			c0.578-0.314,1.131-0.65,1.658-1.012c0.53-0.361,0.986-0.714,1.379-1.075l1.128,2.074l-1.304,1.344l0.048,0.086
			c0.714,0.025,1.403,0.241,2.07,0.628c0.669,0.388,1.219,0.976,1.648,1.766c0.293,0.541,0.482,1.06,0.574,1.556
			c0.083,0.503,0.048,0.983-0.129,1.44c-0.168,0.458-0.489,0.916-0.958,1.359c-0.474,0.452-1.123,0.903-1.957,1.354l-6.588,3.581
			L31.833,267.812z"/>
		<path d="M34.084,244.86l-6.295,2.708c-0.899,0.384-1.493,0.794-1.783,1.229c-0.288,0.426-0.296,0.95-0.032,1.568
			c0.237,0.55,0.594,0.947,1.076,1.178c0.479,0.242,0.992,0.345,1.533,0.304l7.179-3.089L37,251.642l-11.076,4.763l-0.984-2.285
			l1.32-0.963l-0.04-0.084c-0.618-0.134-1.223-0.41-1.821-0.819c-0.594-0.406-1.083-1.056-1.464-1.939
			c-0.237-0.55-0.37-1.069-0.408-1.562c-0.037-0.493,0.051-0.954,0.267-1.396c0.208-0.444,0.578-0.867,1.096-1.264
			c0.522-0.396,1.207-0.785,2.064-1.149l6.89-2.96L34.084,244.86z"/>
		<path d="M24.092,229.396c0.644-0.207,1.285-0.422,1.922-0.648c0.638-0.221,1.328-0.522,2.067-0.894l0.691,2.132l-1.358,0.893
			l0.034,0.096c0.634,0.132,1.206,0.429,1.725,0.899c0.514,0.461,0.895,1.089,1.148,1.869c0.468,1.44,0.356,2.708-0.333,3.812
			c-0.691,1.1-2.046,1.977-4.064,2.636c-1.958,0.638-3.623,0.685-4.996,0.147c-1.376-0.534-2.342-1.651-2.896-3.369
			c-0.156-0.475-0.252-0.871-0.3-1.198c-0.045-0.322-0.056-0.655-0.032-1.004l-4.658,1.517l-0.966-2.985L24.092,229.396z
			 M27.576,233.87c-0.188-0.576-0.481-0.995-0.871-1.235c-0.394-0.242-0.878-0.349-1.456-0.313l-4.868,1.577
			c-0.1,0.267-0.149,0.552-0.149,0.833c0,0.288,0.067,0.637,0.202,1.053c0.276,0.845,0.761,1.376,1.463,1.619
			c0.703,0.237,1.741,0.132,3.117-0.319c0.979-0.311,1.714-0.746,2.196-1.284C27.696,235.27,27.816,234.622,27.576,233.87z"/>
		<path d="M16.554,219.315c-0.056,0.521-0.035,0.979,0.056,1.373c0.133,0.544,0.39,0.967,0.767,1.267
			c0.377,0.291,0.806,0.449,1.288,0.471l7.578-1.818l0.731,3.048l-11.726,2.813l-0.568-2.366l1.461-0.723l-0.021-0.097
			c-0.643-0.124-1.173-0.377-1.595-0.758c-0.422-0.378-0.707-0.87-0.854-1.476c-0.094-0.409-0.119-0.893-0.074-1.453L16.554,219.315
			z"/>
		<path d="M18.758,210.124l1.786-0.733l-0.026-0.137l-1.93-0.007l-6.96-0.717l-0.522-3.188l11.326,1.855
			c0.939,0.158,1.799,0.314,2.584,0.471c0.783,0.157,1.473,0.361,2.063,0.603c0.594,0.249,1.071,0.55,1.432,0.901
			c0.362,0.362,0.585,0.813,0.678,1.373c0.131,0.826,0.104,1.504-0.084,2.043l-2.568-0.171c0.056-0.252,0.065-0.492,0.024-0.732
			c-0.059-0.371-0.269-0.694-0.637-0.982c-0.362-0.294-0.963-0.458-1.802-0.499l-11.087,6.922l-0.608-3.715L18.758,210.124z"/>
		<path d="M63.295,55.625c-0.401-0.438-0.686-0.916-0.867-1.412c-0.171-0.506-0.245-1.011-0.216-1.517
			c0.031-0.505,0.157-0.989,0.381-1.453c0.221-0.458,0.535-0.871,0.94-1.238c0.401-0.365,0.846-0.653,1.328-0.848
			c0.481-0.205,0.975-0.298,1.483-0.288c0.506,0.003,1.003,0.125,1.493,0.352c0.489,0.227,0.947,0.572,1.368,1.033
			c0.42,0.471,0.718,0.954,0.894,1.459c0.178,0.5,0.237,1.005,0.189,1.498c-0.043,0.499-0.189,0.979-0.434,1.437
			c-0.245,0.468-0.569,0.88-0.975,1.249c-0.404,0.365-0.843,0.643-1.312,0.832c-0.469,0.192-0.951,0.278-1.444,0.269
			c-0.498-0.006-0.987-0.122-1.469-0.342C64.166,56.432,63.716,56.089,63.295,55.625z M65.076,54.009
			c0.349,0.375,0.735,0.576,1.161,0.589c0.429,0.016,0.8-0.122,1.123-0.417c0.32-0.291,0.498-0.656,0.538-1.088
			c0.04-0.441-0.116-0.851-0.463-1.229c-0.344-0.381-0.741-0.576-1.192-0.599c-0.448-0.016-0.835,0.122-1.154,0.419
			c-0.321,0.288-0.49,0.653-0.505,1.095C64.567,53.212,64.732,53.622,65.076,54.009z"/>
		<path d="M146.982,17.288c-0.104-0.531-0.109-1.047-0.008-1.52c0.103-0.48,0.29-0.916,0.558-1.296
			c0.266-0.375,0.597-0.701,0.999-0.973c0.396-0.265,0.838-0.451,1.325-0.547c0.506-0.103,0.999-0.115,1.471-0.035
			c0.474,0.077,0.904,0.24,1.288,0.48c0.386,0.247,0.719,0.569,0.996,0.989c0.278,0.41,0.474,0.893,0.591,1.469
			c0.111,0.563,0.12,1.085,0.016,1.569c-0.101,0.476-0.281,0.902-0.544,1.276c-0.262,0.372-0.6,0.685-1.005,0.938
			c-0.41,0.252-0.867,0.429-1.373,0.528c-0.486,0.096-0.966,0.109-1.432,0.032c-0.465-0.083-0.896-0.24-1.288-0.48
			c-0.392-0.24-0.728-0.567-1.005-0.973C147.292,18.344,147.099,17.854,146.982,17.288z"/>
	</g>
</g>
</svg>
