<?xml version="1.0" encoding="utf-8"?>
<!-- Generator: Adobe Illustrator 16.0.0, SVG Export Plug-In . SVG Version: 6.00 Build 0)  -->
<!DOCTYPE svg PUBLIC "-//W3C//DTD SVG 1.1//EN" "http://www.w3.org/Graphics/SVG/1.1/DTD/svg11.dtd">
<svg version="1.1" id="Calque_1" xmlns="http://www.w3.org/2000/svg" xmlns:xlink="http://www.w3.org/1999/xlink" x="0px" y="0px"
	 width="354.826px" height="372.697px" viewBox="0 0 354.826 372.697" enable-background="new 0 0 354.826 372.697"
	 xml:space="preserve">
<g>
	<g>
		<path d="M297.388,233.682v-47.141c0.094-2.727,0.103-5.441,0-8.158v-46.29c2.029-0.46,3.553-2.275,3.553-4.442
			c0-2.519-2.052-4.563-4.569-4.563c-2.522,0-4.574,2.045-4.574,4.563c0,2.167,1.523,3.981,3.556,4.452v28.97
			c-2.115-10.769-5.821-21.257-11.079-31.181h0.339v-6.59h-4.091c-16.744-27.135-44.192-45.806-75.051-51.826h29.259
			c0.46,2.026,2.274,3.549,4.444,3.549c2.516,0,4.566-2.045,4.566-4.567c0-2.521-2.051-4.566-4.566-4.566
			c-2.166,0-3.984,1.517-4.444,3.542h-47.094c-0.156,0-0.316,0-0.471-0.003v-2.33h-6.599v2.32c-0.168,0.013-0.341,0.01-0.514,0.013
			h-46.914c-0.467-2.026-2.277-3.542-4.443-3.542c-2.521,0-4.572,2.045-4.572,4.566c0,2.522,2.051,4.567,4.572,4.567
			c2.167,0,3.976-1.523,4.443-3.549h29.097c-12.283,2.4-24.169,6.83-35.109,13.157c-16.875,9.751-30.296,23.215-39.833,38.771
			h-4.116v6.59h0.396c-5.23,9.972-8.95,20.648-11.057,31.661v-29.562c2.03-0.46,3.551-2.275,3.551-4.442
			c0-2.519-2.05-4.563-4.565-4.563c-2.524,0-4.573,2.045-4.573,4.563c0,2.167,1.52,3.981,3.551,4.452v48.424v0.493v52.662
			c-2.031,0.467-3.551,2.275-3.551,4.442c0,2.524,2.049,4.573,4.573,4.573c2.515,0,4.565-2.049,4.565-4.573
			c0-2.167-1.521-3.976-3.551-4.442v-29.238c2.066,10.743,5.73,21.33,11.078,31.449h-0.341v6.591h4.088
			c16.74,27.122,44.181,45.796,75.024,51.822h-29.229c-0.467-2.029-2.277-3.553-4.443-3.553c-2.521,0-4.572,2.051-4.572,4.566
			c0,2.525,2.051,4.574,4.572,4.574c2.167,0,3.976-1.521,4.443-3.556h46.99c0.189,0.013,0.38,0.013,0.571,0.016v2.323h6.593v-2.323
			c0.205-0.003,0.413-0.003,0.618-0.016h46.818c0.46,2.035,2.274,3.556,4.444,3.556c2.516,0,4.566-2.049,4.566-4.574
			c0-2.516-2.051-4.566-4.566-4.566c-2.166,0-3.984,1.523-4.444,3.553h-29.072c12.272-2.404,24.152-6.833,35.082-13.154
			c16.581-9.581,30.166-22.891,39.908-38.771h4.039v-6.596h-0.321c3.89-7.412,7.006-15.288,9.221-23.576
			c0.691-2.593,1.254-5.194,1.767-7.8v29.273c-2.032,0.467-3.556,2.275-3.556,4.442c0,2.524,2.052,4.573,4.574,4.573
			c2.518,0,4.569-2.049,4.569-4.573C300.94,235.957,299.417,234.148,297.388,233.682z M293.836,127.651
			c0-1.396,1.133-2.531,2.535-2.531c1.391,0,2.531,1.136,2.531,2.531c0,1.398-1.141,2.528-2.531,2.528
			C294.969,130.18,293.836,129.05,293.836,127.651z M239.174,67.927c1.393,0,2.528,1.133,2.528,2.531
			c0,1.396-1.136,2.535-2.528,2.535c-1.396,0-2.531-1.14-2.531-2.535C236.643,69.06,237.778,67.927,239.174,67.927z M128.696,72.993
			c-1.397,0-2.537-1.14-2.537-2.535c0-1.398,1.14-2.531,2.537-2.531c1.392,0,2.529,1.133,2.529,2.531
			C131.225,71.854,130.087,72.993,128.696,72.993z M68.965,127.651c0-1.396,1.139-2.531,2.539-2.531
			c1.392,0,2.527,1.136,2.527,2.531c0,1.398-1.135,2.528-2.527,2.528C70.104,130.18,68.965,129.05,68.965,127.651z M74.031,238.124
			c0,1.395-1.135,2.537-2.527,2.537c-1.4,0-2.539-1.143-2.539-2.537c0-1.396,1.139-2.529,2.539-2.529
			C72.896,235.595,74.031,236.729,74.031,238.124z M128.696,297.854c-1.397,0-2.537-1.14-2.537-2.535
			c0-1.395,1.14-2.528,2.537-2.528c1.392,0,2.529,1.134,2.529,2.528C131.225,296.715,130.087,297.854,128.696,297.854z
			 M239.174,292.791c1.393,0,2.528,1.134,2.528,2.528c0,1.396-1.136,2.535-2.528,2.535c-1.396,0-2.531-1.14-2.531-2.535
			C236.643,293.925,237.778,292.791,239.174,292.791z M187.293,292.299v-0.208H180.7v0.221l-90.335-52.085h187.011L187.293,292.299z
			 M89.775,125.968l90.792-52.492v0.217h0.195L87.555,235.352l-0.061-105.357h2.281V125.968z M280.312,129.892l0.054,105.569
			L186.906,73.694h0.259v-0.221l90.852,52.386v4.032H280.312z M158.71,178.104l24.689-54.002l23.557,54.002H158.71z
			 M216.728,200.629l16.229,37.555H131.508l17.228-37.555H216.728z M178.777,81.214l-73.081,156.969H89.85v-2.291h-0.256
			L178.777,81.214z M278.09,235.784v2.399h-18.923l-71.33-158.809l90.368,156.41H278.09z M282.573,125.337v1.437v1.079h-0.229
			h-1.504h-0.539h-0.246v-0.819v-0.56v-1.137h1.14h0.554H282.573z M278.119,123.302h-0.103v0.205l-90.225-52.018
			C224.52,72.801,258.488,92.297,278.119,123.302z M182.604,69.14h0.784h0.887h0.854v0.252v0.042v0.512v0.669v0.816
			c-0.288-0.003-0.583-0.016-0.867-0.016c-0.145,0-0.291-0.006-0.433-0.006c-0.165,0-0.326,0.006-0.492,0.006
			c-0.243,0.007-0.486,0.013-0.733,0.016v-0.938v-0.547v-0.512v-0.042V69.14z M128.143,86.393
			c15.834-9.153,33.668-14.267,51.81-14.913l-90.178,52.136v-0.211h-0.061C99.039,108.587,111.966,95.744,128.143,86.393z
			 M85.217,125.446h0.887h0.509h1.128v1.245v0.455v0.816h-0.247h-0.493h-1.544h-0.24v-0.983V125.446z M72.519,181.404v-0.845
			c0.394-17.356,4.85-34.423,12.938-49.769l0.062,104.372C76.438,218.087,72.25,199.617,72.519,181.404z M85.292,240.443v-0.217
			v-0.951v-0.266v-1.078h0.227h0.547h0.958h0.534h0.251v0.819v0.56v0.916v0.217h-1.143h-0.553H85.292z M89.746,242.483h0.104v-0.205
			l90.216,52.018C143.343,292.979,109.376,273.481,89.746,242.483z M185.261,296.645h-2.524v-0.259v-0.048v-0.5v-1.484v-0.048
			v-0.176h1.119h0.282h1.123v0.176v0.048v1.479v0.506v0.054V296.645z M239.725,279.393c-15.835,9.152-33.674,14.267-51.819,14.913
			l90.185-52.141v0.215h0.153C268.732,257.502,255.627,270.197,239.725,279.393z M282.65,239.407v0.819v0.111h-0.813h-0.591h-1.118
			v-0.111v-0.995v-0.603v-0.807h0.244h0.586h0.776h0.67h0.246v1.14V239.407z M291.614,211.676
			c-2.204,8.254-5.319,16.095-9.21,23.462l-0.061-104.536c7.978,14.984,12.369,31.277,13.009,47.854v8.023
			C295.068,194.896,293.849,203.343,291.614,211.676z M296.371,240.661c-1.402,0-2.535-1.143-2.535-2.537
			c0-1.396,1.133-2.529,2.535-2.529c1.391,0,2.531,1.134,2.531,2.529C298.902,239.519,297.762,240.661,296.371,240.661z"/>
	</g>
</g>
</svg>
