<?xml version="1.0" encoding="utf-8"?>
<!-- Generator: Adobe Illustrator 17.0.2, SVG Export Plug-In . SVG Version: 6.00 Build 0)  -->
<!DOCTYPE svg PUBLIC "-//W3C//DTD SVG 1.1//EN" "http://www.w3.org/Graphics/SVG/1.1/DTD/svg11.dtd">
<svg version="1.1" id="Capa_1" xmlns="http://www.w3.org/2000/svg" xmlns:xlink="http://www.w3.org/1999/xlink" x="0px" y="0px"
	 width="93.25px" height="66.583px" viewBox="0 0 93.25 66.583" enable-background="new 0 0 93.25 66.583" xml:space="preserve">
<polyline fill="#FFFFFF" stroke="#FA725E" stroke-width="2" stroke-miterlimit="10" points="0,58.099 21.5,58.099 21.5,11.09 
	55,1.099 55,58.099 93.25,58.099 "/>
<rect x="55" y="27.849" fill="#FFFFFF" stroke="#FA725E" stroke-width="2" stroke-miterlimit="10" width="15.75" height="30.25"/>
<circle fill="#FA725E" cx="29.201" cy="22.365" r="1.734"/>
<circle fill="#FA725E" cx="35.201" cy="22.365" r="1.734"/>
<circle fill="#FA725E" cx="41.201" cy="22.365" r="1.734"/>
<circle fill="#FA725E" cx="47.201" cy="22.365" r="1.734"/>
<circle fill="#FA725E" cx="29.201" cy="28.365" r="1.734"/>
<circle fill="#FA725E" cx="35.201" cy="28.365" r="1.734"/>
<circle fill="#FA725E" cx="41.201" cy="28.365" r="1.734"/>
<circle fill="#FA725E" cx="47.201" cy="28.365" r="1.734"/>
<circle fill="#FA725E" cx="29.201" cy="34.365" r="1.734"/>
<circle fill="#FA725E" cx="35.201" cy="34.365" r="1.734"/>
<circle fill="#FA725E" cx="41.201" cy="34.365" r="1.734"/>
<circle fill="#FA725E" cx="47.201" cy="34.365" r="1.734"/>
<circle fill="#FA725E" cx="29.201" cy="40.365" r="1.734"/>
<circle fill="#FA725E" cx="35.201" cy="40.365" r="1.734"/>
<circle fill="#FA725E" cx="41.201" cy="40.365" r="1.734"/>
<circle fill="#FA725E" cx="47.201" cy="40.365" r="1.734"/>
<circle fill="#FA725E" cx="29.201" cy="46.365" r="1.734"/>
<circle fill="#FA725E" cx="35.201" cy="46.365" r="1.734"/>
<circle fill="#FA725E" cx="41.201" cy="46.365" r="1.734"/>
<circle fill="#FA725E" cx="47.201" cy="46.365" r="1.734"/>
</svg>
