<?xml version="1.0" encoding="utf-8"?>
<!-- Generator: Adobe Illustrator 17.0.2, SVG Export Plug-In . SVG Version: 6.00 Build 0)  -->
<!DOCTYPE svg PUBLIC "-//W3C//DTD SVG 1.1//EN" "http://www.w3.org/Graphics/SVG/1.1/DTD/svg11.dtd">
<svg version="1.1" id="Calque_1" xmlns="http://www.w3.org/2000/svg" xmlns:xlink="http://www.w3.org/1999/xlink" x="0px" y="0px"
	 width="840.451px" height="402.625px" viewBox="0 0 840.451 402.625" enable-background="new 0 0 840.451 402.625"
	 xml:space="preserve">
<path opacity="0.7" fill="none" stroke="#FF725E" stroke-width="0.8" stroke-miterlimit="10" stroke-opacity="0.2" d="
	M771.029,224.923c-1.615,4.424-3.699,8.102-6.184,11.084l-66.295,79.365c2.484-2.981,4.547-6.665,6.184-11.084 M713.816,140.947
	c0.666-0.8,1.371-1.546,2.084-2.226 M713.816,140.947c-6.77,8.106-10.965,22.419-12.656,42.669
	c-1.334,15.846,0.422,29.249,5.447,40.107c5.188,10.887,13.98,17.728,26.682,20.44c9.865,2.106,17.832,1.577,24.062-1.909
	c2.812-1.561,5.305-3.635,7.494-6.246l-66.295,79.365c-2.189,2.611-4.699,4.684-7.516,6.241c-6.209,3.49-14.172,4.019-24.059,1.909
	c-12.703-2.713-21.48-9.55-26.662-20.438c-5.027-10.857-6.781-24.258-5.447-40.104c1.688-20.251,5.867-34.565,12.654-42.669
	 M715.9,138.721c7.836-7.761,18.975-10.014,33.285-6.956c6.869,1.455,12.635,3.369,16.951,5.666
	c4.125,2.252,8.008,5.308,11.484,8.798l-66.293,79.366c-3.502-3.494-7.361-6.547-11.484-8.801
	c-4.32-2.295-10.082-4.209-16.973-5.667c-14.289-3.054-25.449-0.806-33.264,6.96 M704.734,304.289l6.594-78.694l66.293-79.366
	l-6.592,78.694 M821.922,232.867c-0.861,10.279-1.732,20.735-2.264,31.258 M755.627,312.228l16.338-194.818l66.314-79.361
	l-16.357,194.818 M771.965,117.41l-50.654-10.802l66.293-79.365l50.675,10.806L771.965,117.41z M714.973,182.104l6.338-75.496
	l66.293-79.365l-6.34,75.498 M714.973,182.104c-5.143-3.156-10.131-5.76-15.172-7.695c-5.236-1.969-11.734-3.701-19.85-5.428
	c-29.141-6.213-51.936-2.164-68.418,12.17c-2.568,2.268-4.984,4.758-7.23,7.441 M710.207,346.311l66.293-79.365
	c0.332-0.386,0.648-0.785,0.963-1.183l-66.297,79.364C710.854,345.527,710.541,345.925,710.207,346.311L710.207,346.311z
	 M776.5,266.946l-66.293,79.365c-5.758,6.899-13.607,11.944-23.205,14.931c-10.172,3.322-21.875,3.578-35.096,0.755
	c-24.373-5.197-42.791-17.015-54.92-35.22c-12.289-18.223-17.004-43.766-14.246-76.463c2.229-26.709,9.459-47.243,21.564-61.723
	l66.293-79.364c-12.105,14.482-19.334,35.014-21.564,61.723c-2.736,32.7,1.955,58.241,14.246,76.464
	c12.15,18.207,30.547,30.021,54.92,35.221c13.24,2.822,24.926,2.566,35.096-0.759C762.914,278.892,770.742,273.845,776.5,266.946z
	 M712.756,345.468l-1.59-0.341l66.297-79.364l1.588,0.342 M779.051,266.105l5.051,25.611l-66.315,79.362l-5.031-25.61
	 M717.787,371.078l66.315-79.362l36.181,7.717l-66.312,79.359L717.787,371.078z M819.658,264.125
	c-0.713,10.481-0.42,22.213,0.625,35.309l-66.312,79.361c-1.047-13.094-1.318-24.821-0.607-35.305 M819.658,264.125
	c-0.713,10.481-0.42,22.213,0.625,35.309l-36.182-7.717l-5.051-25.611l-1.588-0.34c-5.842,7.5-14.01,12.963-24.17,16.111
	c-10.168,3.325-21.854,3.582-35.094,0.759c-24.373-5.198-42.773-17.015-54.92-35.222c-12.291-18.221-16.984-43.762-14.248-76.463
	c2.662-31.674,12.324-54.662,28.814-69.163c16.463-14.336,39.26-18.384,68.398-12.172c8.117,1.729,14.635,3.461,19.871,5.431
	c5.039,1.936,10.025,4.542,15.148,7.693l6.338-75.498l50.676,10.806L821.92,232.864
	C821.061,243.146,820.189,253.602,819.658,264.125L819.658,264.125z M771.029,224.923l6.592-78.694
	c-3.479-3.49-7.359-6.546-11.482-8.798c-4.318-2.297-10.084-4.211-16.953-5.666c-14.311-3.057-25.449-0.805-33.285,6.956
	c-8.012,7.558-12.875,22.649-14.74,44.896c-1.334,15.846,0.422,29.249,5.447,40.106c5.188,10.889,13.98,17.729,26.682,20.441
	c9.865,2.106,17.832,1.578,24.062-1.91C763.385,238.917,767.996,233.212,771.029,224.923 M753.365,343.49
	c-0.713,10.483-0.441,22.21,0.605,35.305l-36.182-7.717l-5.033-25.609l-1.59-0.34c-5.838,7.503-14.025,12.961-24.164,16.113
	c-10.17,3.322-21.875,3.578-35.096,0.756c-24.371-5.198-42.789-17.014-54.918-35.219c-12.291-18.223-17.006-43.766-14.248-76.464
	c2.643-31.678,12.324-54.666,28.793-69.164c16.484-14.334,39.279-18.384,68.42-12.17c8.115,1.727,14.611,3.459,19.852,5.428
	c5.037,1.936,10.027,4.54,15.168,7.695l6.338-75.497l50.656,10.802l-16.338,194.819C754.768,322.511,753.895,332.965,753.365,343.49
	z M704.734,304.289l6.594-78.693c-3.502-3.494-7.361-6.547-11.484-8.801c-4.32-2.295-10.082-4.209-16.973-5.667
	c-14.289-3.054-25.449-0.806-33.264,6.96c-8.012,7.555-12.879,22.646-14.742,44.896c-1.334,15.847,0.422,29.247,5.449,40.104
	c5.182,10.887,13.957,17.725,26.66,20.438c9.885,2.109,17.852,1.581,24.061-1.909C697.07,318.281,701.684,312.574,704.734,304.289
	 M161.073,291.658l-25.453-22.731l63.849-23.736l25.44,22.726L161.073,291.658z M90.673,334.265l44.947-65.338l63.849-23.736
	l-44.951,65.342 M126.802,273.191c-5.619,8.174-8.744,15.016-9.413,20.338c-0.594,5.25,1.875,10.41,7.371,15.315
	c4.781,4.276,9.773,6.36,14.986,6.282c3.183-0.108,6.216-0.669,9.129-1.76c-19.143,7.123-44.676,16.623-63.834,23.742
	c-2.916,1.09-5.947,1.649-9.13,1.758c-5.211,0.078-10.205-2.004-14.997-6.291c-5.494-4.903-7.952-10.057-7.359-15.305
	c0.67-5.323,3.784-12.174,9.413-20.339 M154.518,310.533c-1.837,1.188-3.714,2.126-5.643,2.833l-63.834,23.741
	c1.917-0.715,3.793-1.654,5.631-2.842 M62.967,296.931l39.574-57.549l63.846-23.732l-39.585,57.541 M102.541,239.382l-25.442-22.72
	l63.834-23.741l25.454,22.729L102.541,239.382z M33.792,279.621l43.307-62.959l63.834-23.741L97.627,255.88 M22.279,301.339
	c2.182-6.492,6.019-13.736,11.512-21.719 M86.114,277.599c-2.316,6.529-3.115,12.473-2.699,17.882
	c0.427,5.419,2.193,10.548,5.146,15.415 M88.561,310.897c3.014,4.771,6.945,9.454,11.907,13.89
	c7.279,6.498,14.854,10.447,22.454,11.898c7.65,1.353,14.726,0.854,21.275-1.59l-63.835,23.739
	c-6.56,2.435-13.627,2.943-21.284,1.583c-7.596-1.437-15.167-5.393-22.445-11.891c-4.963-4.435-8.894-9.119-11.909-13.889
	 M81.159,359.548l-0.795-0.714l63.834-23.739l0.797,0.715 M144.995,335.81l-5.765,19.004l-63.834,23.742l5.763-19.008
	 M75.396,378.556l63.834-23.742l19.144,17.096l-63.837,23.738L75.396,378.556z M165.959,355.27
	c-3.122,5.806-5.67,11.378-7.585,16.64l-63.835,23.738c1.915-5.26,4.453-10.838,7.575-16.647 M176.431,338.4
	c-3.794,5.508-7.259,11.145-10.473,16.87 M112.586,362.131l48.487-70.473l63.836-23.741L176.431,338.4 M224.909,267.917
	l-48.478,70.484c-3.794,5.506-7.259,11.143-10.473,16.869c-3.121,5.807-5.67,11.378-7.585,16.639l-19.143-17.096l5.763-19.004
	l-0.796-0.715c-6.549,2.443-13.625,2.942-21.275,1.59c-7.6-1.449-15.175-5.4-22.454-11.898c-4.962-4.434-8.893-9.118-11.907-13.889
	c-2.952-4.867-4.719-9.996-5.146-15.416c-0.415-5.408,0.384-11.352,2.699-17.881c2.183-6.496,6.017-13.737,11.512-21.72
	l43.307-62.959l25.453,22.728L126.8,273.192c-5.618,8.173-8.742,15.015-9.413,20.339c-0.592,5.248,1.875,10.408,7.371,15.314
	c4.783,4.275,9.774,6.359,14.987,6.283c5.281-0.186,10.136-1.616,14.772-4.594l44.951-65.342L224.909,267.917L224.909,267.917z
	 M161.073,291.658l-48.486,70.474c-3.783,5.517-7.25,11.153-10.473,16.869c-3.122,5.808-5.661,11.388-7.575,16.647l-19.143-17.094
	l5.765-19.006l-0.797-0.715c-6.561,2.435-13.628,2.943-21.285,1.584c-7.597-1.438-15.167-5.393-22.445-11.893
	c-4.962-4.433-8.894-9.119-11.909-13.888c-2.952-4.867-4.721-9.997-5.146-15.417c-0.425-5.416,0.374-11.359,2.701-17.881
	c2.182-6.492,6.019-13.736,11.512-21.719L77.1,216.66l25.442,22.721L62.968,296.93c-5.629,8.164-8.743,15.016-9.413,20.339
	c-0.593,5.249,1.866,10.401,7.359,15.306c4.792,4.285,9.785,6.369,14.997,6.291c5.28-0.184,10.136-1.617,14.761-4.602l44.948-65.338
	L161.073,291.658L161.073,291.658z M198.359,61.651l-35.87-1.502l34.295-58.843l35.872,1.502L198.359,61.651z M162.489,60.149
	l34.295-58.843L211.3,172.677l-34.295,58.84L162.489,60.149z M177.005,231.517l34.295-58.84l116.041,4.868l-34.294,58.841
	L177.005,231.517z M293.047,236.386l-2.538-29.854l34.31-58.841l2.522,29.854L293.047,236.386z M290.509,206.532l-80.17-3.366
	l34.296-58.842l80.184,3.367L290.509,206.532z M210.339,203.166l-11.98-141.515l34.297-58.843l11.979,141.516L210.339,203.166z
	 M324.819,147.691l2.522,29.854L211.3,172.677L196.784,1.306l35.872,1.502l11.979,141.516L324.819,147.691z M290.509,206.532
	l2.538,29.854l-116.042-4.869L162.489,60.149l35.87,1.502l11.98,141.515L290.509,206.532z M515.85,331.931
	c0.562,0.021,1.176,0.086,1.824,0.151c0.65,0.063,1.254,0.089,1.867,0.152c0.607,0.063,1.053,0.081,1.334,0.093
	c3.475,0.145,6.256-0.303,8.463-1.336c2.209-1.041,3.896-2.473,5.072-4.303c0.098-0.158,0.197-0.32,0.291-0.484
	c-3.5,6.008-8.17,14.01-11.664,20.018c-0.098,0.164-0.195,0.324-0.297,0.484c-1.174,1.829-2.861,3.262-5.07,4.301
	c-2.207,1.035-4.986,1.482-8.461,1.336c-0.283-0.01-0.729-0.027-1.338-0.092c-0.609-0.062-1.217-0.089-1.865-0.152
	c-0.65-0.065-1.258-0.129-1.824-0.152 M536.645,320.272c-0.291,2.223-0.936,4.208-1.943,5.933l-11.664,20.018
	c1.002-1.723,1.648-3.713,1.938-5.932 M504.182,351.947c-0.57-0.062-0.977-0.115-1.227-0.203c3.5-6.004,8.17-14.012,11.67-20.017
	c0.248,0.087,0.656,0.14,1.225,0.204 M502.955,351.744l-3.303-39.042l11.664-20.017l3.309,39.042L502.955,351.744z M502.617,312.563
	c-1.326,0.021-2.33,0.056-2.965,0.139l11.664-20.017c0.639-0.085,1.643-0.119,2.971-0.139 M514.287,292.546
	c1.33,0.02,2.658,0.035,3.953,0.091c3.391,0.142,6.229,0.827,8.51,2.087c2.32,1.266,4.188,2.85,5.592,4.714
	c1.451,1.903,2.516,4.019,3.154,6.341c0.682,2.321,1.115,4.597,1.311,6.903c0.219,2.603,0.152,5.12-0.162,7.591 M535.279,321.233
	c-1.436-3.635-3.477-6.844-6.162-9.554c-2.645-2.703-6.012-4.881-10.051-6.477c-4.041-1.602-8.83-2.515-14.324-2.746
	c-1.252-0.054-2.668-0.111-4.24-0.138c-1.574-0.03-3.184-0.062-4.84-0.093 M495.662,302.226c-1.689,0.006-3.297,0.015-4.865,0.061
	c-1.566,0.048-2.971,0.102-4.168,0.24c3.502-6.006,8.17-14.013,11.668-20.018c1.195-0.138,2.602-0.192,4.17-0.24
	c1.566-0.045,3.176-0.054,4.865-0.059 M486.629,302.527l11.668-20.018l4.945,58.373l-11.67,20.018L486.629,302.527z
	 M499.941,361.775c-1.705-0.145-3.326-0.289-4.869-0.428c-1.582-0.144-2.723-0.303-3.5-0.447l11.67-20.018
	c0.775,0.145,1.916,0.303,3.5,0.447c1.543,0.139,3.164,0.283,4.867,0.43 M504.852,362.207c-1.586-0.142-3.205-0.246-4.91-0.432
	 M546.945,301.216c1.439,3.67,2.342,7.66,2.709,12.002c0.334,3.926,0.092,7.715-0.648,11.334c-0.529,2.447-1.389,4.693-2.578,6.734
	c-3.502,6.006-8.17,14.012-11.668,20.018c1.189-2.043,2.051-4.287,2.574-6.736c0.742-3.618,0.984-7.406,0.654-11.333
	c-0.369-4.344-1.271-8.329-2.709-12.002 M516.518,342.191c1.578,0.104,2.834,0.193,3.805,0.233
	c5.98,0.252,10.957-0.407,14.895-1.933c3.895-1.568,7.014-3.694,9.277-6.421c0.723-0.882,1.365-1.81,1.932-2.784l-11.668,20.018
	c-0.568,0.974-1.211,1.903-1.93,2.783c-2.266,2.728-5.385,4.854-9.281,6.42c-3.938,1.526-8.914,2.186-14.893,1.934
	c-0.971-0.041-2.225-0.129-3.803-0.234 M546.945,301.216c1.439,3.67,2.342,7.66,2.709,12.002c0.334,3.926,0.092,7.715-0.648,11.334
	c-0.781,3.619-2.283,6.789-4.51,9.519c-2.264,2.727-5.385,4.853-9.279,6.421c-3.936,1.525-8.912,2.185-14.895,1.933
	c-0.969-0.04-2.225-0.129-3.803-0.233c-1.586-0.144-3.203-0.249-4.908-0.432c-1.705-0.146-3.324-0.293-4.865-0.43
	c-1.586-0.145-2.727-0.303-3.504-0.447l-4.943-58.373c1.195-0.138,2.602-0.193,4.168-0.24c1.568-0.045,3.176-0.054,4.865-0.059
	c1.654,0.029,3.266,0.061,4.84,0.09c1.572,0.027,2.986,0.088,4.234,0.139c5.498,0.232,10.289,1.145,14.33,2.745
	c4.037,1.599,7.404,3.773,10.049,6.478C543.469,294.371,545.514,297.582,546.945,301.216L546.945,301.216z M536.645,320.272
	c0.314-2.47,0.381-4.988,0.162-7.591c-0.195-2.306-0.629-4.582-1.311-6.904c-0.639-2.32-1.703-4.436-3.154-6.34
	c-1.404-1.865-3.271-3.447-5.592-4.713c-2.281-1.262-5.119-1.945-8.51-2.088c-1.295-0.056-2.623-0.07-3.953-0.091
	c-1.326,0.02-2.332,0.055-2.971,0.139l3.309,39.042c0.248,0.088,0.656,0.139,1.225,0.203c0.564,0.021,1.176,0.088,1.826,0.152
	c0.648,0.062,1.252,0.088,1.865,0.152c0.607,0.062,1.053,0.081,1.334,0.094c3.475,0.143,6.256-0.303,8.463-1.338
	c2.209-1.04,3.896-2.473,5.072-4.302C535.584,324.855,536.324,322.705,536.645,320.272 M535.279,321.233
	c1.438,3.673,2.34,7.658,2.709,12.002c0.33,3.927,0.088,7.715-0.654,11.333c-0.779,3.619-2.281,6.79-4.504,9.52
	c-2.268,2.728-5.387,4.854-9.281,6.42c-3.939,1.526-8.914,2.186-14.893,1.934c-0.973-0.041-2.227-0.129-3.805-0.234
	c-1.584-0.142-3.205-0.246-4.91-0.432c-1.705-0.145-3.324-0.289-4.869-0.428c-1.58-0.144-2.723-0.303-3.5-0.447l-4.943-58.373
	c1.197-0.138,2.602-0.192,4.168-0.24c1.568-0.047,3.176-0.055,4.865-0.061c1.656,0.031,3.266,0.062,4.84,0.093
	c1.572,0.026,2.988,0.085,4.24,0.138c5.494,0.231,10.283,1.145,14.324,2.746c4.039,1.596,7.406,3.773,10.051,6.477
	C531.801,314.389,533.844,317.599,535.279,321.233L535.279,321.233z M524.975,340.291c0.316-2.473,0.385-4.99,0.164-7.594
	c-0.195-2.306-0.631-4.581-1.309-6.902c-0.641-2.322-1.703-4.436-3.154-6.342c-1.406-1.865-3.27-3.446-5.596-4.713
	c-2.277-1.26-5.113-1.943-8.508-2.088c-1.291-0.055-2.623-0.068-3.953-0.09c-1.326,0.021-2.332,0.055-2.967,0.139l3.305,39.043
	c0.25,0.086,0.656,0.139,1.225,0.201c0.568,0.023,1.176,0.088,1.826,0.152c0.648,0.064,1.256,0.09,1.863,0.153
	c0.611,0.063,1.055,0.081,1.34,0.093c3.475,0.145,6.254-0.302,8.461-1.338c2.207-1.039,3.896-2.473,5.07-4.301
	C523.914,344.875,524.658,342.722,524.975,340.291 M366.101,318.664l-8.253-19.741l71.326-34.783l8.248,19.736 M357.848,298.923
	l71.326-34.783l17.916-0.314l-71.327,34.786L357.848,298.923z M375.763,298.612l71.327-34.786l55.926-25.942l-71.327,34.784
	L375.763,298.612z M431.689,272.668l-35.33-25.825l71.329-34.787l35.328,25.828L431.689,272.668z M396.359,246.843l71.329-34.787
	l-55.632,29.352l-71.323,34.791L396.359,246.843z M340.733,276.199l-9.322-1.873l71.327-34.785l9.318,1.867L340.733,276.199z
	 M331.411,274.326l57.179-103.482l71.322-34.79l-57.174,103.487L331.411,274.326z M388.59,170.844l-32.094-23.459l71.32-34.788
	l32.096,23.457L388.59,170.844z M356.496,147.385l71.32-34.788l-96.903,175.395l-71.329,34.785L356.496,147.385z M259.584,322.777
	l71.329-34.785l32.094,23.458l-71.328,34.784L259.584,322.777z M291.679,346.234l28.687-51.912l71.318-34.787l-28.677,51.915
	L291.679,346.234z M320.366,294.322l71.318-34.787l8.615,6.291l-71.331,34.792L320.366,294.322z M328.968,300.618l71.331-34.792
	l1.398,73.9l-71.329,34.785L328.968,300.618z M330.368,374.511l71.329-34.785l36.678,26.805l-71.32,34.789L330.368,374.511z
	 M437.422,283.876l0.953,82.655l-71.32,34.789l-0.954-82.656 M401.697,339.726l-1.398-73.9l-8.615-6.291l-28.677,51.915
	l-32.094-23.458l96.903-175.395l32.096,23.457l-57.174,103.487l9.318,1.867l55.632-29.352l35.328,25.828l-55.926,25.942
	l-17.916,0.314l8.248,19.736l0.953,82.655L401.697,339.726z M330.368,374.511l-1.4-73.893l-8.602-6.296l-28.687,51.912
	l-32.095-23.457l96.912-175.392l32.094,23.459l-57.179,103.482l9.322,1.873l55.626-29.356l35.33,25.825l-55.926,25.944
	l-17.915,0.311l8.253,19.741l0.954,82.656L330.368,374.511z M106.903,69.991L89.471,87.675L51.76,109.679l17.433-17.685
	 M69.193,91.994l10.245-13.978l37.713-22.003l-10.248,13.978 M80.152,78.458l-0.714-0.442l37.713-22.003l0.712,0.442 M75.981,96.053
	l4.171-17.595 M113.695,74.051l-2.875,26.92l-37.716,22.001l2.877-26.919 M73.104,122.972L51.76,109.679l37.711-22.004
	l21.349,13.296L73.104,122.972z M98.902,58.088l-14.428-8.983l37.715-22.001l14.429,8.981L98.902,58.088z M84.474,49.105
	l37.715-22.001l-82.306,78.521L2.171,127.629L84.474,49.105z M2.171,127.629l37.712-22.004l19.536,12.16l-37.711,22.007
	L2.171,127.629z M21.708,139.792l17.762-17.484l37.714-22.002l-17.765,17.479L21.708,139.792z M39.47,122.308l37.714-22.002
	l30.729,19.127l-37.711,22.004L39.47,122.308z M70.202,141.437l37.711-22.004l-2.233,27.149l-37.712,22.003L70.202,141.437z
	 M67.968,168.585l37.712-22.003l20.576,12.808l-37.712,22.005L67.968,168.585z M88.544,181.395L98.902,58.088l37.716-22.003
	L126.256,159.39L88.544,181.395z M136.618,36.085L126.256,159.39l-20.578-12.808l2.234-27.149l-30.729-19.126l-17.765,17.48
	l-19.537-12.161l82.307-78.52L136.618,36.085L136.618,36.085z M89.471,87.675l21.349,13.295l2.875-26.92l4.168-17.596l-0.714-0.443
	L106.903,69.99L89.471,87.675 M98.902,58.088L88.544,181.395l-20.577-12.808l2.234-27.149l-30.731-19.13l-17.762,17.484
	L2.171,127.629l82.302-78.524L98.902,58.088z M51.76,109.679l21.344,13.292l2.875-26.918l4.172-17.595l-0.714-0.441L69.193,91.994
	L51.76,109.679 M535.709,182.167c-0.291,0.318-0.59,0.628-0.887,0.914l38.158-42.434c0.307-0.286,0.6-0.596,0.887-0.913
	C562.42,152.459,547.162,169.441,535.709,182.167L535.709,182.167z M573.867,139.733l-38.158,42.433
	c4.012-4.464,6.74-11.989,8.021-22.621c2.363-19.557-2.832-30.887-15.494-34.07c-5.115-1.29-9.424-1.036-12.914,0.656
	c-1.889,0.922-3.592,2.249-5.123,3.955l38.162-42.433c1.533-1.706,3.238-3.032,5.127-3.955c3.486-1.692,7.793-1.947,12.912-0.656
	c12.66,3.183,17.857,14.514,15.494,34.071C580.615,127.744,577.887,135.271,573.867,139.733z M510.746,108.845l-0.875-0.216
	l38.164-42.433l0.869,0.214 M509.871,108.629l5.926-49.018l38.158-42.434l-5.92,49.019L509.871,108.629z M515.797,59.611
	l-27.727-6.98l38.16-42.432l27.725,6.978L515.797,59.611z M488.07,52.631l38.16-42.432L509.498,148.73l-38.164,42.433L488.07,52.631
	z M604.982,82.533c5.748,10.135,7.592,23.68,5.512,40.917c-1.715,14.205-5.951,25.084-12.703,32.593
	c-11.451,12.73-26.717,29.706-38.166,42.434c6.752-7.51,10.99-18.389,12.705-32.596c2.086-17.235,0.236-30.779-5.512-40.917
	 M597.791,156.043l-38.166,42.434c-1.967,2.188-4.152,4.097-6.551,5.713c-10.525,7.187-24.045,8.655-40.559,4.501
	c-9.08-2.292-17.307-5.027-24.67-8.406c-7.363-3.285-12.869-6.303-16.512-9.121l38.164-42.433c3.639,2.818,9.145,5.835,16.512,9.122
	c7.357,3.377,15.592,6.117,24.668,8.405c16.518,4.153,30.035,2.686,40.555-4.501C593.633,160.139,595.816,158.232,597.791,156.043
	L597.791,156.043z M604.982,82.533c5.748,10.135,7.592,23.68,5.512,40.917c-2.215,18.347-8.637,31.144-19.26,38.304
	c-10.521,7.187-24.039,8.655-40.555,4.501c-9.078-2.289-17.312-5.028-24.668-8.404c-7.369-3.286-12.873-6.304-16.512-9.122
	l16.732-138.532l27.723,6.978l-5.92,49.019l0.869,0.215c3.387-2.486,7.562-4.112,12.432-4.888
	c4.957-0.663,10.189-0.302,15.893,1.134C590.072,65.893,599.332,72.514,604.982,82.533L604.982,82.533z M572.98,140.646
	c4.502-4.311,7.537-12.139,8.916-23.532c2.361-19.557-2.834-30.888-15.494-34.071c-5.121-1.291-9.428-1.036-12.914,0.656
	c-3.498,1.704-6.357,4.801-8.666,9.088l-5.381,44.57c2.184,1.693,4.508,3.05,7.072,4.074c2.648,1.143,5.424,2.029,8.324,2.762
	C562.369,146.089,568.492,144.864,572.98,140.646 M566.818,124.966c5.746,10.137,7.598,23.681,5.512,40.917
	c-2.215,18.348-8.639,31.146-19.258,38.307c-10.523,7.187-24.043,8.655-40.559,4.501c-9.08-2.292-17.307-5.027-24.668-8.406
	c-7.363-3.285-12.869-6.303-16.512-9.121l16.734-138.532l27.727,6.98l-5.926,49.018l0.875,0.215
	c3.379-2.488,7.557-4.11,12.432-4.889c4.955-0.662,10.191-0.301,15.891,1.136C551.91,108.327,561.166,114.947,566.818,124.966z
	 M534.822,183.08c4.498-4.311,7.531-12.138,8.908-23.534c2.363-19.557-2.832-30.887-15.494-34.07
	c-5.115-1.29-9.424-1.036-12.914,0.656c-3.492,1.704-6.357,4.8-8.664,9.088l-5.379,44.571c2.18,1.692,4.504,3.049,7.068,4.072
	c2.65,1.145,5.426,2.027,8.324,2.763C524.211,188.524,530.326,187.297,534.822,183.08"/>
</svg>
