<?xml version="1.0" encoding="utf-8"?>
<!-- Generator: Adobe Illustrator 17.0.2, SVG Export Plug-In . SVG Version: 6.00 Build 0)  -->
<!DOCTYPE svg PUBLIC "-//W3C//DTD SVG 1.1//EN" "http://www.w3.org/Graphics/SVG/1.1/DTD/svg11.dtd">
<svg xmlns="http://www.w3.org/2000/svg" width="22" height="18" viewBox="0 0 22 18">
    <path d="M5.15,17.68A.8.8,0,0,0,5,16.52L2.94,14.24a23.36,23.36,0,0,0,11.63-3,16,16,0,0,0,6.16-6.6A13.11,13.11,0,0,0,22,.92.82.82,0,0,0,21.25,0a.89.89,0,0,0-.57.12.83.83,0,0,0-.4.6,11.9,11.9,0,0,1-1.2,3.39,14.31,14.31,0,0,1-5.42,5.73A21.58,21.58,0,0,1,2.87,12.59l1.33-2A.8.8,0,0,0,4,9.44a.9.9,0,0,0-1,0,.87.87,0,0,0-.23.2L.18,13.25A.8.8,0,0,0,.33,14.4l3.61,3.43a.89.89,0,0,0,1.21-.15Z" stroke="white" fill="white" stroke-width="1"></path>
</svg>