<?xml version="1.0" encoding="utf-8"?>
<!-- Generator: Adobe Illustrator 17.0.2, SVG Export Plug-In . SVG Version: 6.00 Build 0)  -->
<!DOCTYPE svg PUBLIC "-//W3C//DTD SVG 1.1//EN" "http://www.w3.org/Graphics/SVG/1.1/DTD/svg11.dtd">
<svg version="1.1" id="Calque_1" xmlns="http://www.w3.org/2000/svg" xmlns:xlink="http://www.w3.org/1999/xlink" x="0px" y="0px"
	 width="1787.594px" height="710.55px" viewBox="59.454 35.367 1787.594 710.55"
	 enable-background="new 59.454 35.367 1787.594 710.55" xml:space="preserve">
<g opacity="0.5">
	<g opacity="0.05">
		<path fill="#FFFFFF" d="M1151.098,213.256c5.005,13.373-1.777,28.27-15.148,33.275L753.398,389.725
			c-13.371,5.004-28.27-1.777-33.275-15.15l0,0c-5.006-13.374,1.778-28.27,15.149-33.275l382.551-143.194
			C1131.194,193.101,1146.091,199.882,1151.098,213.256L1151.098,213.256z"/>
		<path fill="#49E4A9" d="M1004.228,268.231c5.006,13.372-1.778,28.27-15.15,33.275l-235.68,88.218
			c-13.371,5.004-28.27-1.777-33.275-15.15l0,0c-5.006-13.374,1.778-28.27,15.149-33.275l235.68-88.218
			C984.324,248.076,999.223,254.857,1004.228,268.231L1004.228,268.231z"/>
		<circle fill="#329B70" cx="975.772" cy="278.883" r="13.875"/>
		<polygon fill="#333333" points="1020.813,269.834 1015.401,255.658 1025.544,259.868 		"/>
		<polygon fill="#808080" points="1032.227,265.562 1026.817,251.385 1036.96,255.595 		"/>
		<polygon fill="#B3B3B3" points="1043.643,261.288 1038.233,247.112 1048.376,251.322 		"/>
		<polygon fill="#333333" points="936.35,285.827 941.762,300.003 931.619,295.793 		"/>
		<polygon fill="#808080" points="924.934,290.099 930.346,304.276 920.203,300.065 		"/>
		<polygon fill="#B3B3B3" points="913.518,294.373 918.93,308.549 908.787,304.339 		"/>
	</g>
	<g opacity="0.3">
		<path fill="#FFFFFF" d="M900.698,224.76c-2.752,6.704-10.416,9.907-17.119,7.156L691.805,153.2
			c-6.703-2.751-9.907-10.416-7.155-17.12l0,0c2.752-6.704,10.417-9.907,17.12-7.155l191.774,78.715
			C900.245,210.391,903.449,218.055,900.698,224.76L900.698,224.76z"/>
		<path fill="#fc5454" d="M827.072,194.54c-2.752,6.703-10.417,9.906-17.12,7.155L691.805,153.2
			c-6.703-2.751-9.907-10.416-7.155-17.12l0,0c2.752-6.704,10.417-9.907,17.12-7.155l118.147,48.495
			C826.62,180.171,829.824,187.835,827.072,194.54L827.072,194.54z"/>
		<circle fill="#EA5F57" cx="812.807" cy="188.684" r="7.042"/>
		<polygon fill="#333333" points="832.691,200.859 835.568,193.716 837.891,198.783 		"/>
		<polygon fill="#808080" points="838.413,203.207 841.291,196.065 843.613,201.131 		"/>
		<polygon fill="#B3B3B3" points="844.136,205.557 847.014,198.414 849.336,203.48 		"/>
		<polygon fill="#333333" points="795.739,177.665 792.862,184.808 790.54,179.741 		"/>
		<polygon fill="#808080" points="790.017,175.317 787.14,182.459 784.817,177.392 		"/>
		<polygon fill="#B3B3B3" points="784.294,172.967 781.417,180.11 779.095,175.043 		"/>
	</g>
	<g opacity="0.7">
		<path fill="#FFFFFF" d="M1282.469,189.998c-5.815-4.324-7.023-12.542-2.7-18.357l123.697-166.35
			c4.324-5.814,12.543-7.023,18.357-2.7l0,0c5.815,4.325,7.023,12.544,2.7,18.358l-123.697,166.35
			C1296.503,193.113,1288.284,194.323,1282.469,189.998L1282.469,189.998z"/>
		<path fill="#49E4A9" d="M1329.958,126.134c-5.815-4.324-7.023-12.543-2.699-18.358l76.207-102.484
			c4.324-5.814,12.543-7.023,18.357-2.7l0,0c5.815,4.325,7.023,12.544,2.7,18.358l-76.207,102.484
			C1343.992,129.249,1335.774,130.458,1329.958,126.134L1329.958,126.134z"/>
		<circle fill="#329B70" cx="1339.16" cy="113.759" r="7.042"/>
		<polygon fill="#333333" points="1322.445,130.015 1328.654,134.57 1323.171,135.567 		"/>
		<polygon fill="#808080" points="1318.755,134.978 1324.964,139.533 1319.48,140.531 		"/>
		<polygon fill="#B3B3B3" points="1315.063,139.942 1321.272,144.498 1315.789,145.495 		"/>
		<polygon fill="#333333" points="1354.057,99.948 1347.848,95.393 1353.33,94.397 		"/>
		<polygon fill="#808080" points="1357.748,94.983 1351.538,90.429 1357.022,89.432 		"/>
		<polygon fill="#B3B3B3" points="1361.439,90.02 1355.229,85.465 1360.714,84.469 		"/>
	</g>
	<g opacity="0.7">
		<path fill="#FFFFFF" d="M1636.45,311.492c-5.816-4.324-7.024-12.542-2.7-18.357l123.697-166.35
			c4.324-5.814,12.543-7.023,18.358-2.7l0,0c5.815,4.325,7.023,12.543,2.7,18.357l-123.697,166.35
			C1650.484,314.607,1642.266,315.817,1636.45,311.492L1636.45,311.492z"/>
		<path fill="#49E4A9" d="M1683.939,247.628c-5.814-4.324-7.022-12.544-2.699-18.358l76.207-102.484
			c4.324-5.814,12.543-7.023,18.358-2.7l0,0c5.815,4.325,7.023,12.543,2.7,18.357l-76.207,102.484
			C1697.974,250.743,1689.756,251.952,1683.939,247.628L1683.939,247.628z"/>
		<circle fill="#329B70" cx="1693.141" cy="235.253" r="7.042"/>
		<polygon fill="#333333" points="1676.427,251.509 1682.636,256.064 1677.152,257.061 		"/>
		<polygon fill="#808080" points="1672.736,256.472 1678.945,261.027 1673.462,262.025 		"/>
		<polygon fill="#B3B3B3" points="1669.045,261.436 1675.254,265.992 1669.771,266.99 		"/>
		<polygon fill="#333333" points="1708.038,221.442 1701.829,216.887 1707.312,215.891 		"/>
		<polygon fill="#808080" points="1711.729,216.477 1705.52,211.923 1711.004,210.927 		"/>
		<polygon fill="#B3B3B3" points="1715.421,211.514 1709.211,206.959 1714.695,205.963 		"/>
	</g>
	<g opacity="0.1">
		<path fill="#FFFFFF" d="M1104.805,331.331c4.076-2.466,9.378-1.159,11.844,2.917l70.516,116.617
			c2.464,4.074,1.158,9.377-2.917,11.844l0,0c-4.077,2.464-9.38,1.156-11.845-2.919l-70.516-116.615
			C1099.422,339.099,1100.729,333.797,1104.805,331.331L1104.805,331.331z"/>
		<path fill="#fc5454" d="M1131.877,376.103c4.076-2.465,9.379-1.158,11.845,2.917l43.442,71.846
			c2.464,4.074,1.158,9.377-2.917,11.844l0,0c-4.077,2.464-9.38,1.156-11.845-2.919l-43.443-71.844
			C1126.494,383.869,1127.801,378.568,1131.877,376.103L1131.877,376.103z"/>
		<circle fill="#EA5F57" cx="1137.123" cy="384.776" r="4.629"/>
		<polygon fill="#333333" points="1131.382,370.565 1127.067,373.212 1127.821,369.628 		"/>
		<polygon fill="#808080" points="1129.278,367.085 1124.963,369.734 1125.718,366.15 		"/>
		<polygon fill="#B3B3B3" points="1127.173,363.606 1122.857,366.253 1123.613,362.668 		"/>
		<polygon fill="#333333" points="1141.827,397.276 1146.143,394.627 1145.387,398.213 		"/>
		<polygon fill="#808080" points="1143.933,400.755 1148.247,398.107 1147.491,401.692 		"/>
		<polygon fill="#B3B3B3" points="1146.036,404.236 1150.351,401.587 1149.596,405.173 		"/>
	</g>
	<g opacity="0.3">
		<path fill="#FFFFFF" d="M1642.471,424.737c-1.066,2.844-4.238,4.282-7.081,3.214l-81.329-30.555
			c-2.843-1.067-4.281-4.238-3.215-7.081l0,0c1.069-2.843,4.24-4.28,7.082-3.214l81.329,30.555
			C1642.101,418.724,1643.539,421.894,1642.471,424.737L1642.471,424.737z"/>
		<path fill="#fc5454" d="M1611.246,413.006c-1.066,2.843-4.238,4.282-7.08,3.214l-50.106-18.824
			c-2.843-1.067-4.281-4.238-3.215-7.081l0,0c1.069-2.843,4.24-4.28,7.082-3.214l50.105,18.824
			C1610.877,406.993,1612.314,410.163,1611.246,413.006L1611.246,413.006z"/>
		<circle fill="#EA5F57" cx="1605.197" cy="410.735" r="2.951"/>
		<polygon fill="#333333" points="1613.681,415.583 1614.796,412.556 1615.833,414.647 		"/>
		<polygon fill="#808080" points="1616.106,416.495 1617.223,413.467 1618.259,415.559 		"/>
		<polygon fill="#B3B3B3" points="1618.534,417.407 1619.649,414.378 1620.687,416.471 		"/>
		<polygon fill="#333333" points="1597.909,406.333 1596.793,409.363 1595.757,407.268 		"/>
		<polygon fill="#808080" points="1595.481,405.422 1594.366,408.45 1593.33,406.358 		"/>
		<polygon fill="#B3B3B3" points="1593.055,404.51 1591.939,407.539 1590.903,405.445 		"/>
	</g>
	<g opacity="0.5">
		<path fill="#FFFFFF" d="M419.003,246.276c4.805,2.913,6.336,9.167,3.425,13.972l-83.334,137.434
			c-2.912,4.804-9.167,6.337-13.973,3.425l0,0c-4.802-2.914-6.334-9.17-3.423-13.973L405.031,249.7
			C407.944,244.896,414.198,243.363,419.003,246.276L419.003,246.276z"/>
		<path fill="#fc5454" d="M387.01,299.04c4.803,2.913,6.337,9.168,3.425,13.972l-51.34,84.67c-2.912,4.804-9.167,6.337-13.973,3.425
			l0,0c-4.802-2.914-6.334-9.17-3.423-13.973l51.339-84.67C375.951,297.659,382.205,296.126,387.01,299.04L387.01,299.04z"/>
		<circle fill="#EA5F57" cx="380.813" cy="309.263" r="5.46"/>
		<polygon fill="#333333" points="392.526,295.494 387.401,292.432 391.56,291.262 		"/>
		<polygon fill="#808080" points="395.014,291.395 389.888,288.332 394.046,287.162 		"/>
		<polygon fill="#B3B3B3" points="397.499,287.292 392.373,284.23 396.533,283.06 		"/>
		<polygon fill="#333333" points="370.321,321.012 375.448,324.074 371.287,325.242 		"/>
		<polygon fill="#808080" points="367.835,325.113 372.961,328.174 368.801,329.344 		"/>
		<polygon fill="#B3B3B3" points="365.348,329.213 370.474,332.276 366.314,333.446 		"/>
	</g>
	<g opacity="0.3">
		<path fill="#FFFFFF" d="M870.122,504.663c2.672,1.619,3.523,5.097,1.905,7.769l-46.335,76.415
			c-1.619,2.672-5.097,3.523-7.77,1.905l0,0c-2.67-1.62-3.521-5.099-1.903-7.77l46.334-76.416
			C863.973,503.896,867.45,503.043,870.122,504.663L870.122,504.663z"/>
		<path fill="#49E4A9" d="M852.333,534c2.671,1.62,3.523,5.099,1.904,7.769l-28.546,47.078c-1.619,2.672-5.097,3.523-7.77,1.905l0,0
			c-2.67-1.62-3.521-5.099-1.903-7.77l28.545-47.078C846.184,533.233,849.662,532.381,852.333,534L852.333,534z"/>
		<circle fill="#329B70" cx="848.888" cy="539.685" r="3.036"/>
		<polygon fill="#333333" points="855.4,532.03 852.551,530.326 854.863,529.676 		"/>
		<polygon fill="#808080" points="856.784,529.75 853.934,528.047 856.246,527.397 		"/>
		<polygon fill="#B3B3B3" points="858.166,527.469 855.315,525.766 857.628,525.116 		"/>
		<polygon fill="#333333" points="843.054,546.217 845.905,547.919 843.591,548.571 		"/>
		<polygon fill="#808080" points="841.672,548.498 844.522,550.2 842.209,550.851 		"/>
		<polygon fill="#B3B3B3" points="840.289,550.778 843.139,552.481 840.826,553.131 		"/>
	</g>
	<g opacity="0.8">
		<path fill="#FFFFFF" d="M1758.957,782.313c-7.441,12.186-23.352,16.031-35.537,8.591l-348.612-212.883
			c-12.185-7.44-16.032-23.353-8.591-35.538l0,0c7.442-12.188,23.354-16.031,35.538-8.591l348.613,212.883
			C1762.553,754.215,1766.399,770.124,1758.957,782.313L1758.957,782.313z"/>
		<path fill="#49E4A9" d="M1625.117,700.583c-7.441,12.186-23.352,16.03-35.538,8.589l-214.771-131.151
			c-12.185-7.44-16.032-23.353-8.591-35.538l0,0c7.442-12.188,23.354-16.031,35.538-8.591l214.772,131.151
			C1628.712,672.486,1632.56,688.396,1625.117,700.583L1625.117,700.583z"/>
		<circle fill="#329B70" cx="1599.186" cy="684.747" r="13.875"/>
		<polygon fill="#333333" points="1634.082,714.628 1641.905,701.626 1644.845,712.207 		"/>
		<polygon fill="#808080" points="1644.483,720.98 1652.309,707.98 1655.248,718.56 		"/>
		<polygon fill="#B3B3B3" points="1654.887,727.332 1662.712,714.332 1665.651,724.912 		"/>
		<polygon fill="#333333" points="1569.41,657.991 1561.588,670.993 1558.648,660.412 		"/>
		<polygon fill="#808080" points="1559.009,651.64 1551.185,664.642 1548.246,654.06 		"/>
		<polygon fill="#B3B3B3" points="1548.605,645.287 1540.782,658.289 1537.843,647.707 		"/>
	</g>
	<g>
		<path fill="#FFFFFF" d="M1559.999,501.756c-1.788-10.556,5.32-20.561,15.876-22.35l301.988-51.138
			c10.555-1.787,20.562,5.32,22.35,15.876l0,0c1.788,10.558-5.321,20.563-15.876,22.351l-301.988,51.139
			C1571.793,519.421,1561.787,512.314,1559.999,501.756L1559.999,501.756z"/>
		<path fill="#49E4A9" d="M1675.938,482.123c-1.788-10.556,5.321-20.561,15.877-22.35l186.048-31.505
			c10.555-1.787,20.562,5.32,22.35,15.876l0,0c1.788,10.558-5.321,20.563-15.876,22.351l-186.048,31.506
			C1687.733,499.787,1677.726,492.681,1675.938,482.123L1675.938,482.123z"/>
		<circle fill="#329B70" cx="1698.402" cy="478.32" r="10.404"/>
		<polygon fill="#333333" points="1663.954,478.589 1665.928,489.795 1659.057,485.256 		"/>
		<polygon fill="#808080" points="1654.944,480.116 1656.915,491.321 1650.045,486.782 		"/>
		<polygon fill="#B3B3B3" points="1645.932,481.641 1647.903,492.847 1641.034,488.309 		"/>
		<polygon fill="#333333" points="1728.415,478.801 1726.441,467.596 1733.312,472.136 		"/>
		<polygon fill="#808080" points="1737.425,477.276 1735.452,466.07 1742.322,470.61 		"/>
		<polygon fill="#B3B3B3" points="1746.437,475.749 1744.464,464.543 1751.335,469.083 		"/>
	</g>
	<g opacity="0.1">
		<path fill="#FFFFFF" d="M1571.441,175.045c3.898,10.416-1.385,22.02-11.8,25.919l-297.988,111.541
			c-10.415,3.898-22.021-1.384-25.92-11.801l0,0c-3.899-10.417,1.386-22.021,11.802-25.92l297.987-111.54
			C1555.938,159.345,1567.541,164.627,1571.441,175.045L1571.441,175.045z"/>
		<path fill="#49E4A9" d="M1457.038,217.867c3.899,10.417-1.386,22.021-11.802,25.92l-183.583,68.717
			c-10.415,3.898-22.021-1.384-25.92-11.801l0,0c-3.899-10.417,1.386-22.021,11.802-25.92l183.582-68.717
			C1441.533,202.168,1453.139,207.45,1457.038,217.867L1457.038,217.867z"/>
		<circle fill="#329B70" cx="1434.872" cy="226.165" r="10.808"/>
		<polygon fill="#333333" points="1469.957,219.116 1465.741,208.074 1473.642,211.353 		"/>
		<polygon fill="#808080" points="1478.848,215.788 1474.633,204.745 1482.534,208.024 		"/>
		<polygon fill="#B3B3B3" points="1487.74,212.459 1483.525,201.417 1491.427,204.696 		"/>
		<polygon fill="#333333" points="1404.163,231.574 1408.379,242.616 1400.479,239.337 		"/>
		<polygon fill="#808080" points="1395.271,234.902 1399.487,245.945 1391.586,242.665 		"/>
		<polygon fill="#B3B3B3" points="1386.379,238.231 1390.596,249.273 1382.693,245.993 		"/>
	</g>
	<g opacity="0.05">
		<path fill="#FFFFFF" d="M746.656,326.349c5.598-10.236,18.434-13.997,28.669-8.399l292.839,160.153
			c10.236,5.597,13.997,18.433,8.399,28.67l0,0c-5.599,10.238-18.436,13.996-28.671,8.398L755.052,355.02
			C744.817,349.422,741.057,336.587,746.656,326.349L746.656,326.349z"/>
		<path fill="#49E4A9" d="M859.083,387.834c5.598-10.236,18.435-13.995,28.671-8.396l180.411,98.666
			c10.236,5.597,13.997,18.433,8.399,28.67l0,0c-5.599,10.238-18.436,13.996-28.671,8.398l-180.412-98.666
			C857.245,410.908,853.484,398.072,859.083,387.834L859.083,387.834z"/>
		<circle fill="#329B70" cx="880.866" cy="399.747" r="11.338"/>
		<polygon fill="#333333" points="851.218,376.721 845.34,387.638 842.528,379.116 		"/>
		<polygon fill="#808080" points="842.481,371.943 836.601,382.859 833.789,374.338 		"/>
		<polygon fill="#B3B3B3" points="833.742,367.163 827.862,378.079 825.05,369.558 		"/>
		<polygon fill="#333333" points="906.212,420.424 912.09,409.506 914.901,418.028 		"/>
		<polygon fill="#808080" points="914.949,425.202 920.828,414.285 923.64,422.807 		"/>
		<polygon fill="#B3B3B3" points="923.688,429.982 929.567,419.065 932.379,427.586 		"/>
	</g>
	<g opacity="0.6">
		<path fill="#FFFFFF" d="M533.277,107.454c4.469,11.94-1.587,25.243-13.526,29.712L178.16,265.028
			c-11.939,4.469-25.243-1.586-29.712-13.527l0,0c-4.471-11.942,1.588-25.243,13.527-29.712L503.566,93.926
			C515.505,89.457,528.807,95.512,533.277,107.454L533.277,107.454z"/>
		<path fill="#49E4A9" d="M402.134,156.543c4.47,11.94-1.588,25.243-13.528,29.712L178.16,265.028
			c-11.939,4.469-25.243-1.586-29.712-13.527l0,0c-4.471-11.942,1.588-25.243,13.527-29.712l210.446-78.772
			C384.36,138.546,397.663,144.601,402.134,156.543L402.134,156.543z"/>
		<circle fill="#329B70" cx="376.724" cy="166.054" r="12.389"/>
		<polygon fill="#333333" points="416.943,157.974 412.11,145.316 421.167,149.075 		"/>
		<polygon fill="#808080" points="427.135,154.159 422.304,141.501 431.36,145.26 		"/>
		<polygon fill="#B3B3B3" points="437.329,150.344 432.497,137.685 441.554,141.444 		"/>
		<polygon fill="#333333" points="341.522,172.255 346.355,184.913 337.299,181.154 		"/>
		<polygon fill="#808080" points="331.33,176.07 336.162,188.729 327.105,184.969 		"/>
		<polygon fill="#B3B3B3" points="321.136,179.886 325.968,192.544 316.911,188.784 		"/>
	</g>
	<g>
		<path fill="#FFFFFF" d="M442.117,599.62c-2.993,13.962-16.735,22.854-30.695,19.862L12.016,533.894
			c-13.96-2.991-22.854-16.734-19.862-30.696l0,0c2.992-13.963,16.736-22.853,30.696-19.862l399.405,85.588
			C436.216,571.916,445.108,585.657,442.117,599.62L442.117,599.62z"/>
		<path fill="#49E4A9" d="M288.777,566.762c-2.991,13.962-16.736,22.853-30.696,19.861L12.017,533.894
			c-13.96-2.991-22.854-16.734-19.862-30.696l0,0c2.992-13.963,16.736-22.853,30.696-19.862l246.063,52.729
			C282.875,539.057,291.769,552.799,288.777,566.762L288.777,566.762z"/>
		<circle fill="#329B70" cx="259.066" cy="560.395" r="13.875"/>
		<polygon fill="#333333" points="301.883,577.051 304.965,562.194 311.238,571.207 		"/>
		<polygon fill="#808080" points="313.799,579.605 316.884,564.747 323.157,573.76 		"/>
		<polygon fill="#B3B3B3" points="325.718,582.16 328.802,567.302 335.076,576.315 		"/>
		<polygon fill="#333333" points="222.117,544.995 219.036,559.852 212.762,550.839 		"/>
		<polygon fill="#808080" points="210.2,542.441 207.117,557.299 200.843,548.284 		"/>
		<polygon fill="#B3B3B3" points="198.282,539.886 195.198,554.743 188.924,545.73 		"/>
	</g>
	<g opacity="0.3">
		<path fill="#FFFFFF" d="M1513.851,292.101c11.624,13.872,9.802,34.537-4.067,46.16l-396.811,332.526
			c-13.869,11.623-34.535,9.804-46.16-4.068l0,0c-11.626-13.872-9.8-34.539,4.069-46.161l396.809-332.527
			C1481.562,276.408,1502.226,278.229,1513.851,292.101L1513.851,292.101z"/>
		<path fill="#49E4A9" d="M1361.51,419.765c11.623,13.87,9.801,34.538-4.07,46.161l-244.466,204.861
			c-13.869,11.623-34.535,9.804-46.16-4.068l0,0c-11.626-13.872-9.8-34.539,4.069-46.161l244.463-204.861
			C1329.217,404.073,1349.885,405.893,1361.51,419.765L1361.51,419.765z"/>
		<circle fill="#329B70" cx="1331.992" cy="444.5" r="17.585"/>
		<polygon fill="#333333" points="1382.008,414.684 1369.559,400.024 1383.457,400.777 		"/>
		<polygon fill="#808080" points="1393.847,404.764 1381.4,390.101 1395.299,390.854 		"/>
		<polygon fill="#B3B3B3" points="1405.688,394.84 1393.241,380.179 1407.141,380.932 		"/>
		<polygon fill="#333333" points="1287.803,469.431 1300.254,484.091 1286.354,483.337 		"/>
		<polygon fill="#808080" points="1275.964,479.353 1288.413,494.013 1274.514,493.259 		"/>
		<polygon fill="#B3B3B3" points="1264.122,489.277 1276.572,503.935 1262.672,503.183 		"/>
	</g>
	<g opacity="0.1">
		<path fill="#FFFFFF" d="M826.922,694.257c-9.703,10.476-26.059,11.102-36.535,1.401L490.7,418.102
			c-10.475-9.701-11.103-26.059-1.4-36.535l0,0c9.703-10.476,26.06-11.101,36.535-1.4l299.688,277.557
			C835.996,667.424,836.624,683.78,826.922,694.257L826.922,694.257z"/>
		<path fill="#49E4A9" d="M711.865,587.698c-9.702,10.477-26.059,11.102-36.535,1.4L490.7,418.102
			c-10.475-9.701-11.103-26.059-1.4-36.535l0,0c9.703-10.476,26.06-11.101,36.535-1.4l184.629,170.996
			C720.94,560.864,721.569,577.221,711.865,587.698L711.865,587.698z"/>
		<circle fill="#329B70" cx="689.572" cy="567.052" r="13.875"/>
		<polygon fill="#333333" points="717.878,603.237 728.116,592.037 728.907,602.991 		"/>
		<polygon fill="#808080" points="726.819,611.519 737.059,600.32 737.851,611.273 		"/>
		<polygon fill="#B3B3B3" points="735.763,619.801 746.002,608.603 746.793,619.556 		"/>
		<polygon fill="#333333" points="665.67,534.942 655.433,546.142 654.642,535.189 		"/>
		<polygon fill="#808080" points="656.728,526.659 646.489,537.86 645.699,526.906 		"/>
		<polygon fill="#B3B3B3" points="647.785,518.377 637.547,529.576 636.755,518.623 		"/>
	</g>
	<g opacity="0.1">
		<path fill="#FFFFFF" d="M718.735,464.158c-7.804,5.173-18.324,3.042-23.497-4.762L547.217,236.15
			c-5.174-7.803-3.043-18.324,4.761-23.498l0,0c7.805-5.175,18.324-3.042,23.498,4.761L723.497,440.66
			C728.671,448.462,726.54,458.982,718.735,464.158L718.735,464.158z"/>
		<path fill="#49E4A9" d="M661.907,378.449c-7.803,5.174-18.323,3.041-23.497-4.763L547.217,236.15
			c-5.174-7.803-3.043-18.324,4.761-23.498l0,0c7.805-5.175,18.324-3.042,23.498,4.761l91.192,137.536
			C671.842,362.753,669.711,373.273,661.907,378.449L661.907,378.449z"/>
		<circle fill="#329B70" cx="650.897" cy="361.842" r="9.099"/>
		<polygon fill="#333333" points="663.334,389.281 671.591,383.728 670.401,390.83 		"/>
		<polygon fill="#808080" points="667.75,395.942 676.008,390.39 674.818,397.492 		"/>
		<polygon fill="#B3B3B3" points="672.168,402.604 680.425,397.052 679.235,404.155 		"/>
		<polygon fill="#333333" points="640.634,337.681 632.377,343.234 633.567,336.132 		"/>
		<polygon fill="#808080" points="636.217,331.02 627.959,336.572 629.151,329.47 		"/>
		<polygon fill="#B3B3B3" points="631.8,324.357 623.542,329.91 624.733,322.808 		"/>
	</g>
</g>
</svg>
