<?xml version="1.0" encoding="utf-8"?>
<!-- Generator: Adobe Illustrator 16.0.0, SVG Export Plug-In . SVG Version: 6.00 Build 0)  -->
<!DOCTYPE svg PUBLIC "-//W3C//DTD SVG 1.1//EN" "http://www.w3.org/Graphics/SVG/1.1/DTD/svg11.dtd">
<svg version="1.1" id="Calque_1" xmlns="http://www.w3.org/2000/svg" xmlns:xlink="http://www.w3.org/1999/xlink" x="0px" y="0px"
	 width="344.167px" height="203.862px" viewBox="0 0 344.167 203.862" enable-background="new 0 0 344.167 203.862"
	 xml:space="preserve">
<g>
	<path d="M97.956,29.129c-7.239,0-14.424,1.498-21.578,4.492c-7.153,3.006-13.552,7.509-19.197,13.509
		c-5.645,6.001-10.191,13.596-13.627,22.764c-3.447,9.178-5.171,19.864-5.171,32.038c0,12.173,1.81,22.859,5.429,32.038
		c3.62,9.178,8.478,16.762,14.565,22.763c6.086,6,13.013,10.503,20.78,13.509c7.767,2.995,15.793,4.492,24.088,4.492
		c10.59,0,19.326-1.411,26.21-4.233c6.884-2.823,13.154-6.26,18.798-10.32v-45.009H87.367v-29.13h95.306v91.343
		c-11.29,7.939-23.344,14.338-36.132,19.196c-12.798,4.848-27.233,7.282-43.295,7.282c-16.234,0-30.756-2.779-43.543-8.338
		c-12.798-5.559-23.614-13.014-32.437-22.375c-8.823-9.351-15.577-20.166-20.253-32.437C2.337,128.454,0,115.526,0,101.932
		C0,88.347,2.251,75.42,6.744,63.149c4.503-12.271,10.988-23.075,19.466-32.437c8.467-9.351,18.745-16.816,30.842-22.375
		C69.139,2.779,82.777,0,97.956,0c18.702,0,34.947,3.932,48.714,11.785s24.799,18.228,33.094,31.111l-26.21,21.966
		c-7.412-12.701-15.534-21.836-24.357-27.396C120.363,31.908,109.957,29.129,97.956,29.129z"/>
	<path d="M205.177,201.213c0-7.939,0.657-15.309,1.982-22.105c1.325-6.798,3.889-13.412,7.681-19.854s9.038-12.884,15.75-19.326
		s15.448-13.369,26.21-20.792c9.178-6.345,16.859-11.946,23.032-16.805c6.184-4.858,11.074-9.438,14.693-13.768
		c3.62-4.32,6.184-8.693,7.682-13.11c1.497-4.406,2.251-9.265,2.251-14.555c0-4.944-0.841-9.404-2.51-13.368
		c-1.681-3.976-3.976-7.326-6.884-10.062c-2.92-2.736-6.312-4.805-10.201-6.227c-3.879-1.411-7.94-2.111-12.174-2.111
		c-4.234,0-8.295,0.7-12.184,2.111c-3.878,1.422-7.271,3.447-10.191,6.087c-2.909,2.65-5.203,5.871-6.884,9.663
		c-1.681,3.803-2.51,7.993-2.51,12.583c0,4.589,0.7,8.693,2.112,12.312c1.411,3.62,3.803,7.455,7.153,11.517l-31.769,15.879
		c-4.062-6.001-7.067-12.13-9.006-18.4c-1.939-6.259-2.908-13.368-2.908-21.308s1.583-15.534,4.761-22.774
		c3.178-7.228,7.681-13.541,13.509-18.927c5.817-5.375,12.787-9.706,20.91-12.97S262.8,0,272.69,0
		c11.289,0,21.137,1.637,29.518,4.901s15.395,7.767,21.049,13.498c5.646,5.742,9.879,12.442,12.713,20.123
		c2.812,7.682,4.233,16.02,4.233,25.015c0,7.239-1.023,13.768-3.049,19.596s-4.858,11.215-8.468,16.148
		c-3.619,4.944-7.949,9.534-12.97,13.768c-5.031,4.233-10.558,8.478-16.547,12.712c-5.3,3.705-10.772,7.454-16.418,11.246
		c-5.655,3.803-10.772,7.466-15.362,10.988c-4.589,3.534-8.381,6.884-11.376,10.062c-3.005,3.179-4.503,6.087-4.503,8.737h92.656
		v34.419H205.177z"/>
</g>
</svg>
