<?xml version="1.0" encoding="utf-8"?>
<!-- Generator: Adobe Illustrator 17.0.2, SVG Export Plug-In . SVG Version: 6.00 Build 0)  -->
<!DOCTYPE svg PUBLIC "-//W3C//DTD SVG 1.1//EN" "http://www.w3.org/Graphics/SVG/1.1/DTD/svg11.dtd">
<svg version="1.1" id="Calque_1" xmlns="http://www.w3.org/2000/svg" xmlns:xlink="http://www.w3.org/1999/xlink" x="0px" y="0px"
	 width="31.336px" height="37.699px" viewBox="0 0.001 31.336 37.699" enable-background="new 0 0.001 31.336 37.699"
	 xml:space="preserve">
<path d="M25.262,2.457c1.656,1.123,3.106,2.819,4.352,5.082c1.129,2.048,1.703,3.902,1.721,5.564c0.02,1.66-0.35,3.148-1.104,4.458
	c-0.76,1.313-1.828,2.43-3.207,3.363c-1.377,0.927-2.924,1.673-4.639,2.236c-0.166,0.054-0.432,0.141-0.793,0.26
	c-0.365,0.121-0.748,0.236-1.154,0.35c-0.398,0.116-0.805,0.22-1.199,0.315c-0.396,0.091-0.686,0.15-0.865,0.176l6.18,11.213
	L17.775,37.7L0,5.446C1.248,4.744,2.666,4.051,4.258,3.36c1.588-0.685,3.207-1.3,4.856-1.841c1.715-0.563,3.512-0.996,5.389-1.301
	c1.879-0.305,3.728-0.289,5.551,0.047C21.873,0.603,23.611,1.332,25.262,2.457z M23.434,12.921c0.004-0.881-0.33-1.925-0.996-3.135
	c-0.564-1.022-1.23-1.802-1.992-2.344c-0.762-0.536-1.58-0.901-2.443-1.092c-0.867-0.19-1.756-0.229-2.666-0.114
	c-0.908,0.116-1.793,0.316-2.65,0.599c-0.66,0.216-1.272,0.442-1.844,0.684C10.275,7.76,9.824,7.973,9.498,8.153l5.82,10.564
	c0.152-0.009,0.365-0.045,0.646-0.098c0.283-0.058,0.578-0.125,0.879-0.209c0.307-0.081,0.601-0.168,0.883-0.26
	c0.275-0.091,0.484-0.16,0.617-0.204c0.893-0.292,1.73-0.662,2.518-1.103c0.787-0.441,1.414-0.984,1.879-1.631
	C23.199,14.567,23.43,13.803,23.434,12.921"/>
</svg>
